<?xml version="1.0" standalone="no"?>
<!DOCTYPE svg PUBLIC "-//W3C//DTD SVG 20010904//EN"
 "http://www.w3.org/TR/2001/REC-SVG-20010904/DTD/svg10.dtd">
<svg version="1.0" xmlns="http://www.w3.org/2000/svg"
 width="1024.000000pt" height="1024.000000pt" viewBox="0 0 1024.000000 1024.000000"
 preserveAspectRatio="xMidYMid meet">

<g transform="translate(0.000000,1024.000000) scale(0.100000,-0.100000)"
fill="#000000" stroke="none">
<path d="M4730 8615 c-1084 -57 -1368 -86 -1715 -175 -172 -44 -297 -90 -423
-155 -231 -119 -446 -344 -573 -597 -57 -114 -135 -350 -170 -517 -61 -292
-134 -1092 -152 -1671 -4 -109 9 -739 18 -910 66 -1252 149 -1681 395 -2048
211 -316 522 -510 995 -621 834 -196 2795 -214 3850 -35 129 22 386 87 484
123 404 150 699 442 856 851 140 361 202 872 247 2030 17 447 -5 987 -67 1670
-31 334 -56 504 -106 720 -42 181 -73 269 -145 415 -76 155 -135 238 -263 365
-202 201 -425 314 -806 405 -264 64 -654 102 -1425 139 -459 23 -722 25 -1000
11z m860 -100 c413 -11 1292 -84 1316 -108 4 -4 2 -19 -5 -34 -29 -64 -337
-596 -348 -600 -12 -5 -334 179 -588 337 -77 47 -258 158 -402 245 -145 88
-263 163 -263 167 0 4 19 6 43 3 23 -2 134 -7 247 -10z m-660 1 c0 -6 -490
-314 -615 -386 -16 -9 -73 -43 -125 -76 -52 -32 -184 -111 -293 -175 l-197
-118 -22 42 c-11 23 -85 150 -163 282 -190 323 -185 314 -176 319 21 13 484
59 816 81 351 23 775 41 775 31z m264 -55 c45 -26 209 -126 366 -221 157 -95
419 -254 583 -353 164 -99 294 -184 290 -188 -8 -8 -328 -142 -783 -329 -151
-62 -306 -127 -345 -145 -103 -47 -142 -58 -190 -53 -39 5 -231 79 -675 263
-102 42 -287 117 -412 168 -173 70 -224 95 -215 104 7 6 125 80 262 163 138
84 297 182 355 217 192 117 608 380 636 402 15 11 31 21 37 21 6 0 47 -22 91
-49z m-1940 -133 c110 -174 315 -543 303 -546 -15 -3 -167 29 -702 148 -463
103 -445 98 -445 110 0 17 154 119 255 170 129 64 238 104 400 145 72 19 135
34 140 34 6 1 28 -27 49 -61z m3908 36 c248 -62 468 -157 610 -262 43 -31 78
-60 78 -63 0 -3 -33 -13 -72 -22 -40 -9 -212 -47 -383 -85 -473 -106 -689
-152 -702 -152 -7 0 18 53 56 118 37 64 109 191 161 282 121 214 118 210 136
210 8 0 61 -12 116 -26z m718 -436 c0 -7 -12 -62 -25 -123 -14 -60 -57 -258
-95 -440 -78 -373 -146 -674 -154 -682 -3 -3 -85 15 -183 41 -98 26 -275 69
-393 94 l-215 47 -13 60 c-8 33 -49 205 -93 382 -71 291 -84 352 -76 353 1 1
279 63 617 139 338 77 618 139 623 140 4 1 7 -5 7 -11z m-5240 -52 c113 -24
327 -72 475 -106 149 -33 320 -72 382 -84 61 -13 116 -27 122 -30 7 -5 7 -15
0 -34 -16 -40 -126 -476 -159 -625 -16 -71 -30 -130 -32 -131 -2 -1 -61 -15
-133 -31 -71 -15 -249 -56 -394 -91 -146 -35 -266 -63 -267 -61 -1 1 -16 70
-33 152 -16 83 -55 265 -85 406 -30 141 -73 346 -95 456 -23 111 -44 209 -48
218 -8 22 -16 23 267 -39z m-317 -196 c25 -113 59 -275 77 -360 17 -85 52
-256 79 -380 27 -124 47 -227 45 -229 -3 -3 -125 59 -499 254 -49 26 -93 50
-97 53 -14 15 54 313 107 465 47 135 217 429 237 409 3 -4 26 -99 51 -212z
m5710 154 c20 -27 62 -96 91 -154 81 -158 129 -303 176 -537 l20 -98 -29 -24
c-31 -26 -547 -311 -563 -311 -10 0 -4 42 22 150 20 80 210 956 218 1003 6 37
19 31 65 -29z m-3993 -345 c157 -64 362 -148 455 -187 376 -154 425 -175 425
-183 0 -5 -4 -9 -9 -9 -5 0 -141 -22 -302 -49 -162 -27 -400 -66 -529 -86
-129 -20 -301 -48 -381 -61 -81 -13 -150 -24 -154 -24 -3 0 -4 15 0 33 20 94
119 496 145 587 16 58 30 106 30 107 0 4 29 -8 320 -128z m2514 31 c25 -83 95
-367 134 -542 18 -79 18 -88 4 -88 -9 0 -120 18 -246 39 -127 22 -355 58 -506
81 -273 41 -633 100 -637 104 -3 3 119 54 537 226 52 21 226 92 385 158 160
66 293 117 297 114 3 -4 18 -45 32 -92z m-1329 -494 c199 -38 528 -90 1035
-166 292 -43 456 -72 466 -83 6 -7 35 -172 63 -367 29 -195 65 -443 81 -550
57 -378 90 -633 90 -699 0 -37 -9 -117 -20 -177 -25 -143 -165 -1069 -188
-1249 l-18 -140 -44 -12 c-35 -9 -550 -91 -810 -128 -62 -9 -572 -93 -661
-110 -77 -14 -94 -14 -157 0 -101 21 -393 69 -632 104 -353 52 -905 142 -912
149 -3 4 -16 88 -28 187 -12 99 -30 232 -40 295 -10 63 -21 138 -25 165 -9 74
-81 533 -115 735 l-29 176 30 214 c16 118 38 276 50 350 11 74 31 209 45 300
35 237 91 625 99 693 5 49 10 60 30 67 28 11 373 68 1020 170 143 23 325 54
405 69 80 15 154 27 165 25 11 -2 56 -10 100 -18z m3124 -198 c22 -168 59
-649 86 -1118 18 -313 18 -317 6 -305 -14 14 -668 1103 -708 1177 -4 8 46 37
367 213 124 67 228 121 231 119 4 -2 12 -41 18 -86z m-6332 29 c54 -30 187
-100 295 -156 109 -56 200 -106 203 -110 2 -5 -26 -58 -63 -119 -37 -62 -87
-144 -111 -184 -428 -709 -520 -859 -538 -878 -13 -13 -14 1 -9 105 23 437 59
942 86 1190 11 99 20 186 20 193 0 20 14 15 117 -41z m1393 -116 c0 -24 -65
-472 -90 -620 -18 -111 -91 -622 -106 -744 -4 -37 -10 -55 -16 -49 -5 5 -49
108 -98 228 -48 121 -129 320 -180 444 -110 268 -201 489 -223 546 l-16 42
327 80 c434 107 402 102 402 73z m3810 -68 c162 -41 305 -77 318 -80 12 -3 22
-11 22 -17 0 -7 -47 -125 -104 -262 -57 -138 -168 -409 -245 -604 -78 -194
-146 -360 -151 -369 -11 -20 -13 -9 -35 154 -9 66 -32 215 -50 330 -19 116
-43 273 -54 350 -11 77 -34 232 -51 345 -16 113 -30 213 -30 223 0 25 18 22
380 -70z m578 -394 c74 -123 203 -339 287 -479 84 -140 191 -319 238 -396 47
-78 95 -161 107 -184 21 -42 21 -45 5 -79 -9 -20 -52 -92 -95 -161 -42 -69
-111 -181 -152 -250 -163 -271 -492 -817 -512 -847 -12 -18 -24 -33 -27 -33
-3 0 -23 39 -44 87 -40 92 -65 156 -280 688 -73 182 -154 377 -179 434 -25 57
-46 110 -46 118 0 7 11 35 24 61 13 27 94 223 179 437 86 215 183 455 217 535
33 80 75 180 93 223 18 42 36 76 41 74 5 -2 70 -104 144 -228z m-5141 91 c49
-112 105 -247 338 -820 134 -329 145 -358 145 -377 0 -10 -32 -95 -71 -189
-39 -93 -126 -306 -194 -474 -136 -336 -250 -613 -267 -643 -8 -16 -12 -17
-23 -6 -7 8 -108 174 -225 369 -117 195 -293 487 -391 647 -99 161 -179 297
-179 302 0 9 123 214 498 831 69 113 164 269 211 348 47 78 89 141 94 139 4
-1 33 -59 64 -127z m606 -1720 c99 -638 147 -969 147 -1021 0 -14 -7 -19 -25
-19 -13 0 -161 33 -327 74 -167 41 -317 77 -335 81 l-31 6 18 52 c22 64 59
158 234 592 200 493 248 607 257 598 4 -4 32 -168 62 -363z m3837 260 c18 -41
115 -280 215 -530 101 -250 195 -481 209 -513 32 -72 33 -95 4 -102 -13 -3
-124 -30 -248 -59 -270 -65 -430 -99 -438 -91 -8 8 8 128 88 665 41 280 111
703 117 713 8 13 16 -1 53 -83z m1346 -82 c-34 -672 -86 -1331 -106 -1352 -12
-12 -64 11 -359 157 -134 67 -245 127 -248 134 -3 7 47 97 110 200 63 103 138
229 167 278 30 50 126 209 215 355 88 146 173 286 188 313 15 26 30 47 34 47
3 0 3 -60 -1 -132z m-6561 -8 c238 -381 619 -1023 619 -1043 1 -22 -77 -66
-254 -144 -69 -31 -173 -80 -232 -109 -59 -30 -109 -50 -111 -46 -5 7 -16 107
-37 322 -36 371 -82 1166 -66 1149 2 -2 38 -60 81 -129z m1105 -1220 c140 -32
291 -66 335 -75 44 -10 87 -21 95 -25 10 -5 24 -50 39 -122 13 -62 55 -232 93
-376 37 -145 68 -267 68 -271 0 -4 -69 -23 -152 -41 -84 -18 -272 -59 -418
-92 -568 -127 -655 -146 -660 -141 -8 7 201 1029 241 1177 l10 38 47 -7 c26
-3 162 -33 302 -65z m4631 35 c33 -150 115 -536 144 -685 20 -102 52 -254 71
-339 19 -84 33 -156 30 -158 -3 -3 -146 27 -318 67 -172 40 -371 85 -443 100
-383 82 -480 103 -483 105 -1 1 38 165 88 363 49 199 90 367 90 374 1 30 26
40 220 82 113 25 270 61 350 80 234 56 241 56 251 11z m-5091 10 c0 -2 -18
-82 -40 -177 -33 -148 -175 -837 -196 -950 -3 -21 -9 -38 -13 -38 -11 0 -86
102 -128 175 -105 180 -222 536 -223 673 l0 43 123 59 c244 116 462 218 470
219 4 1 7 -1 7 -4z m5415 -109 c110 -54 239 -116 288 -138 69 -33 87 -45 87
-62 0 -65 -72 -329 -131 -482 -57 -147 -198 -370 -219 -347 -10 10 -30 94 -79
333 -23 107 -65 312 -95 455 -64 307 -71 349 -60 342 5 -2 99 -48 209 -101z
m-3520 -190 c50 -7 173 -26 275 -41 102 -15 192 -29 200 -32 27 -9 -284 -152
-660 -303 -80 -33 -227 -93 -328 -134 -210 -86 -187 -91 -228 49 -31 107 -144
567 -144 586 0 12 71 4 398 -48 218 -34 438 -69 487 -77z m2275 130 c0 -26
-165 -690 -176 -707 -6 -10 -249 88 -759 306 -360 154 -422 184 -405 195 8 5
26 10 41 10 14 0 99 12 190 26 90 14 202 32 249 39 47 7 146 23 220 34 136 22
619 98 633 100 4 1 7 -1 7 -3z m-1460 -285 c248 -108 494 -213 815 -348 204
-85 373 -158 377 -162 7 -6 -123 -89 -732 -466 -346 -214 -413 -254 -502 -308
l-77 -46 -173 108 c-95 59 -267 167 -383 239 -115 72 -335 207 -487 299 l-277
168 42 18 c23 11 143 61 267 112 124 51 302 125 395 165 499 212 592 248 635
249 19 0 64 -12 100 -28z m-1733 -703 c-36 -68 -112 -206 -169 -308 l-105
-185 -34 2 c-56 3 -275 70 -418 128 -133 54 -269 131 -339 192 -42 36 -45 33
68 58 88 19 556 125 815 184 99 23 194 45 210 50 17 4 32 7 34 5 2 -2 -26 -58
-62 -126z m462 -32 c221 -132 352 -212 621 -376 30 -19 96 -58 145 -89 50 -30
117 -71 150 -93 l60 -38 -145 0 c-170 1 -586 22 -885 45 -188 15 -562 59 -571
68 -3 3 -3 4 73 142 28 50 78 142 113 205 114 211 161 290 172 290 6 0 126
-69 267 -154z m2711 -61 c45 -82 102 -184 125 -225 54 -95 95 -177 95 -188 0
-8 -81 -20 -385 -57 -232 -28 -1077 -74 -1169 -63 -26 3 -13 13 120 94 82 50
217 133 299 184 278 172 670 407 729 439 l59 31 22 -32 c12 -18 59 -100 105
-183z m465 115 c449 -100 652 -148 674 -160 10 -6 -8 -24 -67 -68 -95 -70
-227 -139 -350 -182 -100 -36 -338 -100 -367 -100 -24 1 -44 33 -177 280 -189
349 -182 334 -145 325 12 -2 207 -46 432 -95z"/>
</g>
</svg>
