<?xml version="1.0" standalone="no"?>
<!DOCTYPE svg PUBLIC "-//W3C//DTD SVG 20010904//EN"
 "http://www.w3.org/TR/2001/REC-SVG-20010904/DTD/svg10.dtd">
<svg version="1.0" xmlns="http://www.w3.org/2000/svg"
 width="842.000000pt" height="1264.000000pt" viewBox="0 0 842.000000 1264.000000"
 preserveAspectRatio="xMidYMid meet">

<g transform="translate(0.000000,1264.000000) scale(0.100000,-0.100000)"
fill="#000000" stroke="none">
<path d="M2490 10224 c-237 -15 -469 -68 -611 -139 -124 -62 -205 -123 -320
-242 -205 -212 -244 -298 -271 -598 -15 -164 -15 -198 -6 -830 10 -602 17
-1620 23 -3450 5 -1438 7 -1555 26 -1676 16 -101 59 -206 80 -193 17 10 60
-37 53 -59 -8 -26 34 -71 53 -55 19 16 56 -19 49 -47 -4 -15 6 -28 45 -55 105
-73 139 -101 139 -114 0 -20 81 -106 100 -106 17 0 35 -25 32 -42 -1 -5 5 -8
13 -8 25 0 66 -31 76 -57 5 -14 25 -31 46 -40 35 -14 230 -15 2209 -5 1876 9
2175 12 2206 25 37 16 83 70 73 87 -3 5 2 10 11 10 16 0 92 73 197 189 25 28
49 51 54 51 22 0 197 150 215 184 8 16 3 14 -21 -8 -23 -22 -31 -25 -31 -14 0
17 106 118 125 118 6 0 20 24 31 52 18 52 19 82 15 1173 -5 1238 -5 1247 -15
2170 -9 880 -15 1909 -16 2489 l0 479 -57 51 c-52 48 -183 178 -456 458 -126
129 -134 133 -267 142 -81 6 -441 13 -1100 21 -228 3 -563 7 -745 10 -181 3
-600 10 -930 15 -330 5 -683 11 -785 13 -102 3 -210 3 -240 1z m3789 -206
c-19 -24 -55 -65 -80 -93 -26 -27 -65 -72 -87 -100 -21 -27 -51 -63 -66 -78
-14 -15 -26 -32 -26 -38 0 -5 -6 -9 -14 -9 -8 0 -24 -19 -35 -42 -28 -56 -40
-69 -80 -90 -31 -17 -131 -18 -1695 -18 l-1662 0 -24 22 c-13 13 -31 23 -40
23 -9 0 -14 8 -13 22 2 14 -17 44 -55 86 -108 122 -149 172 -175 213 -14 23
-46 62 -71 88 -25 25 -46 48 -46 51 0 3 945 5 2101 5 l2101 0 -33 -42z m-4235
0 c19 -27 81 -100 116 -137 14 -14 31 -38 39 -53 8 -16 45 -60 83 -98 37 -39
68 -73 68 -75 0 -11 63 -95 71 -95 18 0 9 -47 -13 -68 -13 -11 -28 -26 -35
-32 -65 -62 -100 -98 -173 -179 -126 -141 -207 -221 -223 -221 -8 0 -21 7 -28
17 -15 17 -267 232 -379 323 -76 61 -98 93 -78 115 47 51 294 305 316 325 15
14 65 64 112 113 46 48 90 87 96 87 7 0 20 -10 28 -22z m4649 -246 c147 -147
267 -276 267 -285 0 -10 -10 -21 -22 -26 -13 -5 -32 -18 -42 -30 -11 -11 -23
-21 -28 -21 -7 0 -190 -149 -208 -170 -3 -3 -36 -30 -75 -59 -38 -30 -82 -67
-97 -82 -15 -16 -33 -29 -41 -29 -7 0 -33 20 -58 45 -24 25 -77 78 -118 118
-41 40 -97 97 -125 127 -28 30 -79 82 -114 116 -48 47 -61 65 -56 80 4 10 48
64 99 119 50 55 104 118 120 140 16 22 43 54 59 70 16 17 51 58 78 93 34 42
57 62 72 62 15 0 102 -81 289 -268z m-3730 -239 c-67 -2 -179 -2 -250 0 -70 1
-15 3 122 3 138 0 195 -2 128 -3z m490 0 c-46 -2 -120 -2 -165 0 -46 1 -9 3
82 3 91 0 128 -2 83 -3z m2331 -90 c-21 -27 -59 -71 -84 -99 -25 -28 -79 -93
-120 -144 -41 -51 -97 -119 -125 -150 -58 -67 -95 -113 -95 -120 0 -10 -2315
1 -2335 11 -11 5 -31 26 -45 47 -33 50 -93 124 -162 201 -32 35 -58 70 -58 77
0 7 -12 22 -26 33 -35 27 -154 167 -154 181 0 7 511 10 1621 10 l1620 0 -37
-47z m377 -194 c96 -94 184 -178 197 -186 13 -9 22 -26 22 -40 0 -27 -20 -48
-107 -114 -29 -22 -53 -44 -53 -49 0 -6 -6 -10 -14 -10 -8 0 -30 -18 -49 -40
-19 -22 -56 -55 -83 -73 -27 -17 -79 -62 -117 -99 -37 -38 -70 -68 -73 -68 -2
0 -14 -9 -26 -20 -32 -30 -49 -24 -93 32 -22 28 -67 72 -99 97 -33 26 -62 53
-64 61 -3 8 -40 47 -83 88 -44 41 -79 78 -79 83 0 8 36 52 145 174 24 28 58
71 75 98 18 26 35 47 40 47 4 0 20 19 35 41 15 23 46 61 69 85 22 24 56 61 75
83 l33 41 38 -30 c20 -16 115 -106 211 -201z m-3636 179 c15 -18 65 -73 110
-123 45 -49 95 -106 111 -125 16 -19 35 -41 42 -49 7 -7 40 -50 74 -95 34 -44
73 -91 86 -104 13 -12 22 -26 20 -31 -2 -5 -84 -92 -184 -195 l-180 -186 -25
17 c-13 9 -30 25 -37 35 -7 10 -18 18 -25 18 -6 0 -41 29 -77 64 -36 35 -116
104 -178 154 -146 116 -212 179 -212 199 0 9 56 73 124 142 68 69 163 168 211
219 48 50 94 92 101 92 7 0 24 -15 39 -32z m-1044 -54 c13 -14 62 -58 109 -97
47 -40 137 -116 200 -171 63 -54 125 -102 137 -107 22 -8 22 -13 25 -201 2
-106 3 -1300 3 -2654 0 -2130 -2 -2463 -14 -2478 -8 -10 -33 -26 -55 -37 -23
-10 -68 -46 -100 -79 -33 -33 -65 -60 -72 -60 -6 0 -31 -19 -55 -43 -24 -23
-60 -55 -80 -69 -19 -15 -54 -46 -78 -68 -23 -22 -49 -40 -57 -40 -13 0 -14
223 -10 1883 3 1035 5 2414 5 3065 1 650 5 1182 9 1182 5 0 19 -12 33 -26z
m5503 -3036 c7 -2848 6 -3058 -9 -3058 -10 0 -52 30 -94 68 -43 37 -102 87
-131 112 -30 25 -75 63 -100 85 -25 23 -68 60 -96 82 -35 29 -54 54 -62 81 -9
30 -12 684 -12 2665 l0 2626 23 12 c41 23 270 205 357 285 57 52 115 103 116
101 1 -1 5 -1378 8 -3059z m-4912 2536 c29 -25 62 -53 73 -63 11 -9 52 -43 90
-75 39 -33 95 -82 125 -110 30 -28 81 -71 113 -95 31 -24 57 -47 57 -52 0 -4
9 -11 20 -14 20 -6 20 -15 20 -2126 0 -1288 -4 -2119 -9 -2119 -5 0 -23 -12
-38 -28 -16 -15 -58 -49 -94 -77 -35 -27 -86 -71 -114 -97 -27 -26 -95 -84
-150 -129 -55 -46 -114 -99 -132 -118 l-32 -36 -1 2593 c0 1662 3 2592 10
2592 5 0 33 -21 62 -46z m4347 -1556 c0 -882 -3 -2043 -6 -2580 l-6 -977 -52
44 c-29 25 -54 45 -56 45 -3 0 -31 25 -64 57 -65 61 -227 199 -323 276 -53 42
-62 53 -67 90 -3 23 -4 373 -1 777 2 404 5 1339 5 2078 1 1082 3 1342 14 1342
7 0 24 12 39 28 14 15 40 38 58 52 17 14 40 32 50 40 10 8 35 29 56 45 21 17
83 71 138 121 56 50 109 93 119 97 9 4 17 13 17 22 0 13 47 41 73 44 4 1 7
-720 6 -1601z m-1119 1534 c0 -13 -59 -103 -100 -152 -20 -25 -46 -63 -58 -85
-11 -22 -29 -49 -41 -59 -12 -11 -21 -25 -21 -32 0 -8 -15 -20 -34 -28 -29
-12 -166 -15 -838 -17 -745 -2 -806 -1 -845 16 -24 9 -44 20 -44 24 -1 3 -3
16 -4 29 -2 23 -27 57 -58 81 -10 7 -27 32 -37 55 -9 22 -38 66 -64 97 -25 31
-46 59 -46 62 0 4 222 8 493 9 1366 8 1697 8 1697 0z m-2252 -40 c10 -21 47
-76 83 -121 35 -45 73 -95 85 -111 12 -16 33 -43 48 -60 14 -17 26 -39 26 -48
0 -9 -56 -75 -124 -146 -111 -115 -127 -128 -150 -122 -14 3 -26 11 -26 16 0
6 -5 10 -11 10 -6 0 -31 18 -56 40 -25 22 -50 40 -56 40 -5 0 -25 14 -44 30
-18 17 -38 30 -44 30 -16 0 -119 91 -119 105 0 15 88 108 117 124 13 6 30 25
38 41 9 17 22 30 29 30 8 0 28 17 46 38 71 82 125 141 132 141 4 1 16 -16 26
-37z m2499 -122 c81 -83 163 -160 181 -171 17 -11 32 -28 32 -38 0 -28 -104
-114 -208 -171 -15 -8 -51 -34 -80 -58 -68 -53 -103 -56 -140 -9 -15 17 -68
73 -119 123 -51 50 -93 94 -93 97 0 14 96 153 170 247 19 25 48 64 64 88 16
23 32 42 37 42 4 0 75 -68 156 -150z m-478 -275 c15 -7 36 -26 46 -41 10 -15
49 -57 88 -93 39 -36 90 -85 114 -107 l45 -42 11 -1198 c16 -1605 16 -2267 0
-2320 -9 -27 -36 -65 -83 -114 -38 -40 -70 -79 -70 -86 0 -8 -18 -25 -39 -38
-22 -14 -51 -41 -66 -59 -16 -23 -41 -39 -68 -47 -31 -10 -245 -14 -855 -17
l-813 -5 -117 116 c-64 64 -130 129 -145 144 -16 15 -33 37 -38 50 -5 14 -9
738 -9 1795 l0 1772 95 100 c52 55 95 103 95 107 0 4 17 26 39 48 l38 39 164
3 c90 2 474 4 852 6 583 2 692 0 716 -13z m-2268 -143 c68 -51 142 -105 165
-120 32 -21 43 -35 48 -62 3 -19 6 -810 6 -1758 0 -1821 1 -1767 -42 -1785
-15 -6 -173 -127 -203 -155 -22 -21 -129 -92 -138 -92 -3 0 -3 917 -1 2038 3
1120 5 2041 5 2046 -1 10 -7 14 160 -112z m2989 -1927 c0 -1173 -4 -2045 -9
-2045 -8 0 -157 107 -188 135 -6 5 -41 30 -76 55 -36 25 -71 56 -79 70 -11 20
-14 345 -16 1797 l-3 1772 23 12 c12 6 31 21 42 31 12 11 31 27 44 35 12 9 22
20 22 27 0 6 18 20 40 30 22 11 40 23 40 27 0 4 9 11 20 14 11 4 31 16 43 28
30 30 69 56 85 56 9 1 12 -414 12 -2044z m-287 -1930 c62 -46 125 -96 141
-110 16 -14 49 -38 73 -53 24 -15 43 -32 43 -38 0 -11 -196 -214 -270 -279
-25 -22 -55 -53 -68 -70 l-22 -30 -36 40 c-20 22 -57 72 -82 110 -69 105 -145
209 -161 221 -12 9 -10 14 12 29 14 9 29 24 32 33 6 19 209 229 223 232 2 0
53 -38 115 -85z m-2436 53 c13 -12 23 -26 23 -31 0 -5 43 -52 95 -105 52 -52
95 -103 95 -113 0 -10 -15 -40 -32 -66 -34 -51 -36 -52 -94 -123 -20 -25 -50
-69 -66 -98 -26 -45 -53 -72 -72 -72 -3 0 -88 81 -188 180 -152 149 -179 180
-163 186 10 4 26 14 34 21 9 7 72 55 141 105 69 51 134 102 145 114 26 29 53
30 82 2z m1974 -268 c10 -6 19 -17 19 -24 0 -7 11 -23 24 -36 14 -12 34 -41
46 -64 21 -42 39 -68 123 -175 l48 -61 -484 0 c-266 0 -762 -3 -1102 -7 l-618
-6 19 29 c10 16 30 43 44 59 14 17 34 44 45 59 11 16 29 40 41 55 11 14 39 54
62 88 23 34 48 65 54 70 30 19 1644 31 1679 13z m934 -175 c65 -55 144 -123
174 -151 43 -39 210 -177 229 -190 9 -6 -25 -46 -174 -201 -89 -93 -189 -197
-223 -233 l-62 -65 -22 28 c-12 15 -47 56 -77 91 -137 157 -227 268 -274 336
-13 19 -33 44 -45 54 -11 11 -21 25 -21 31 0 7 -10 19 -22 27 -20 13 -21 18
-10 42 6 14 17 26 24 26 7 0 87 77 176 170 163 169 164 170 186 153 12 -10 76
-63 141 -118z m-3236 7 c64 -65 144 -147 177 -182 l62 -65 -30 -35 c-16 -19
-62 -78 -101 -130 -40 -52 -124 -156 -187 -230 -63 -74 -120 -144 -125 -155
-6 -11 -21 -21 -34 -23 -18 -3 -44 19 -126 105 -128 134 -120 125 -180 185
-27 28 -74 75 -104 105 l-55 55 65 58 c35 32 118 104 184 160 66 56 152 132
190 169 77 74 112 101 133 101 8 0 66 -53 131 -118z m2574 -261 c29 -1 39 -6
46 -23 5 -13 19 -32 31 -43 12 -11 50 -54 83 -95 34 -41 99 -118 145 -170 46
-52 86 -99 90 -105 58 -81 86 -115 104 -128 21 -15 12 -16 -132 -17 -132 0
-2769 -1 -3007 0 -46 0 -83 4 -83 9 0 5 20 29 45 53 26 23 57 62 71 85 13 23
30 46 37 50 7 4 20 19 29 33 8 14 61 78 117 143 55 64 101 120 101 123 0 3 14
23 30 44 24 31 39 39 68 42 33 3 2135 2 2225 -1z m1223 -238 c104 -81 202
-164 222 -185 9 -10 20 -18 25 -18 10 0 160 -137 165 -150 2 -5 -62 -74 -142
-154 -80 -80 -146 -150 -146 -155 0 -5 -35 -40 -77 -78 -43 -37 -89 -79 -103
-93 -14 -14 -40 -37 -58 -52 l-33 -27 -25 22 c-14 12 -42 44 -62 72 -21 27
-56 70 -79 94 -24 25 -43 50 -43 57 0 14 -47 72 -131 161 -83 88 -83 98 -12
170 32 32 80 86 108 119 27 32 88 97 135 144 47 47 98 102 114 123 25 34 30
37 46 25 9 -7 53 -41 96 -75z m-4523 50 c45 -30 76 -61 77 -78 0 -6 29 -37 65
-70 154 -143 251 -243 269 -277 l18 -37 -83 -108 c-46 -59 -86 -110 -89 -113
-6 -5 -48 -51 -142 -159 -21 -23 -38 -46 -38 -50 0 -4 -9 -17 -20 -29 -31 -33
-73 -29 -102 9 -24 33 -325 339 -368 375 -33 27 -130 130 -130 138 0 11 163
154 275 241 36 28 100 81 185 154 19 17 36 31 38 31 1 0 21 -12 45 -27z m3859
-453 c23 -34 85 -110 139 -170 36 -41 72 -86 79 -100 17 -33 61 -88 138 -171
35 -38 60 -74 57 -79 -4 -7 -728 -10 -2081 -10 -1760 0 -2074 2 -2074 14 0 7
40 61 88 119 49 57 95 112 103 121 8 9 23 27 35 39 11 12 29 36 39 52 45 74
119 164 144 177 23 11 319 13 1679 13 907 0 1652 -2 1654 -5z"/>
</g>
</svg>
