<?xml version="1.0" standalone="no"?>
<!DOCTYPE svg PUBLIC "-//W3C//DTD SVG 20010904//EN"
 "http://www.w3.org/TR/2001/REC-SVG-20010904/DTD/svg10.dtd">
<svg version="1.0" xmlns="http://www.w3.org/2000/svg"
 width="1024.000000pt" height="1024.000000pt" viewBox="0 0 1024.000000 1024.000000"
 preserveAspectRatio="xMidYMid meet">

<g transform="translate(0.000000,1024.000000) scale(0.100000,-0.100000)"
fill="#000000" stroke="none">
<path d="M2674 9580 c-304 -25 -544 -88 -790 -205 -220 -105 -386 -226 -575
-421 -274 -284 -446 -577 -588 -1004 -161 -481 -200 -973 -121 -1520 68 -476
207 -891 485 -1455 299 -605 666 -1145 1190 -1750 183 -211 206 -236 484 -523
558 -578 1169 -1102 2016 -1732 99 -73 221 -164 271 -202 49 -37 97 -68 105
-68 11 0 269 193 645 483 629 485 1196 986 1719 1518 949 967 1648 2044 1973
3039 91 278 164 610 187 849 17 170 20 575 5 688 -25 194 -33 245 -57 353
-171 794 -611 1417 -1214 1720 -187 95 -419 166 -653 201 -189 29 -515 31
-696 6 -683 -97 -1320 -406 -1797 -870 l-101 -99 -79 77 c-87 86 -284 244
-413 333 -430 297 -948 500 -1430 561 -185 24 -427 33 -566 21z m441 -41 c50
-6 93 -14 98 -18 4 -4 6 -258 5 -564 l-3 -557 -50 33 c-27 18 -142 96 -255
172 -113 76 -308 208 -435 293 -455 307 -555 375 -586 401 l-32 27 89 41 c205
95 416 147 704 176 84 9 383 6 465 -4z m4100 -11 c3 -7 4 -273 3 -591 l-3
-578 -342 273 c-187 150 -434 347 -547 436 -113 90 -204 167 -201 172 8 13
217 99 345 142 217 73 450 126 647 147 43 5 82 9 86 10 4 0 10 -5 12 -11z
m435 2 c310 -28 622 -129 884 -286 32 -19 111 38 -809 -586 -247 -167 -456
-308 -462 -312 -10 -6 -13 116 -13 593 l0 601 143 0 c78 0 194 -5 257 -10z
m-4221 -36 c69 -14 151 -32 181 -40 176 -49 427 -142 553 -206 50 -25 57 -31
46 -44 -7 -9 -110 -97 -228 -197 -515 -433 -713 -597 -722 -597 -5 0 -9 221
-9 555 l0 555 26 0 c15 0 83 -11 153 -26z m-1605 -296 c3 -57 10 -215 16 -353
12 -278 25 -578 40 -880 17 -358 17 -400 -2 -397 -9 1 -74 30 -145 63 -70 34
-238 112 -373 174 -135 62 -299 138 -365 170 -66 31 -137 64 -158 72 -46 19
-46 19 19 167 155 354 390 669 667 894 99 81 266 191 289 192 3 0 9 -46 12
-102z m85 49 c25 -19 109 -77 186 -129 77 -52 232 -157 345 -233 113 -77 333
-226 490 -331 l285 -191 3 -522 2 -522 -32 6 c-18 3 -181 28 -363 56 -748 113
-884 134 -890 141 -2 2 -11 161 -20 353 -8 193 -20 442 -25 555 -5 113 -14
324 -20 470 -5 146 -12 291 -16 323 -3 31 -3 57 1 57 4 0 28 -15 54 -33z
m4314 -135 c67 -54 313 -251 547 -437 234 -186 427 -340 429 -342 2 -1 2 -6
-2 -9 -3 -3 -300 -80 -659 -170 -854 -215 -1311 -331 -1375 -350 l-52 -15
-158 50 c-87 27 -223 70 -303 96 -145 47 -439 140 -685 216 -71 22 -213 67
-315 99 -102 32 -225 71 -274 87 -49 15 -91 33 -92 38 -1 6 181 162 404 348
224 186 444 370 489 409 64 54 87 68 103 63 11 -4 89 -48 173 -99 242 -146
462 -313 622 -471 41 -41 79 -75 84 -75 5 0 53 43 107 96 193 188 447 375 690
508 65 37 125 64 132 61 7 -3 68 -49 135 -103z m2357 -751 l0 -829 -27 -6
c-16 -3 -122 -21 -238 -41 -115 -20 -280 -49 -365 -65 -241 -45 -668 -120
-685 -120 -13 0 -15 60 -14 503 l1 502 156 104 c86 57 271 181 410 275 139 94
364 246 500 338 136 92 250 168 255 168 4 0 7 -373 7 -829z m135 757 c202
-159 403 -389 538 -613 105 -177 234 -470 215 -492 -6 -7 -14 -13 -18 -13 -5
0 -187 -96 -407 -214 -219 -118 -406 -218 -415 -221 -17 -7 -18 36 -18 802 0
445 3 813 7 816 3 4 11 3 17 -1 6 -5 43 -34 81 -64z m-4894 -953 c294 -91 559
-174 589 -185 30 -10 179 -58 330 -106 151 -48 278 -90 283 -94 8 -7 -159 -51
-1123 -296 -333 -85 -615 -157 -627 -160 l-23 -6 0 504 c0 278 3 508 7 512 4
3 12 5 19 2 6 -2 252 -79 545 -171z m3399 -376 c0 -269 -2 -489 -4 -489 -27 0
-666 147 -1576 363 -173 41 -342 81 -375 88 -33 6 -64 16 -68 20 -12 10 9 16
818 219 1203 303 1186 299 1198 293 4 -2 7 -224 7 -494z m-6385 225 c21 -8 89
-40 152 -70 63 -30 116 -54 118 -54 2 0 60 -27 130 -60 70 -33 128 -60 130
-60 1 0 61 -28 131 -61 71 -34 188 -88 259 -121 72 -33 134 -63 139 -68 8 -8
-13 -49 -219 -425 -48 -88 -166 -306 -263 -485 -96 -179 -185 -343 -197 -365
-59 -107 -234 -428 -312 -573 -25 -46 -49 -80 -53 -75 -4 4 -21 49 -38 98
-124 367 -176 617 -207 995 -23 275 -17 467 21 730 31 208 139 610 164 610 4
0 24 -7 45 -16z m8697 -157 c44 -144 80 -312 105 -492 14 -100 18 -194 18
-405 0 -279 -8 -377 -46 -605 -34 -206 -119 -535 -138 -535 -4 0 -18 19 -30
43 -122 227 -188 355 -725 1411 -96 187 -115 232 -104 242 7 7 63 38 123 70
61 31 153 80 205 109 52 29 178 96 280 150 102 54 199 106 215 116 53 33 57
28 97 -104z m-4364 -112 c157 -41 1576 -374 1924 -452 l127 -28 5 -50 c3 -27
8 -162 11 -300 6 -264 23 -731 29 -802 4 -46 -8 -69 -178 -363 -44 -74 -136
-234 -206 -355 -70 -121 -167 -287 -215 -370 -225 -385 -442 -771 -470 -834
-6 -15 -178 -135 -485 -340 -261 -174 -492 -327 -512 -339 l-37 -23 -53 40
c-29 22 -249 188 -488 368 l-434 328 -59 105 c-32 58 -86 157 -119 220 -33 63
-68 129 -78 145 -10 17 -41 75 -70 130 -29 55 -65 123 -80 150 -15 28 -49 91
-75 140 -26 50 -60 113 -75 140 -15 28 -47 86 -70 130 -23 44 -57 107 -75 140
-18 33 -67 125 -110 205 -43 80 -92 172 -110 205 -18 33 -58 107 -88 165 l-56
106 25 194 c14 107 43 350 64 539 21 188 40 345 42 347 2 1 172 46 378 98 206
52 465 118 575 146 110 28 324 83 475 122 151 39 307 78 345 88 88 23 75 23
143 5z m3280 -337 c-35 -40 -154 -174 -263 -298 -406 -459 -877 -980 -885
-980 -4 0 -11 102 -14 228 -5 192 -15 451 -30 824 -2 64 0 79 13 83 9 2 156
29 326 59 171 31 333 60 360 65 225 43 549 99 554 95 2 -2 -25 -36 -61 -76z
m322 -304 c366 -726 515 -1016 645 -1257 26 -49 43 -92 39 -97 -5 -4 -34 -17
-64 -28 -89 -32 -1042 -434 -1285 -542 -262 -116 -378 -161 -386 -153 -7 7
-71 168 -224 558 -34 88 -90 228 -124 312 -33 84 -61 160 -61 170 0 10 75 101
167 203 313 349 615 688 947 1063 76 86 141 157 145 157 3 0 94 -174 201 -386z
m-6649 160 c30 -33 103 -114 163 -180 61 -65 241 -263 401 -439 160 -176 315
-346 344 -378 40 -43 52 -63 48 -80 -3 -12 -41 -134 -84 -272 -44 -137 -129
-411 -189 -607 -60 -197 -114 -358 -120 -358 -15 0 -99 26 -494 156 -190 62
-514 167 -720 234 -607 197 -595 193 -592 211 1 9 35 77 75 150 41 74 93 170
117 214 23 44 46 85 50 90 4 6 103 188 220 405 117 217 236 438 265 490 29 52
68 124 87 160 141 261 184 340 205 378 l25 43 72 -78 c40 -43 97 -105 127
-139z m114 175 c768 -116 978 -149 982 -153 2 -2 -1 -35 -7 -74 -5 -39 -19
-151 -30 -249 -23 -208 -53 -466 -71 -610 -6 -57 -15 -103 -19 -103 -3 0 -40
37 -81 83 -82 92 -455 503 -528 582 -81 87 -345 377 -425 465 -42 46 -76 88
-76 92 0 4 12 5 28 3 15 -3 117 -19 227 -36z m908 -1341 c41 -75 84 -155 162
-303 32 -60 83 -155 113 -210 30 -55 90 -165 132 -245 75 -141 124 -232 180
-335 15 -27 51 -95 80 -150 29 -55 65 -122 80 -150 83 -154 111 -207 147 -275
22 -41 52 -96 67 -122 15 -27 24 -48 21 -48 -3 0 -71 31 -151 70 -81 38 -148
70 -150 70 -1 0 -127 61 -280 135 -152 74 -278 135 -279 135 -2 0 -123 58
-269 129 -178 87 -266 135 -266 145 0 9 38 141 85 293 47 153 102 330 121 393
115 374 165 530 170 530 1 0 18 -28 37 -62z m4210 -233 c30 -77 94 -241 142
-365 49 -124 112 -283 140 -355 29 -71 51 -133 48 -137 -2 -4 -52 -32 -111
-64 -59 -31 -172 -94 -252 -139 -197 -112 -636 -357 -855 -478 -99 -54 -190
-105 -202 -113 -13 -8 -23 -10 -23 -5 0 14 272 496 513 907 73 126 212 364
307 529 205 357 219 380 230 369 4 -5 33 -72 63 -149z m2067 -226 c-92 -274
-300 -719 -498 -1064 -115 -201 -344 -549 -503 -765 -196 -268 -665 -830 -690
-830 -5 0 -9 450 -9 1001 l0 1000 53 24 c91 40 772 331 1142 487 105 44 204
86 220 93 180 77 298 124 303 120 2 -2 -7 -31 -18 -66z m-8197 -250 c172 -55
377 -122 457 -148 80 -27 287 -94 460 -150 173 -56 367 -119 430 -140 l115
-38 3 -1036 c1 -570 -1 -1037 -6 -1037 -19 0 -210 207 -453 490 -392 457 -704
901 -986 1405 -93 165 -353 717 -353 748 0 13 23 7 333 -94z m6449 -2480 c-16
-13 -102 -18 -538 -33 -286 -9 -618 -21 -739 -26 -121 -6 -249 -10 -284 -10
l-64 0 6 58 c7 61 19 148 66 497 48 349 91 692 91 724 0 25 7 34 43 54 45 26
771 431 872 487 33 18 150 84 260 145 110 62 223 124 250 139 l50 26 3 -1022
c2 -991 2 -1023 -16 -1039z m-4716 1876 c119 -58 218 -105 219 -105 2 0 121
-58 266 -128 145 -71 366 -177 492 -237 209 -100 227 -110 227 -134 0 -14 9
-168 20 -341 42 -657 60 -956 60 -998 l0 -44 -497 6 c-274 4 -616 9 -760 12
l-263 6 0 1027 c0 565 3 1031 7 1034 3 4 8 7 9 7 1 0 100 -47 220 -105z m1667
-926 c455 -342 502 -379 502 -389 0 -9 -32 -35 -205 -167 -80 -60 -255 -194
-389 -297 -134 -103 -247 -183 -251 -179 -4 4 -14 136 -24 293 -9 157 -21 350
-26 430 -5 80 -14 226 -19 325 -6 99 -13 206 -17 239 -5 51 -3 58 11 53 8 -4
196 -142 418 -308z m1557 254 c0 -5 -11 -93 -25 -198 -25 -195 -38 -296 -99
-759 -20 -147 -36 -275 -36 -283 0 -9 -6 -13 -14 -10 -24 9 -806 597 -806 606
0 7 229 163 302 206 23 13 420 279 557 372 105 71 121 80 121 66z m-575 -992
c215 -160 391 -296 393 -301 2 -5 -51 -143 -117 -307 -170 -422 -378 -933
-449 -1103 -93 -222 -220 -528 -249 -597 -15 -35 -28 -61 -31 -59 -7 8 -93
201 -193 436 -55 129 -109 254 -120 277 -10 24 -19 45 -19 47 0 3 -13 33 -29
68 -16 35 -63 144 -106 243 -42 99 -83 194 -90 210 -7 17 -32 75 -55 130 -23
55 -47 114 -55 130 -7 17 -55 129 -105 250 -51 121 -94 223 -96 227 -2 4 78
69 178 144 101 76 226 171 278 211 52 40 169 129 259 198 l163 125 27 -19 c14
-11 202 -150 416 -310z m2005 -270 c0 -10 -542 -546 -693 -685 -101 -93 -109
-98 -130 -85 -29 17 -722 717 -717 723 3 2 160 9 350 16 190 7 498 18 685 25
443 16 505 17 505 6z m-3978 -77 c573 -6 587 -7 574 -25 -7 -11 -100 -112
-207 -227 -108 -114 -255 -272 -329 -352 -73 -80 -139 -145 -146 -145 -32 0
-804 742 -785 754 5 3 76 5 158 4 81 -2 412 -5 735 -9z m2769 -355 c203 -204
369 -374 369 -379 0 -25 -544 -479 -970 -811 -442 -344 -584 -451 -588 -440
-3 9 48 137 95 241 21 46 112 265 298 725 85 209 168 412 185 450 66 158 230
567 230 576 0 5 3 9 6 9 3 0 172 -167 375 -371z m-2032 76 c55 -132 136 -323
179 -425 145 -340 413 -965 422 -985 41 -88 130 -300 128 -306 -4 -9 -623 452
-822 611 -44 36 -93 74 -107 85 -122 91 -609 506 -609 518 0 11 35 53 114 137
33 36 178 190 320 343 143 153 262 274 267 270 4 -4 52 -116 108 -248z"/>
</g>
</svg>
