<svg version="1.1" id="Layer_1" xmlns="http://www.w3.org/2000/svg" xmlns:xlink="http://www.w3.org/1999/xlink" x="0px" y="0px"
	 width="100%" viewBox="0 0 1024 1024" enable-background="new 0 0 1024 1024" xml:space="preserve">
<path fill="#000000" opacity="1.000000" stroke="none" 
	d="
M672.604980,450.534668 
	C673.579346,459.225769 674.668579,467.462646 675.265015,475.735077 
	C676.943237,499.011230 677.060486,522.341187 675.169434,545.576111 
	C671.994507,584.586975 665.043457,622.908569 654.029785,660.577576 
	C643.841309,695.424194 630.174927,728.746399 613.521240,760.888489 
	C589.690735,806.882263 559.752808,848.553101 523.897949,885.958801 
	C522.054810,887.881653 520.261414,889.856506 518.521729,891.873474 
	C514.580505,896.443359 511.387604,896.857910 507.321564,892.227539 
	C497.100311,880.587708 486.020081,869.744751 476.257202,857.667969 
	C453.364777,829.349731 432.951996,799.393250 415.588715,767.391907 
	C403.737854,745.550293 393.970062,722.740112 385.057617,699.568054 
	C374.218536,671.386841 366.181702,642.366638 360.332184,612.783569 
	C356.368286,592.736633 353.314819,572.530701 351.502502,552.124207 
	C349.981995,535.003479 349.197205,517.883118 349.930603,500.751678 
	C350.733948,481.987915 352.384125,463.267456 354.919403,444.634827 
	C359.417145,411.579315 367.115540,379.263397 377.690277,347.664337 
	C391.100616,307.591949 408.229645,269.239655 430.831451,233.374023 
	C447.911743,206.270233 466.052582,180.003220 487.511017,156.157593 
	C494.413055,148.487778 501.829041,141.280853 508.743103,133.621292 
	C511.581116,130.477249 513.851440,130.715698 516.672668,133.281586 
	C524.079956,140.018372 530.926453,147.303253 537.541504,154.795486 
	C565.210510,186.133408 588.850647,220.322586 609.400330,256.687836 
	C630.252869,293.589081 644.470215,333.112579 656.283081,373.666351 
	C663.035583,396.847809 668.436401,420.267853 672.041870,444.119812 
	C672.339661,446.089905 672.350586,448.103363 672.604980,450.534668 
M450.250397,657.486633 
	C453.556335,673.255493 457.017334,688.994141 460.101440,704.806274 
	C461.597748,712.477905 464.359009,719.361938 469.063995,725.659607 
	C482.718842,743.936707 496.149017,762.381470 509.682007,780.749695 
	C512.690735,784.833435 513.655273,784.790405 516.597595,780.753357 
	C527.581177,765.683167 538.742493,750.739319 549.518555,735.522522 
	C555.037231,727.729736 562.137878,720.919678 564.115540,710.838135 
	C567.346436,694.367859 571.101624,678.000244 574.654663,661.593506 
	C584.152588,617.735596 593.173157,573.774292 603.397888,530.073120 
	C605.051880,523.004028 606.580200,515.748230 605.059998,508.331543 
	C600.927307,488.168610 596.924500,467.978699 592.709412,447.833099 
	C589.511108,432.546997 585.997009,417.327179 582.746216,402.051727 
	C577.593018,377.836578 572.485779,353.611298 567.473755,329.366577 
	C565.141846,318.086670 562.324280,307.335419 554.924194,297.787018 
	C543.007019,282.410065 530.891541,267.114258 520.770569,250.401962 
	C518.664185,246.923874 516.739746,243.150101 513.374146,240.658035 
	C510.955444,241.264679 510.155396,243.239395 509.017639,244.814880 
	C496.542023,262.090912 484.414734,279.623352 471.045807,296.240173 
	C464.216827,304.728210 460.087280,314.384583 458.229706,325.118195 
	C456.500427,335.110565 454.667816,345.093048 452.542908,355.007477 
	C444.009003,394.825104 435.354401,434.616882 426.718933,474.412689 
	C424.921875,482.694489 423.172089,490.991577 421.123077,499.212463 
	C418.352325,510.329041 418.608917,521.324402 422.095184,532.182312 
	C427.494354,548.998108 430.425507,566.391724 434.290985,583.561340 
	C439.765869,607.879517 444.864044,632.282532 450.250397,657.486633 
M598.997925,769.435059 
	C601.746399,767.063721 602.281860,763.768433 602.730591,760.446411 
	C605.801758,737.708557 610.361938,715.223083 614.182678,692.612427 
	C616.492004,678.945557 620.011108,665.476440 621.367188,650.580322 
	C619.565857,652.966614 618.385498,654.528748 617.206848,656.092041 
	C604.776794,672.578674 592.449097,689.144043 579.865173,705.512329 
	C575.073242,711.745422 570.147766,717.809387 567.899048,725.510498 
	C560.997314,749.146423 554.780640,772.967041 548.743225,796.835266 
	C548.363892,798.334900 547.557922,799.914246 548.923218,801.935486 
	C565.542786,791.189331 581.996277,780.550598 598.997925,769.435059 
M422.249847,275.531891 
	C416.230011,308.539673 410.210144,341.547424 403.950867,375.867981 
	C405.567352,374.470032 406.003723,374.208771 406.285797,373.832001 
	C420.345459,355.052216 434.428467,336.289673 448.418610,317.458160 
	C452.887329,311.442993 457.038055,305.253082 458.989502,297.807892 
	C464.718567,275.949829 470.623718,254.137985 476.377472,232.286331 
	C476.906677,230.276505 477.365662,228.079117 476.017853,225.879272 
	C474.620422,225.937149 473.566254,226.687012 472.454834,227.404022 
	C461.415344,234.526367 450.646637,242.133514 439.218964,248.569412 
	C429.261078,254.177536 422.218323,260.981171 422.444397,273.164520 
	C422.453613,273.661102 422.364868,274.159515 422.249847,275.531891 
M550.352539,235.395325 
	C553.363281,247.156509 556.358093,258.921783 559.388062,270.678009 
	C564.959351,292.294556 572.585205,312.861664 588.004944,329.782227 
	C592.464722,334.676086 596.404297,340.191986 599.770447,345.901398 
	C605.372925,355.404266 612.366089,363.867310 618.731201,372.796631 
	C619.279541,373.565918 619.891907,374.888123 621.770752,374.197144 
	C619.557190,362.637238 617.098511,351.113220 615.187439,339.499084 
	C612.544495,323.436615 607.612854,307.812378 606.362549,291.479797 
	C605.459595,279.684204 604.186646,267.921387 597.372864,257.620728 
	C595.690552,255.077484 593.889954,253.050949 591.173645,251.421173 
	C584.936523,247.678940 578.509216,244.317078 572.569702,239.941132 
	C565.101135,234.438751 557.197693,229.212280 548.111328,225.995804 
	C548.024170,229.361877 549.552734,231.866928 550.352539,235.395325 
M411.441833,660.047607 
	C409.712830,657.953491 408.271729,655.552002 405.406158,653.801147 
	C404.749481,661.510376 407.766693,667.758667 409.197876,674.341553 
	C414.730957,699.791260 418.774567,725.516663 422.260529,751.317261 
	C423.725952,762.162903 427.552032,771.126160 437.876465,776.310913 
	C445.481720,780.130188 452.309692,785.217773 459.405762,789.866577 
	C465.166901,793.640686 470.994202,797.313782 477.854858,801.713196 
	C472.128571,780.520569 466.575195,760.716614 461.473450,740.796997 
	C458.562653,729.431824 455.248505,718.387878 447.853882,708.971375 
	C442.637878,702.329224 437.336243,695.813110 432.769775,688.597778 
	C426.562317,678.789612 418.903656,669.899841 411.441833,660.047607 
M421.708374,663.826904 
	C431.634003,676.910278 441.559662,689.993652 451.485291,703.077026 
	C452.058960,702.775146 452.632599,702.473267 453.206238,702.171387 
	C441.062866,646.868896 428.919464,591.566467 416.776093,536.263977 
	C415.217926,538.180298 414.690643,539.914551 414.439728,541.687927 
	C410.413116,570.145935 406.337952,598.597656 402.500793,627.081360 
	C401.820923,632.127991 401.274323,637.529175 404.680786,642.021545 
	C410.107788,649.178528 415.738892,656.180725 421.708374,663.826904 
M405.373627,418.198822 
	C409.608673,442.560211 410.935089,467.356812 416.802063,491.636383 
	C428.734436,436.130341 440.666809,380.624329 452.599182,325.118286 
	C451.967041,324.817780 451.334930,324.517273 450.702789,324.216766 
	C450.420166,324.819458 450.239868,325.502258 449.839966,326.013123 
	C434.866180,345.142792 420.800079,364.970459 405.365204,383.748932 
	C402.632141,387.074036 401.980927,391.172546 402.617096,395.545776 
	C403.669098,402.777588 404.441772,410.049988 405.373627,418.198822 
M614.493286,562.896729 
	C613.259338,554.245117 612.025391,545.593506 610.791443,536.941895 
	C610.266235,536.901917 609.740967,536.861877 609.215759,536.821899 
	C596.777588,591.593140 584.891663,646.485535 573.940125,701.734924 
	C576.312988,699.927734 578.260376,697.946045 579.921021,695.747803 
	C592.866089,678.612366 604.915222,660.772766 619.151978,644.656128 
	C623.687256,639.522034 624.224731,634.262268 623.094482,628.037415 
	C619.230774,606.758484 617.245056,585.223328 614.493286,562.896729 
M606.179688,476.501312 
	C607.357544,480.837677 607.461365,485.491943 610.136108,490.534088 
	C610.801208,487.795105 611.432251,486.088745 611.608459,484.336670 
	C614.335632,457.218689 619.028198,430.366913 622.504822,403.351868 
	C623.425415,396.198822 625.242004,389.119873 619.735596,382.423859 
	C607.688293,367.773987 596.139893,352.713501 584.412231,337.801483 
	C581.668335,334.312622 579.022034,330.747101 576.330811,327.216827 
	C579.043579,345.414551 582.667664,363.244171 586.358459,381.059967 
	C592.892883,412.602753 599.467896,444.137177 606.179688,476.501312 
M384.500000,509.675018 
	C388.993042,509.677917 393.486115,509.680023 397.979156,509.683807 
	C412.288574,509.695862 412.244385,509.541504 410.199219,495.165192 
	C407.184174,473.971405 404.523590,452.727448 401.631104,431.515900 
	C400.343262,422.071869 398.858154,412.654724 397.425720,402.976135 
	C395.524353,404.040253 395.371918,405.447662 394.937744,406.655487 
	C384.141876,436.689026 373.312531,466.710785 362.644501,496.789764 
	C361.244446,500.737305 359.503815,504.798401 360.464355,509.672394 
	C368.249084,509.672394 375.874542,509.672394 384.500000,509.675018 
M394.497253,516.320618 
	C382.770935,516.320618 371.044617,516.320618 358.197662,516.320618 
	C370.992645,552.166687 383.401245,586.930237 395.809814,621.693787 
	C396.281281,621.686279 396.752777,621.678711 397.224243,621.671143 
	C402.528290,586.899719 407.713348,552.111755 411.462585,516.854187 
	C405.732330,515.832458 400.592041,516.546936 394.497253,516.320618 
M616.461792,536.119141 
	C618.743713,553.067871 620.984131,570.022400 623.321960,586.963440 
	C624.944824,598.723755 626.701660,610.465637 628.398621,622.215820 
	C642.335510,587.475464 655.214478,552.593262 666.796509,516.387573 
	C649.311462,516.387573 633.354736,516.398926 617.398071,516.377258 
	C614.451538,516.373291 614.253723,518.208679 614.525696,520.415955 
	C615.134644,525.359863 615.758484,530.301941 616.461792,536.119141 
M666.052368,508.291809 
	C666.131714,505.053223 664.900696,502.126343 663.951904,499.114746 
	C659.757385,485.800323 653.802917,473.150604 649.519470,459.842957 
	C643.764160,441.962555 637.083313,424.379913 630.780579,406.676300 
	C630.430420,405.692657 630.456848,404.259277 628.631042,404.427948 
	C628.499207,405.093506 628.333984,405.729431 628.250916,406.375885 
	C623.995667,439.487091 618.016418,472.361603 614.662842,505.600159 
	C614.275635,509.437408 616.046082,509.712097 618.932312,509.701996 
	C633.250183,509.651947 647.568359,509.690826 661.886414,509.672943 
	C663.190735,509.671326 664.575012,509.899963 666.052368,508.291809 
M360.344849,573.211792 
	C361.322571,582.128418 362.320801,591.042847 363.273834,599.962097 
	C365.293243,618.860840 368.710297,637.460938 375.496979,655.290771 
	C377.343414,660.141663 379.060852,665.167175 383.003998,669.486450 
	C387.158295,662.536621 389.140991,655.311462 391.798462,648.364319 
	C394.419128,641.513367 394.283478,634.809570 391.808319,627.923340 
	C381.681274,599.748474 371.690125,571.524780 361.603119,543.335449 
	C361.004120,541.661438 360.004211,540.130920 359.190826,538.533630 
	C358.819946,538.679260 358.449036,538.824829 358.078125,538.970398 
	C358.829315,550.073914 359.580475,561.177429 360.344849,573.211792 
M379.949554,362.469116 
	C366.978210,403.437836 357.781036,445.034790 358.828003,488.379211 
	C361.384155,483.100250 363.437408,477.705719 365.382996,472.272644 
	C374.243134,447.530426 383.080658,422.780029 391.908081,398.026093 
	C394.009247,392.134064 395.285187,386.256409 392.701935,380.067352 
	C390.141266,373.932251 387.987854,367.628296 385.538605,361.444855 
	C384.869751,359.756256 384.828979,357.363312 381.807648,357.147034 
	C381.256256,358.683441 380.707001,360.213959 379.949554,362.469116 
M640.963928,608.299438 
	C639.194397,613.139160 637.992798,618.288330 635.555054,622.764099 
	C625.961792,640.377686 637.746948,654.446533 642.236633,670.537292 
	C652.313477,655.216553 671.058228,551.774048 666.477600,537.864990 
	C657.969543,561.324341 649.586609,584.438965 640.963928,608.299438 
M666.471191,464.083923 
	C665.503662,461.962708 664.875549,459.809052 664.572571,457.434174 
	C662.598389,441.959106 660.027771,426.567291 657.844238,411.118835 
	C655.329041,393.323975 649.690369,376.172516 644.701538,358.922394 
	C644.356262,357.728333 644.333069,356.218414 641.956421,356.089447 
	C638.786926,364.857208 635.482117,373.703430 632.408081,382.629120 
	C630.896973,387.016541 631.436707,391.376862 633.057251,395.780609 
	C639.721619,413.890381 646.283386,432.038940 652.730713,450.227203 
	C655.998718,459.446472 660.057800,468.371246 662.488708,477.917511 
	C663.403442,481.509644 664.163818,485.520813 667.669617,489.217712 
	C667.434753,480.446747 668.367981,472.644226 666.471191,464.083923 
M568.027832,821.561462 
	C577.008911,808.529785 585.962036,795.480652 594.093262,781.471375 
	C591.975098,781.025574 590.996582,781.760254 590.069641,782.369080 
	C577.139771,790.861023 564.283875,799.460571 550.954285,807.335938 
	C546.904114,809.728821 543.784729,813.268616 542.189392,817.891235 
	C535.896790,836.123413 529.766663,854.414368 522.294861,872.216614 
	C521.646423,873.761658 520.586548,875.627014 523.236633,877.200073 
	C538.783508,859.444092 553.969055,841.422607 568.027832,821.561462 
M483.878082,855.636169 
	C490.137756,862.829468 496.397430,870.022827 502.938202,877.539185 
	C504.273285,874.793152 503.565002,873.100403 502.938751,871.392761 
	C496.579315,854.051819 490.156677,836.733582 483.913544,819.350891 
	C482.200745,814.582092 479.360962,810.984436 475.156769,808.230652 
	C464.711090,801.388489 454.360291,794.401550 443.928497,787.538025 
	C440.241028,785.111877 436.429321,782.874573 432.204742,780.260559 
	C434.667450,789.473572 460.684357,827.239624 483.878082,855.636169 
M552.987427,184.489365 
	C543.588196,172.883896 534.958435,160.567474 521.992432,150.227798 
	C522.637634,152.486328 522.815247,153.270386 523.083191,154.022263 
	C529.114868,170.945724 535.167847,187.861588 541.190430,204.788284 
	C543.479431,211.221527 546.423157,217.019455 553.461853,219.574295 
	C554.953308,220.115616 556.123657,221.521225 557.466858,222.494308 
	C568.742188,230.662537 580.406189,238.224030 593.555786,246.123825 
	C581.928284,223.430420 567.994019,204.034027 552.987427,184.489365 
M443.622467,239.096298 
	C451.763092,232.775208 460.730774,227.713089 469.426422,222.244766 
	C475.554688,218.390961 481.157501,214.441422 483.717957,207.008636 
	C489.727631,189.563049 496.221710,172.284470 502.485046,154.925751 
	C502.899536,153.776978 503.912048,152.534088 501.841644,150.617615 
	C475.693573,179.510559 451.774994,209.863480 433.129242,244.074173 
	C433.562744,244.472244 433.996216,244.870316 434.429688,245.268387 
	C437.299561,243.349762 440.169434,241.431137 443.622467,239.096298 
M614.387268,724.738037 
	C612.979065,733.190063 610.692688,741.512146 610.673218,750.260986 
	C615.934692,741.613342 621.060242,732.943420 625.637878,723.993286 
	C628.959778,717.498413 631.532043,710.558960 634.866760,704.123108 
	C638.337219,697.425232 634.335571,689.564636 639.295593,683.448669 
	C639.728943,682.914246 639.208435,681.523499 638.995239,680.560547 
	C636.979736,671.460205 633.442383,662.860168 630.234802,654.153687 
	C630.028320,653.593201 629.564026,652.959900 628.694336,653.226257 
	C627.564697,654.569458 627.502625,656.229797 627.192017,657.864319 
	C623.008789,679.880676 618.768188,701.886169 614.387268,724.738037 
M638.726746,345.201935 
	C639.153748,341.956482 638.292297,338.935333 637.171265,335.942749 
	C630.040710,316.908173 621.792908,298.343872 613.513489,279.794159 
	C613.026550,278.703186 612.656860,277.192535 610.198669,277.231140 
	C614.966248,310.030823 621.924683,342.229645 628.103638,374.574738 
	C628.581055,374.556763 629.058472,374.538788 629.535889,374.520782 
	C632.580505,365.030304 635.625183,355.539825 638.726746,345.201935 
M412.256805,280.887665 
	C403.861969,298.999237 395.708405,317.213959 388.728394,335.930237 
	C386.832977,341.012573 385.880463,346.008606 388.068207,351.403534 
	C390.436890,357.244690 392.171631,363.340698 394.275543,369.292786 
	C394.940460,371.173859 394.826691,373.528290 396.944794,374.889099 
	C400.221466,367.839233 415.237488,283.159210 414.301300,277.058838 
	C413.657104,278.245148 413.105774,279.260498 412.256805,280.887665 
M391.587585,697.967834 
	C398.229675,715.636536 405.482269,733.022766 415.163391,749.375427 
	C410.573120,716.380249 402.110138,684.240723 397.447113,651.321228 
	C390.496063,666.169678 382.328430,680.644531 391.587585,697.967834 
M541.005188,801.370300 
	C545.337891,785.343506 549.728027,769.331970 553.971008,753.281433 
	C555.390747,747.911011 557.636292,742.725159 558.182861,737.114990 
	C556.768738,736.834229 556.403076,737.708862 555.937378,738.337952 
	C549.311768,747.290100 542.671265,756.231445 536.100708,765.223877 
	C531.004150,772.199036 525.947083,779.204346 520.977173,786.269958 
	C518.447876,789.865845 519.240784,792.745300 523.210388,794.815491 
	C527.337158,796.967590 531.363342,799.312073 535.479309,801.485718 
	C537.060608,802.320862 538.725159,803.400085 541.005188,801.370300 
M500.282654,795.770447 
	C500.823181,795.381531 501.361298,794.989319 501.904633,794.604309 
	C508.078583,790.230896 508.082367,789.752319 503.663208,783.706909 
	C494.364319,770.985718 483.781647,759.219971 475.582397,745.670837 
	C473.701447,742.562500 470.990051,739.956787 468.660889,737.119751 
	C468.355743,737.297180 468.050629,737.474670 467.745514,737.652100 
	C473.523865,759.575928 479.302216,781.499756 485.131287,803.616028 
	C491.316559,802.186768 495.228394,798.650757 500.282654,795.770447 
M491.083038,225.477295 
	C489.433228,224.824051 488.104492,223.271942 485.225616,223.792542 
	C479.808685,244.906708 472.649658,265.897766 469.257660,287.919617 
	C473.169250,283.728668 476.282928,279.235016 479.518433,274.830872 
	C487.787598,263.575012 496.167114,252.399857 504.386139,241.107712 
	C507.836945,236.366699 507.534271,235.293106 502.468597,232.160553 
	C498.934540,229.975113 495.302917,227.947403 491.083038,225.477295 
M519.251831,235.853333 
	C519.176758,239.927078 522.140503,242.460129 524.246155,245.349808 
	C530.714722,254.226868 537.329041,262.998169 543.926331,271.780792 
	C548.071838,277.299500 551.859009,283.117432 557.634216,288.950653 
	C556.983154,281.760315 554.567139,276.278381 553.080627,270.587952 
	C549.297791,256.106720 545.385742,241.659058 541.648376,227.166245 
	C540.710999,223.531036 539.133667,222.284592 535.720032,224.496460 
	C530.287964,228.016144 524.513794,231.014877 519.251831,235.853333 
M509.670471,867.022583 
	C509.670471,844.219421 509.670471,821.416260 509.670471,797.110535 
	C502.502014,801.210754 496.980011,804.520508 491.312408,807.558594 
	C487.461456,809.622864 487.001984,812.099976 488.512726,816.135681 
	C494.393341,831.844910 499.896698,847.695068 505.589844,863.475037 
	C506.576050,866.208557 506.666534,869.326538 508.868103,871.683472 
	C510.111359,870.505676 509.345490,869.075867 509.670471,867.022583 
M532.845764,198.526642 
	C527.802368,184.344910 522.758972,170.163193 517.715515,155.981476 
	C517.434631,156.069489 517.153687,156.157516 516.872803,156.245529 
	C516.872803,180.221313 516.872803,204.197083 516.872803,228.871368 
	C524.078552,225.133514 530.386108,221.485367 536.299194,217.184662 
	C538.288269,215.738022 538.626892,213.771713 537.673035,211.416031 
	C536.049805,207.407166 534.623291,203.318619 532.845764,198.526642 
M496.761414,188.153137 
	C494.137573,195.874634 491.503906,203.592819 488.895935,211.319687 
	C488.121521,213.614151 487.623749,215.890945 490.111938,217.570969 
	C496.016174,221.557556 501.900360,225.578918 509.075653,228.584717 
	C509.075653,203.541626 509.075653,178.998581 509.075653,153.291672 
	C504.790710,165.478638 500.930756,176.456894 496.761414,188.153137 
M516.325195,848.499878 
	C516.325195,856.017822 516.325195,863.535706 516.325195,871.053650 
	C518.462524,867.563110 519.799988,864.015503 521.036560,860.433044 
	C526.182007,845.525452 532.171631,830.911377 536.613647,815.761658 
	C537.195190,813.778076 538.462097,811.353943 536.269165,809.723083 
	C530.346191,805.318665 523.863098,801.866150 516.323792,797.922913 
	C516.323792,815.329346 516.323792,831.414612 516.325195,848.499878 
z"/>
</svg>