<?xml version="1.0" standalone="no"?>
<!DOCTYPE svg PUBLIC "-//W3C//DTD SVG 20010904//EN"
 "http://www.w3.org/TR/2001/REC-SVG-20010904/DTD/svg10.dtd">
<svg version="1.0" xmlns="http://www.w3.org/2000/svg"
 width="976.000000pt" height="1091.000000pt" viewBox="0 0 976.000000 1091.000000"
 preserveAspectRatio="xMidYMid meet">

<g transform="translate(0.000000,1091.000000) scale(0.100000,-0.100000)"
fill="#000000" stroke="none">
<path d="M4880 9791 c-74 -5 -191 -18 -260 -30 -123 -22 -356 -75 -395 -91
-11 -4 -32 -12 -47 -18 -15 -6 -60 -22 -100 -36 -40 -13 -113 -43 -161 -65
-49 -23 -90 -41 -92 -41 -4 0 -186 -102 -211 -118 -75 -48 -176 -121 -368
-265 -79 -59 -343 -323 -468 -467 -104 -120 -196 -241 -260 -340 -30 -47 -80
-123 -110 -170 -78 -120 -290 -544 -303 -606 -2 -6 -10 -27 -18 -45 -40 -92
-100 -255 -128 -349 -12 -41 -25 -84 -30 -95 -4 -11 -12 -36 -18 -55 -5 -19
-15 -53 -21 -75 -22 -77 -61 -230 -64 -250 -2 -11 -8 -38 -15 -60 -16 -56 -48
-273 -56 -375 -4 -47 -13 -125 -22 -175 -11 -70 -15 -176 -14 -475 0 -485 7
-567 86 -1080 17 -114 50 -284 66 -343 6 -23 12 -49 14 -57 8 -42 61 -218 76
-255 5 -11 18 -49 30 -85 11 -36 27 -78 34 -95 18 -41 65 -165 71 -190 3 -11
10 -29 14 -40 5 -11 18 -41 29 -67 11 -27 26 -48 33 -48 9 0 10 -2 1 -8 -8 -5
-2 -23 20 -62 18 -30 48 -89 67 -130 33 -71 86 -168 209 -382 10 -18 38 -62
63 -98 24 -36 47 -72 51 -80 11 -26 209 -275 307 -387 52 -59 139 -146 192
-193 53 -47 97 -91 97 -97 1 -7 5 -13 11 -13 5 0 58 -39 117 -86 244 -196 546
-363 849 -470 253 -89 369 -116 612 -140 217 -22 630 -23 732 -1 41 8 99 18
129 21 58 7 69 9 266 56 72 17 139 35 150 40 11 5 58 23 105 41 132 50 346
154 454 222 64 40 197 133 301 212 117 87 406 364 492 470 103 127 134 167
203 265 41 58 78 107 82 110 4 3 12 17 17 30 6 14 33 60 61 103 27 43 50 82
50 85 0 4 11 24 25 44 26 38 97 172 172 323 24 50 49 99 55 110 43 78 69 135
84 184 10 31 21 58 24 61 3 3 16 34 29 70 12 36 26 74 31 85 5 11 14 38 20 60
6 22 15 49 20 60 40 94 120 382 120 432 0 18 4 42 9 55 12 29 66 334 90 508
34 241 44 639 28 1045 -9 207 -15 268 -42 420 -9 50 -20 121 -25 159 -9 64
-47 229 -106 459 -26 101 -55 192 -93 287 -12 30 -29 75 -38 100 -8 25 -21 59
-28 75 -8 17 -37 91 -65 165 -50 129 -168 378 -195 410 -7 8 -21 32 -31 52
-26 52 -141 244 -179 298 -17 25 -43 66 -58 92 -57 98 -282 377 -423 524 -48
50 -187 173 -255 226 -126 98 -181 138 -189 138 -6 0 -10 4 -10 8 0 5 -12 15
-27 23 -16 8 -30 17 -33 20 -15 18 -220 135 -290 165 -19 9 -89 42 -155 75
-67 32 -125 59 -131 59 -6 0 -28 8 -50 19 -92 44 -335 102 -525 126 -143 17
-508 26 -689 16z m112 -79 l48 -7 -66 -70 c-36 -38 -77 -86 -91 -105 -14 -19
-54 -64 -89 -100 -93 -97 -252 -268 -309 -333 -27 -31 -54 -57 -60 -57 -5 0
-21 -16 -35 -36 -42 -58 -161 -193 -242 -274 -27 -26 -48 -50 -48 -54 0 -16
-84 -116 -97 -116 -37 0 -49 13 -156 175 -22 33 -43 62 -46 65 -3 3 -12 18
-20 33 -8 15 -36 54 -63 87 -26 33 -48 63 -48 66 0 3 -14 23 -30 44 -17 21
-37 53 -46 72 -8 18 -26 48 -39 67 -14 19 -25 40 -25 46 0 30 187 165 227 165
7 0 13 4 13 8 0 12 70 49 109 57 19 4 54 18 79 31 25 13 51 24 58 24 8 0 14 5
14 10 0 6 14 10 30 10 17 0 38 4 48 10 38 21 96 44 116 46 21 2 198 60 226 74
45 22 140 39 255 44 71 4 134 11 139 16 11 11 76 12 148 2z m603 -27 c33 -9
109 -27 170 -40 60 -14 121 -29 135 -34 14 -5 59 -19 100 -31 41 -11 89 -25
106 -30 17 -6 38 -10 48 -10 10 0 39 -11 65 -24 25 -13 66 -33 91 -44 104 -45
230 -113 230 -122 0 -5 34 -28 75 -51 73 -42 75 -45 70 -74 -4 -16 -32 -67
-63 -113 -31 -45 -61 -90 -67 -100 -5 -9 -13 -19 -16 -22 -15 -13 -168 -251
-188 -293 -13 -27 -32 -54 -42 -60 -11 -7 -19 -17 -19 -23 0 -6 -11 -21 -24
-33 l-24 -23 -47 43 c-26 24 -77 79 -113 124 -113 136 -210 246 -306 345 -50
52 -99 106 -109 120 -31 44 -310 340 -321 340 -6 0 -31 23 -56 51 -25 28 -57
63 -72 77 -53 50 -44 53 145 48 111 -3 193 -11 232 -21z m-431 -55 c26 -27 52
-50 56 -50 4 0 11 -11 14 -24 6 -25 97 -121 241 -255 44 -41 87 -86 96 -100
19 -31 65 -76 76 -76 9 1 53 -49 53 -60 0 -9 99 -119 111 -123 11 -4 113 -110
149 -154 14 -18 58 -68 97 -112 40 -45 73 -87 73 -95 0 -8 8 -23 17 -33 27
-30 31 -28 -254 -126 -78 -27 -148 -54 -155 -60 -17 -13 -294 -122 -313 -122
-7 0 -16 -4 -19 -9 -5 -7 -74 -25 -83 -22 -2 0 -29 -12 -60 -29 -123 -62 -192
-64 -308 -10 -47 22 -89 40 -92 40 -2 0 -17 9 -32 19 -15 11 -48 25 -74 32
-26 6 -47 15 -47 19 0 4 -35 17 -77 29 -123 34 -145 42 -166 61 -10 10 -39 23
-65 30 -26 7 -94 27 -152 46 -58 18 -125 39 -149 46 -25 7 -46 19 -49 26 -2 7
20 37 50 68 112 116 125 130 153 169 16 22 55 65 86 95 31 30 90 95 133 143
42 49 94 108 115 130 144 155 238 253 320 337 99 100 108 110 160 178 18 23
36 42 40 42 4 0 29 -22 55 -50z m-1659 -505 c19 -30 35 -59 35 -65 0 -5 6 -10
13 -11 12 0 107 -137 107 -155 0 -6 11 -26 25 -45 15 -19 36 -53 48 -77 11
-24 36 -61 54 -82 18 -21 33 -41 33 -45 0 -4 18 -34 41 -67 22 -33 38 -62 36
-64 -2 -3 -26 -9 -53 -14 -168 -32 -485 -114 -539 -140 -22 -10 -69 -24 -103
-29 -103 -16 -246 -53 -257 -67 -5 -6 -77 -24 -160 -39 -82 -16 -166 -36 -185
-47 -36 -19 -80 -24 -80 -10 0 5 9 19 20 32 11 12 34 46 52 74 18 28 47 69 65
90 18 22 33 45 33 52 0 7 16 31 35 54 19 23 35 46 35 50 0 14 91 121 175 207
44 45 114 118 155 162 41 44 79 81 84 81 5 0 21 12 36 28 40 40 68 62 98 75
15 6 53 33 85 59 32 26 63 48 68 48 5 0 25 -25 44 -55z m3316 33 c24 -13 67
-47 95 -75 28 -29 55 -53 61 -53 5 0 39 -29 76 -64 37 -36 82 -75 100 -88 17
-12 55 -47 82 -77 28 -31 71 -78 98 -105 26 -27 47 -56 47 -63 0 -8 21 -36 46
-63 25 -26 54 -64 65 -84 18 -33 42 -66 79 -106 21 -22 108 -154 116 -175 7
-16 2 -17 -42 -11 -61 9 -426 100 -474 119 -8 3 -28 8 -45 10 -77 12 -151 29
-159 38 -6 5 -18 9 -28 9 -10 0 -53 11 -96 25 -42 14 -171 48 -287 76 -115 28
-213 54 -217 58 -4 3 55 99 132 211 77 113 159 239 184 280 79 134 97 160 111
160 7 0 33 -10 56 -22z m-2901 -721 c0 -13 -9 -50 -20 -82 -11 -32 -20 -68
-20 -79 0 -12 -13 -77 -30 -144 -16 -68 -30 -134 -30 -147 0 -13 -5 -25 -11
-27 -6 -2 -18 -48 -27 -103 -9 -55 -19 -102 -23 -105 -4 -3 -10 -25 -14 -50
-4 -24 -13 -54 -20 -65 -7 -11 -18 -49 -25 -85 -7 -36 -17 -72 -21 -81 -5 -9
-11 -36 -14 -60 -8 -69 -31 -106 -93 -149 -31 -22 -77 -54 -102 -71 -25 -17
-58 -44 -75 -59 -64 -60 -350 -253 -428 -290 -27 -12 -63 -38 -81 -56 -18 -19
-37 -34 -42 -34 -5 0 -33 -16 -62 -35 -35 -23 -54 -30 -57 -22 -2 7 -13 80
-25 162 -11 83 -27 175 -35 205 -21 83 -46 242 -55 358 -10 124 -18 180 -30
207 -5 11 -14 70 -20 130 -10 104 -40 269 -55 308 -6 13 -2 17 18 17 14 0 68
14 119 31 51 18 124 38 162 45 38 8 73 19 76 25 4 6 9 9 11 8 2 -2 24 2 49 8
25 6 74 16 110 23 36 7 70 13 75 14 24 5 132 37 150 45 11 5 47 13 80 19 56
10 264 65 310 82 41 15 132 40 148 40 10 0 34 9 54 20 48 25 53 25 53 -3z
m2558 -32 c70 -19 141 -39 157 -44 17 -5 68 -19 115 -31 47 -12 112 -28 145
-37 33 -9 72 -17 86 -18 14 -1 32 -6 40 -10 8 -5 68 -23 134 -41 66 -17 163
-43 215 -57 118 -32 288 -67 315 -64 22 2 32 -31 19 -61 -9 -23 -12 -36 -23
-115 -6 -37 -13 -72 -16 -77 -3 -5 -8 -44 -11 -87 -6 -72 -26 -181 -53 -278
-11 -36 -38 -218 -61 -400 -12 -100 -40 -247 -50 -266 -5 -9 -12 -33 -15 -53
-4 -20 -11 -38 -14 -41 -15 -8 -86 35 -106 64 -10 16 -39 39 -62 51 -24 12
-56 32 -71 44 -22 18 -111 76 -197 129 -11 6 -22 15 -25 18 -3 3 -45 32 -95
63 -49 32 -120 78 -156 102 -36 24 -69 44 -74 44 -13 0 -80 74 -93 103 -7 15
-12 39 -12 52 0 13 -4 26 -9 29 -4 3 -11 27 -15 53 -7 57 -74 331 -85 353 -4
8 -20 69 -35 135 -15 66 -41 163 -59 215 -17 52 -32 115 -35 140 -2 25 -10 60
-18 79 -21 51 -19 62 11 51 14 -5 83 -26 153 -45z m-238 -1 c12 -25 25 -78 30
-117 9 -81 36 -189 56 -228 7 -14 18 -65 25 -113 7 -48 18 -93 24 -100 7 -6
17 -36 24 -66 7 -30 16 -64 20 -75 49 -122 97 -345 74 -345 -3 0 -20 11 -37
24 -17 13 -41 26 -53 30 -13 4 -23 12 -23 17 0 5 -7 9 -15 9 -8 0 -24 9 -34
19 -19 19 -60 43 -227 132 -39 21 -95 52 -123 68 -28 17 -63 34 -76 37 -14 3
-25 10 -25 15 0 4 -48 32 -107 62 -125 62 -281 145 -344 182 -40 23 -63 35
-166 81 -17 8 -36 14 -42 14 -6 0 -11 11 -11 24 0 19 8 27 38 36 20 7 82 31
137 54 55 24 123 48 150 56 28 7 55 16 60 20 6 4 28 13 50 20 22 7 45 16 50
20 6 4 26 11 45 14 46 10 118 32 212 68 42 16 118 42 170 57 51 16 94 30 95
30 1 1 12 -20 23 -45z m-2092 -9 c75 -25 151 -52 167 -59 17 -7 64 -23 105
-36 41 -12 106 -34 145 -49 38 -14 72 -26 75 -27 25 -2 70 -17 70 -23 0 -3 21
-13 48 -20 148 -41 242 -81 242 -105 0 -7 -19 -22 -42 -32 -24 -10 -69 -36
-100 -56 -32 -21 -58 -35 -58 -33 0 3 -24 -11 -54 -30 -30 -19 -74 -42 -98
-51 -23 -9 -52 -25 -64 -36 -11 -10 -27 -18 -35 -18 -8 0 -19 -4 -24 -9 -6 -4
-35 -22 -65 -38 -81 -44 -104 -57 -110 -64 -3 -3 -21 -11 -41 -18 -20 -6 -58
-27 -85 -46 -27 -19 -53 -35 -59 -35 -16 0 -189 -103 -202 -120 -6 -9 -42 -31
-80 -49 -37 -19 -85 -42 -106 -53 -21 -11 -40 -18 -42 -16 -2 2 1 21 6 43 6
22 14 61 19 87 5 26 13 55 18 65 5 10 13 42 17 70 4 29 11 55 16 59 5 3 9 22
9 43 0 44 24 132 51 181 26 50 48 135 53 208 2 34 8 68 14 75 6 7 16 49 22 92
20 139 22 145 37 145 8 0 76 -20 151 -45z m1072 -396 c25 -12 59 -32 75 -44
17 -12 45 -27 64 -33 19 -7 65 -30 103 -52 39 -22 75 -40 81 -40 6 0 20 -8 31
-18 12 -10 37 -25 56 -32 19 -8 67 -36 106 -62 39 -26 76 -48 82 -48 7 0 21
-9 32 -20 28 -28 90 -65 132 -79 20 -7 38 -15 40 -19 5 -11 96 -66 168 -102
36 -17 99 -51 140 -76 41 -24 83 -47 93 -50 9 -4 17 -10 17 -15 0 -5 6 -9 14
-9 16 0 57 -53 74 -95 7 -16 25 -93 41 -170 16 -77 38 -173 50 -212 12 -40 21
-82 21 -93 0 -11 5 -20 10 -20 6 0 10 -11 10 -26 0 -14 14 -78 31 -142 17 -64
48 -182 69 -262 21 -80 55 -201 75 -270 20 -69 46 -159 57 -200 27 -103 37
-139 50 -180 24 -80 19 -196 -12 -275 -18 -46 -50 -157 -50 -175 0 -10 -4 -21
-9 -24 -5 -3 -11 -18 -14 -33 -2 -16 -28 -120 -57 -233 -29 -113 -54 -214 -55
-225 -2 -11 -13 -54 -25 -95 -12 -41 -30 -102 -39 -135 -10 -33 -20 -67 -23
-75 -10 -28 -86 -324 -123 -483 -21 -88 -43 -163 -49 -168 -13 -11 -159 -98
-236 -141 -30 -17 -77 -45 -105 -63 -50 -32 -90 -55 -215 -123 -36 -19 -67
-38 -70 -41 -5 -6 -53 -32 -165 -89 -27 -14 -66 -35 -85 -47 -129 -80 -410
-221 -467 -234 -49 -12 -55 -11 -115 15 -35 16 -65 31 -68 34 -3 3 -27 16 -55
29 -122 57 -180 86 -185 92 -3 3 -34 22 -70 41 -36 20 -103 59 -150 87 -47 28
-91 51 -97 51 -7 0 -13 4 -13 9 0 5 -8 11 -17 15 -10 3 -31 15 -48 25 -16 11
-46 28 -65 39 -19 11 -51 28 -70 39 -19 11 -62 35 -95 53 -33 18 -84 48 -113
66 -29 19 -87 52 -130 73 -42 22 -89 50 -103 63 -28 25 -62 119 -74 203 -4 28
-11 55 -15 60 -5 6 -11 33 -14 62 -4 28 -22 104 -42 169 -19 66 -37 126 -39
134 -2 8 -4 15 -5 15 -1 0 -4 14 -6 30 -3 17 -11 50 -19 75 -8 25 -24 81 -35
125 -12 44 -37 139 -56 210 -19 72 -39 150 -44 175 -12 61 -95 379 -108 410
-28 72 -22 204 15 340 42 156 73 286 73 306 0 13 4 25 9 28 5 4 12 29 16 56 4
28 11 50 16 50 5 0 9 8 9 19 0 10 6 37 14 59 8 22 17 66 21 98 8 75 15 105 30
124 13 17 27 62 55 175 10 44 39 157 63 250 25 94 50 203 57 243 17 104 54
154 149 204 41 21 84 48 97 61 12 12 53 37 91 55 37 18 88 43 113 55 25 12 61
32 80 45 19 13 66 40 105 59 38 20 74 41 80 48 5 7 23 16 40 20 16 3 32 10 35
14 9 13 101 71 113 71 15 0 80 39 89 53 13 21 195 117 221 117 7 0 22 8 33 18
10 10 34 24 52 31 17 7 32 17 32 22 0 5 8 9 18 9 9 0 26 8 37 16 27 21 107 13
165 -17z m2590 -23 c16 -25 30 -49 30 -55 0 -6 9 -16 20 -23 11 -7 20 -18 20
-25 0 -7 26 -63 58 -125 61 -122 92 -191 92 -210 0 -6 3 -8 7 -5 7 8 25 -25
63 -118 110 -273 175 -482 160 -521 -11 -29 -17 -32 -77 -39 -58 -6 -227 -59
-260 -81 -12 -8 -30 -14 -39 -14 -9 0 -45 -13 -78 -29 -34 -16 -93 -37 -131
-46 -39 -9 -79 -20 -90 -25 -59 -25 -58 -26 -52 40 4 33 13 76 22 96 8 20 24
109 36 198 11 88 24 170 29 181 5 11 11 38 14 60 3 22 10 69 17 105 7 36 13
96 15 134 3 69 29 192 44 211 5 6 13 64 20 130 13 129 28 205 41 205 4 0 22
-20 39 -44z m-5347 -117 c10 -68 23 -132 28 -141 5 -10 9 -32 9 -50 0 -32 21
-163 41 -258 5 -25 12 -70 16 -100 3 -30 9 -59 13 -65 8 -9 41 -214 60 -365 4
-36 11 -89 15 -117 7 -48 6 -53 -11 -54 -23 -2 -6 -6 -204 48 -91 24 -221 58
-290 74 -172 41 -160 35 -160 74 0 39 28 155 41 171 5 6 14 38 20 70 11 67 19
90 64 189 18 39 36 82 40 95 4 14 40 93 81 177 41 83 74 157 74 164 0 20 124
219 134 216 6 -2 18 -59 29 -128z m1153 -693 c-4 -19 -13 -47 -20 -62 -8 -16
-17 -53 -21 -81 -4 -29 -11 -53 -15 -53 -5 0 -12 -17 -16 -37 -3 -21 -17 -74
-30 -117 -14 -43 -34 -120 -45 -170 -11 -50 -26 -105 -34 -122 -8 -17 -21 -66
-29 -110 -8 -43 -24 -110 -35 -147 -11 -38 -21 -90 -23 -117 -2 -28 -8 -52
-15 -55 -8 -2 -13 -22 -13 -45 0 -22 -4 -40 -9 -40 -11 0 -20 -21 -37 -95 -8
-33 -19 -78 -25 -100 -5 -22 -14 -65 -19 -95 -12 -76 -21 -110 -29 -110 -18 1
-31 19 -35 50 -5 42 -15 69 -68 180 -22 47 -44 95 -49 108 -5 12 -13 32 -18
45 -6 12 -17 43 -25 68 -8 26 -31 80 -50 120 -19 41 -58 133 -86 206 -29 73
-60 149 -71 170 -25 49 -24 67 4 80 12 6 49 31 82 55 33 25 82 55 109 68 27
13 66 40 86 59 74 73 233 188 312 224 21 10 75 49 120 87 94 80 113 87 104 36z
m3071 -11 c15 -14 55 -40 88 -57 33 -17 62 -34 63 -39 2 -5 8 -9 13 -9 5 0 20
-9 32 -21 12 -11 56 -41 97 -67 41 -25 81 -52 88 -59 8 -7 23 -18 34 -24 21
-11 43 -28 91 -71 17 -15 63 -44 102 -64 38 -20 94 -54 123 -76 47 -35 52 -42
40 -56 -17 -21 -49 -87 -84 -177 -15 -38 -30 -72 -34 -75 -3 -3 -17 -34 -30
-70 -12 -36 -31 -81 -41 -100 -20 -39 -60 -142 -90 -235 -11 -32 -23 -62 -27
-65 -5 -3 -19 -39 -32 -80 -13 -41 -32 -91 -41 -110 -10 -20 -21 -49 -25 -64
-11 -44 -27 -25 -46 55 -10 41 -23 83 -27 94 -5 11 -15 49 -21 85 -7 36 -15
70 -19 75 -12 18 -32 85 -37 123 -6 48 -48 202 -81 294 -14 40 -31 107 -38
148 -16 92 -44 194 -77 280 -14 36 -33 97 -43 135 -9 39 -20 79 -25 90 -7 18
-15 54 -37 157 -5 26 -4 27 25 18 17 -4 44 -20 59 -35z m-4642 -373 c33 -11
98 -31 145 -46 47 -14 121 -37 165 -50 120 -37 158 -46 219 -51 31 -2 61 -7
66 -10 14 -9 -4 -39 -55 -94 -23 -25 -52 -62 -65 -81 -13 -19 -33 -44 -45 -55
-12 -11 -41 -49 -64 -84 -24 -35 -64 -85 -90 -112 -25 -26 -65 -72 -89 -101
-24 -29 -86 -107 -140 -173 -53 -66 -132 -156 -174 -200 -43 -44 -85 -90 -93
-103 -33 -46 -38 -27 -32 121 3 78 9 153 15 167 5 14 10 57 11 95 3 105 33
364 51 435 4 19 14 85 20 145 11 105 27 201 37 218 6 10 42 4 118 -21z m6267
-22 c3 -25 11 -85 17 -135 6 -49 20 -114 32 -144 11 -30 24 -95 29 -145 5 -50
13 -129 19 -176 23 -195 34 -341 32 -445 -1 -60 -4 -111 -5 -113 -2 -1 -30 25
-62 59 -33 34 -65 68 -71 75 -7 7 -13 18 -13 24 0 12 -12 26 -174 195 -52 55
-118 129 -147 165 -28 36 -70 85 -93 110 -102 113 -186 217 -186 230 0 5 -18
29 -40 51 -57 59 -54 109 7 109 9 0 41 12 71 26 29 14 75 29 100 34 79 15 133
29 242 67 118 40 198 62 220 59 10 -1 17 -17 22 -46z m-772 -220 c0 -4 16 -27
35 -51 19 -24 35 -49 35 -56 0 -6 4 -13 9 -15 26 -10 127 -116 196 -208 100
-133 185 -230 200 -230 7 0 25 -19 41 -42 15 -24 42 -57 60 -74 17 -17 37 -42
44 -55 7 -13 33 -42 57 -64 44 -39 130 -141 165 -194 41 -62 41 -58 -2 -105
-22 -24 -40 -47 -40 -52 0 -5 -21 -31 -46 -58 -25 -27 -68 -79 -97 -115 -28
-36 -67 -83 -87 -103 -72 -76 -473 -534 -513 -586 -30 -39 -75 -82 -87 -82 -9
0 -22 29 -72 155 -22 55 -49 119 -59 142 -10 23 -19 48 -19 55 0 8 -4 18 -9
24 -4 5 -21 45 -36 89 -15 44 -36 96 -46 116 -10 20 -41 97 -70 170 -28 74
-62 163 -76 199 -21 55 -24 76 -20 133 4 38 13 80 22 93 8 13 15 28 15 33 0
10 36 99 120 296 22 50 52 126 68 170 39 106 75 189 85 193 4 2 7 9 7 16 0 7
9 30 20 53 25 52 50 124 50 145 0 9 6 18 13 21 15 5 37 -2 37 -13z m-4811 -27
c7 -16 33 -80 58 -143 50 -129 93 -221 108 -232 6 -4 10 -13 11 -20 2 -29 18
-76 44 -128 15 -30 38 -86 51 -125 13 -38 32 -79 41 -89 10 -11 18 -28 18 -38
0 -11 7 -33 16 -50 17 -33 38 -101 50 -163 4 -22 8 -46 10 -54 1 -7 -1 -23 -6
-35 -4 -11 -18 -48 -31 -81 -12 -33 -39 -98 -61 -144 -21 -46 -41 -98 -44
-115 -3 -17 -17 -56 -31 -86 -14 -30 -28 -72 -30 -92 -3 -21 -12 -43 -19 -49
-8 -6 -14 -20 -14 -30 0 -23 -31 -89 -42 -89 -4 0 -8 -6 -8 -14 0 -7 -20 -63
-45 -122 -24 -60 -49 -128 -55 -151 -15 -61 -44 -59 -104 8 -25 28 -46 56 -46
61 0 6 -23 34 -51 63 -27 29 -58 63 -67 76 -25 36 -111 137 -170 199 -29 30
-52 58 -52 61 0 4 -18 27 -41 51 -61 65 -202 236 -218 266 -15 27 -48 66 -118
141 -58 61 -64 97 -25 153 16 24 39 52 51 62 11 11 21 23 21 28 0 5 6 15 13
22 7 8 29 33 48 56 18 24 90 109 159 191 111 131 158 187 250 302 14 17 39 45
56 61 17 17 62 69 99 116 89 113 133 160 149 160 7 0 18 -12 25 -27z m4324
-1120 c8 -16 17 -40 21 -56 4 -15 17 -51 30 -80 13 -28 27 -63 31 -77 4 -14
13 -38 21 -55 7 -16 25 -67 39 -113 15 -46 33 -96 41 -110 8 -15 14 -35 14
-45 0 -9 4 -25 9 -35 5 -9 14 -28 20 -42 6 -14 15 -32 20 -40 5 -8 21 -46 36
-85 15 -38 31 -77 36 -85 37 -60 82 -168 86 -204 5 -43 4 -44 -31 -57 -20 -7
-36 -20 -36 -28 0 -8 -3 -12 -6 -8 -8 8 -67 -22 -77 -39 -4 -7 -25 -23 -47
-35 -22 -13 -40 -26 -40 -31 0 -4 -5 -8 -11 -8 -6 0 -39 -20 -73 -44 -34 -24
-77 -51 -96 -60 -19 -9 -44 -22 -55 -29 -65 -41 -111 -71 -126 -86 -10 -9 -41
-28 -68 -41 -28 -14 -51 -28 -51 -32 0 -5 -7 -8 -15 -8 -8 0 -15 -5 -15 -10 0
-6 -12 -16 -27 -23 -16 -6 -34 -17 -41 -24 -7 -7 -20 -13 -28 -13 -15 0 -13
35 6 105 22 76 30 114 30 135 0 23 55 239 70 275 5 11 14 44 20 73 7 29 20 69
30 90 19 39 46 145 60 227 8 53 58 223 70 240 4 6 11 33 15 60 4 28 13 61 20
75 7 14 28 95 46 180 17 85 34 158 36 163 8 14 23 6 36 -20z m-3844 -14 c6
-18 11 -42 11 -54 0 -12 3 -25 7 -29 4 -3 8 -17 10 -29 3 -19 32 -111 50 -157
3 -8 8 -26 10 -40 9 -62 48 -211 64 -242 7 -14 21 -86 32 -163 2 -11 8 -29 14
-40 5 -11 16 -48 23 -83 7 -34 17 -65 21 -68 5 -3 9 -19 9 -36 0 -34 19 -108
32 -123 4 -5 8 -20 8 -33 0 -28 49 -215 91 -346 22 -70 25 -136 6 -136 -8 0
-39 20 -69 43 -31 24 -71 50 -90 57 -18 8 -51 26 -73 40 -22 15 -58 39 -81 54
-22 14 -50 35 -62 46 -12 11 -25 20 -30 20 -5 0 -17 9 -26 19 -10 11 -42 35
-73 53 -30 18 -73 47 -96 64 -56 40 -195 124 -207 124 -16 0 -12 28 10 70 11
22 20 47 20 56 0 9 13 45 29 79 16 34 34 80 40 102 6 22 17 46 24 51 7 6 26
51 43 99 16 48 32 89 36 91 8 4 33 82 30 94 -1 4 7 23 17 41 10 18 22 53 26
76 4 23 13 55 21 69 8 15 14 34 14 43 0 13 30 96 60 164 4 11 11 28 14 38 8
26 23 20 35 -14z m5235 -108 c4 -65 2 -120 -4 -135 -5 -14 -9 -56 -8 -93 3
-112 -12 -326 -23 -340 -6 -7 -15 -10 -20 -7 -5 3 -9 -19 -9 -48 0 -64 -18
-178 -30 -193 -10 -12 -49 -163 -56 -215 -14 -105 -9 -97 -62 -89 -56 8 -122
27 -217 64 -73 28 -90 33 -299 89 -71 20 -134 40 -139 45 -18 18 3 58 63 122
34 35 69 80 80 100 10 20 50 68 87 107 37 39 73 77 78 84 25 32 131 155 147
169 10 9 18 20 18 25 0 5 18 26 40 47 22 20 40 41 40 45 0 4 8 14 18 23 15 14
112 122 154 173 40 47 123 136 129 136 3 0 9 -49 13 -109z m-6479 -81 c12 -19
34 -46 49 -60 41 -38 152 -173 160 -194 3 -10 9 -16 12 -13 4 3 16 -12 28 -34
22 -43 54 -80 181 -218 130 -139 270 -301 273 -315 5 -23 -26 -44 -75 -50 -27
-3 -72 -8 -101 -12 -29 -3 -59 -12 -66 -19 -13 -13 -69 -30 -186 -56 -25 -6
-54 -14 -65 -19 -11 -5 -36 -11 -55 -14 -19 -2 -61 -12 -92 -22 -73 -22 -88
-10 -88 68 0 30 -9 97 -20 149 -21 98 -63 344 -75 439 -4 30 -12 58 -17 61
-14 9 -24 179 -20 340 l3 137 66 -67 c36 -36 75 -82 88 -101z m825 -935 c16
-8 35 -24 43 -35 15 -22 101 -80 117 -80 5 0 20 -10 34 -23 14 -13 62 -46 106
-73 131 -79 234 -148 264 -175 15 -14 70 -48 123 -75 177 -90 196 -112 207
-234 4 -41 10 -77 15 -80 5 -3 13 -30 19 -60 38 -201 56 -286 61 -290 7 -5 17
-37 51 -160 20 -73 30 -112 64 -255 10 -38 23 -93 30 -121 l12 -51 -65 13
c-72 13 -240 56 -311 79 -85 27 -305 84 -350 91 -25 4 -50 10 -56 15 -6 5 -46
17 -90 28 -43 10 -142 37 -219 59 -77 23 -182 48 -234 56 -51 8 -95 17 -98 20
-7 7 57 388 67 401 10 12 26 94 40 202 6 45 22 126 36 180 13 54 29 154 34
223 5 69 16 163 25 210 8 47 15 100 15 118 0 37 14 41 60 17z m4730 -84 c0
-76 33 -283 75 -481 7 -36 19 -125 25 -199 6 -74 17 -146 24 -160 14 -27 17
-43 41 -236 28 -220 27 -205 2 -214 -12 -4 -51 -11 -87 -15 -60 -6 -188 -37
-540 -131 -74 -20 -171 -43 -215 -52 -44 -8 -85 -21 -91 -29 -6 -7 -37 -16
-70 -19 -71 -8 -354 -84 -354 -96 0 -5 -12 -9 -26 -9 -21 0 -25 3 -19 18 4 9
16 53 27 97 25 99 57 213 68 241 4 12 11 46 15 77 4 32 11 57 16 57 4 0 11 21
14 48 4 26 10 56 15 67 5 11 16 52 25 90 9 39 23 97 31 130 8 33 19 89 25 125
6 36 15 70 19 75 4 6 11 31 14 57 5 35 13 51 29 59 12 7 37 25 55 40 18 16 45
32 60 35 30 8 129 73 177 116 35 33 133 98 146 98 5 0 9 4 9 8 0 13 165 122
184 122 9 0 16 6 16 13 0 11 54 50 124 87 17 10 55 31 85 48 l55 30 13 -25 c7
-14 13 -46 13 -72z m-4865 78 c10 -15 -11 -153 -58 -390 -14 -69 -30 -170 -37
-225 -6 -54 -15 -112 -20 -129 -5 -16 -14 -75 -20 -130 -6 -55 -20 -143 -31
-195 -11 -52 -23 -117 -26 -143 -6 -56 -30 -62 -46 -12 -6 17 -14 32 -18 35
-5 3 -21 30 -36 60 -16 30 -41 74 -56 97 -15 24 -27 45 -27 48 0 3 -17 42 -39
88 -21 45 -44 98 -51 117 -7 19 -30 76 -52 125 -64 143 -118 301 -118 346 0
14 -4 29 -9 34 -4 6 -11 31 -14 57 -6 44 -5 48 16 53 127 28 192 46 195 55 2
5 7 8 12 5 10 -6 111 20 119 32 5 8 96 39 146 49 83 16 107 22 112 28 10 10
51 7 58 -5z m5115 -45 c74 -25 159 -49 187 -54 29 -5 67 -16 85 -24 18 -8 74
-26 123 -39 105 -28 102 -14 49 -182 -20 -60 -40 -126 -46 -145 -5 -19 -27
-69 -47 -110 -42 -85 -66 -150 -75 -197 -3 -18 -16 -49 -29 -70 -13 -21 -32
-63 -43 -93 -10 -30 -21 -57 -24 -60 -3 -3 -21 -36 -40 -75 -19 -38 -43 -77
-52 -87 -10 -10 -18 -27 -18 -37 0 -11 -6 -26 -13 -33 -8 -7 -19 -23 -26 -36
-22 -42 -38 -26 -44 44 -3 37 -10 69 -15 73 -6 4 -14 51 -17 106 -3 55 -12
123 -20 150 -7 28 -19 95 -25 150 -19 156 -28 221 -50 355 -11 69 -25 177 -30
240 -6 63 -13 127 -16 143 -6 25 -4 27 22 27 16 0 90 -21 164 -46z m-3805
-707 c79 -45 113 -67 162 -107 7 -6 15 -10 18 -10 3 0 14 -8 25 -18 10 -9 49
-32 87 -50 37 -19 79 -40 93 -47 14 -8 75 -38 135 -68 61 -30 119 -64 129 -75
11 -12 26 -22 35 -22 9 0 25 -6 36 -13 11 -8 54 -29 95 -48 41 -18 83 -44 93
-56 10 -12 28 -25 40 -29 39 -11 87 -36 87 -44 0 -5 -10 -12 -22 -15 -13 -4
-45 -17 -73 -30 -27 -12 -77 -30 -110 -39 -33 -10 -70 -24 -81 -31 -12 -8 -84
-35 -160 -61 -77 -26 -140 -51 -142 -56 -2 -4 -14 -8 -27 -8 -13 0 -25 -4 -27
-8 -6 -14 -326 -124 -338 -117 -5 3 -12 22 -16 43 -5 31 -56 236 -80 322 -4
14 -11 27 -15 30 -5 3 -19 55 -32 115 -23 102 -34 146 -88 325 -10 36 -24 90
-30 120 -6 30 -17 67 -25 82 -30 57 -17 60 64 12 42 -26 118 -69 167 -97z
m2510 71 c-3 -24 -10 -52 -14 -63 -9 -21 -56 -216 -67 -275 -3 -19 -10 -39
-14 -45 -13 -16 -40 -130 -40 -167 0 -19 -4 -38 -9 -44 -4 -5 -14 -43 -20 -84
-7 -41 -25 -120 -40 -175 -16 -55 -34 -119 -40 -142 l-11 -42 -73 20 c-39 11
-91 29 -114 39 -24 11 -49 20 -58 20 -19 0 -96 30 -115 45 -8 6 -35 17 -60 24
-25 7 -54 18 -65 25 -11 7 -56 25 -100 41 -44 15 -98 36 -120 45 -22 10 -58
24 -80 30 -22 7 -49 16 -60 20 -11 4 -46 15 -77 25 -48 15 -58 22 -58 41 0 18
11 26 58 43 65 24 103 44 150 79 39 30 100 65 162 94 25 11 58 30 75 42 16 11
39 26 50 32 110 58 204 110 223 122 13 8 37 22 53 31 16 9 66 38 111 64 44 27
92 51 105 53 14 3 37 13 51 23 115 79 182 121 195 121 5 0 6 -19 2 -42z
m-1243 -739 c36 -10 68 -23 70 -28 2 -5 57 -30 123 -55 66 -25 153 -59 193
-75 39 -17 134 -51 210 -76 75 -25 142 -52 149 -59 6 -7 47 -26 90 -41 43 -16
80 -30 82 -32 10 -7 -36 -74 -81 -119 -26 -26 -48 -52 -48 -56 0 -5 -10 -19
-23 -31 -12 -12 -47 -51 -77 -87 -30 -36 -58 -67 -61 -70 -3 -3 -55 -61 -115
-130 -60 -69 -127 -145 -150 -169 -23 -24 -62 -68 -86 -97 -23 -29 -46 -53
-51 -54 -12 0 -66 -64 -67 -77 0 -7 -4 -13 -8 -13 -5 0 -15 -11 -22 -25 -7
-14 -18 -25 -24 -25 -6 0 -21 -15 -34 -33 -12 -17 -58 -70 -101 -116 l-79 -84
-34 27 c-18 16 -48 47 -66 70 -18 22 -65 75 -105 116 -40 41 -92 99 -117 129
-25 30 -67 77 -95 105 -27 27 -59 64 -70 82 -20 32 -62 80 -219 244 -190 199
-376 408 -376 422 0 3 20 8 44 11 50 7 217 63 225 76 4 4 24 11 46 15 22 4 76
22 120 41 70 29 190 73 335 122 25 9 50 22 56 29 6 8 21 14 33 14 27 0 122 39
136 56 22 27 87 25 197 -7z m-2643 -11 c28 -6 51 -15 51 -19 0 -4 21 -10 48
-13 26 -4 108 -23 182 -42 74 -20 203 -53 285 -74 83 -21 175 -45 205 -54 30
-8 91 -24 135 -36 44 -11 100 -27 125 -35 25 -7 64 -17 87 -20 24 -4 45 -11
49 -16 3 -5 12 -9 21 -9 8 0 39 -7 69 -16 69 -20 70 -14 -33 -199 -27 -49 -59
-106 -71 -125 -12 -19 -27 -47 -33 -62 -6 -16 -15 -28 -20 -28 -5 0 -25 -34
-45 -76 -20 -42 -51 -93 -70 -114 -19 -20 -41 -54 -49 -74 -24 -57 -55 -50
-159 39 -26 22 -70 60 -99 84 -147 124 -323 307 -420 436 -25 33 -58 74 -74
92 -40 44 -55 63 -83 103 -13 19 -27 37 -30 40 -4 3 -19 28 -33 57 -14 29 -44
77 -66 107 -23 30 -41 58 -41 61 0 8 13 6 69 -7z m5111 -8 c0 -12 -91 -157
-115 -183 -8 -10 -25 -34 -36 -53 -19 -34 -59 -94 -69 -104 -3 -3 -32 -41 -65
-84 -131 -174 -386 -435 -474 -486 -14 -8 -32 -23 -41 -32 -36 -40 -125 -108
-141 -108 -24 0 -90 91 -137 188 -23 45 -54 99 -70 120 -33 43 -65 94 -98 160
-14 26 -38 65 -54 87 -37 49 -65 101 -74 138 -6 24 -4 27 21 27 14 0 40 4 57
9 17 5 58 14 90 20 33 6 150 36 260 66 111 31 217 60 236 65 19 5 69 18 110
29 41 11 127 32 190 46 190 43 314 76 340 91 30 16 70 18 70 4z m-1426 -404
c15 -13 26 -28 26 -34 0 -6 3 -12 8 -14 7 -3 26 -36 98 -178 24 -47 50 -92 57
-100 8 -8 36 -55 62 -105 27 -49 65 -110 87 -134 21 -24 38 -52 38 -62 0 -11
5 -19 10 -19 6 0 10 -15 10 -33 0 -25 -7 -39 -30 -56 -17 -12 -34 -20 -38 -17
-5 3 -21 -6 -35 -20 -32 -29 -166 -100 -207 -109 -15 -3 -37 -15 -48 -25 -12
-11 -28 -20 -37 -20 -9 0 -35 -10 -58 -22 -23 -11 -79 -29 -125 -40 -73 -16
-139 -39 -194 -69 -26 -13 -180 -46 -283 -59 -49 -6 -94 -15 -100 -20 -6 -5
-55 -12 -108 -16 -54 -4 -100 -11 -103 -15 -8 -13 -124 -11 -124 2 0 5 28 39
63 74 34 35 69 73 77 84 8 12 20 21 26 21 7 0 27 20 46 44 29 39 237 273 438
491 97 107 158 177 178 206 9 14 34 43 56 65 21 21 67 76 103 122 36 45 69 82
73 82 5 0 20 -11 34 -24z m-2238 -63 c43 -50 150 -165 239 -258 17 -17 72 -78
124 -135 99 -110 134 -147 385 -405 86 -87 156 -164 156 -170 0 -5 20 -26 44
-45 24 -19 52 -47 61 -63 15 -24 15 -28 1 -33 -9 -4 -58 -1 -109 5 -50 6 -130
16 -177 21 -47 6 -92 13 -100 17 -8 3 -53 14 -100 23 -47 10 -110 25 -140 35
-30 9 -71 19 -90 22 -19 3 -53 13 -75 23 -22 11 -76 29 -120 40 -44 12 -99 32
-122 45 -23 13 -59 29 -80 35 -57 19 -152 69 -193 101 -19 15 -46 34 -60 41
-66 36 -100 61 -100 73 0 17 32 87 69 150 17 28 36 61 44 75 7 14 39 68 70
122 31 53 57 101 57 106 0 6 4 12 8 14 4 2 27 41 51 88 39 76 81 130 101 130
4 0 29 -26 56 -57z"/>
</g>
</svg>
