<?xml version="1.0" standalone="no"?>
<!DOCTYPE svg PUBLIC "-//W3C//DTD SVG 20010904//EN"
 "http://www.w3.org/TR/2001/REC-SVG-20010904/DTD/svg10.dtd">
<svg version="1.0" xmlns="http://www.w3.org/2000/svg"
 width="1024.000000pt" height="1024.000000pt" viewBox="0 0 1024.000000 1024.000000"
 preserveAspectRatio="xMidYMid meet">

<g transform="translate(0.000000,1024.000000) scale(0.100000,-0.100000)"
fill="#000000" stroke="none">
<path d="M5014 9127 c-92 -96 -270 -294 -410 -457 -54 -63 -107 -124 -117
-135 -17 -18 -122 -148 -205 -253 -18 -23 -62 -81 -98 -130 -35 -48 -67 -91
-72 -97 -80 -104 -434 -683 -540 -885 -36 -69 -68 -129 -72 -135 -23 -32 -232
-440 -298 -583 -293 -630 -456 -1214 -513 -1843 -15 -171 -6 -780 14 -914 89
-586 276 -1043 601 -1465 147 -192 473 -456 731 -591 148 -78 525 -187 745
-214 155 -20 473 -22 615 -5 99 12 253 40 385 72 160 38 423 145 561 230 95
58 281 197 381 285 350 306 617 768 738 1278 77 323 100 506 107 860 6 328 -6
525 -53 810 -33 207 -131 592 -203 805 -83 243 -154 442 -190 528 -37 88 -261
542 -329 667 -27 50 -68 126 -92 170 -23 44 -58 105 -76 136 -19 31 -34 60
-34 63 0 4 -16 32 -35 62 -19 30 -35 58 -35 62 0 4 -20 36 -44 72 -24 36 -73
110 -108 165 -277 428 -492 725 -687 946 -42 47 -87 99 -100 115 -182 219
-426 464 -463 464 -18 0 -46 -23 -104 -83z m63 -694 c-4 -351 -7 -673 -7 -715
l0 -77 -67 36 c-85 45 -193 115 -193 124 0 4 -26 22 -57 40 -81 46 -219 138
-281 187 -29 22 -62 44 -75 48 -12 4 -41 20 -64 36 l-43 29 20 39 c11 21 38
59 61 84 23 25 51 59 63 75 76 104 162 208 238 286 49 49 88 94 88 99 0 10 19
32 182 214 65 72 124 132 130 132 8 0 9 -180 5 -637z m103 626 c0 -7 15 -26
34 -43 56 -51 227 -237 286 -310 30 -38 61 -74 68 -80 7 -6 23 -22 35 -36 12
-13 43 -47 68 -75 26 -27 59 -70 74 -95 16 -25 54 -74 85 -110 31 -36 70 -83
88 -106 l31 -41 -27 -26 c-15 -14 -40 -31 -56 -37 -16 -6 -80 -48 -142 -93
-180 -130 -205 -146 -392 -260 -26 -16 -58 -39 -72 -51 -14 -13 -42 -33 -62
-45 l-38 -23 0 721 c0 474 3 721 10 721 6 0 10 -5 10 -11z m893 -1088 c33 -55
71 -140 105 -236 75 -210 142 -417 142 -438 0 -9 4 -25 10 -35 15 -27 48 -161
55 -227 4 -33 16 -91 27 -130 11 -38 26 -106 33 -150 28 -168 47 -259 56 -276
11 -21 12 -69 2 -69 -10 0 -76 53 -203 165 -111 97 -266 227 -376 315 -37 30
-91 76 -119 101 -27 26 -89 80 -136 120 -412 352 -499 436 -467 449 7 3 55 34
107 70 52 36 101 70 110 75 8 6 55 37 104 70 49 33 112 72 139 87 27 15 64 38
81 53 37 30 155 109 212 141 48 28 49 27 118 -85z m-1747 61 c33 -21 118 -77
189 -124 72 -47 191 -125 265 -174 159 -105 260 -181 260 -196 0 -29 -86 -120
-141 -148 -20 -10 -76 -54 -125 -97 -216 -190 -771 -662 -879 -748 -27 -22
-71 -60 -97 -84 l-48 -44 0 54 c1 30 10 99 21 154 10 55 26 136 33 180 28 154
111 491 131 533 8 15 26 71 39 123 49 188 137 421 198 522 62 103 69 105 154
49z m2006 -431 c12 -25 37 -66 56 -90 18 -25 56 -88 83 -140 81 -156 143 -268
168 -302 38 -51 341 -664 341 -689 0 -6 -18 -10 -39 -10 -21 0 -105 -9 -187
-20 -81 -11 -149 -18 -151 -16 -2 2 -8 32 -14 67 -19 115 -60 332 -80 424 -44
200 -91 391 -101 409 -6 11 -25 69 -43 130 -18 61 -47 152 -64 203 -17 50 -31
97 -31 104 0 22 39 -22 62 -70z m-2372 41 c0 -9 -8 -33 -19 -52 -10 -20 -26
-69 -36 -110 -9 -41 -23 -90 -31 -108 -8 -18 -14 -42 -14 -53 0 -11 -18 -93
-41 -181 -22 -89 -49 -207 -60 -263 -11 -55 -27 -120 -34 -145 -20 -62 -55
-269 -55 -321 0 -70 -4 -72 -111 -60 -52 6 -141 13 -198 15 -57 3 -105 7 -108
9 -5 6 143 326 161 347 7 8 29 50 49 92 20 43 49 97 65 120 31 46 107 185 155
283 17 33 33 62 37 65 16 11 81 131 75 140 -9 14 54 118 76 125 10 4 19 15 19
26 0 22 46 89 61 89 5 0 9 -8 9 -18z m1181 -195 c9 -18 42 -81 74 -142 32 -60
97 -186 145 -280 48 -93 128 -249 179 -345 88 -169 327 -648 466 -935 37 -77
115 -237 173 -355 214 -438 196 -393 196 -495 0 -49 -10 -198 -22 -330 -12
-132 -24 -269 -27 -305 -13 -165 -27 -322 -36 -400 -9 -84 -32 -335 -44 -482
-5 -53 -12 -81 -23 -91 -17 -14 -125 -76 -277 -157 -44 -24 -122 -67 -173 -97
-51 -29 -94 -53 -97 -53 -2 0 -39 -21 -82 -47 -43 -25 -163 -95 -267 -154
-213 -122 -200 -120 -306 -59 -36 21 -85 49 -110 62 -131 74 -294 166 -360
206 -104 63 -327 187 -442 247 l-95 49 -6 71 c-4 38 -11 113 -17 165 -6 52
-15 138 -21 190 -5 52 -13 136 -18 185 -5 50 -11 118 -12 153 -1 35 -8 87 -15
115 -7 29 -18 113 -23 187 -5 74 -12 146 -15 160 -10 55 -28 414 -22 453 4 22
20 66 36 96 49 96 408 829 478 976 36 77 76 158 87 180 41 77 193 372 307 595
64 124 166 325 229 448 62 122 116 222 119 222 3 -1 12 -15 21 -33z m-256
-227 c-31 -55 -64 -124 -75 -155 -16 -46 -338 -690 -360 -720 -28 -38 -206
-391 -231 -460 -12 -33 -92 -200 -178 -370 -86 -171 -167 -335 -180 -365 l-24
-55 -8 45 c-4 25 -10 97 -13 160 -4 63 -11 158 -17 210 -5 52 -16 173 -25 269
-8 96 -17 191 -19 210 -3 20 -9 89 -15 155 -12 141 -4 169 71 226 48 37 517
428 700 585 308 264 369 318 395 352 49 64 38 17 -21 -87z m525 13 c30 -29 61
-53 68 -53 6 0 12 -4 12 -8 0 -10 387 -342 703 -601 176 -146 317 -274 318
-290 1 -9 0 -20 -1 -26 -2 -10 -28 -300 -55 -615 -7 -85 -18 -207 -24 -270 -6
-63 -14 -148 -18 -189 l-6 -75 -25 55 c-14 30 -92 191 -174 358 -81 167 -148
307 -148 310 0 4 -11 23 -25 44 -22 31 -327 633 -438 862 -18 39 -93 187 -167
330 -144 281 -145 288 -20 168z m-2025 -948 c157 -19 185 -24 185 -33 0 -17
-29 -50 -301 -342 -79 -86 -180 -197 -223 -248 -44 -51 -84 -92 -88 -92 -14 0
-9 25 17 76 25 51 125 333 125 353 0 7 14 41 30 76 17 36 36 89 42 117 18 77
46 121 72 114 12 -4 75 -13 141 -21z m3652 -12 c3 -10 14 -36 23 -58 10 -22
31 -76 48 -120 17 -44 48 -123 68 -175 20 -52 43 -120 50 -150 8 -30 25 -91
38 -134 l25 -79 -37 44 c-32 39 -201 219 -256 275 -12 11 -37 38 -56 60 -20
21 -84 92 -142 156 -59 64 -114 130 -123 147 l-16 31 63 1 c35 0 81 4 103 8
22 5 77 9 123 10 70 1 84 -2 89 -16z m-304 -201 c62 -68 138 -156 171 -195 32
-40 100 -119 150 -175 50 -57 112 -129 138 -160 26 -32 68 -78 93 -103 40 -40
45 -51 39 -75 -10 -46 -45 -146 -66 -189 -26 -53 -160 -425 -186 -515 -14 -49
-156 -447 -175 -489 -14 -32 -16 -33 -26 -15 -6 10 -98 195 -205 410 -184 370
-209 431 -193 474 2 8 10 78 16 155 7 77 18 199 26 270 20 180 21 194 40 425
9 113 19 233 21 267 5 59 7 62 25 50 11 -7 70 -68 132 -135z m-3074 28 c0 -30
6 -91 11 -135 6 -44 17 -143 26 -220 8 -77 22 -198 29 -270 8 -71 19 -164 24
-205 6 -41 10 -105 11 -142 0 -38 4 -68 8 -68 22 0 6 -153 -18 -162 -8 -3
-359 -699 -381 -755 -5 -14 -12 -24 -14 -21 -9 9 -115 309 -115 327 0 30 -68
231 -111 328 -11 23 -19 47 -19 52 0 18 -41 134 -61 171 -26 50 -59 141 -59
166 0 32 -31 115 -58 156 -40 61 -30 78 161 286 95 102 203 222 241 266 39 45
124 139 190 210 119 127 121 128 127 100 4 -16 7 -54 8 -84z m-762 -877 c6
-21 17 -58 23 -83 7 -25 20 -63 29 -85 24 -56 101 -282 112 -328 5 -22 18 -55
28 -75 10 -21 21 -51 24 -68 3 -17 18 -57 33 -90 15 -32 39 -95 55 -139 16
-44 46 -130 68 -192 21 -61 37 -114 33 -117 -3 -3 -16 -6 -30 -6 -13 0 -92
-22 -175 -50 -84 -27 -190 -58 -237 -69 -77 -17 -86 -18 -97 -3 -10 12 -11 82
-8 296 8 399 31 648 85 920 30 153 36 162 57 89z m4486 30 c14 -48 28 -132 48
-273 12 -85 28 -202 37 -260 17 -115 24 -739 9 -794 -6 -20 -13 -27 -25 -23
-9 2 -87 23 -172 46 -218 59 -320 93 -330 112 -9 16 35 156 78 249 40 87 214
574 234 655 5 22 13 47 18 56 4 8 15 42 23 75 21 81 57 174 67 174 5 0 11 -8
13 -17z m-774 -752 c82 -164 153 -307 159 -317 61 -120 73 -153 64 -171 -6
-10 -55 -70 -109 -134 -182 -217 -298 -356 -342 -413 -26 -33 -48 -53 -53 -48
-9 9 0 113 22 282 17 128 40 392 40 464 0 38 4 85 9 105 9 32 30 239 47 454 3
42 8 77 10 77 2 0 71 -134 153 -299z m-2810 179 c6 -47 24 -227 41 -400 16
-173 39 -414 51 -535 32 -332 32 -328 21 -324 -16 6 -186 195 -218 242 -37 55
-115 158 -134 177 -84 84 -160 174 -160 188 0 24 87 202 145 298 25 40 45 77
45 81 0 5 41 92 92 195 56 113 95 182 100 175 4 -7 11 -51 17 -97z m3213 -720
c24 -6 122 -38 218 -70 96 -32 190 -61 208 -65 38 -8 37 -2 18 -155 -16 -123
-38 -238 -60 -310 -75 -242 -171 -520 -179 -517 -10 3 -80 243 -96 327 -5 25
-18 79 -29 120 -27 100 -58 247 -72 342 -6 42 -25 125 -41 185 -43 155 -45
167 -26 160 9 -3 35 -11 59 -17z m-3722 -7 c0 -13 -29 -173 -46 -258 -9 -44
-22 -91 -29 -105 -7 -14 -16 -47 -19 -75 -25 -176 -144 -685 -161 -685 -18 0
-67 118 -89 215 -4 17 -15 48 -25 70 -10 22 -24 67 -30 100 -6 33 -22 80 -35
105 -25 47 -35 102 -61 315 -9 72 -18 145 -21 163 -5 30 -3 32 24 32 16 0 103
22 194 49 263 79 298 88 298 74z m90 -12 c0 -14 257 -331 324 -401 35 -36 83
-92 107 -126 24 -34 64 -88 89 -120 42 -56 46 -67 87 -249 35 -156 113 -521
113 -530 0 -2 -93 21 -208 50 -114 29 -264 64 -332 79 -69 15 -163 38 -210 51
-47 13 -114 29 -150 35 -120 20 -113 15 -105 63 4 23 14 52 23 65 8 13 21 58
28 100 7 42 20 104 28 137 9 33 30 125 47 205 17 80 37 174 45 210 8 36 23
110 34 165 11 55 23 106 25 113 2 7 5 16 6 20 1 4 8 27 15 52 8 25 14 55 14
68 0 12 5 22 10 22 6 0 10 -4 10 -9z m3495 -23 c5 -23 40 -184 75 -349 48
-223 181 -727 210 -795 8 -20 5 -22 -33 -28 -54 -8 -308 -67 -507 -118 -85
-22 -177 -43 -205 -48 -27 -5 -68 -16 -90 -24 -34 -12 -112 -35 -177 -52 -14
-4 -16 1 -12 33 3 21 10 52 16 68 19 56 93 368 117 495 26 135 62 210 140 291
9 9 56 65 106 125 49 60 130 159 180 219 50 61 106 131 125 158 37 53 47 57
55 25z m-695 -853 c-16 -66 -32 -140 -35 -165 -4 -25 -10 -54 -15 -65 -11 -24
-70 -292 -70 -318 0 -15 -5 -17 -27 -13 -16 4 -74 11 -131 16 -56 5 -158 21
-225 34 -67 14 -144 28 -172 31 -27 4 -61 9 -75 12 -14 2 -63 8 -110 13 -100
10 -90 8 -90 19 0 5 33 25 73 45 40 19 86 45 102 57 16 13 67 43 114 67 47 24
130 70 183 103 54 32 100 59 104 59 7 0 288 161 353 202 25 15 46 27 47 25 2
-2 -10 -57 -26 -122z m-2077 82 c34 -19 91 -52 127 -75 36 -23 126 -72 200
-108 74 -37 155 -81 180 -100 25 -18 104 -62 175 -99 72 -37 137 -73 145 -79
8 -7 32 -21 53 -31 20 -11 37 -23 37 -27 0 -5 -26 -8 -57 -8 -61 0 -283 -36
-318 -51 -21 -9 -235 -44 -369 -60 -90 -11 -92 -10 -102 61 -6 43 -35 174 -68
305 -40 161 -48 193 -57 225 -18 62 -21 80 -15 80 4 0 35 -15 69 -33z m-888
-497 c22 -5 92 -21 155 -35 165 -38 176 -41 270 -65 47 -11 124 -30 172 -40
48 -11 100 -26 116 -34 16 -8 53 -18 83 -21 30 -3 64 -8 77 -11 l22 -4 -20
-39 c-11 -22 -33 -59 -49 -83 -16 -24 -39 -65 -52 -93 -43 -92 -182 -325 -194
-325 -6 0 -45 24 -85 53 -40 28 -94 66 -119 83 -45 30 -140 131 -173 184 -8
14 -44 59 -79 102 -35 42 -77 98 -94 124 -16 27 -37 60 -46 74 -9 14 -33 53
-53 88 l-36 64 33 -7 c17 -3 50 -10 72 -15z m3872 -62 c-47 -84 -138 -214
-213 -308 -70 -87 -397 -400 -418 -400 -10 0 -66 92 -66 107 0 8 -18 37 -40
66 -21 29 -50 78 -64 108 -13 31 -36 73 -50 94 -14 21 -26 45 -26 55 0 9 -13
36 -30 58 -38 53 -39 72 -2 72 15 0 110 22 212 49 225 59 374 95 675 164 66
15 67 12 22 -65z m-1777 -43 c30 -7 129 -23 220 -35 237 -31 451 -67 462 -78
6 -6 -38 -59 -114 -139 -157 -165 -317 -336 -409 -438 -161 -178 -334 -355
-346 -355 -7 0 -21 12 -31 28 -18 29 -28 40 -437 470 -440 463 -421 442 -388
442 33 0 392 56 443 70 19 5 62 11 95 14 33 3 76 10 95 16 19 5 57 10 85 11
27 1 61 5 75 10 33 11 181 2 250 -16z m-1047 -245 c40 -53 97 -115 337 -365
197 -206 336 -348 390 -399 28 -26 49 -50 47 -52 -2 -3 -85 5 -183 15 -98 11
-204 23 -234 26 -68 6 -161 31 -169 44 -4 5 -25 12 -48 15 -61 7 -154 38 -160
53 -3 7 -17 13 -32 13 -42 0 -324 155 -346 190 -8 13 59 149 96 196 15 19 38
56 50 82 13 26 29 54 37 62 8 8 31 48 50 90 19 41 42 85 50 97 14 22 15 22 44
5 17 -9 49 -42 71 -72z m1850 38 c15 -29 51 -93 80 -143 29 -49 79 -139 111
-199 31 -60 64 -119 73 -132 8 -13 11 -24 6 -24 -5 0 -60 -34 -123 -76 -131
-87 -186 -114 -244 -118 -23 -2 -66 -15 -97 -29 -31 -15 -62 -27 -70 -27 -8 0
-39 -7 -69 -15 -113 -31 -287 -68 -345 -72 -33 -3 -64 -9 -69 -14 -6 -5 -41
-9 -80 -9 l-69 0 63 68 c35 37 107 112 160 167 53 55 136 143 186 195 49 53
163 174 254 269 90 95 170 181 178 192 7 10 16 19 20 19 5 0 20 -24 35 -52z"/>
</g>
</svg>
