<?xml version="1.0" standalone="no"?>
<!DOCTYPE svg PUBLIC "-//W3C//DTD SVG 20010904//EN"
 "http://www.w3.org/TR/2001/REC-SVG-20010904/DTD/svg10.dtd">
<svg version="1.0" xmlns="http://www.w3.org/2000/svg"
 width="928.000000pt" height="1139.000000pt" viewBox="0 0 928.000000 1139.000000"
 preserveAspectRatio="xMidYMid meet">

<g transform="translate(0.000000,1139.000000) scale(0.100000,-0.100000)"
fill="#000000" stroke="none">
<path d="M1305 9182 c-26 -6 -31 -13 -37 -52 -9 -57 -10 -6636 -2 -6740 l7
-78 36 -6 c47 -8 5972 -5 6411 3 l335 6 2 3420 c1 1937 -1 3426 -6 3434 -8 12
-495 15 -3363 17 -1844 2 -3366 0 -3383 -4z m6225 -63 c0 -17 -37 -27 -165
-48 -222 -36 -363 -63 -615 -116 -91 -19 -273 -53 -405 -76 -330 -55 -383 -64
-515 -89 -63 -12 -159 -26 -213 -30 -54 -5 -111 -13 -125 -18 -31 -12 -201
-45 -312 -62 -41 -6 -127 -22 -190 -35 -243 -50 -390 -55 -567 -19 -43 9 -121
24 -173 34 -52 11 -126 26 -165 35 -38 9 -95 20 -125 26 -30 5 -86 16 -125 24
-38 8 -83 16 -100 19 -103 15 -243 40 -325 57 -52 11 -151 29 -220 41 -201 32
-269 45 -370 67 -131 29 -290 59 -380 72 -41 6 -78 13 -82 15 -16 10 -292 54
-338 54 -27 0 -51 4 -54 9 -4 5 -41 13 -84 18 -74 8 -71 8 88 14 91 3 1011 7
2044 8 1034 1 1882 4 1885 7 9 9 1631 3 1631 -7z m-5955 -34 c131 -14 311 -47
334 -62 13 -8 39 -15 57 -15 19 0 34 -4 34 -9 0 -5 15 -9 33 -9 35 0 181 -24
382 -64 175 -34 400 -74 455 -82 25 -3 77 -12 115 -20 39 -8 108 -21 155 -29
47 -8 132 -25 190 -39 124 -29 366 -67 430 -68 25 0 74 -7 110 -15 36 -8 79
-16 95 -19 124 -21 321 -66 330 -75 7 -8 -1661 -23 -1875 -17 -139 4 -160 7
-202 28 -27 13 -48 29 -48 36 0 6 -6 14 -14 17 -7 3 -73 45 -147 94 -74 48
-138 90 -144 92 -5 2 -12 7 -15 10 -4 5 -95 64 -225 147 -16 10 -41 24 -55 31
-14 7 -32 16 -40 21 -8 5 -28 15 -44 23 -44 21 -47 43 -5 36 19 -3 61 -9 94
-12z m6275 10 c0 -21 -118 -101 -525 -356 -55 -35 -120 -78 -144 -97 -60 -46
-93 -61 -154 -73 -57 -11 -703 -11 -1502 0 -463 6 -488 7 -454 22 56 26 292
68 474 84 39 4 75 11 81 16 9 8 376 82 546 110 32 5 69 14 84 19 27 11 156 35
259 50 152 22 661 112 703 124 26 8 112 26 192 40 213 39 251 46 290 55 40 10
150 14 150 6z m47 -73 c8 -5 -10 -41 -58 -117 -38 -60 -69 -112 -69 -117 0 -4
-6 -8 -13 -8 -13 0 -77 -102 -97 -154 -6 -16 -36 -72 -68 -125 -142 -237 -177
-284 -236 -322 -28 -18 -64 -43 -80 -57 -16 -13 -49 -33 -73 -44 -24 -11 -57
-33 -72 -48 -22 -23 -377 -267 -404 -279 -5 -2 -41 -25 -80 -52 -41 -29 -75
-45 -80 -40 -11 11 29 91 102 201 31 47 61 93 66 103 23 38 253 399 311 487
59 89 69 99 161 158 54 35 145 91 203 126 138 82 190 115 339 214 133 87 130
86 148 74z m-6405 -36 c47 -38 248 -174 294 -200 16 -9 79 -48 139 -86 61 -39
149 -91 197 -115 104 -53 124 -77 246 -280 49 -82 138 -226 197 -320 201 -317
211 -335 184 -335 -6 0 -83 48 -172 107 -262 173 -454 296 -569 367 -76 46
-133 100 -123 116 3 5 -17 41 -43 82 -52 78 -162 257 -162 263 0 5 -73 126
-165 275 -42 69 -81 133 -86 143 -16 29 15 21 63 -17z m6478 -44 c0 -26 -14
-119 -31 -207 -16 -88 -41 -221 -53 -295 -13 -74 -51 -288 -84 -475 -33 -187
-63 -362 -67 -390 -3 -27 -13 -79 -21 -115 -54 -245 -82 -388 -119 -605 -46
-270 -56 -319 -64 -329 -8 -9 -42 -162 -64 -286 -2 -14 -4 418 -3 960 l1 985
53 105 c30 58 75 134 101 170 25 36 57 83 70 105 13 22 34 51 47 65 12 14 31
45 42 70 16 37 84 153 162 277 20 31 30 19 30 -35z m-6572 -25 c15 -28 42 -74
59 -102 40 -65 172 -290 196 -334 45 -82 128 -209 155 -236 16 -16 34 -40 41
-52 13 -25 28 -215 25 -308 -2 -33 -3 -355 -3 -715 -1 -676 -9 -1062 -21
-1038 -4 7 -13 49 -19 93 -7 44 -17 102 -22 128 -5 26 -9 71 -9 100 0 58 -18
151 -79 417 -13 52 -29 138 -36 190 -17 117 -55 344 -95 555 -99 526 -157 846
-171 948 -7 48 -16 87 -20 87 -8 0 -25 82 -44 214 -19 135 -9 148 43 53z
m6592 -3154 c0 -1582 -4 -2873 -8 -2868 -14 16 -29 82 -52 220 -29 181 -42
254 -104 585 -14 74 -28 162 -31 195 -14 157 -29 265 -35 265 -5 0 -11 33 -15
73 -4 39 -11 77 -15 82 -7 9 -40 165 -54 255 -4 31 -31 182 -55 310 -38 202
-55 302 -71 410 -11 69 -28 177 -40 240 -38 214 -37 349 5 540 27 126 45 227
59 345 17 133 71 453 86 500 5 17 16 77 24 135 8 58 24 148 36 200 12 52 28
133 35 180 30 180 45 264 69 382 14 68 37 197 51 288 15 91 33 188 40 215 8
28 19 91 25 140 15 119 30 185 41 185 5 0 9 -1139 9 -2877z m-6632 2745 c6
-29 18 -100 27 -158 9 -58 28 -166 41 -240 14 -74 32 -175 40 -225 8 -49 21
-126 29 -170 13 -78 23 -134 65 -384 11 -68 22 -126 24 -130 5 -7 70 -369 91
-501 32 -211 57 -337 70 -365 16 -35 46 -162 75 -315 25 -136 22 -348 -8 -495
-11 -55 -32 -165 -46 -245 -48 -271 -115 -635 -140 -760 -50 -250 -78 -396
-83 -430 -3 -19 -9 -39 -14 -45 -5 -5 -9 -30 -9 -56 0 -26 -5 -60 -11 -76 -6
-15 -17 -66 -25 -113 -7 -47 -18 -107 -24 -135 -5 -27 -16 -90 -25 -140 -8
-49 -24 -137 -34 -195 -11 -58 -22 -143 -26 -190 -7 -108 -23 -190 -37 -190
-7 0 -8 35 -2 113 10 124 7 4854 -2 5250 -7 248 1 305 24 195z m5469 -2 c3 -3
-15 -10 -39 -17 -41 -11 -255 -83 -398 -133 -57 -20 -121 -41 -395 -129 -77
-25 -66 -21 -230 -79 -77 -27 -158 -54 -180 -60 -22 -6 -42 -14 -45 -18 -13
-17 -143 -64 -385 -141 -49 -15 -155 -51 -235 -79 -190 -66 -265 -82 -316 -69
-106 28 -325 107 -334 120 -3 4 -43 19 -90 34 -47 14 -94 30 -105 35 -11 5
-51 19 -90 31 -38 12 -74 25 -80 29 -5 4 -39 15 -75 24 -36 9 -74 21 -85 26
-11 4 -92 32 -180 60 -88 29 -194 66 -235 83 -96 38 -289 104 -360 123 -30 8
-100 31 -155 50 -164 58 -246 84 -271 84 -27 0 -75 20 -70 29 5 7 4346 4 4353
-3z m163 -21 c0 -9 -72 -140 -94 -170 -12 -16 -39 -59 -61 -95 -21 -36 -57
-94 -80 -130 -23 -36 -60 -94 -82 -130 -117 -189 -235 -369 -256 -388 l-24
-22 -174 20 c-96 11 -184 22 -197 25 -23 6 -245 34 -312 40 -41 4 -147 17
-360 45 -85 11 -209 27 -275 36 -66 8 -144 18 -174 22 -30 4 -56 12 -58 18 -5
16 25 28 232 95 183 58 266 86 348 116 22 7 82 25 135 38 52 14 100 29 106 34
6 4 25 11 43 14 18 4 49 14 70 23 21 10 67 25 103 35 93 24 404 131 411 141 5
7 343 126 439 154 63 18 210 71 217 78 7 7 43 8 43 1z m-4536 -39 c55 -18 146
-48 201 -66 54 -18 105 -38 112 -45 11 -12 53 -26 238 -82 28 -9 118 -39 200
-68 83 -29 191 -67 240 -84 90 -30 288 -100 550 -193 216 -76 253 -87 288 -86
38 1 207 -50 207 -63 0 -5 -25 -9 -55 -9 -30 0 -55 -4 -55 -9 0 -5 -26 -12
-57 -15 -32 -4 -110 -16 -173 -26 -63 -10 -155 -21 -205 -25 -49 -3 -117 -10
-150 -15 -171 -25 -291 -41 -390 -50 -60 -6 -132 -15 -160 -20 -27 -5 -95 -14
-150 -20 -55 -6 -121 -14 -147 -17 l-47 -5 -67 103 c-37 57 -79 123 -93 146
-86 138 -295 472 -343 548 -21 33 -47 77 -58 98 -26 48 -20 48 114 3z m-437
-394 c26 -16 55 -31 63 -34 8 -4 67 -40 130 -82 63 -41 214 -134 334 -207 262
-159 302 -193 309 -263 4 -43 -2 -119 -18 -221 -3 -16 -12 -84 -20 -150 -9
-66 -20 -131 -25 -145 -11 -29 -34 -202 -50 -370 -6 -63 -15 -149 -21 -190 -6
-41 -13 -93 -15 -115 -2 -22 -8 -67 -14 -100 -5 -33 -12 -86 -15 -118 -9 -85
-33 -75 -63 28 -13 44 -27 89 -32 100 -5 11 -11 33 -15 49 -3 16 -15 41 -26
54 -10 14 -19 30 -19 37 0 7 -18 66 -41 131 -58 170 -141 434 -147 467 -2 15
-8 27 -13 27 -5 0 -9 7 -9 16 0 19 -28 112 -41 136 -5 10 -9 26 -9 35 0 10 -6
29 -13 43 -14 27 -43 110 -78 225 -12 39 -30 96 -40 128 -11 31 -19 69 -19 84
0 39 -56 219 -90 288 -40 82 -60 134 -60 156 0 24 0 24 57 -9z m5288 -99 c-57
-170 -64 -195 -71 -243 -4 -25 -13 -49 -19 -55 -13 -11 -61 -139 -95 -255 -12
-41 -28 -93 -35 -115 -8 -22 -39 -121 -70 -220 -31 -99 -61 -189 -65 -200 -5
-11 -25 -74 -45 -140 -20 -66 -41 -131 -46 -145 -35 -84 -119 -359 -119 -388
0 -10 -7 -38 -14 -63 -8 -24 -24 -77 -36 -116 -14 -48 -26 -73 -35 -73 -8 0
-15 2 -15 5 0 3 -6 49 -14 103 -8 53 -17 131 -20 172 -4 41 -11 102 -16 135
-5 33 -14 103 -20 155 -6 52 -15 129 -20 170 -5 41 -19 152 -30 245 -11 94
-27 211 -35 260 -18 115 -30 285 -21 318 7 30 65 73 164 122 37 18 78 44 92
57 14 14 77 58 140 98 63 41 162 105 219 142 57 38 109 70 115 71 5 1 40 20
76 43 36 23 66 37 68 33 2 -4 -13 -57 -33 -116z m-5345 -48 c0 -2 6 -36 14
-77 16 -82 49 -181 71 -214 15 -23 68 -177 125 -364 41 -131 183 -563 214
-650 13 -36 31 -92 41 -125 9 -33 30 -97 46 -143 16 -46 29 -94 29 -108 0 -13
4 -24 9 -24 4 0 11 -25 15 -57 4 -31 13 -70 20 -87 30 -69 37 -91 56 -162 27
-100 24 -201 -9 -279 -12 -28 -27 -82 -41 -142 -7 -29 -15 -53 -19 -53 -4 0
-18 -44 -30 -97 -33 -137 -112 -385 -131 -408 -4 -5 -17 -46 -28 -90 -34 -137
-67 -245 -235 -752 -89 -271 -165 -493 -169 -493 -5 0 -8 976 -8 2170 0 1924
2 2169 15 2164 8 -4 15 -8 15 -9z m5426 -1321 c-3 -735 -6 -1710 -6 -2166 0
-550 -3 -827 -10 -823 -5 3 -10 16 -10 27 0 12 -6 29 -14 37 -16 18 -46 114
-46 147 0 12 -4 24 -8 26 -5 2 -26 57 -46 123 -21 66 -51 156 -67 201 -16 44
-29 93 -29 108 0 14 -11 48 -24 74 -13 26 -35 88 -50 137 -15 50 -33 106 -40
125 -8 19 -28 80 -45 135 -18 55 -36 109 -40 120 -5 11 -26 74 -46 140 -51
168 -91 293 -131 415 -88 264 -86 255 -80 380 4 106 22 190 57 265 5 11 18 50
29 86 11 37 26 72 34 78 16 14 40 79 96 266 42 141 104 333 120 370 13 29 84
246 110 335 28 96 48 157 66 197 8 17 14 38 14 46 0 9 4 18 8 21 5 3 14 31 21
63 7 32 17 67 21 78 32 79 90 274 90 303 0 14 6 22 16 22 15 0 16 -104 10
-1336z m-2521 1110 c110 -8 104 -7 195 -22 36 -6 171 -25 300 -41 129 -17 255
-33 280 -36 82 -10 362 -44 545 -65 99 -11 185 -23 191 -25 22 -7 44 -68 44
-119 0 -28 6 -91 14 -141 8 -49 17 -126 21 -170 6 -76 37 -329 70 -575 70
-520 69 -509 70 -740 0 -142 -5 -251 -13 -295 -7 -38 -19 -122 -27 -185 -7
-63 -23 -185 -35 -270 -23 -167 -44 -353 -60 -520 -6 -58 -17 -154 -26 -215
-8 -60 -21 -150 -27 -200 l-12 -90 -60 -8 c-389 -49 -634 -77 -683 -77 -32 0
-84 -5 -113 -10 -63 -12 -222 -34 -399 -56 -69 -8 -172 -21 -230 -28 -124 -16
-380 -19 -465 -7 -206 31 -375 55 -475 66 -244 29 -376 47 -395 55 -11 5 -90
16 -175 25 -234 25 -297 33 -386 46 l-80 13 -13 95 c-7 53 -19 152 -26 221
-16 138 -27 236 -50 415 -24 187 -34 272 -46 375 -6 52 -19 154 -30 227 -10
73 -19 152 -19 176 0 24 -3 47 -7 50 -3 4 -7 19 -8 34 -1 16 -5 66 -10 113 -4
52 -2 116 5 165 12 90 30 240 55 460 9 83 20 164 25 180 5 17 12 91 15 165 4
74 10 144 15 155 12 27 46 303 62 493 6 84 15 157 18 162 3 6 51 13 106 16
181 10 569 58 587 72 7 5 32 12 57 15 25 3 128 18 230 32 250 35 238 33 385
50 72 9 182 19 245 24 113 9 138 8 335 -5z m1862 -2297 c34 -105 72 -223 84
-262 11 -38 25 -79 30 -90 8 -21 33 -96 89 -275 18 -58 61 -190 95 -295 34
-104 68 -210 75 -235 7 -25 21 -70 30 -100 63 -195 112 -360 137 -454 15 -60
33 -114 39 -120 6 -6 13 -34 17 -61 3 -28 9 -59 13 -70 7 -18 4 -17 -27 7 -19
14 -64 40 -100 57 -35 17 -77 41 -94 52 -37 26 -287 186 -493 315 -85 53 -156
103 -159 111 -12 31 25 410 76 778 12 83 26 193 31 245 5 52 14 124 20 160 5
36 16 133 25 215 19 192 23 215 38 215 7 0 39 -84 74 -193z m-4053 131 c3 -24
15 -128 27 -233 11 -104 26 -237 34 -295 22 -179 34 -276 66 -550 17 -146 37
-308 45 -360 17 -118 17 -120 -1 -120 -9 0 -34 -12 -57 -27 -22 -16 -48 -32
-57 -38 -17 -10 -148 -94 -301 -193 -47 -30 -101 -65 -120 -77 -92 -59 -149
-98 -190 -130 -47 -37 -149 -90 -156 -82 -10 9 30 139 161 532 73 220 152 463
174 540 37 128 68 221 100 300 7 17 17 53 23 80 6 28 14 59 19 70 4 11 23 63
40 115 17 52 45 122 60 156 16 34 29 75 29 93 0 17 9 50 19 74 11 23 25 69 31
102 15 80 17 85 34 85 10 0 17 -14 20 -42z m-807 -231 c0 -78 6 -491 11 -916
7 -476 7 -804 1 -850 -5 -42 -12 -104 -15 -138 -4 -34 -10 -60 -14 -58 -4 3
-11 -7 -15 -22 -10 -43 -80 -177 -133 -255 -27 -40 -111 -176 -187 -303 -75
-126 -144 -238 -153 -247 -21 -24 -31 -22 -27 5 2 12 6 58 10 102 4 44 10 84
13 90 3 5 8 30 10 55 3 40 13 100 67 395 15 87 24 124 35 150 5 11 16 61 25
110 9 50 22 124 30 165 8 41 21 125 30 185 9 61 20 117 25 126 4 9 16 78 25
155 20 169 60 434 80 529 8 39 22 108 31 155 8 47 28 150 44 230 16 80 36 197
45 260 26 176 35 220 48 220 9 0 12 -41 14 -143z m5617 3 c4 -24 11 -49 16
-55 4 -5 23 -100 40 -210 18 -110 54 -315 81 -455 27 -140 49 -271 49 -290 1
-19 8 -64 16 -100 18 -76 19 -84 34 -210 7 -52 17 -104 24 -115 7 -11 16 -49
20 -85 4 -36 16 -103 27 -149 19 -83 30 -148 49 -286 11 -76 22 -136 51 -260
27 -118 89 -494 89 -541 0 -22 -3 -44 -6 -47 -10 -10 -60 65 -118 176 -30 56
-92 166 -140 245 -47 79 -86 145 -86 148 0 3 -8 17 -18 32 -71 102 -122 182
-136 209 -14 29 -16 127 -16 1050 0 560 4 1011 9 1003 5 -8 11 -35 15 -60z
m-1033 -1414 c14 -22 35 -56 45 -75 21 -40 119 -194 326 -511 107 -164 168
-264 168 -277 0 -16 -39 -9 -150 27 -47 15 -125 41 -175 56 -49 16 -95 33
-102 40 -6 6 -42 19 -80 28 -37 10 -81 23 -98 30 -63 27 -147 56 -335 115
-107 34 -203 66 -212 72 -10 5 -26 9 -35 9 -24 0 -276 76 -327 99 -23 10 -57
23 -76 29 -31 9 -280 88 -490 155 -44 15 -75 30 -75 38 0 15 28 21 180 39 324
38 737 93 855 115 14 3 48 7 75 11 28 3 93 12 145 20 125 18 160 21 255 20
l79 -1 27 -39z m-3326 14 c93 -11 215 -27 270 -35 55 -8 165 -23 245 -35 80
-11 190 -27 245 -35 113 -17 278 -35 375 -42 36 -3 67 -9 70 -14 4 -5 27 -9
52 -10 54 -2 47 -18 -17 -38 -22 -7 -49 -16 -60 -20 -34 -14 -118 -42 -167
-57 -27 -8 -48 -19 -48 -24 0 -4 -14 -12 -32 -15 -18 -4 -39 -11 -48 -15 -35
-19 -479 -160 -501 -160 -35 0 -590 -184 -662 -220 -60 -29 -508 -180 -516
-174 -2 2 16 36 40 76 43 73 72 118 256 403 163 252 179 278 217 347 38 69 56
87 91 88 10 0 96 -9 190 -20z m3550 -125 c44 -26 94 -58 112 -71 17 -13 34
-24 37 -24 3 0 25 -13 48 -29 24 -16 93 -62 153 -101 61 -40 111 -76 113 -81
2 -5 27 -22 55 -38 29 -16 62 -39 74 -50 12 -12 25 -21 28 -21 8 0 65 -41 98
-70 16 -14 42 -50 59 -80 18 -30 48 -80 68 -110 21 -30 61 -97 91 -148 30 -52
59 -101 64 -110 6 -10 28 -46 49 -82 21 -36 44 -69 51 -75 16 -13 135 -204
135 -216 0 -5 -4 -9 -10 -9 -30 0 -210 113 -210 133 -1 7 -56 45 -123 84 -67
40 -160 97 -205 125 -94 60 -141 88 -193 117 -51 28 -106 86 -154 161 -23 36
-45 72 -48 80 -4 8 -16 29 -27 45 -11 17 -27 43 -36 59 -9 16 -46 75 -82 130
-36 56 -80 124 -97 151 -54 85 -103 158 -134 202 -41 58 -53 82 -46 94 5 7 14
5 28 -4 12 -7 58 -35 102 -62z m-3915 48 c0 -10 -48 -91 -115 -193 -85 -130
-233 -362 -317 -498 -39 -62 -82 -121 -97 -132 -14 -12 -50 -40 -80 -63 -61
-48 -88 -67 -186 -127 -107 -67 -216 -139 -250 -166 -63 -51 -273 -184 -290
-184 -24 0 -13 38 31 106 18 30 34 57 34 61 0 3 6 14 14 22 7 9 25 36 38 61
33 59 183 303 219 357 16 23 29 44 29 47 0 16 96 157 132 194 23 23 96 74 162
114 153 90 412 256 536 341 83 57 140 82 140 60z m2127 -182 c81 -26 195 -63
253 -81 58 -18 120 -41 138 -51 18 -11 61 -25 95 -33 75 -17 360 -114 367
-126 3 -4 82 -33 175 -65 94 -31 179 -60 190 -65 11 -5 63 -23 115 -40 52 -17
104 -35 115 -39 11 -5 45 -14 75 -20 123 -26 149 -33 297 -82 84 -29 153 -56
153 -60 0 -5 -990 -9 -2200 -9 -1210 0 -2200 4 -2200 8 0 5 10 14 23 20 43 21
402 131 442 135 33 4 395 127 460 157 11 5 36 12 55 16 19 3 53 15 75 26 111
54 497 181 587 193 26 3 50 10 53 15 3 4 24 11 47 15 23 4 49 11 58 16 8 4 72
27 142 50 70 23 125 46 122 50 -2 4 15 10 38 13 24 3 54 8 68 10 49 8 111 -4
257 -53z m-1762 -736 c83 -3 350 -5 595 -5 245 -1 451 -4 458 -9 8 -5 -28 -15
-90 -25 -57 -9 -104 -21 -106 -26 -2 -6 -25 -10 -50 -10 -79 0 -363 -51 -462
-84 -42 -13 -351 -73 -430 -83 -55 -7 -301 -53 -342 -63 -20 -6 -84 -15 -142
-20 -58 -6 -150 -19 -203 -29 -54 -11 -141 -27 -193 -36 -52 -9 -104 -18 -115
-21 -11 -3 -58 -11 -105 -19 -117 -19 -143 -25 -155 -34 -16 -12 -83 -30 -170
-46 -44 -8 -92 -17 -107 -21 -15 -3 -39 -3 -53 0 -29 7 -27 10 40 62 53 41
212 134 229 134 16 0 117 65 189 122 190 150 302 196 537 222 36 4 409 -1 675
-9z m3840 -7 c80 -12 227 -61 267 -89 14 -11 28 -19 31 -19 3 0 40 -24 84 -54
74 -52 185 -122 420 -266 59 -36 108 -71 111 -78 8 -25 -51 -23 -185 8 -76 18
-151 38 -168 45 -33 14 -209 50 -295 60 -30 4 -131 22 -225 40 -93 19 -201 37
-240 40 -38 4 -83 11 -100 16 -53 18 -267 57 -395 74 -161 20 -228 31 -320 50
-41 9 -109 22 -150 30 -145 25 -496 87 -598 105 -57 10 -105 20 -108 23 -10
10 183 17 506 18 190 1 512 5 715 9 394 8 538 5 650 -12z m-2225 2 c36 -6 137
-26 225 -45 88 -18 234 -46 325 -60 91 -15 219 -37 285 -50 115 -22 179 -34
228 -40 50 -6 236 -48 287 -65 63 -21 329 -67 440 -76 41 -4 80 -11 86 -15 6
-5 103 -27 215 -49 436 -84 491 -93 653 -105 45 -3 77 -18 64 -30 -2 -3 -1309
-4 -2904 -3 -2455 3 -2894 5 -2869 17 17 7 71 14 120 16 103 3 152 10 250 36
39 9 138 29 220 44 166 29 221 41 280 60 22 8 105 25 185 40 322 58 371 67
524 95 88 17 185 30 217 30 31 0 87 6 125 14 187 39 286 57 354 66 41 5 116
21 165 35 82 24 157 40 360 80 89 17 87 17 165 5z"/>
</g>
</svg>
