<?xml version="1.0" standalone="no"?>
<!DOCTYPE svg PUBLIC "-//W3C//DTD SVG 20010904//EN"
 "http://www.w3.org/TR/2001/REC-SVG-20010904/DTD/svg10.dtd">
<svg version="1.0" xmlns="http://www.w3.org/2000/svg"
 width="1024.000000pt" height="1024.000000pt" viewBox="0 0 1024.000000 1024.000000"
 preserveAspectRatio="xMidYMid meet">

<g transform="translate(0.000000,1024.000000) scale(0.100000,-0.100000)"
fill="#000000" stroke="none">
<path d="M2728 8293 l-467 -478 0 -2690 0 -2690 472 -482 471 -483 1911 0
1911 0 305 307 c167 170 382 387 477 483 l172 176 0 2689 0 2690 -468 477
-467 476 -1925 1 -1925 1 -467 -477z m4162 359 c0 -4 -73 -80 -163 -170 l-162
-162 -1445 0 -1444 0 -170 170 -171 170 1778 0 c977 0 1777 -3 1777 -8z
m-3485 -183 l178 -180 -394 -397 c-217 -218 -395 -398 -396 -400 -2 -4 -353
258 -390 291 l-23 20 418 423 c229 232 420 423 423 423 3 1 86 -80 184 -180z
m3667 129 c24 -24 212 -213 417 -420 l374 -378 -119 -83 c-65 -45 -155 -109
-199 -142 -44 -33 -85 -64 -92 -68 -9 -6 -136 114 -408 385 l-395 394 178 177
c99 97 184 177 190 177 7 0 31 -19 54 -42z m-713 -353 c-3 -2 -70 -27 -149
-56 -80 -28 -255 -99 -390 -156 -327 -140 -677 -283 -691 -283 -19 0 -426 156
-864 332 l-420 168 1259 0 c693 0 1257 -2 1255 -5z m-2700 -37 c7 -11 97 -166
198 -342 102 -177 196 -337 208 -356 l23 -35 -62 -65 c-33 -36 -134 -141 -223
-233 l-161 -169 -234 123 c-128 67 -307 160 -398 207 -91 47 -167 87 -170 89
-4 4 791 803 800 803 3 0 11 -10 19 -22z m2751 -145 c-82 -132 -249 -416 -304
-515 -12 -21 -25 -38 -31 -38 -32 1 -835 193 -835 200 1 12 1249 514 1258 505
2 -2 -38 -70 -88 -152z m584 -232 c386 -386 388 -389 365 -404 -13 -8 -125
-70 -249 -137 -124 -68 -288 -158 -365 -200 -99 -55 -144 -74 -152 -67 -7 5
-108 108 -224 228 l-210 218 82 148 c160 287 346 603 357 603 4 0 182 -175
396 -389z m-3062 310 c95 -38 304 -123 463 -188 160 -66 360 -146 445 -178 85
-32 159 -62 163 -65 10 -9 -50 -23 -328 -81 -110 -22 -261 -56 -336 -75 -75
-19 -147 -34 -160 -34 -20 0 -32 13 -64 68 -58 99 -324 552 -347 590 -11 17
-17 32 -14 32 3 0 83 -31 178 -69z m-1339 -615 l157 -120 0 -2292 0 -2292 -77
-58 c-131 -98 -307 -205 -314 -191 -4 7 -5 1163 -2 2569 l6 2557 36 -27 c20
-15 107 -81 194 -146z m5283 -4974 c-5 -5 -80 47 -259 178 l-116 85 0 2305 -1
2305 38 27 c20 15 105 76 187 137 l150 109 3 -2570 c1 -1414 0 -2573 -2 -2576z
m-2265 4988 c245 -60 453 -110 462 -110 9 0 56 -42 104 -92 48 -51 154 -160
234 -243 141 -145 146 -152 152 -200 4 -27 25 -228 47 -445 22 -217 63 -595
90 -839 28 -244 50 -469 50 -500 0 -32 -7 -109 -15 -172 -8 -63 -26 -220 -40
-349 -14 -129 -41 -383 -60 -565 -19 -181 -43 -414 -53 -517 l-19 -186 -233
-246 c-128 -135 -237 -243 -241 -240 -5 3 -86 -14 -181 -36 -460 -109 -716
-169 -750 -175 -43 -8 -103 4 -578 115 -184 44 -354 82 -378 86 -40 6 -58 23
-276 247 l-233 241 -22 185 c-104 900 -182 1649 -176 1685 3 17 28 229 55 471
27 242 67 598 89 790 21 193 42 383 46 423 7 72 7 73 74 145 36 41 140 150
229 244 191 199 127 169 572 272 507 118 564 130 585 125 11 -2 221 -53 466
-114z m1723 -391 c-57 -216 -99 -366 -197 -694 -189 -631 -302 -1025 -314
-1098 -3 -20 -8 -37 -12 -37 -3 0 -23 163 -44 363 -78 740 -87 827 -113 1037
-16 129 -22 216 -17 217 16 6 489 275 623 355 69 41 126 74 128 73 1 -1 -23
-98 -54 -216z m-4280 86 c72 -39 227 -121 345 -180 l213 -109 -6 -75 c-4 -42
-20 -191 -36 -331 -17 -140 -41 -370 -55 -510 -27 -288 -77 -711 -83 -706 -1
2 -18 62 -37 132 -44 169 -175 635 -280 999 -46 160 -120 417 -165 573 -44
155 -84 290 -87 298 -7 19 -6 18 191 -91z m-180 -215 c26 -91 92 -313 146
-495 92 -307 256 -890 349 -1241 l40 -151 -49 -189 c-26 -104 -86 -324 -133
-489 -82 -287 -190 -675 -338 -1205 l-68 -245 0 2094 c-1 1152 1 2092 3 2090
2 -2 25 -78 50 -169z m4555 -1900 c3 -1532 1 -2060 -8 -2060 -6 0 -11 7 -11
15 0 8 -13 61 -29 118 -57 197 -161 565 -266 942 -58 209 -130 466 -160 570
-30 105 -68 247 -85 316 l-32 126 42 159 c23 87 96 344 162 569 213 726 358
1233 365 1278 3 15 8 27 12 27 3 0 8 -927 10 -2060z m-609 -167 c0 -26 166
-657 266 -1013 82 -290 288 -1015 300 -1053 4 -13 -19 -3 -83 36 -48 30 -212
125 -363 212 -151 86 -281 163 -289 171 -13 12 -13 32 -2 146 7 73 19 198 26
278 8 80 32 303 54 495 22 193 48 439 57 548 10 108 21 197 26 197 4 0 8 -8 8
-17z m-3345 -333 c14 -146 51 -486 81 -756 30 -270 54 -504 54 -520 0 -21 -8
-36 -28 -51 -49 -37 -712 -416 -718 -411 -1 2 75 275 171 608 251 880 328
1158 366 1318 41 171 37 180 74 -188z m396 -1606 l226 -226 -152 -267 c-125
-217 -247 -426 -292 -498 -5 -8 -141 120 -398 373 l-390 385 22 18 c12 10 84
54 160 96 302 170 441 250 513 296 41 26 77 48 80 48 3 1 107 -101 231 -225z
m2911 122 c95 -56 229 -133 297 -170 113 -62 290 -163 301 -173 4 -4 -771
-783 -780 -783 -3 0 -50 80 -104 178 -55 97 -150 267 -212 377 -62 110 -114
206 -116 212 -3 12 418 460 434 462 3 1 84 -46 180 -103z m-2332 -450 c140
-30 328 -69 417 -88 89 -18 159 -36 155 -39 -4 -4 -95 -44 -202 -89 -107 -45
-303 -129 -435 -185 -300 -129 -592 -251 -624 -260 l-24 -7 24 38 c77 125 269
458 327 567 57 108 70 127 87 122 11 -3 135 -29 275 -59z m1797 -204 c184
-325 257 -461 250 -468 -3 -3 -137 52 -298 121 -359 155 -959 410 -979 417 -9
3 2 10 25 16 35 9 630 144 755 170 97 21 79 40 247 -256z m-2687 -506 l24 -27
-179 -179 -179 -179 -381 387 c-209 213 -400 408 -423 433 l-42 47 92 63 c51
35 142 98 202 141 l109 78 376 -369 c207 -203 387 -381 401 -395z m4066 639
c93 -69 182 -136 199 -149 l30 -23 -332 -339 c-182 -186 -372 -379 -422 -429
l-91 -89 -175 178 c-97 97 -175 182 -173 187 5 14 777 789 786 789 5 0 85 -56
178 -125z m-2413 -139 c219 -89 953 -400 1040 -439 l97 -45 -542 -6 c-299 -4
-860 -6 -1248 -4 l-705 3 105 43 c58 24 164 66 235 92 72 27 306 125 520 219
215 93 396 170 403 170 7 1 49 -14 95 -33z m1519 -733 c93 -92 168 -171 168
-175 0 -5 -801 -8 -1781 -8 -1200 0 -1780 3 -1777 10 2 6 77 84 168 175 l165
165 1445 0 1445 0 167 -167z"/>
</g>
</svg>
