<?xml version="1.0" standalone="no"?>
<!DOCTYPE svg PUBLIC "-//W3C//DTD SVG 20010904//EN"
 "http://www.w3.org/TR/2001/REC-SVG-20010904/DTD/svg10.dtd">
<svg version="1.0" xmlns="http://www.w3.org/2000/svg"
 width="1024.000000pt" height="1024.000000pt" viewBox="0 0 1024.000000 1024.000000"
 preserveAspectRatio="xMidYMid meet">

<g transform="translate(0.000000,1024.000000) scale(0.100000,-0.100000)"
fill="#000000" stroke="none">
<path d="M4736 9049 c-712 -62 -1404 -322 -1959 -736 -158 -118 -399 -324
-505 -433 -124 -127 -260 -292 -334 -406 -36 -55 -80 -116 -97 -134 -16 -18
-28 -37 -25 -42 3 -5 -30 -70 -73 -146 -239 -419 -445 -947 -518 -1327 -86
-450 -93 -815 -24 -1245 76 -473 203 -872 402 -1265 195 -383 374 -637 669
-946 198 -208 565 -499 808 -641 424 -248 904 -426 1370 -507 248 -44 404 -54
740 -48 173 3 347 11 385 17 39 5 104 15 145 21 535 74 1084 284 1580 604 503
326 938 788 1271 1352 253 427 432 982 494 1523 20 178 20 661 0 857 -82 807
-411 1580 -900 2118 -20 22 -69 77 -108 123 -87 101 -381 365 -538 483 -272
205 -523 350 -874 503 -294 129 -798 246 -1175 275 -141 11 -613 11 -734 0z
m664 -114 c404 -33 627 -77 931 -181 90 -31 193 -65 229 -76 88 -27 94 -34 76
-86 -9 -23 -61 -138 -117 -255 -221 -461 -267 -547 -293 -547 -13 0 -159 150
-247 255 -53 63 -242 278 -364 415 -143 161 -207 237 -277 330 -31 41 -73 91
-92 109 -35 34 -44 51 -28 51 4 0 86 -7 182 -15z m-408 -37 c-35 -50 -407
-486 -522 -613 -31 -33 -94 -105 -141 -160 -117 -136 -319 -359 -330 -363 -10
-4 -93 160 -172 338 -31 69 -99 210 -151 315 -53 104 -96 197 -96 207 0 22 27
34 235 104 256 85 555 158 741 179 32 4 62 9 65 11 3 2 52 6 110 10 57 4 106
8 108 10 2 2 44 4 93 4 l89 0 -29 -42z m229 -140 c42 -46 105 -117 140 -158
248 -287 321 -372 411 -472 55 -62 118 -138 141 -168 22 -30 74 -91 117 -135
75 -77 110 -121 110 -137 0 -8 -37 -26 -205 -98 -60 -26 -170 -75 -243 -109
-73 -34 -222 -101 -330 -148 -261 -113 -248 -113 -487 -4 -99 46 -193 89 -210
96 -16 8 -84 38 -150 68 -66 30 -181 80 -255 112 -189 81 -179 71 -128 138 24
30 76 92 117 138 92 104 320 366 606 694 119 138 226 258 237 267 27 24 40 16
129 -84z m-1743 -190 c35 -44 417 -826 407 -836 -1 -1 -96 2 -211 7 -115 6
-265 13 -334 16 -422 18 -851 44 -900 54 -18 3 -35 12 -38 19 -5 15 47 65 203
196 217 182 419 320 665 455 213 117 192 108 208 89z m3368 -20 c88 -41 287
-159 435 -259 177 -119 330 -242 487 -390 l82 -78 -32 -5 c-59 -9 -260 -25
-388 -31 -69 -3 -161 -8 -205 -10 -44 -3 -179 -9 -300 -15 -121 -6 -286 -15
-368 -20 -81 -6 -161 -10 -177 -10 l-29 0 45 98 c25 53 57 122 71 152 62 135
266 557 279 578 8 12 18 22 23 22 5 0 40 -14 77 -32z m1110 -816 c32 -22 270
-327 362 -464 133 -197 274 -453 313 -566 l18 -53 -47 -20 c-44 -19 -223 -98
-624 -275 -92 -41 -175 -74 -184 -74 -14 0 -16 10 -10 83 13 149 44 447 76
712 11 88 24 210 30 270 5 61 17 173 25 250 8 77 15 141 15 143 0 5 15 1 26
-6z m-5645 -24 c0 -13 2 -32 4 -43 4 -22 25 -209 50 -440 8 -82 22 -208 30
-280 8 -71 17 -161 20 -200 4 -38 12 -120 20 -181 8 -61 17 -152 21 -203 l7
-91 -67 30 c-36 16 -96 44 -133 61 -63 29 -123 54 -398 168 -138 57 -244 119
-251 147 -7 26 66 182 153 330 32 54 64 112 71 128 22 49 157 249 233 343 90
113 218 253 230 253 5 0 9 -10 10 -22z m489 -18 c80 -5 197 -12 260 -15 63 -3
151 -8 195 -10 44 -3 145 -7 225 -10 159 -7 421 -33 432 -44 5 -4 1 -32 -7
-63 -20 -79 -334 -911 -348 -924 -7 -7 -61 -29 -122 -49 -60 -21 -195 -70
-300 -108 -227 -84 -489 -173 -537 -182 l-35 -7 -7 87 c-3 47 -15 159 -26 248
-22 179 -26 217 -35 327 -4 41 -11 116 -16 165 -5 50 -12 115 -15 145 -3 30
-9 80 -14 110 -9 54 -23 177 -35 292 l-6 58 123 -5 c68 -3 188 -10 268 -15z
m5020 3 c-3 -126 -142 -1408 -154 -1420 -5 -6 -223 65 -411 133 -310 112 -519
197 -546 224 -16 15 -48 83 -84 175 -32 83 -76 193 -97 245 -67 160 -200 513
-205 543 -5 25 -3 27 28 28 19 0 43 2 54 4 37 6 356 25 665 40 168 8 334 17
370 20 36 2 117 7 180 11 63 3 117 8 119 10 2 2 22 4 43 4 30 0 38 -4 38 -17z
m-3730 -125 c19 -9 123 -57 230 -106 187 -86 433 -194 550 -243 74 -30 85 -39
68 -55 -7 -6 -78 -38 -158 -69 -80 -31 -285 -113 -457 -181 -171 -68 -315
-124 -318 -124 -3 0 -71 -27 -150 -61 -80 -33 -149 -59 -154 -57 -10 3 -9 6
94 278 37 96 80 211 95 255 101 285 144 389 158 382 4 -2 23 -11 42 -19z
m2134 -1 c8 -12 33 -75 56 -140 45 -132 192 -525 247 -660 19 -48 33 -90 31
-93 -7 -6 -107 28 -223 76 -281 118 -499 205 -670 270 -226 85 -375 149 -375
161 0 5 10 15 23 24 32 21 286 132 527 231 324 133 330 136 336 145 10 16 33
9 48 -14z m-948 -499 c60 -25 177 -73 259 -107 83 -34 211 -86 285 -116 74
-29 221 -87 325 -129 105 -42 237 -93 295 -113 131 -44 154 -56 177 -90 11
-16 48 -104 83 -198 35 -93 74 -194 88 -225 13 -30 62 -147 107 -260 80 -198
178 -429 252 -594 46 -103 44 -120 -56 -349 -71 -164 -204 -494 -306 -762 -73
-191 -153 -386 -169 -409 -10 -17 -56 -38 -158 -76 -79 -29 -186 -71 -238 -92
-52 -22 -255 -104 -450 -183 -195 -79 -404 -164 -465 -189 -163 -68 -166 -67
-465 53 -135 54 -317 128 -405 164 -259 105 -366 148 -430 172 -352 132 -373
141 -397 183 -10 16 -47 115 -82 218 -103 304 -176 491 -309 789 -141 318
-151 346 -142 382 3 15 40 108 82 207 93 223 267 658 380 951 46 121 92 228
102 238 9 9 59 32 111 51 52 18 244 93 425 166 182 73 463 186 625 251 233 94
303 118 331 115 20 -2 86 -24 145 -48z m-3638 -542 c100 -42 285 -123 342
-149 30 -14 115 -50 188 -81 110 -46 180 -80 235 -113 5 -3 -2 -16 -15 -30
-23 -25 -206 -190 -302 -271 -28 -24 -85 -74 -126 -111 -68 -62 -150 -133
-368 -323 -42 -37 -111 -93 -152 -125 -41 -31 -92 -73 -112 -92 -21 -19 -41
-32 -44 -28 -19 19 39 548 82 752 60 278 137 535 176 583 15 17 31 15 96 -12z
m7124 -150 c84 -243 152 -531 178 -752 14 -123 25 -404 15 -404 -18 0 -503
399 -640 527 -11 10 -76 67 -145 127 -69 60 -150 133 -180 162 -30 29 -72 66
-92 81 -40 30 -53 52 -41 64 7 7 244 116 543 249 47 21 123 56 170 79 129 61
123 66 192 -133z m-5252 110 c0 -8 -16 -52 -36 -98 -20 -45 -93 -227 -164
-403 -129 -323 -257 -637 -281 -688 -7 -15 -17 -26 -23 -24 -21 7 -68 103
-201 417 -29 69 -90 199 -135 290 -44 90 -79 171 -78 179 2 9 26 22 58 32 30
9 147 51 260 94 113 42 284 105 380 140 96 34 182 65 190 68 25 9 30 8 30 -7z
m3413 -68 c89 -28 241 -80 337 -115 96 -36 213 -78 260 -94 47 -16 90 -31 97
-34 19 -7 -25 -127 -119 -325 -27 -58 -84 -186 -125 -285 -42 -99 -89 -206
-105 -239 -36 -72 -31 -77 -117 134 -35 85 -93 225 -128 310 -125 297 -260
635 -267 668 -4 17 -5 32 -1 32 4 0 80 -23 168 -52z m1003 -471 c92 -84 215
-192 273 -240 58 -49 124 -105 146 -126 22 -20 135 -116 250 -213 289 -242
287 -241 280 -258 -3 -8 -27 -32 -53 -52 -26 -21 -60 -50 -77 -66 -36 -33
-363 -315 -414 -356 -20 -16 -67 -59 -106 -96 -200 -188 -457 -400 -486 -400
-12 0 -107 197 -203 423 -42 99 -76 181 -76 183 0 5 -79 189 -120 279 -24 53
-31 80 -27 110 3 35 146 393 167 420 17 23 177 392 230 529 6 18 14 23 29 19
11 -3 95 -73 187 -156z m-5309 -73 c56 -120 137 -300 179 -399 42 -99 95 -220
117 -269 37 -84 39 -91 27 -130 -7 -23 -27 -70 -45 -106 -18 -36 -58 -123 -90
-195 -31 -71 -68 -155 -82 -185 -14 -30 -53 -122 -88 -205 -105 -251 -102
-244 -122 -239 -10 3 -70 49 -134 102 -63 53 -138 115 -165 137 -27 22 -84 72
-128 110 -74 65 -179 155 -507 433 -196 166 -210 181 -199 202 5 10 84 80 176
156 92 77 199 167 238 202 709 629 693 615 710 609 6 -2 57 -102 113 -223z
m6339 -1021 c-12 -341 -81 -677 -211 -1033 -21 -58 -41 -108 -45 -113 -12 -14
-161 45 -560 221 -74 32 -171 75 -214 96 l-80 36 35 36 c19 20 99 93 179 162
80 69 165 144 190 166 25 23 72 64 105 91 33 28 85 73 115 100 187 167 478
415 488 415 3 0 2 -80 -2 -177z m-7533 58 c48 -42 115 -97 147 -122 82 -64
212 -173 361 -304 69 -60 207 -179 307 -264 159 -135 179 -156 164 -166 -18
-13 -78 -39 -237 -106 -55 -22 -180 -76 -277 -120 -233 -103 -303 -131 -323
-127 -19 3 -35 41 -99 234 -119 355 -170 617 -183 939 l-6 149 29 -19 c16 -10
68 -53 117 -94z m5872 -37 c52 -117 72 -162 113 -259 18 -44 40 -93 47 -110
92 -200 185 -420 182 -429 -3 -6 -72 -33 -153 -60 -82 -27 -194 -66 -249 -86
-249 -92 -467 -162 -475 -154 -5 5 13 64 44 144 29 74 77 196 106 270 167 427
319 782 334 777 6 -2 29 -44 51 -93z m-4241 -29 c13 -27 53 -111 89 -185 58
-120 133 -304 306 -747 28 -73 51 -136 51 -142 0 -14 -110 18 -385 112 -369
126 -489 168 -502 179 -14 12 -6 36 72 208 31 69 88 197 127 285 38 88 94 212
124 275 l55 115 19 -25 c11 -14 30 -47 44 -75z m-604 -952 c0 -38 -7 -124 -15
-193 -13 -111 -67 -637 -80 -780 -7 -75 -22 -187 -42 -299 l-16 -95 -61 65
c-118 125 -369 476 -489 684 -62 109 -136 265 -139 294 -3 23 15 33 272 149
365 165 542 242 558 242 8 0 12 -20 12 -67z m255 26 c50 -15 135 -43 190 -62
55 -20 177 -62 270 -95 94 -33 215 -74 271 -91 141 -44 152 -56 222 -273 23
-69 62 -180 88 -245 25 -65 70 -188 100 -273 30 -85 62 -172 70 -193 8 -20 14
-43 14 -51 0 -17 -157 -32 -545 -51 -165 -8 -338 -17 -385 -20 -192 -12 -439
-25 -502 -25 l-68 0 0 48 c0 26 7 119 15 207 9 88 24 264 35 390 11 127 29
316 40 420 11 105 22 215 26 245 3 30 7 67 10 82 6 32 3 32 149 -13z m4979 24
c8 -28 16 -124 26 -298 8 -145 15 -228 50 -580 6 -60 22 -186 36 -280 13 -93
24 -189 24 -213 l0 -44 -107 7 c-563 32 -1301 82 -1348 91 -31 6 -34 9 -29 33
15 72 52 182 121 360 41 108 104 275 139 371 36 96 72 186 82 200 10 13 50 37
88 53 208 86 858 316 896 317 9 0 19 -8 22 -17z m367 -96 c96 -42 210 -92 254
-112 44 -20 100 -46 125 -57 173 -79 210 -98 210 -111 0 -8 -27 -70 -61 -138
-100 -203 -321 -537 -521 -786 -98 -122 -115 -139 -124 -130 -8 8 -32 186 -39
292 -7 114 -34 390 -41 420 -6 29 -32 319 -44 486 -5 79 -12 165 -16 191 l-7
47 46 -14 c24 -7 123 -47 218 -88z m-4121 -364 c96 -36 294 -112 440 -170 146
-58 344 -136 440 -173 96 -38 176 -73 178 -79 2 -6 -8 -15 -23 -21 -63 -24
-641 -271 -745 -318 -93 -42 -170 -66 -181 -55 -9 9 -70 165 -161 413 -33 91
-86 232 -119 314 -32 81 -59 152 -59 157 0 14 40 2 230 -68z m2615 60 c-4 -10
-31 -83 -60 -163 -29 -80 -71 -192 -93 -250 -22 -58 -61 -166 -87 -240 -47
-135 -91 -240 -99 -240 -13 0 -122 44 -184 75 -39 19 -171 77 -294 130 -265
115 -438 196 -438 205 0 4 33 21 73 38 172 72 774 315 907 365 80 31 168 65
195 76 65 26 90 27 80 4z m-1259 -603 c65 -28 207 -89 314 -135 107 -46 272
-117 365 -157 208 -91 207 -89 106 -196 -38 -39 -141 -156 -228 -259 -87 -103
-181 -212 -209 -243 -28 -30 -76 -85 -105 -121 -107 -132 -380 -439 -390 -439
-21 0 -134 109 -224 216 -55 65 -120 140 -145 167 -24 27 -53 64 -65 82 -11
18 -89 106 -173 196 -119 126 -346 391 -425 497 -11 14 47 42 408 197 132 57
272 117 310 135 39 17 90 40 115 50 25 10 72 30 105 44 38 17 71 25 91 22 17
-2 84 -27 150 -56z m-1376 -424 c0 -2 -56 -116 -124 -252 -68 -137 -161 -325
-206 -419 -44 -93 -86 -173 -93 -177 -7 -4 -21 -8 -31 -8 -24 0 -272 134 -386
208 -224 147 -670 512 -670 549 0 7 3 13 8 13 4 0 54 4 112 9 58 6 159 13 225
16 66 3 156 8 200 10 106 6 445 23 678 34 104 5 191 12 194 15 7 7 93 9 93 2z
m2950 -16 c85 -5 274 -16 420 -24 288 -17 506 -33 559 -42 l33 -5 -23 -26
c-34 -36 -240 -217 -324 -284 -251 -199 -676 -469 -738 -469 -21 0 -54 40 -80
100 -14 30 -78 163 -142 295 -108 223 -183 389 -200 443 l-6 22 173 0 c95 0
243 -5 328 -10z m-2757 -132 c202 -221 474 -526 616 -693 85 -99 190 -220 235
-269 112 -122 110 -116 27 -116 -196 0 -553 52 -816 120 -146 37 -439 133
-517 169 l-58 26 34 80 c53 125 280 614 311 670 31 56 66 104 77 104 4 1 45
-41 91 -91z m2222 -70 c148 -276 335 -658 335 -687 0 -22 -221 -109 -435 -171
-142 -41 -377 -90 -437 -90 -26 0 -75 -7 -110 -15 -82 -18 -303 -37 -396 -33
l-74 3 139 160 c76 89 192 223 258 298 66 76 154 178 195 226 86 101 187 217
304 345 45 49 87 97 94 107 7 11 19 19 26 19 8 0 53 -73 101 -162z"/>
</g>
</svg>
