<?xml version="1.0" encoding="UTF-8"?>
<svg version="1.1" xmlns="http://www.w3.org/2000/svg" width="1024" height="1024">
<path d="M0 0 C0.79523449 0.00011959 1.59046898 0.00023918 2.40980148 0.0003624 C26.63840811 0.00496922 50.77425644 0.2308009 74.9375 2.1875 C76.20770996 2.28401855 77.47791992 2.38053711 78.78662109 2.47998047 C190.76496 11.19942918 190.76496 11.19942918 219.515625 43.04296875 C224.58939118 49.24821303 229.03002212 55.61361701 232.8125 62.6875 C233.15700195 63.32582764 233.50150391 63.96415527 233.85644531 64.62182617 C239.58844892 75.80477137 242.79804197 87.62298958 245 99.9375 C245.12412262 100.61935364 245.24824524 101.30120728 245.37612915 102.00372314 C252.53313131 141.49748102 255.32780506 182.09497686 255.9375 222.1875 C255.94845703 222.88760193 255.95941406 223.58770386 255.97070312 224.309021 C258.61065581 400.80247509 258.61065581 400.80247509 215.8125 446.8125 C179.82774646 481.29528122 116.22504701 481.21570579 69.49560547 484.03320312 C67.79401497 484.13583771 66.09251577 484.23999758 64.39111328 484.34570312 C-148.80115431 497.58593596 -148.80115431 497.58593596 -213.0625 447.1875 C-241.57607545 420.16311282 -245.26600377 377.33258213 -249.25 340.5 C-249.32872345 339.79201263 -249.4074469 339.08402527 -249.48855591 338.35458374 C-252.78489718 308.28763826 -253.39657413 278.14410389 -253.32324219 247.92700195 C-253.311857 243.20062459 -253.31863506 238.47447282 -253.33011913 233.74810314 C-253.39311443 203.16975725 -252.53392876 172.67328733 -249.25 142.25 C-249.16668427 141.45727692 -249.08336853 140.66455383 -248.99752808 139.84780884 C-244.98380074 101.93361667 -239.80540475 61.4398681 -209.0625 35.1875 C-172.79661154 7.6037195 -119.92191882 5.88084704 -76.125 2.4375 C-75.37913635 2.37842468 -74.63327271 2.31934937 -73.86480713 2.25848389 C-68.60032344 1.8491425 -63.33364984 1.49894732 -58.0625 1.1875 C-57.25062225 1.1391098 -56.43874451 1.0907196 -55.6022644 1.04086304 C-37.07878397 -0.01688044 -18.54664849 -0.01236318 0 0 Z M11.9375 6.1875 C14.97314484 8.58094608 18.10956066 10.47991876 21.49609375 12.33984375 C22.5934082 12.94521973 23.69072266 13.5505957 24.82128906 14.17431641 C25.40044067 14.49217102 25.97959229 14.81002563 26.57629395 15.13751221 C29.64187927 16.82051543 32.70169641 18.51394056 35.76171875 20.20703125 C36.6838768 20.71692596 36.6838768 20.71692596 37.62466431 21.23712158 C43.00556005 24.21630984 48.3534126 27.25048241 53.6875 30.3125 C61.87461982 35.01124285 70.08029196 39.67543711 78.30859375 44.30175781 C83.21476394 47.06440685 88.09882988 49.85797458 92.953125 52.7109375 C94.39848633 53.55495117 94.39848633 53.55495117 95.87304688 54.41601562 C97.71265061 55.49220296 99.54752937 56.57651901 101.37695312 57.66992188 C102.19615234 58.14751953 103.01535156 58.62511719 103.859375 59.1171875 C104.57706055 59.54241699 105.29474609 59.96764648 106.03417969 60.40576172 C108.09969059 61.496184 108.09969059 61.496184 110.9375 60.1875 C112.15889298 58.57327895 112.15889298 58.57327895 113.1796875 56.5234375 C113.60016357 55.74129883 114.02063965 54.95916016 114.45385742 54.15332031 C114.90220947 53.29834961 115.35056152 52.44337891 115.8125 51.5625 C116.78365988 49.7518008 117.75638431 47.94194009 118.73046875 46.1328125 C119.50269775 44.69276855 119.50269775 44.69276855 120.29052734 43.22363281 C123.16609738 37.92262644 126.14779099 32.6818861 129.125 27.4375 C129.9900415 25.91068604 129.9900415 25.91068604 130.87255859 24.35302734 C132.22644232 21.96389332 133.58140146 19.57537733 134.9375 17.1875 C131.35977621 14.8023508 128.24931634 14.49945448 124.08984375 14.00390625 C123.29843994 13.90377731 122.50703613 13.80364838 121.69165039 13.70048523 C119.08714625 13.37443219 116.48129544 13.06138876 113.875 12.75 C112.98257599 12.6411145 112.09015198 12.532229 111.17068481 12.42004395 C78.13393588 8.39305265 45.23996872 5.88487726 11.9375 6.1875 Z M-133.0625 16.1875 C-131.41823597 22.08923339 -128.5121923 27.17452492 -125.5625 32.5 C-125.03366211 33.46244629 -124.50482422 34.42489258 -123.95996094 35.41650391 C-119.1606937 44.10602099 -114.16614676 52.67389456 -109.0625 61.1875 C-103.26831958 59.59694067 -98.45376276 56.70160288 -93.3125 53.6875 C-91.42241124 52.59282359 -89.5317773 51.49908801 -87.640625 50.40625 C-86.69896484 49.86097656 -85.75730469 49.31570313 -84.78710938 48.75390625 C-80.9030413 46.52091514 -76.98602371 44.35017317 -73.0625 42.1875 C-65.58466958 38.05571867 -58.16199916 33.83200801 -50.74926758 29.5847168 C-43.53759932 25.45377412 -36.30169994 21.36788352 -29.05224609 17.30371094 C-25.38705065 15.24760375 -21.72502598 13.18585721 -18.0625 11.125 C-16.70834579 10.3632591 -15.35418035 9.60153818 -14 8.83984375 C-13.030625 8.29457031 -12.06125 7.74929688 -11.0625 7.1875 C-11.0625 6.8575 -11.0625 6.5275 -11.0625 6.1875 C-72.89573885 4.77908426 -72.89573885 4.77908426 -133.0625 16.1875 Z M-4.6640625 9.5390625 C-5.61716309 10.05364014 -6.57026367 10.56821777 -7.55224609 11.09838867 C-8.58687988 11.66404541 -9.62151367 12.22970215 -10.6875 12.8125 C-11.75693848 13.39427002 -12.82637695 13.97604004 -13.92822266 14.57543945 C-22.53604255 19.28738651 -31.02245445 24.19121209 -39.48120117 29.16455078 C-47.43158983 33.83681094 -55.46153877 38.34128672 -63.53808594 42.79052734 C-68.74563682 45.67230744 -73.9336725 48.58913093 -79.125 51.5 C-86.09697018 55.40889443 -93.07162472 59.31249474 -100.0625 63.1875 C-97.56183531 65.68816469 -95.5087591 66.19113803 -92.14526367 67.29125977 C-90.89762741 67.70251602 -89.64999115 68.11377228 -88.36454773 68.53749084 C-86.98658145 68.98481434 -85.60855329 69.43194722 -84.23046875 69.87890625 C-82.80049178 70.3472683 -81.37066965 70.81610333 -79.94099426 71.28538513 C-76.92157823 72.27510541 -73.9008895 73.26080384 -70.87915039 74.2434082 C-67.09919299 75.47262953 -63.3215422 76.70874475 -59.54470634 77.9475193 C-52.20321294 80.35523333 -44.85572632 82.74350689 -37.5007 85.10956764 C-33.2390634 86.48132172 -28.98309343 87.86901467 -24.73097134 89.26997089 C-22.07180343 90.14252772 -19.4083664 91.00142536 -16.7436161 91.85676384 C-14.92109914 92.44614607 -13.10377194 93.05150199 -11.28666687 93.65736389 C-5.12954863 95.61573655 -0.35082604 96.94002379 5.9375 95.1875 C6.80784378 94.94754807 7.67818756 94.70759613 8.5749054 94.46037292 C11.72055914 93.5381882 14.83781739 92.54699263 17.95703125 91.5390625 C19.11759033 91.17029999 20.27814941 90.80153748 21.47387695 90.42160034 C24.59215031 89.42950509 27.70842323 88.43142093 30.82385635 87.43045044 C34.04402822 86.39734648 37.26657548 85.37171169 40.48901367 84.34570312 C44.34796017 83.11663705 48.20673011 81.88703673 52.06440735 80.6539917 C59.48325014 78.28359158 66.90780467 75.93337346 74.34375 73.6171875 C75.17138351 73.35910309 75.99901703 73.10101868 76.85173035 72.83511353 C79.87749828 71.89205452 82.90340686 70.94950097 85.93106079 70.01251221 C87.91981428 69.39670016 89.90728099 68.77689243 91.89453125 68.15625 C92.97710205 67.82044922 94.05967285 67.48464844 95.17504883 67.13867188 C97.56525798 66.31567101 99.71786361 65.38733957 101.9375 64.1875 C95.26365591 59.90295689 88.38743187 56.06650544 81.4375 52.25 C72.53576432 47.34175957 63.69847532 42.3443512 54.9375 37.1875 C45.16127787 31.43654032 35.28437504 25.88553815 25.35571289 20.40405273 C18.26761217 16.49059758 11.22552155 12.51416436 4.24609375 8.41015625 C0.43770362 6.39319159 -1.04688701 7.58272902 -4.6640625 9.5390625 Z M140.9375 17.1875 C140.56052979 17.86103516 140.18355957 18.53457031 139.79516602 19.22851562 C132.52223038 32.22214823 125.24604894 45.2138589 117.9375 58.1875 C121.80369024 59.47623008 124.73985763 58.64593332 128.6184082 57.84814453 C129.39924774 57.69383972 130.18008728 57.53953491 130.98458862 57.3805542 C133.57064468 56.86767171 136.1543927 56.34399593 138.73828125 55.8203125 C140.53552142 55.46186047 142.33290215 55.10411252 144.13041687 54.74703979 C148.86906421 53.80387354 153.60585339 52.85168274 158.34228516 51.89746094 C164.08375955 50.74241705 169.82729222 49.59766319 175.57056713 48.45161247 C180.04257017 47.55906615 184.51423442 46.66492664 188.98493958 45.76589966 C189.81038773 45.60022491 190.63583588 45.43455017 191.48629761 45.26385498 C193.01900342 44.95616317 194.55156277 44.64774044 196.0839386 44.33840942 C200.0249211 43.5481748 203.96872418 42.82378729 207.9375 42.1875 C193.1209742 26.19238692 166.86434792 19.77621031 145.9375 17.1875 C144.27100259 17.16374769 142.60391063 17.15828701 140.9375 17.1875 Z M-203.74267578 39.81201172 C-204.50821777 40.59592285 -205.27375977 41.37983398 -206.0625 42.1875 C-195.47595935 44.28030931 -184.88823308 46.36700136 -174.29895592 48.44592285 C-169.38181238 49.41147138 -164.46509981 50.37911096 -159.54931641 51.3515625 C-154.80407236 52.29019712 -150.0577701 53.2232954 -145.31068802 54.15258789 C-143.50104736 54.5078493 -141.6917948 54.86509365 -139.88294601 55.22436523 C-137.34663272 55.72777094 -134.80902299 56.22406716 -132.27099609 56.71875 C-131.52580719 56.86836182 -130.78061829 57.01797363 -130.0128479 57.17211914 C-125.97098756 57.95145837 -122.17767848 58.33939595 -118.0625 58.1875 C-119.44244946 53.59722432 -121.31418514 49.64821219 -123.65234375 45.46875 C-124.17013145 44.53730164 -124.17013145 44.53730164 -124.69837952 43.58703613 C-125.79415852 41.61782354 -126.89675034 39.65253518 -128 37.6875 C-129.09833843 35.72174716 -130.19521438 33.75519162 -131.29090881 31.78796387 C-132.28627286 30.00235233 -133.28548401 28.21888689 -134.28491211 26.43554688 C-135.95376461 23.38618365 -137.5300692 20.3072705 -139.0625 17.1875 C-159.43700995 17.1875 -188.72247522 25.10376285 -203.74267578 39.81201172 Z M-209.0625 48.1875 C-207.82938764 56.91100744 -206.22298256 65.46577678 -204.234375 74.046875 C-203.96288635 75.2343634 -203.69139771 76.42185181 -203.41168213 77.64532471 C-202.83894439 80.14669335 -202.26402389 82.64756313 -201.68701172 85.14794922 C-200.82453216 88.88536063 -199.96826435 92.62414859 -199.11328125 96.36328125 C-195.5307728 111.99590461 -191.83977864 127.60083434 -188.0625 143.1875 C-169.8031173 141.39791059 -136.3483761 135.35334816 -122.21130371 122.50506592 C-116.72518105 115.48748405 -116.86110921 106.39222953 -117.08398438 97.85742188 C-117.05094877 92.21433971 -115.60368743 87.09870922 -114.125 81.6875 C-113.70616595 79.97208098 -113.30004674 78.25347814 -112.91015625 76.53125 C-112.74523682 75.83193359 -112.58031738 75.13261719 -112.41040039 74.41210938 C-111.9790076 71.65361739 -112.04130872 68.97576635 -112.0625 66.1875 C-122.43341385 64.13490517 -132.80450914 62.0832298 -143.17583179 60.03270149 C-147.99255351 59.08035147 -152.8092141 58.1276946 -157.62573242 57.17431641 C-162.28104465 56.25285931 -166.93652079 55.33223447 -171.59210777 54.4121666 C-173.36099701 54.06243904 -175.12982875 53.71242056 -176.89859962 53.36209488 C-182.28492718 52.2953858 -187.67277692 51.23691178 -193.0625 50.1875 C-194.19569672 49.96527771 -195.32889343 49.74305542 -196.49642944 49.51409912 C-197.94585434 49.23810883 -197.94585434 49.23810883 -199.42456055 48.95654297 C-200.21791306 48.80426239 -201.01126556 48.65198181 -201.82865906 48.49508667 C-204.26427503 48.15971677 -206.60693113 48.13409706 -209.0625 48.1875 Z M194.99462891 49.83984375 C194.1159314 50.01540802 193.23723389 50.19097229 192.33190918 50.37185669 C189.44149839 50.95077168 186.55280704 51.53783211 183.6640625 52.125 C181.65491694 52.5290683 179.64566855 52.93262564 177.63632202 53.33569336 C172.3581539 54.39590008 167.08140891 55.46303079 161.80493164 56.53161621 C156.41637072 57.62162215 151.02649089 58.70506462 145.63671875 59.7890625 C135.06901237 61.91545838 124.50279802 64.04917238 113.9375 66.1875 C114.42377281 70.92790026 114.90872506 75.61732796 115.93725586 80.27661133 C116.13093246 81.16395462 116.32460907 82.05129791 116.52415466 82.9655304 C116.73145706 83.89085068 116.93875946 84.81617096 117.15234375 85.76953125 C117.3681459 86.74613205 117.58394806 87.72273285 117.80628967 88.72892761 C118.26034779 90.77741001 118.71679825 92.82536347 119.17553711 94.87280273 C119.87649499 98.00668387 120.5666233 101.14281945 121.25585938 104.27929688 C121.6998737 106.27618567 122.14451323 108.27293557 122.58984375 110.26953125 C122.79512192 111.20497269 123.00040009 112.14041412 123.2118988 113.10420227 C123.40872757 113.97578476 123.60555634 114.84736725 123.80834961 115.74536133 C123.97854111 116.5087532 124.1487326 117.27214508 124.32408142 118.05867004 C124.96936324 120.29807934 125.75437359 122.17982544 126.9375 124.1875 C128.93238745 125.29218756 128.93238745 125.29218756 131.37109375 125.94140625 C132.31388184 126.23337891 133.25666992 126.52535156 134.22802734 126.82617188 C135.26652832 127.13103516 136.3050293 127.43589844 137.375 127.75 C139.62642679 128.43839437 141.87772086 129.12722287 144.12890625 129.81640625 C145.36398926 130.18910645 146.59907227 130.56180664 147.87158203 130.94580078 C152.35362561 132.30591582 156.81540662 133.72789565 161.27734375 135.15234375 C163.66619515 135.91290405 166.05515524 136.67312223 168.44412231 137.43331909 C170.02190251 137.9357439 171.59943823 138.43893708 173.17672729 138.94290161 C175.40555218 139.65371032 177.63610835 140.35880408 179.8671875 141.0625 C180.53801865 141.27772812 181.20884979 141.49295624 181.90000916 141.71470642 C184.70728792 142.59533335 186.9736593 143.1875 189.9375 143.1875 C194.61605267 124.25931762 198.97476115 105.28538886 203.01977539 86.21240234 C203.7452987 82.79218246 204.47926881 79.37383095 205.21521664 75.95584106 C205.92818722 72.63823815 206.63363823 69.31904957 207.33984375 66 C207.6022435 64.78248047 207.86464325 63.56496094 208.13499451 62.31054688 C208.49150841 60.61961914 208.49150841 60.61961914 208.85522461 58.89453125 C209.06505478 57.9094458 209.27488495 56.92436035 209.49107361 55.90942383 C209.92248965 53.27902017 210.02143778 50.84715191 209.9375 48.1875 C204.73585622 47.96744021 200.05663175 48.8008099 194.99462891 49.83984375 Z M215.9375 50.1875 C214.19666532 58.36067801 212.45755439 66.53422035 210.72044086 74.70818996 C209.91313384 78.50671965 209.10530805 82.30513721 208.29614258 86.10327148 C204.38969667 104.44174429 200.55044615 122.78840094 196.9375 141.1875 C203.02942837 137.89927233 209.0781258 134.58088017 214.99609375 130.98828125 C215.59253189 130.62655319 216.18897003 130.26482513 216.80348206 129.89213562 C218.0398866 129.14145382 219.27556296 128.38957133 220.51049805 127.63647461 C222.3948758 126.48788505 224.28223022 125.34430515 226.16992188 124.20117188 C227.38299017 123.46383389 228.59588722 122.72621409 229.80859375 121.98828125 C230.89068115 121.32997314 231.97276855 120.67166504 233.08764648 119.9934082 C236.65855993 117.78205194 236.65855993 117.78205194 239.9375 115.1875 C240.65238308 108.65872082 239.22414905 102.48983142 237.8125 96.125 C237.58876709 95.11147461 237.36503418 94.09794922 237.13452148 93.05371094 C233.5923333 77.69406064 227.47572719 62.16743905 216.9375 50.1875 C216.6075 50.1875 216.2775 50.1875 215.9375 50.1875 Z M-216.0625 51.1875 C-230.04981058 70.39754029 -236.15409332 91.79001941 -239.0625 115.1875 C-238.13695312 115.72375 -237.21140625 116.26 -236.2578125 116.8125 C-222.7143644 124.70151981 -209.38942009 132.94020981 -196.0625 141.1875 C-194.92332716 137.76998148 -195.23205609 136.54080057 -196.03125 133.09057617 C-196.26921799 132.04552917 -196.50718597 131.00048218 -196.75236511 129.92376709 C-197.01970963 128.78747864 -197.28705414 127.65119019 -197.5625 126.48046875 C-197.83391312 125.29898254 -198.10532623 124.11749634 -198.38496399 122.90020752 C-199.11865921 119.71346709 -199.85937107 116.52846155 -200.60342789 113.34412766 C-201.36522315 110.07651005 -202.1180598 106.80683065 -202.87182617 103.53735352 C-204.333195 97.20542319 -205.80462334 90.87586369 -207.27972412 84.54711914 C-208.17167177 80.71894241 -209.0603454 76.89001303 -209.94851685 73.06095886 C-211.64073408 65.7668778 -213.34326113 58.47526408 -215.0625 51.1875 C-215.3925 51.1875 -215.7225 51.1875 -216.0625 51.1875 Z M-106.0625 69.1875 C-107.31023318 74.82453917 -108.55524253 80.46217086 -109.79785156 86.1003418 C-110.21997493 88.01391404 -110.64281154 89.9273291 -111.06640625 91.84057617 C-114.31098702 106.46451799 -114.31098702 106.46451799 -117.0625 121.1875 C-109.03279543 119.92026271 -101.09603052 118.40642287 -93.16015625 116.6484375 C-92.05502686 116.40624481 -90.94989746 116.16405212 -89.8112793 115.91452026 C-86.24858956 115.13320296 -82.6868033 114.34784733 -79.125 113.5625 C-76.6666609 113.02276748 -74.20824561 112.48338186 -71.74975586 111.94433594 C-68.05092582 111.13332806 -64.35213369 110.3221537 -60.65357971 109.5098877 C-49.81553169 107.13004146 -38.97168282 104.77763286 -28.125 102.4375 C-26.55932271 102.09946263 -24.99364876 101.76140981 -23.42797852 101.42333984 C-19.97294639 100.67746864 -16.5177766 99.93223796 -13.0625 99.1875 C-15.89991869 97.69285223 -18.70242263 96.56648332 -21.75048828 95.57446289 C-22.68264664 95.26940826 -23.61480499 94.96435364 -24.57521057 94.65005493 C-25.58421921 94.32338837 -26.59322784 93.9967218 -27.6328125 93.66015625 C-28.6906041 93.31495941 -29.74839569 92.96976257 -30.83824158 92.61410522 C-34.28697044 91.48956452 -37.73716246 90.36959428 -41.1875 89.25 C-43.55011054 88.48139083 -45.91265916 87.71259132 -48.27514648 86.94360352 C-52.99163522 85.4089391 -57.7087522 83.87622591 -62.42626953 82.34472656 C-67.43369664 80.71833969 -72.43862554 79.08453648 -77.44152832 77.44429016 C-80.61293047 76.40475498 -83.78542226 75.36857742 -86.95819092 74.33322144 C-88.39668074 73.86305111 -89.834715 73.39148458 -91.27227783 72.91848755 C-93.23359562 72.27359444 -95.19659875 71.6341287 -97.16015625 70.99609375 C-98.23789307 70.64345459 -99.31562988 70.29081543 -100.42602539 69.92749023 C-103.08750528 69.05238413 -103.08750528 69.05238413 -106.0625 69.1875 Z M106.9375 69.1875 C76.25261087 78.79706186 45.57997912 88.44349044 14.9375 98.1875 C14.9375 98.5175 14.9375 98.8475 14.9375 99.1875 C15.8171492 99.37462555 16.6967984 99.5617511 17.60310364 99.75454712 C26.02730385 101.54683491 34.45124771 103.34032214 42.87492847 105.13504982 C47.20221182 106.05696842 51.52958196 106.97847481 55.85717773 107.89892578 C60.8699067 108.96516948 65.88233428 110.03282084 70.89453125 111.1015625 C71.71248295 111.27591072 72.53043465 111.45025894 73.37317276 111.62989044 C85.31665659 114.17755992 97.24603719 116.78065867 109.15620422 119.4803772 C110.16515244 119.70776581 111.17410065 119.93515442 112.21362305 120.16943359 C113.08488327 120.36749603 113.95614349 120.56555847 114.85380554 120.7696228 C116.91012863 121.25304371 116.91012863 121.25304371 118.9375 121.1875 C117.56928424 111.19029853 115.61193829 101.36592735 113.47851562 91.50854492 C112.9305287 88.96767593 112.39480605 86.42440022 111.859375 83.88085938 C111.51115468 82.26025791 111.16222334 80.63980903 110.8125 79.01953125 C110.65410645 78.26130569 110.49571289 77.50308014 110.33251953 76.72187805 C109.46682942 72.53620008 109.46682942 72.53620008 106.9375 69.1875 Z M3.9375 103.1875 C3.9375 146.7475 3.9375 190.3075 3.9375 235.1875 C12.5295117 227.82291855 17.47646317 220.57385207 23.0625 210.875 C27.17847226 203.81971926 31.35765726 196.82435204 35.75 189.9375 C40.52992619 182.43899579 45.22184767 174.89036475 49.875 167.3125 C50.89074097 165.6584314 50.89074097 165.6584314 51.92700195 163.97094727 C53.2780111 161.77084335 54.62900413 159.57072953 55.97998047 157.37060547 C58.95541307 152.53228042 61.94612894 147.70347987 64.9375 142.875 C65.72846069 141.59459839 65.72846069 141.59459839 66.53540039 140.28833008 C68.85465868 136.53553628 71.18334788 132.79045406 73.5546875 129.0703125 C73.94140625 128.45841064 74.328125 127.84650879 74.7265625 127.21606445 C75.72610029 125.63653407 76.73376547 124.0621545 77.7421875 122.48828125 C78.13664062 121.72902344 78.53109375 120.96976563 78.9375 120.1875 C78.4425 119.1975 78.4425 119.1975 77.9375 118.1875 C75.58630613 117.51800946 73.29685461 116.97518583 70.90625 116.48828125 C70.17514511 116.33231979 69.44404022 116.17635834 68.69078064 116.01567078 C66.27466433 115.50229183 63.8562026 115.00104002 61.4375 114.5 C59.76945635 114.14852733 58.10157016 113.79630659 56.43383789 113.44335938 C52.98944757 112.71549242 49.54412801 111.99225727 46.09814453 111.27197266 C41.15354932 110.23623098 36.21492017 109.17409379 31.27734375 108.10546875 C29.02922268 107.62079333 26.78099674 107.13660826 24.53271484 106.65267944 C23.09938722 106.34366987 21.6662794 106.03363887 20.23339844 105.7225647 C18.23848108 105.29026447 16.24231368 104.86374491 14.24609375 104.4375 C13.12001709 104.19515625 11.99394043 103.9528125 10.83374023 103.703125 C7.7714507 103.07064903 7.7714507 103.07064903 3.9375 103.1875 Z M-12.92651367 104.53271484 C-13.60824142 104.67580582 -14.28996918 104.81889679 -14.99235535 104.96632385 C-17.2393406 105.43933264 -19.48495456 105.91849698 -21.73046875 106.3984375 C-23.29174964 106.73006221 -24.85305471 107.06157308 -26.41438293 107.39297485 C-29.68240834 108.08781614 -32.94968433 108.7860684 -36.21655273 109.48632812 C-40.41155437 110.38494394 -44.60892765 111.27190551 -48.80701733 112.15596581 C-52.02948525 112.83645521 -55.25027524 113.52463129 -58.47063637 114.21501541 C-60.01826908 114.54550439 -61.56650036 114.87320278 -63.11531639 115.19810104 C-65.27424884 115.65186202 -67.43061858 116.11626578 -69.58666992 116.58349609 C-70.81592697 116.84552826 -72.04518402 117.10756042 -73.31169128 117.37753296 C-74.21945816 117.64482208 -75.12722504 117.91211121 -76.0625 118.1875 C-76.3925 118.8475 -76.7225 119.5075 -77.0625 120.1875 C-75.93117786 122.37826469 -74.74490296 124.41591933 -73.4375 126.5 C-73.03144531 127.16169189 -72.62539063 127.82338379 -72.20703125 128.50512695 C-70.83384272 130.73783927 -69.4487699 132.96288925 -68.0625 135.1875 C-67.09589628 136.74711214 -66.12976116 138.30701479 -65.1640625 139.8671875 C-63.5895588 142.41015095 -62.0142921 144.95262043 -60.4362793 147.4934082 C-54.94603374 156.34332092 -49.54419455 165.24615323 -44.15039062 174.1550293 C-40.77990946 179.71978385 -37.39697341 185.27585892 -33.98046875 190.8125 C-31.47958704 194.86775234 -29.00740302 198.93735481 -26.5703125 203.03125 C-16.34367009 221.27881482 -16.34367009 221.27881482 -2.0625 236.1875 C-2.0625 192.2975 -2.0625 148.4075 -2.0625 103.1875 C-5.95993507 103.1875 -9.12300675 103.72843276 -12.92651367 104.53271484 Z M84.9375 120.1875 C84.10642701 121.43209279 83.32633321 122.71073488 82.56640625 124 C82.07986572 124.81976318 81.5933252 125.63952637 81.09204102 126.48413086 C80.56666748 127.37624268 80.04129395 128.26835449 79.5 129.1875 C75.72595274 135.53845352 71.93367456 141.87146608 68 148.125 C64.22458995 154.13036619 60.47819212 160.15268893 56.75 166.1875 C52.56645775 172.95773161 48.36075031 179.71348303 44.13354492 186.45654297 C41.06012095 191.36183713 37.99782956 196.2740297 34.9375 201.1875 C34.42509766 202.00734375 33.91269531 202.8271875 33.38476562 203.671875 C32.06026976 205.79685063 30.7466772 207.92806414 29.4375 210.0625 C29.05754883 210.66884277 28.67759766 211.27518555 28.28613281 211.89990234 C27.44030215 213.29276926 26.67830176 214.73604538 25.9375 216.1875 C26.2675 216.8475 26.5975 217.5075 26.9375 218.1875 C30.5488766 215.40158091 33.73272157 212.42828717 36.9375 209.1875 C38.07874888 208.04489511 39.2207282 206.90301952 40.36328125 205.76171875 C40.9874292 205.1375708 41.61157715 204.51342285 42.25463867 203.87036133 C65.51171875 180.61328125 65.51171875 180.61328125 67.28991699 178.8359375 C68.34030472 177.78500501 69.38965159 176.73303044 70.43762207 175.6796875 C73.21175855 172.89318339 76.07068374 170.32221538 79.09375 167.8125 C81.48094389 165.7085325 83.6941985 163.44211657 85.9375 161.1875 C87.13617695 159.9882278 88.33517616 158.78927766 89.53442383 157.59057617 C90.19473099 156.93026901 90.85503815 156.26996185 91.53535461 155.58964539 C105.23642731 141.88857269 105.23642731 141.88857269 118.9375 128.1875 C115.40649129 126.32762999 112.16297116 125.47575444 108.23828125 124.6796875 C106.94728516 124.41542969 105.65628906 124.15117187 104.32617188 123.87890625 C102.96745469 123.60673704 101.60873064 123.33460203 100.25 123.0625 C98.87945603 122.78304827 97.50901206 122.50310557 96.13867188 122.22265625 C90.5838466 120.84045153 90.5838466 120.84045153 84.9375 120.1875 Z M-240.0625 121.1875 C-242.67821782 140.16002098 -244.92027575 159.05913426 -246.0625 178.1875 C-246.12034668 179.12368164 -246.17819336 180.05986328 -246.23779297 181.02441406 C-247.27218214 198.40337983 -247.16984573 215.78593196 -247.0625 233.1875 C-244.47267266 230.04273458 -242.16372736 226.89746899 -240.06640625 223.40625 C-239.5146875 222.49294922 -238.96296875 221.57964844 -238.39453125 220.63867188 C-237.81058594 219.66478516 -237.22664063 218.69089844 -236.625 217.6875 C-235.3665851 215.60374395 -234.1074554 213.52041945 -232.84765625 211.4375 C-232.21359863 210.38820313 -231.57954102 209.33890625 -230.92626953 208.2578125 C-228.16885957 203.71534621 -225.36801329 199.20035987 -222.5625 194.6875 C-217.31902504 186.24544896 -212.13853839 177.76646542 -206.99414062 169.26367188 C-206.45208984 168.36970703 -205.91003906 167.47574219 -205.3515625 166.5546875 C-204.82079102 165.6790918 -204.29001953 164.80349609 -203.74316406 163.90136719 C-201.35939526 160.05215539 -198.8660291 156.27552209 -196.36083984 152.50439453 C-194.81807236 150.19396384 -194.81807236 150.19396384 -195.0625 147.1875 C-195.75585449 146.79071045 -196.44920898 146.3939209 -197.16357422 145.98510742 C-200.42307636 144.11772361 -203.68092605 142.24748417 -206.9375 140.375 C-207.5244162 140.03757782 -208.1113324 139.70015564 -208.71603394 139.35250854 C-217.18820808 134.47654033 -225.59300531 129.50521875 -233.89208984 124.33862305 C-236.7845724 122.17357465 -236.7845724 122.17357465 -240.0625 121.1875 Z M-86.90991211 120.3659668 C-88.04178955 120.62031494 -89.17366699 120.87466309 -90.33984375 121.13671875 C-91.57541016 121.40806641 -92.81097656 121.67941406 -94.08398438 121.95898438 C-94.72682373 122.10940186 -95.36966309 122.25981934 -96.03198242 122.41479492 C-97.98539282 122.87158423 -99.94488246 123.30211526 -101.90429688 123.73242188 C-109.20635216 125.33171131 -109.20635216 125.33171131 -116.0625 128.1875 C-112.24611567 132.74528294 -108.30328766 137.09257675 -104.09228516 141.28710938 C-103.52879868 141.85234818 -102.96531219 142.41758698 -102.38475037 142.99995422 C-100.54284133 144.84622259 -98.69734801 146.68885772 -96.8515625 148.53125 C-95.55636256 149.82712478 -94.26131099 151.12314786 -92.96640015 152.41931152 C-90.25982059 155.12736012 -87.55145444 157.83360556 -84.84179688 160.53857422 C-81.38662103 163.98805902 -77.93594712 167.44200682 -74.48661232 170.89733124 C-71.8151191 173.57245641 -69.14122589 176.24517254 -66.46662521 178.91719055 C-65.19417516 180.18897832 -63.9224542 181.46149603 -62.65150833 182.73478699 C-53.87066698 191.52859618 -53.87066698 191.52859618 -44.6333313 199.83682251 C-42.60142859 201.58395173 -40.71838956 203.4497911 -38.8515625 205.37109375 C-38.16449219 206.07041016 -37.47742188 206.76972656 -36.76953125 207.49023438 C-35.3564162 208.93914127 -33.94501394 210.38972022 -32.53515625 211.84179688 C-31.51615234 212.87723633 -31.51615234 212.87723633 -30.4765625 213.93359375 C-29.8676416 214.55935303 -29.2587207 215.1851123 -28.63134766 215.82983398 C-27.15623427 217.40562644 -27.15623427 217.40562644 -25.0625 217.1875 C-26.6680151 212.72296603 -28.95509123 208.74697775 -31.375 204.6875 C-31.81231445 203.94902832 -32.24962891 203.21055664 -32.70019531 202.44970703 C-36.70875176 195.71415568 -40.83282101 189.05123139 -44.97094727 182.39477539 C-48.95133128 175.99144865 -52.89507887 169.56703109 -56.8125 163.125 C-57.37783447 162.1963916 -57.94316895 161.2677832 -58.52563477 160.31103516 C-61.51138451 155.40176161 -64.48681527 150.4864711 -67.44827271 145.56251526 C-68.99940315 142.98452928 -70.55373259 140.40847883 -72.10827637 137.83255005 C-72.86437544 136.57756544 -73.61887447 135.32161533 -74.3717041 134.06466675 C-75.42489752 132.30635781 -76.48338018 130.55133528 -77.54296875 128.796875 C-78.45405396 127.2804541 -78.45405396 127.2804541 -79.38354492 125.73339844 C-82.05043932 121.11124225 -82.05043932 121.11124225 -86.90991211 120.3659668 Z M232.75 126.125 C232.03674561 126.53032959 231.32349121 126.93565918 230.58862305 127.35327148 C218.88220282 134.03730562 207.39893046 141.09416951 195.9375 148.1875 C199.82393298 155.1219223 203.70514535 161.98542875 208.1953125 168.55078125 C212.13965368 174.5203559 215.77760625 180.69066784 219.49072266 186.80566406 C223.1264415 192.79116406 226.77833403 198.76679207 230.43701172 204.73828125 C231.49927929 206.47220059 232.56072089 208.20662607 233.62158203 209.94140625 C235.36911406 212.79650164 237.12151842 215.64855551 238.875 218.5 C239.41882324 219.38985596 239.96264648 220.27971191 240.52294922 221.1965332 C241.29856201 222.45469849 241.29856201 222.45469849 242.08984375 223.73828125 C242.54351318 224.47731689 242.99718262 225.21635254 243.46459961 225.9777832 C245.14945132 228.50547968 247.01211965 230.83953182 248.9375 233.1875 C249.36321223 196.09814033 248.28764862 158.82754298 241.9375 122.1875 C238.49276956 122.1875 235.67910713 124.44627627 232.75 126.125 Z M128.9375 131.1875 C131.27637435 140.96689512 133.9932086 150.62948353 136.72277832 160.30526733 C142.707428 181.53611052 148.40125182 202.83578848 153.9375 224.1875 C156.26635924 221.29178615 157.84143134 218.4705363 159.3203125 215.06640625 C159.76052734 214.05956787 160.20074219 213.05272949 160.65429688 212.01538086 C161.35135742 210.39901733 161.35135742 210.39901733 162.0625 208.75 C162.55041016 207.63052979 163.03832031 206.51105957 163.54101562 205.35766602 C166.90289633 197.62961396 170.2049685 189.87638917 173.50219727 182.12060547 C178.09727162 171.3791679 183.02366934 160.78593115 187.9375 150.1875 C185.07426077 148.27867384 182.92141117 147.421454 179.67163086 146.39990234 C178.59719223 146.05970062 177.5227536 145.7194989 176.41575623 145.36898804 C175.25633011 145.00745636 174.09690399 144.64592468 172.90234375 144.2734375 C171.71274551 143.89893463 170.52314728 143.52443176 169.29750061 143.13858032 C166.78227325 142.3478979 164.26655075 141.55908683 161.74975586 140.7734375 C158.52099708 139.76538654 155.29441905 138.75055774 152.06850338 137.73344994 C148.99324527 136.76454469 145.91651473 135.80034522 142.83984375 134.8359375 C141.6783934 134.47035736 140.51694305 134.10477722 139.32029724 133.7281189 C138.24901077 133.3942215 137.1777243 133.0603241 136.07397461 132.71630859 C135.12816025 132.42033783 134.18234589 132.12436707 133.20787048 131.81942749 C131.00915277 131.09811876 131.00915277 131.09811876 128.9375 131.1875 Z M-136.36010742 133.74804688 C-137.44100143 134.08839966 -138.52189545 134.42875244 -139.63554382 134.77941895 C-141.38409416 135.33720032 -141.38409416 135.33720032 -143.16796875 135.90625 C-144.95948112 136.47224915 -144.95948112 136.47224915 -146.78718567 137.04968262 C-149.95939595 138.05273626 -153.13038197 139.05949345 -156.30084229 140.0680542 C-159.53746707 141.09665933 -162.77563234 142.12039031 -166.01367188 143.14453125 C-172.36471287 145.15435797 -178.714185 147.16908047 -185.0625 149.1875 C-184.32411574 153.18937694 -183.16660817 156.49944725 -181.47265625 160.2109375 C-180.67444458 161.97280396 -180.67444458 161.97280396 -179.86010742 163.77026367 C-179.57718842 164.38856049 -179.29426941 165.0068573 -179.0027771 165.64389038 C-177.50961289 168.90758821 -176.03338668 172.1789486 -174.5546875 175.44921875 C-174.25670761 176.10696793 -173.95872772 176.7647171 -173.65171814 177.44239807 C-170.95870528 183.39445874 -168.34122086 189.37793903 -165.75 195.375 C-161.58347995 205.00749515 -157.34487133 214.60599319 -153.0625 224.1875 C-150.82958572 220.34079768 -149.89473649 216.14718982 -148.8125 211.875 C-148.59810776 211.04540771 -148.38371552 210.21581543 -148.16282654 209.36108398 C-147.7003289 207.57093913 -147.2396967 205.78031151 -146.7807312 203.98925781 C-145.56330237 199.24017323 -144.33179043 194.49476737 -143.09765625 189.75 C-142.84661636 188.78465332 -142.59557648 187.81930664 -142.33692932 186.82470703 C-139.4461385 175.75621834 -136.36265096 164.74225186 -133.23632812 153.73828125 C-131.21831913 146.60130769 -129.32940485 139.50104615 -128.0625 132.1875 C-131.22933779 132.1875 -133.35011938 132.79383155 -136.36010742 133.74804688 Z M-121.0625 133.1875 C-122.19522952 136.49740627 -123.31722699 139.81085902 -124.4375 143.125 C-124.75460937 144.05119141 -125.07171875 144.97738281 -125.3984375 145.93164062 C-127.32225764 151.64298166 -128.86294852 157.2806177 -130.0625 163.1875 C-129.2435022 163.63065552 -129.2435022 163.63065552 -128.40795898 164.08276367 C-117.82264289 169.81707239 -107.27453607 175.60586555 -96.8125 181.5625 C-87.3450207 186.94945011 -77.78383442 192.14539207 -68.17480469 197.27514648 C-61.15014356 201.03270974 -54.22906559 204.91507742 -47.40625 209.02734375 C-46.6328125 209.41019531 -45.859375 209.79304688 -45.0625 210.1875 C-44.4025 209.8575 -43.7425 209.5275 -43.0625 209.1875 C-44.22562671 207.99653249 -45.39326672 206.80997296 -46.5625 205.625 C-47.53703125 204.63306641 -47.53703125 204.63306641 -48.53125 203.62109375 C-50.43977442 201.78620068 -52.35220214 200.08968761 -54.36962891 198.38476562 C-60.10877289 193.37426603 -65.41470872 187.92999587 -70.77376938 182.52083015 C-72.71285493 180.56418853 -74.65560606 178.61125434 -76.59939575 176.6592865 C-82.11940991 171.11494481 -87.63356447 165.56480111 -93.14355469 160.01049805 C-96.52666867 156.60068578 -99.91457025 153.19569251 -103.30551529 149.79366875 C-104.59525339 148.49771043 -105.88308934 147.19985628 -107.16900253 145.90010262 C-108.95698193 144.09302205 -110.75093086 142.29207945 -112.54638672 140.49243164 C-113.07832138 139.95173538 -113.61025604 139.41103912 -114.15830994 138.85395813 C-116.63781861 136.03993492 -116.63781861 136.03993492 -120.0625 135.1875 C-120.3925 134.5275 -120.7225 133.8675 -121.0625 133.1875 Z M121.9375 133.1875 C121.29127686 133.83594376 120.64505371 134.48438751 119.97924805 135.15248108 C113.8623653 141.28947455 107.74302451 147.42400434 101.62097168 153.55584049 C98.47432529 156.7076858 95.3286077 159.86044617 92.18505859 163.01538086 C89.14632145 166.06505386 86.10508496 169.11221437 83.06216431 172.15771294 C81.90679202 173.31492031 80.75229407 174.47300138 79.59872437 175.63200569 C74.05697301 181.19880322 68.515424 186.70713264 62.53808594 191.8127594 C60.56257417 193.50952317 58.70783787 195.30314126 56.875 197.15234375 C56.22402344 197.80654297 55.57304688 198.46074219 54.90234375 199.13476562 C54.25394531 199.79154297 53.60554688 200.44832031 52.9375 201.125 C52.25816406 201.80884766 51.57882812 202.49269531 50.87890625 203.19726562 C49.22941641 204.85837159 47.5823332 206.52178513 45.9375 208.1875 C48.75772326 209.48862355 48.75772326 209.48862355 50.74560547 208.45336914 C51.42510254 208.04723389 52.10459961 207.64109863 52.8046875 207.22265625 C53.98683838 206.52958374 53.98683838 206.52958374 55.19287109 205.82250977 C56.05734863 205.30358154 56.92182617 204.78465332 57.8125 204.25 C59.71740917 203.13312662 61.6237395 202.01867472 63.53125 200.90625 C64.56121094 200.30425781 65.59117187 199.70226562 66.65234375 199.08203125 C71.87991212 196.06732179 77.1692599 193.16654132 82.46038818 190.26550293 C94.03937106 183.91680901 105.56382883 177.47801481 117.046875 170.95703125 C121.66080972 168.33764297 126.29450009 165.75496337 130.9375 163.1875 C130.33325576 156.78698692 128.87954526 150.95144638 127 144.8125 C126.73509766 143.91144531 126.47019531 143.01039063 126.19726562 142.08203125 C125.93751953 141.22222656 125.67777344 140.36242187 125.41015625 139.4765625 C125.17562744 138.70006348 124.94109863 137.92356445 124.69946289 137.12353516 C124.01005833 134.99404474 124.01005833 134.99404474 121.9375 133.1875 Z M-191.0625 154.1875 C-199.02867159 166.86769152 -206.94272424 179.57496385 -214.70825195 192.37915039 C-218.54267494 198.69907707 -222.40224037 205.00290865 -226.28466797 211.29345703 C-227.66413463 213.53327782 -229.03827872 215.77638655 -230.40673828 218.02294922 C-233.25659144 222.69540755 -236.11245982 227.32686071 -239.25 231.8125 C-243.61390558 237.71883387 -243.61390558 237.71883387 -244.87109375 244.67578125 C-243.58685449 247.49542095 -241.92441844 249.70724501 -240.0625 252.1875 C-238.83255004 254.15010698 -237.65128351 256.13841455 -236.46704102 258.12890625 C-235.07888072 260.45218707 -233.66079826 262.75471821 -232.234375 265.0546875 C-228.74906343 270.68361989 -225.31213763 276.34156729 -221.875 282 C-218.1823528 288.0722981 -214.48385178 294.14044522 -210.75 300.1875 C-204.0262105 311.09210733 -197.48276973 322.10169664 -191.0625 333.1875 C-187.62436937 330.45890673 -186.43680313 326.69094237 -184.90234375 322.7265625 C-184.59994278 321.96460068 -184.29754181 321.20263885 -183.98597717 320.41758728 C-182.98299831 317.88550559 -181.9911892 315.34921778 -181 312.8125 C-179.94178708 310.12297927 -178.88154419 307.4342656 -177.82095337 304.74568176 C-177.07555201 302.85589548 -176.33108476 300.9657405 -175.5874939 299.07524109 C-172.7870925 291.97128112 -169.90823887 284.90185262 -167.00390625 277.83984375 C-165.7609927 274.79979441 -164.51959187 271.7591325 -163.27883911 268.71820068 C-162.47213157 266.74961327 -161.66022968 264.78314594 -160.84298706 262.81890869 C-159.69337222 260.05291588 -158.56358917 257.27954402 -157.4375 254.50390625 C-157.09453384 253.69291977 -156.75156769 252.88193329 -156.39820862 252.04637146 C-153.84889791 245.67888433 -153.03325188 240.0137242 -154.83422852 233.31860352 C-155.38228149 232.08001587 -155.38228149 232.08001587 -155.94140625 230.81640625 C-156.3605127 229.84727295 -156.77961914 228.87813965 -157.21142578 227.87963867 C-157.91114502 226.33046753 -157.91114502 226.33046753 -158.625 224.75 C-159.10952637 223.64180908 -159.59405273 222.53361816 -160.09326172 221.3918457 C-161.44213005 218.3153867 -162.80557444 215.2461772 -164.17547607 212.17907715 C-165.73424589 208.67927264 -167.2742773 205.17122321 -168.81640625 201.6640625 C-170.74674868 197.27634236 -172.67947353 192.88974618 -174.62402344 188.50830078 C-177.4432096 182.15370571 -180.24695134 175.79614192 -182.94921875 169.390625 C-183.57546143 167.90622925 -183.57546143 167.90622925 -184.21435547 166.3918457 C-184.96548971 164.60122637 -185.71098982 162.80822875 -186.44970703 161.01245117 C-187.89266945 156.87713005 -187.89266945 156.87713005 -191.0625 154.1875 Z M191.9375 154.1875 C186.67951503 165.28368272 181.69472103 176.48400979 176.8125 187.75 C175.69696091 190.32251937 174.58131086 192.89499052 173.46549988 195.46739197 C172.71654276 197.19405127 171.96785393 198.92082698 171.21943665 200.64772034 C169.13464179 205.45222133 167.03088163 210.24754341 164.90075684 215.03211975 C163.67241793 217.7918381 162.45174748 220.55491456 161.23175049 223.31832886 C160.6657715 224.59441249 160.09597301 225.86880969 159.52215576 227.14138794 C158.73269533 228.89319849 157.95778727 230.65154533 157.18359375 232.41015625 C156.52895142 233.87594116 156.52895142 233.87594116 155.86108398 235.37133789 C154.33554129 240.02297282 154.45473611 243.87470436 156.484375 248.3125 C156.82831299 249.0852124 157.17225098 249.8579248 157.52661133 250.65405273 C157.90970459 251.49009033 158.29279785 252.32612793 158.6875 253.1875 C159.52295919 255.07270333 160.3547831 256.95952052 161.18359375 258.84765625 C161.6307373 259.86617676 162.07788086 260.88469727 162.53857422 261.93408203 C165.05462992 267.78555818 167.39845842 273.70597818 169.75 279.625 C170.25479289 280.89212567 170.75967628 282.15921529 171.26464844 283.42626953 C173.37514014 288.72584214 175.47834016 294.0283002 177.57958984 299.33154297 C178.93577937 302.75410904 180.29520913 306.17537472 181.65634155 309.59597778 C182.41667557 311.51007569 183.1728979 313.42576238 183.92895508 315.34155273 C186.35593025 321.44312327 188.87969635 327.37478834 191.9375 333.1875 C194.83003878 329.70472048 197.28782371 326.15273237 199.625 322.27734375 C199.96422485 321.71702454 200.30344971 321.15670532 200.6529541 320.57940674 C201.7512474 318.76332579 202.84443859 316.94423381 203.9375 315.125 C204.70088529 313.86025992 205.46455978 312.59569435 206.22851562 311.33129883 C208.4696074 307.61955733 210.70402597 303.9038285 212.9375 300.1875 C213.53820312 299.18912109 214.13890625 298.19074219 214.7578125 297.16210938 C218.92303542 290.23816653 223.07822593 283.30826114 227.21484375 276.3671875 C227.57465332 275.76471191 227.93446289 275.16223633 228.30517578 274.54150391 C229.0093494 273.36231039 229.71218562 272.18231702 230.41357422 271.00146484 C232.68372611 267.20275089 235.03129791 263.4611002 237.41796875 259.734375 C238.0200415 258.78618896 238.62211426 257.83800293 239.24243164 256.86108398 C240.43813955 254.98147285 241.64408163 253.10832571 242.86108398 251.24243164 C243.40450439 250.38512451 243.9479248 249.52781738 244.5078125 248.64453125 C245.00039551 247.88116455 245.49297852 247.11779785 246.00048828 246.33129883 C247.11546168 244.26167661 247.11546168 244.26167661 246.72216797 242.14526367 C245.8998926 240.09366872 244.96308332 238.29404482 243.8125 236.40625 C243.13670898 235.28851196 243.13670898 235.28851196 242.44726562 234.14819336 C241.94904297 233.33616455 241.45082031 232.52413574 240.9375 231.6875 C240.41349609 230.82455322 239.88949219 229.96160645 239.34960938 229.07250977 C238.18567305 227.15661285 237.01953467 225.24205253 235.8515625 223.32861328 C233.81947089 219.9938058 231.79925714 216.65193088 229.78125 213.30859375 C223.00005228 202.08305477 216.18738852 190.88277935 209.13525391 179.82446289 C206.65460951 175.9297042 204.2148761 172.01564939 201.828125 168.0625 C201.32200684 167.22477051 200.81588867 166.38704102 200.29443359 165.52392578 C199.32928376 163.92085485 198.36844393 162.31517857 197.41259766 160.70654297 C196.9851123 159.99643066 196.55762695 159.28631836 196.1171875 158.5546875 C195.74319824 157.92675293 195.36920898 157.29881836 194.98388672 156.65185547 C193.98912553 155.01842924 193.98912553 155.01842924 191.9375 154.1875 Z M-132.0625 169.1875 C-133.86021142 175.94579618 -135.65652247 182.70446349 -137.4519043 189.46337891 C-138.06161516 191.75805903 -138.67163528 194.05265701 -139.28198242 196.34716797 C-140.16408199 199.66351615 -141.04503336 202.98016762 -141.92578125 206.296875 C-142.19465652 207.30675476 -142.4635318 208.31663452 -142.74055481 209.3571167 C-144.09400232 214.45830054 -145.43002719 219.56397873 -146.73901367 224.67675781 C-146.9855217 225.63608215 -147.23202972 226.59540649 -147.48600769 227.58380127 C-148.23756994 230.97819464 -148.43025274 233.73062423 -148.0625 237.1875 C-147.4025 238.1775 -146.7425 239.1675 -146.0625 240.1875 C-143.54223737 240.63576735 -143.54223737 240.63576735 -140.54501343 240.54826355 C-138.78653831 240.55444954 -138.78653831 240.55444954 -136.99253845 240.5607605 C-135.69997635 240.54997467 -134.40741425 240.53918884 -133.07568359 240.52807617 C-131.70594807 240.52723029 -130.33621118 240.52770427 -128.96647644 240.52940369 C-125.24138864 240.53026661 -121.51658895 240.51259308 -117.79156828 240.49168181 C-113.90115019 240.47296435 -110.01072594 240.47116848 -106.12026978 240.46760559 C-98.75020968 240.45827058 -91.38028264 240.43363721 -84.01028121 240.40355712 C-75.62105408 240.3700583 -67.23182069 240.3535385 -58.84254336 240.33847082 C-41.58245187 240.30708884 -24.32248999 240.25430018 -7.0625 240.1875 C-15.00282151 232.10151439 -24.81082277 227.09577015 -34.75 221.8125 C-36.87683978 220.67157469 -39.0031419 219.52964654 -41.12890625 218.38671875 C-42.15000488 217.83806152 -43.17110352 217.2894043 -44.22314453 216.72412109 C-47.90222375 214.73305277 -51.54999704 212.69079557 -55.1875 210.625 C-61.40191853 207.10031931 -67.66142344 203.663635 -73.9375 200.25 C-80.55550063 196.64951872 -87.16633578 193.03793635 -93.75 189.375 C-94.44206543 188.99045654 -95.13413086 188.60591309 -95.84716797 188.2097168 C-99.98728049 185.90673893 -104.12173594 183.59388812 -108.25263977 181.27442932 C-110.73580902 179.88118359 -113.22088886 178.49136682 -115.70620728 177.10195923 C-116.93932815 176.41145452 -118.17157527 175.71938702 -119.40292358 175.02572632 C-121.13103799 174.05236659 -122.86232962 173.08465431 -124.59375 172.1171875 C-125.59986328 171.55241699 -126.60597656 170.98764648 -127.64257812 170.40576172 C-129.90868655 169.03761234 -129.90868655 169.03761234 -132.0625 169.1875 Z M131.9375 169.1875 C130.157723 169.82848089 130.157723 169.82848089 128.21875 170.92578125 C127.46142578 171.32821045 126.70410156 171.73063965 125.92382812 172.14526367 C125.10333984 172.59232666 124.28285156 173.03938965 123.4375 173.5 C122.58091797 173.95930908 121.72433594 174.41861816 120.84179688 174.8918457 C113.04548199 179.08759978 105.30506593 183.38416978 97.58007812 187.70947266 C92.2876334 190.66960388 86.98747674 193.61588222 81.6875 196.5625 C80.81925598 197.04543015 80.81925598 197.04543015 79.93347168 197.53811646 C72.20575618 201.83539825 64.45835904 206.09381176 56.6875 210.3125 C48.94363828 214.52093452 41.23925347 218.79531104 33.5625 223.125 C32.61729492 223.65689941 31.67208984 224.18879883 30.69824219 224.73681641 C28.10270823 226.20594264 25.51834652 227.69275542 22.9375 229.1875 C22.19081055 229.60918457 21.44412109 230.03086914 20.67480469 230.46533203 C19.98547852 230.86993652 19.29615234 231.27454102 18.5859375 231.69140625 C17.99731934 232.03115479 17.40870117 232.37090332 16.80224609 232.72094727 C15.00975657 234.13067292 13.7605902 235.52248409 12.32095337 237.27915955 C11.53441376 238.2389119 10.74787415 239.19866425 9.9375 240.1875 C24.81244534 240.21103089 39.68738923 240.22857705 54.56234932 240.23931217 C61.47158562 240.24443277 68.38081026 240.25139298 75.29003906 240.26293945 C81.97499626 240.27410565 88.65993892 240.27980749 95.34490585 240.28237724 C97.87777775 240.28420533 100.4106491 240.28777414 102.94351578 240.29323006 C118.30660089 240.32496506 133.59722071 240.0482915 148.9375 239.1875 C151.56391723 233.93466554 149.6710134 227.20552786 148.21484375 221.84765625 C148.03390167 221.17117035 147.85295959 220.49468445 147.66653442 219.79769897 C147.07924995 217.6123144 146.47766856 215.43118729 145.875 213.25 C145.46408328 211.73789597 145.05385175 210.22560558 144.64428711 208.71313477 C143.81685356 205.66543642 142.98291334 202.61963031 142.14355469 199.57519531 C141.02923115 195.53114702 139.93864142 191.48114295 138.8515625 187.4296875 C138.23537751 185.16118579 137.6182539 182.89293873 137 180.625 C136.71825928 179.5738501 136.43651855 178.5227002 136.14624023 177.43969727 C135.75094116 176.01355103 135.75094116 176.01355103 135.34765625 174.55859375 C135.12215088 173.73286865 134.89664551 172.90714355 134.66430664 172.05639648 C134.10134688 169.98962562 134.10134688 169.98962562 131.9375 169.1875 Z M-148.0625 246.1875 C-147.24480997 254.64466421 -147.24480997 254.64466421 -145.57202148 262.73876953 C-145.27178574 263.91923859 -144.97154999 265.09970764 -144.66221619 266.31594849 C-144.33927078 267.55488861 -144.01632538 268.79382874 -143.68359375 270.0703125 C-143.34808156 271.37865132 -143.01321848 272.68715676 -142.67897034 273.99581909 C-141.80588812 277.40699672 -140.92412206 280.81586851 -140.04040527 284.2243042 C-139.13682096 287.71587074 -138.24163749 291.20958924 -137.34570312 294.703125 C-135.59276001 301.53335522 -133.83061569 308.36118021 -132.0625 315.1875 C-123.32051965 310.83483825 -114.58244533 306.48087435 -105.9375 301.9375 C-105.05537842 301.47480713 -104.17325684 301.01211426 -103.2644043 300.53540039 C-96.20442729 296.8184071 -89.20236732 293.00065414 -82.20849609 289.16113281 C-73.53879637 284.41634139 -64.80256234 279.80081298 -56.0625 275.1875 C-46.12283913 269.93798273 -36.18915907 264.67995334 -26.3125 259.3125 C-25.44496094 258.84328125 -24.57742188 258.3740625 -23.68359375 257.890625 C-14.95140447 253.19429072 -14.95140447 253.19429072 -8.0625 246.1875 C-54.2625 246.1875 -100.4625 246.1875 -148.0625 246.1875 Z M9.9375 246.1875 C13.75369913 250.98917525 13.75369913 250.98917525 18.453125 254.1171875 C19.33419922 254.62217773 20.21527344 255.12716797 21.12304688 255.64746094 C25.9380369 258.28217269 30.80085591 260.81362606 35.6875 263.3125 C43.67606743 267.43161426 51.62420272 271.6065559 59.5 275.9375 C69.28769707 281.31764865 79.14377829 286.56234815 89.01495361 291.78707886 C98.70736696 296.91824701 108.36770601 302.10056574 117.95117188 307.43359375 C118.74974609 307.87445312 119.54832031 308.3153125 120.37109375 308.76953125 C121.04197021 309.14311768 121.71284668 309.5167041 122.40405273 309.90161133 C126.17934797 311.81781832 130.05867426 313.49287248 133.9375 315.1875 C136.03060089 306.93103513 138.11731165 298.67299279 140.19592285 290.41286945 C141.16134286 286.57726321 142.12894023 282.74223408 143.1015625 278.90844727 C144.04041446 275.207434 144.97348273 271.5050063 145.90258789 267.80153465 C146.25776304 266.39006018 146.61500607 264.97910437 146.97436523 263.56868935 C147.47800641 261.59050911 147.9742104 259.61059913 148.46875 257.63012695 C148.89510742 255.94135185 148.89510742 255.94135185 149.33007812 254.21846008 C150.10124889 250.88561765 150.10124889 250.88561765 149.9375 246.1875 C103.7375 246.1875 57.5375 246.1875 9.9375 246.1875 Z M-4.86523438 251.95751953 C-10.64759847 258.23653595 -15.21345756 264.73465365 -19.5625 272.0625 C-20.6000197 273.77850703 -21.63754664 275.49450971 -22.6754303 277.21029663 C-23.75348461 278.99662158 -24.82645072 280.78590786 -25.89794922 282.57617188 C-29.09418638 287.91458524 -32.32579257 293.23154338 -35.5552063 298.54992676 C-36.62884159 300.31882933 -37.70109673 302.08856298 -38.77319336 303.85839844 C-43.92164071 312.35060698 -49.15639001 320.78647777 -54.43603516 329.19775391 C-59.33239217 337.00226614 -64.17573591 344.83831162 -69 352.6875 C-69.35764435 353.26937073 -69.7152887 353.85124146 -70.08377075 354.45074463 C-72.07785167 357.69561137 -74.07071729 360.94122212 -76.0625 364.1875 C-73.78889695 366.46110305 -72.80248649 366.66117659 -69.7265625 367.34375 C-68.78490234 367.55692871 -67.84324219 367.77010742 -66.87304688 367.98974609 C-65.29620117 368.33513428 -65.29620117 368.33513428 -63.6875 368.6875 C-61.35673879 369.21079481 -59.02601246 369.73424496 -56.6953125 370.2578125 C-55.34928475 370.55762121 -54.00325605 370.85742567 -52.65722656 371.15722656 C-47.30594803 372.35294868 -41.96180299 373.57959096 -36.6171875 374.8046875 C-33.60460571 375.49412616 -30.59195865 376.18327877 -27.57928467 376.87231445 C-25.56556257 377.3330175 -23.55193153 377.79411878 -21.53839111 378.25561523 C-18.68233472 378.90956192 -15.82563475 379.56062052 -12.96875 380.2109375 C-12.09902557 380.41065155 -11.22930115 380.6103656 -10.33322144 380.81613159 C-6.23962263 381.81581741 -6.23962263 381.81581741 -2.0625 382.1875 C-2.0625 338.6275 -2.0625 295.0675 -2.0625 250.1875 C-3.36464546 250.0707329 -3.36464546 250.0707329 -4.86523438 251.95751953 Z M3.9375 251.1875 C3.9375 294.4175 3.9375 337.6475 3.9375 382.1875 C18.42951371 379.13654975 32.91857307 376.08233897 47.38720703 372.92358398 C49.86855248 372.38442622 52.35101066 371.85036792 54.83447266 371.32104492 C58.45756827 370.54803918 62.07664872 369.7583016 65.6953125 368.96484375 C67.36994064 368.61316383 67.36994064 368.61316383 69.07839966 368.25437927 C70.09811859 368.02726761 71.11783752 367.80015594 72.16845703 367.56616211 C73.06823273 367.37171005 73.96800842 367.177258 74.89505005 366.97691345 C75.56905853 366.71640701 76.24306702 366.45590057 76.9375 366.1875 C77.4325 364.7025 77.4325 364.7025 77.9375 363.1875 C76.4877862 360.45322967 74.97991156 357.91042402 73.3125 355.3125 C72.81540527 354.51948486 72.31831055 353.72646973 71.80615234 352.90942383 C70.73856416 351.20655601 69.66696683 349.50619643 68.59179688 347.80810547 C66.42860624 344.381351 64.30054867 340.93348439 62.17285156 337.48461914 C60.53550231 334.8312495 58.89338607 332.18088435 57.25 329.53125 C55.08069981 326.03287152 52.91391822 322.53296002 50.75 319.03125 C43.73054568 307.67406382 36.68201232 296.33538195 29.58984375 285.0234375 C27.23442727 281.26644575 24.89366546 277.50105381 22.56640625 273.7265625 C21.52351204 272.04682872 20.48054729 270.36713873 19.4375 268.6875 C18.75385376 267.56770752 18.75385376 267.56770752 18.05639648 266.42529297 C12.5013274 257.07339461 12.5013274 257.07339461 3.9375 251.1875 Z M-247.0625 252.1875 C-247.46487318 281.22336761 -246.06807385 309.92952321 -243.0625 338.8125 C-242.97891235 339.62373322 -242.89532471 340.43496643 -242.8092041 341.27078247 C-241.96697214 349.34622196 -241.08301195 357.30389535 -239.0625 365.1875 C-233.95627285 363.43029632 -229.52863999 360.60041982 -224.9375 357.8125 C-224.06963867 357.28881836 -223.20177734 356.76513672 -222.30761719 356.22558594 C-213.14557684 350.67413673 -204.09090673 344.95307391 -195.0625 339.1875 C-195.57660375 334.03638202 -198.16563385 330.38814448 -200.875 326.125 C-201.89019829 324.49663917 -202.90449077 322.86771334 -203.91796875 321.23828125 C-204.44181152 320.39990723 -204.9656543 319.5615332 -205.50537109 318.69775391 C-207.94575115 314.7636072 -210.31571374 310.78823974 -212.6875 306.8125 C-222.37572108 290.62673135 -232.12427966 274.47121179 -242.0625 258.4375 C-242.46549316 257.78233398 -242.86848633 257.12716797 -243.28369141 256.45214844 C-244.18185469 255.01267601 -245.11730682 253.59653798 -246.0625 252.1875 C-246.3925 252.1875 -246.7225 252.1875 -247.0625 252.1875 Z M247.9375 252.1875 C246.74094722 254.08902999 245.59687379 256.02357911 244.47265625 257.96875 C244.12376343 258.56923157 243.77487061 259.16971313 243.41540527 259.78839111 C242.66487533 261.08036115 241.9158799 262.37322355 241.16824341 263.66687012 C239.2250876 267.02781243 237.26970423 270.38159884 235.3125 273.734375 C234.92888809 274.39165588 234.54527618 275.04893677 234.15003967 275.72613525 C231.3477147 280.51538046 228.47409079 285.25264355 225.5 289.9375 C221.87021725 295.65868949 218.3964375 301.45354335 214.98901367 307.30981445 C212.44137539 311.67327481 209.83910725 315.99869836 207.1953125 320.3046875 C206.55303711 321.35132568 205.91076172 322.39796387 205.24902344 323.47631836 C203.9721947 325.55237234 202.69167608 327.62616209 201.40722656 329.69750977 C200.82682617 330.64166748 200.24642578 331.5858252 199.6484375 332.55859375 C199.12556152 333.40349365 198.60268555 334.24839355 198.06396484 335.11889648 C196.778086 337.08767128 196.778086 337.08767128 196.9375 339.1875 C198.56514391 340.44818815 198.56514391 340.44818815 200.71484375 341.65625 C201.53073975 342.14037354 202.34663574 342.62449707 203.18725586 343.12329102 C204.07421143 343.63947998 204.96116699 344.15566895 205.875 344.6875 C206.77420166 345.21851318 207.67340332 345.74952637 208.59985352 346.29663086 C211.37515357 347.93368434 214.15607484 349.56088063 216.9375 351.1875 C218.58377122 352.15680877 220.22962887 353.1268204 221.875 354.09765625 C225.33352767 356.13738531 228.79241354 358.17640043 232.26513672 360.19189453 C233.77826871 361.09270508 235.25332914 362.05672234 236.72265625 363.02734375 C237.45355469 363.41019531 238.18445313 363.79304688 238.9375 364.1875 C239.9275 363.8575 240.9175 363.5275 241.9375 363.1875 C244.36702563 345.22068054 246.71188809 327.28447808 247.9375 309.1875 C248.02427002 307.92607178 248.02427002 307.92607178 248.11279297 306.63916016 C249.29362936 288.5131464 249.03809855 270.34166896 248.9375 252.1875 C248.6075 252.1875 248.2775 252.1875 247.9375 252.1875 Z M153.9375 257.1875 C153.70438866 258.14873024 153.70438866 258.14873024 153.46656799 259.12937927 C151.48479254 267.29631551 149.49534702 275.4613692 147.5 283.625 C147.34127537 284.27449112 147.18255074 284.92398224 147.01901627 285.59315491 C142.19762108 305.31200251 137.21116448 324.96868258 131.6550293 344.49511719 C130.97492753 347.0470608 130.42372182 349.59234648 129.9375 352.1875 C136.28577325 351.49857029 142.21847488 349.80681179 148.33984375 348.02734375 C149.41754532 347.71801407 150.49524689 347.40868439 151.60560608 347.08998108 C155.03000752 346.10600622 158.45251003 345.11560053 161.875 344.125 C164.20365346 343.45465214 166.53242824 342.78472559 168.86132812 342.11523438 C174.55479963 340.47753313 180.24672791 338.83455528 185.9375 337.1875 C185.23686445 333.48219489 184.26683577 330.21817857 182.84765625 326.71875 C182.40131836 325.61096191 181.95498047 324.50317383 181.49511719 323.36181641 C181.00172852 322.14929199 180.50833984 320.93676758 180 319.6875 C179.48160738 318.40433155 178.96371863 317.12095944 178.44628906 315.83740234 C177.5922164 313.71910805 176.73771754 311.60099249 175.88168335 309.48348999 C172.03478643 299.96628595 168.23061542 290.43197194 164.4213562 280.8996582 C162.43305542 275.9248491 160.4430364 270.95072752 158.453125 265.9765625 C157.76854633 264.26514006 157.08397515 262.55371463 156.39941406 260.84228516 C155.91698242 259.63620605 155.43455078 258.43012695 154.9375 257.1875 C154.6075 257.1875 154.2775 257.1875 153.9375 257.1875 Z M-153.0625 258.1875 C-160.39574215 275.86783571 -167.6661951 293.57332689 -174.80297852 311.33398438 C-175.51600331 313.10720932 -176.2305151 314.87983709 -176.9465332 316.65185547 C-177.95440103 319.14768476 -178.95650299 321.64575219 -179.95703125 324.14453125 C-180.25744827 324.88584793 -180.5578653 325.62716461 -180.86738586 326.39094543 C-182.29692047 329.98033826 -183.36849996 333.39342729 -184.0625 337.1875 C-177.21420487 339.1695721 -170.36382338 341.14430239 -163.51196289 343.11401367 C-161.18270311 343.78453607 -158.85392081 344.4567195 -156.52563477 345.13061523 C-153.17328941 346.10059771 -149.81925581 347.06453619 -146.46484375 348.02734375 C-145.42915756 348.32841537 -144.39347137 348.629487 -143.32640076 348.93968201 C-138.23663352 350.3942933 -133.3283401 351.61603851 -128.0625 352.1875 C-129.37568288 344.99274089 -131.15737147 338.0253152 -133.19140625 331.00390625 C-135.94875332 321.31855193 -138.54896123 311.59986893 -141.02734375 301.83984375 C-141.1909502 301.19563099 -141.35455666 300.55141823 -141.52312088 299.88768387 C-142.51785981 295.96626705 -143.50789747 292.04367452 -144.49658203 288.12072754 C-145.35279983 284.72637624 -146.21272063 281.33296311 -147.07226562 277.93945312 C-148.73915983 271.35634669 -150.40218221 264.77226807 -152.0625 258.1875 C-152.3925 258.1875 -152.7225 258.1875 -153.0625 258.1875 Z M-24.0625 266.1875 C-33.62716156 274.94061452 -42.90598318 283.93337015 -52.00683594 293.16894531 C-52.80766602 293.9781543 -53.60849609 294.78736328 -54.43359375 295.62109375 C-55.13411865 296.33322021 -55.83464355 297.04534668 -56.55639648 297.77905273 C-58.60246316 299.74538958 -60.68041803 301.60226389 -62.82836914 303.45336914 C-67.23122229 307.27854263 -71.33855044 311.35387817 -75.4375 315.5 C-76.20626465 316.27255127 -76.9750293 317.04510254 -77.76708984 317.84106445 C-80.20135765 320.28744182 -82.63234106 322.7370414 -85.0625 325.1875 C-88.26786178 328.41963688 -91.47664073 331.64832535 -94.6875 334.875 C-95.769104 335.96905151 -95.769104 335.96905151 -96.87255859 337.08520508 C-100.87942155 341.11113063 -104.97690597 344.94348417 -109.31396484 348.61279297 C-111.87603631 350.92015976 -113.94361894 353.47268364 -116.0625 356.1875 C-112.335927 357.79121022 -108.69753716 358.82209754 -104.73828125 359.6953125 C-103.54525391 359.95957031 -102.35222656 360.22382812 -101.12304688 360.49609375 C-99.88619141 360.76550781 -98.64933594 361.03492188 -97.375 361.3125 C-95.50231445 361.72822266 -95.50231445 361.72822266 -93.59179688 362.15234375 C-87.88012898 363.58738259 -87.88012898 363.58738259 -82.0625 364.1875 C-80.6668303 362.26091542 -80.6668303 362.26091542 -79.3046875 359.78125 C-78.77198242 358.8634375 -78.23927734 357.945625 -77.69042969 357 C-77.15321289 356.071875 -76.61599609 355.14375 -76.0625 354.1875 C-75.11353392 352.63127242 -74.15802531 351.07901127 -73.1953125 349.53125 C-72.46828125 348.35949219 -72.46828125 348.35949219 -71.7265625 347.1640625 C-71.21867187 346.34679687 -70.71078125 345.52953125 -70.1875 344.6875 C-65.1284115 336.53149285 -60.08927054 328.36346359 -55.0625 320.1875 C-50.67584335 313.05322638 -46.28439691 305.9220846 -41.87158203 298.80395508 C-40.28847169 296.24957485 -38.70855714 293.69323931 -37.12890625 291.13671875 C-35.02560624 287.73461919 -32.90578744 284.34345027 -30.77734375 280.95703125 C-29.74724098 279.30478404 -28.71728655 277.65244432 -27.6875 276 C-27.20434326 275.23880859 -26.72118652 274.47761719 -26.22338867 273.69335938 C-25.10807908 271.89488887 -24.07585923 270.04532526 -23.0625 268.1875 C-23.5575 267.1975 -23.5575 267.1975 -24.0625 266.1875 Z M24.9375 266.1875 C26.18241446 269.48816374 27.57857748 272.4372214 29.44921875 275.42578125 C29.95179199 276.23313721 30.45436523 277.04049316 30.97216797 277.87231445 C31.79031982 279.1730188 31.79031982 279.1730188 32.625 280.5 C33.19879395 281.41934326 33.77258789 282.33868652 34.36376953 283.28588867 C35.5905112 285.25029512 36.81908115 287.21356082 38.04931641 289.17578125 C39.90504804 292.13573799 41.75600569 295.09862322 43.60546875 298.0625 C48.63838073 306.12528092 53.67942946 314.1829376 58.73046875 322.234375 C59.98717668 324.23945956 61.24368822 326.24466721 62.5 328.25 C63.11174072 329.22565918 63.72348145 330.20131836 64.35375977 331.20654297 C67.58359807 336.37172597 70.77608144 341.5565863 73.921875 346.7734375 C74.88565063 348.37046509 74.88565063 348.37046509 75.86889648 349.99975586 C77.09970291 352.04460376 78.32596637 354.09219472 79.54711914 356.14282227 C80.09489014 357.05346436 80.64266113 357.96410645 81.20703125 358.90234375 C81.68760986 359.70792725 82.16818848 360.51351074 82.66333008 361.34350586 C83.81523103 363.32703954 83.81523103 363.32703954 85.9375 364.1875 C88.37089726 363.78068224 90.73159513 363.30500561 93.1328125 362.75390625 C93.84025604 362.59711899 94.54769958 362.44033173 95.27658081 362.27879333 C97.54003959 361.77560296 99.80122884 361.26292248 102.0625 360.75 C103.59491228 360.40757686 105.12746286 360.06577205 106.66015625 359.72460938 C110.4209144 358.88607774 114.17966412 358.03902776 117.9375 357.1875 C116.32533834 352.84365616 112.95740562 350.23356515 109.6015625 347.2265625 C103.20589238 341.37646574 97.01309889 335.35382018 90.8984375 329.2109375 C90.03551086 328.34470764 89.17258423 327.47847778 88.2835083 326.58599854 C85.62451136 323.913472 82.96808358 321.23841804 80.3125 318.5625 C76.76072769 314.9840656 73.20558804 311.40902475 69.6484375 307.8359375 C68.84634857 307.02555023 68.04425964 306.21516296 67.21786499 305.38021851 C63.60160966 301.74807925 60.02244287 298.299747 55.9375 295.1875 C54.24685629 293.54516039 52.58361524 291.87446774 50.9375 290.1875 C48.33768185 287.55817934 45.73101537 284.93567634 43.125 282.3125 C42.11469727 281.28962891 42.11469727 281.28962891 41.08398438 280.24609375 C33.68962698 272.33402236 33.68962698 272.33402236 24.9375 266.1875 Z M-45.0625 275.1875 C-47.36334645 276.08825131 -47.36334645 276.08825131 -49.953125 277.51171875 C-50.96125244 278.03958984 -51.96937988 278.56746094 -53.00805664 279.11132812 C-54.6437561 279.9843457 -54.6437561 279.9843457 -56.3125 280.875 C-58.00137329 281.76541992 -58.00137329 281.76541992 -59.72436523 282.67382812 C-68.69346278 287.41768861 -77.61142973 292.25490493 -86.50390625 297.140625 C-91.46763562 299.8673433 -96.44892828 302.56060277 -101.43334961 305.24926758 C-111.05074071 310.43802153 -120.6204099 315.68515524 -130.0625 321.1875 C-129.13428283 324.87739971 -128.19326183 328.56392009 -127.25 332.25 C-126.98896484 333.28833984 -126.72792969 334.32667969 -126.45898438 335.39648438 C-125.04305098 340.90289201 -123.49226313 346.04340688 -121.0625 351.1875 C-115.2868797 346.35483812 -109.99983792 341.20422543 -104.75 335.8125 C-102.51881323 333.6332013 -100.2449881 331.58680928 -97.90234375 329.53125 C-90.27843125 322.68593517 -83.14551351 315.33964723 -75.9375 308.0625 C-73.12539829 305.2235616 -70.30982735 302.38812823 -67.4921875 299.5546875 C-66.86488739 298.91908905 -66.23758728 298.2834906 -65.59127808 297.62863159 C-61.80373825 293.82050697 -57.8954857 290.21736117 -53.81985474 286.71876526 C-51.46159599 284.66390427 -49.25644324 282.4782236 -47.0625 280.25 C-45.9178125 279.09177734 -45.9178125 279.09177734 -44.75 277.91015625 C-44.193125 277.34167969 -43.63625 276.77320313 -43.0625 276.1875 C-44.0525 275.6925 -44.0525 275.6925 -45.0625 275.1875 Z M44.9375 275.1875 C50.7372688 282.14722256 56.79447579 288.58891346 63.9375 294.1875 C65.61566169 295.84259181 67.2809236 297.51080378 68.9375 299.1875 C69.71141586 299.96363647 70.48533173 300.73977295 71.28269958 301.53942871 C72.08844925 302.34819458 72.89419891 303.15696045 73.72436523 303.99023438 C78.28803862 308.56989737 82.85390767 313.14736009 87.42140102 317.7232132 C90.1752487 320.4822854 92.92814897 323.2422896 95.67895508 326.00439453 C98.35388028 328.69022996 101.03128169 331.37357434 103.71037483 334.05525208 C104.72505435 335.07176773 105.73885894 336.08915757 106.75173759 337.10746765 C114.00923053 344.52332041 114.00923053 344.52332041 121.9375 351.1875 C122.5975 351.1875 123.2575 351.1875 123.9375 351.1875 C125.08908634 347.31418621 126.23274281 343.43857429 127.375 339.5625 C127.86323242 337.92087891 127.86323242 337.92087891 128.36132812 336.24609375 C128.67392578 335.18261719 128.98652344 334.11914062 129.30859375 333.0234375 C129.59661865 332.04938965 129.88464355 331.0753418 130.18139648 330.07177734 C130.95412024 327.12409946 131.4824312 324.19915706 131.9375 321.1875 C120.78227515 314.88169928 109.51159547 308.8078434 98.1875 302.8125 C88.68055998 297.77908843 79.18710157 292.72622855 69.75 287.5625 C68.87279297 287.08280762 67.99558594 286.60311523 67.09179688 286.10888672 C63.99034694 284.41124465 60.8899425 282.71174447 57.79248047 281.00683594 C55.92604172 279.98022679 54.05709751 278.95834107 52.1875 277.9375 C51.20265625 277.39609375 50.2178125 276.8546875 49.203125 276.296875 C47.058571 275.0409115 47.058571 275.0409115 44.9375 275.1875 Z M-186.0625 343.1875 C-187.79781005 348.0433905 -188.96123051 352.8997979 -190.03369141 357.9309082 C-190.2193013 358.78849228 -190.40491119 359.64607635 -190.59614563 360.52964783 C-191.20536905 363.34850205 -191.80978439 366.16836313 -192.4140625 368.98828125 C-192.83692427 370.95034896 -193.26005434 372.91235887 -193.68344116 374.87431335 C-194.56802497 378.97672544 -195.45041607 383.07960057 -196.33105469 387.18286133 C-197.4624144 392.4542034 -198.59762064 397.7247073 -199.73424721 402.99491596 C-200.81636751 408.01324758 -201.89651571 413.03200305 -202.9765625 418.05078125 C-203.18391651 419.01343714 -203.39127052 419.97609303 -203.60490799 420.9679203 C-204.18773558 423.67540062 -204.76915167 426.38317986 -205.35009766 429.09106445 C-205.5246196 429.9009079 -205.69914154 430.71075134 -205.87895203 431.5451355 C-206.70520127 434.83790382 -206.70520127 434.83790382 -207.0625 438.1875 C-197.09082415 437.48718045 -187.41496371 435.4069493 -177.6328125 433.44140625 C-175.75101667 433.06623025 -173.86916969 432.69131077 -171.98727417 432.31663513 C-168.06151067 431.53384881 -164.13647662 430.74752468 -160.21191406 429.95874023 C-155.18297317 428.94835662 -150.15217232 427.94759574 -145.12077522 426.94952488 C-141.242383 426.17895712 -137.36508652 425.40298833 -133.48809433 424.62541008 C-131.63289124 424.25407222 -129.77733431 423.88449758 -127.92142105 423.51672554 C-125.3333475 423.0030988 -122.74685696 422.48213416 -120.16064453 421.95922852 C-119.39592331 421.80902756 -118.63120209 421.6588266 -117.8433075 421.5040741 C-114.31949328 420.78387006 -111.17119673 420.03804173 -108.0625 418.1875 C-110.73018029 406.3831353 -113.65658214 394.66810149 -116.99682617 383.03491211 C-117.50439517 381.24237912 -117.99728289 379.44563192 -118.47631836 377.64526367 C-119.18296185 374.9960051 -119.93558547 372.36378525 -120.69921875 369.73046875 C-121.0044471 368.52900459 -121.0044471 368.52900459 -121.31584167 367.30326843 C-122.3066062 364.0438682 -123.08902744 361.87073505 -125.9329834 359.87469482 C-128.27744559 358.78243387 -130.59259895 357.95359054 -133.0625 357.1875 C-133.84580185 356.93133408 -134.6291037 356.67516815 -135.43614197 356.41123962 C-137.90669715 355.63917242 -140.388438 354.93323598 -142.8828125 354.2421875 C-143.78571014 353.9862381 -144.68860779 353.7302887 -145.61886597 353.46658325 C-148.47334695 352.65893139 -151.33031835 351.86053873 -154.1875 351.0625 C-156.11085146 350.52014925 -158.03403019 349.97718558 -159.95703125 349.43359375 C-164.264085 348.21715386 -168.57213866 347.00446502 -172.8838501 345.80462646 C-174.28320413 345.4082441 -175.67926103 344.99992052 -177.07073975 344.57672119 C-180.2843674 343.60385459 -182.64842384 343.1875 -186.0625 343.1875 Z M180.75830078 344.22558594 C179.94289825 344.45292419 179.12749573 344.68026245 178.28738403 344.91448975 C177.41137543 345.16442688 176.53536682 345.41436401 175.6328125 345.671875 C174.25946243 346.05717377 174.25946243 346.05717377 172.85836792 346.45025635 C169.92502198 347.27448996 166.993769 348.10591382 164.0625 348.9375 C161.17423312 349.75070135 158.28558257 350.56251766 155.39666748 351.37341309 C153.51977567 351.90364607 151.64446099 352.43949528 149.77081299 352.9810791 C145.72178986 354.14892188 141.69520046 355.27336646 137.57324219 356.15429688 C136.32961914 356.43853516 135.08599609 356.72277344 133.8046875 357.015625 C132.7513623 357.22606445 131.69803711 357.43650391 130.61279297 357.65332031 C124.15524176 361.35648255 122.81585474 371.42415944 120.95703125 378.19140625 C120.56954964 379.57548927 120.56954964 379.57548927 120.17424011 380.98753357 C119.63404505 382.92361734 119.09724641 384.86065174 118.5637207 386.79858398 C117.7505475 389.74801417 116.92392063 392.69343526 116.09570312 395.63867188 C115.56950692 397.53102618 115.04408967 399.4235973 114.51953125 401.31640625 C114.2747554 402.18745499 114.02997955 403.05850372 113.77778625 403.95594788 C112.38820054 409.03851318 111.4624553 413.94286731 110.9375 419.1875 C148.59470659 426.6332653 148.59470659 426.6332653 186.28164673 433.92648315 C187.83515405 434.22382381 189.38836146 434.52273602 190.94125366 434.82327271 C193.06807024 435.23438632 195.19592549 435.63958008 197.32421875 436.04296875 C198.49170654 436.26621826 199.65919434 436.48946777 200.86206055 436.71948242 C203.62654412 437.14017902 206.1512228 437.22281597 208.9375 437.1875 C205.33158691 418.84597666 201.51928432 400.55194174 197.63378906 382.26806641 C196.83253012 378.49737504 196.03424363 374.72606083 195.23669052 370.95458412 C194.6151152 368.01701871 193.99191977 365.07979884 193.36823273 362.14268112 C193.07266862 360.74973076 192.77763257 359.35666824 192.48314667 357.96348953 C192.07604666 356.03861949 191.66650096 354.11426718 191.25683594 352.18994141 C191.02542908 351.09952545 190.79402222 350.0091095 190.55560303 348.88565063 C189.96569953 346.11142791 189.96569953 346.11142791 188.9375 343.1875 C185.68873724 343.1875 183.77202821 343.37525127 180.75830078 344.22558594 Z M195.9375 345.1875 C197.19648363 353.91362434 198.74627685 362.53012628 200.58203125 371.15234375 C200.83369553 372.34694717 201.0853598 373.5415506 201.34465027 374.77235413 C201.87498065 377.28617194 202.40701127 379.79963161 202.94067383 382.31274414 C203.74114991 386.08331246 204.53607699 389.85501662 205.33007812 393.62695312 C208.40152355 408.17807361 211.58826446 422.69778692 214.9375 437.1875 C231.16635804 421.38435524 239.36426458 393.43945663 239.9375 371.1875 C229.90185078 364.79419207 219.73132141 358.63629835 209.5 352.5625 C208.88683929 352.19753418 208.27367859 351.83256836 207.64193726 351.45654297 C205.88905871 350.41387411 204.1340271 349.37482746 202.37890625 348.3359375 C201.35482666 347.72927246 200.33074707 347.12260742 199.27563477 346.49755859 C197.23879027 345.10603282 197.23879027 345.10603282 195.9375 345.1875 Z M-194.0625 345.1875 C-208.93437036 353.87908412 -223.60382535 362.8229611 -238.0625 372.1875 C-237.52867882 379.07204751 -236.49211771 385.66355235 -234.875 392.375 C-234.65577881 393.28556152 -234.43655762 394.19612305 -234.21069336 395.13427734 C-230.36853164 410.47863238 -224.05290902 424.82348316 -214.0625 437.1875 C-211.59237821 433.48231732 -210.91808652 429.81044692 -209.99609375 425.52734375 C-209.80107269 424.64565521 -209.60605164 423.76396667 -209.40512085 422.8555603 C-208.76359604 419.94675548 -208.13148841 417.03599886 -207.5 414.125 C-207.05920429 412.11149202 -206.61803796 410.09806514 -206.17651367 408.0847168 C-205.26095818 403.90275449 -204.3500324 399.71981789 -203.44238281 395.53613281 C-202.3129976 390.33225944 -201.17199014 385.13102525 -200.02690125 379.93058777 C-199.17349829 376.04863568 -198.3264888 372.16531085 -197.48147583 368.28152466 C-197.07736137 366.42810481 -196.67117397 364.57513573 -196.26290894 362.72262573 C-195.6960087 360.1458937 -195.13784309 357.56742434 -194.58203125 354.98828125 C-194.41174408 354.2226889 -194.24145691 353.45709656 -194.06600952 352.66830444 C-193.07747599 348.84824666 -193.07747599 348.84824666 -194.0625 345.1875 Z M-117.0625 363.1875 C-115.38600098 371.38071295 -113.04791965 379.35900717 -110.6875 387.375 C-110.10177833 389.37370221 -109.51688522 391.37264557 -108.93206787 393.37161255 C-108.54720156 394.68687931 -108.16199219 396.00204574 -107.77642822 397.31710815 C-105.8390321 403.93125908 -103.94667795 410.55800891 -102.0625 417.1875 C-101.22219238 416.8972998 -100.38188477 416.60709961 -99.51611328 416.30810547 C-95.40734483 414.89066042 -91.2976474 413.47594067 -87.1875 412.0625 C-86.04001785 411.66766922 -86.04001785 411.66766922 -84.86935425 411.26486206 C-75.19962967 407.94041397 -65.51640587 404.66086188 -55.80859375 401.44921875 C-54.87486938 401.13994446 -53.94114502 400.83067017 -52.97912598 400.51202393 C-48.41470622 399.00094731 -43.84858942 397.49532494 -39.27978516 395.99755859 C-30.37336704 393.06280977 -21.636709 390.00726418 -13.0625 386.1875 C-13.0625 385.8575 -13.0625 385.5275 -13.0625 385.1875 C-14.68816895 384.84138672 -14.68816895 384.84138672 -16.34667969 384.48828125 C-35.66305896 380.37327688 -54.97407698 376.23856363 -74.25 371.9375 C-74.98858246 371.77282227 -75.72716492 371.60814453 -76.48812866 371.43847656 C-79.35624707 370.79897999 -82.22430988 370.15923484 -85.09230042 369.51916504 C-91.6012982 368.06660104 -98.11134726 366.61907203 -104.625 365.1875 C-106.02625122 364.87570801 -106.02625122 364.87570801 -107.45581055 364.55761719 C-108.71711792 364.28159668 -108.71711792 364.28159668 -110.00390625 364 C-110.72263916 363.84144531 -111.44137207 363.68289063 -112.18188477 363.51953125 C-114.23660118 363.10056722 -114.23660118 363.10056722 -117.0625 363.1875 Z M111.66009521 364.02270508 C110.81318115 364.20781647 109.96626709 364.39292786 109.09368896 364.58364868 C108.17299622 364.78936493 107.25230347 364.99508118 106.30371094 365.20703125 C105.32776978 365.4216098 104.35182861 365.63618835 103.34631348 365.85726929 C100.12060933 366.56753728 96.89625407 367.28374275 93.671875 368 C91.43564792 368.4936112 89.19933902 368.98685183 86.96295166 369.47973633 C81.07669104 370.77807381 75.19155691 372.08144889 69.30664062 373.38586426 C63.30145149 374.71600717 57.29521423 376.04139923 51.2890625 377.3671875 C39.50417568 379.96930086 27.72047308 382.57673552 15.9375 385.1875 C16.76963414 387.3973021 16.76963414 387.3973021 19.12255859 388.09448242 C20.58943115 388.56398315 20.58943115 388.56398315 22.0859375 389.04296875 C23.21596191 389.41083496 24.34598633 389.77870117 25.51025391 390.15771484 C26.76499512 390.55941895 28.01973633 390.96112305 29.3125 391.375 C32.03828713 392.26137857 34.76158064 393.15525592 37.484375 394.05078125 C38.21947296 394.2921582 38.95457092 394.53353516 39.71194458 394.78222656 C50.64590257 398.38923411 61.49876732 402.23413913 72.36297607 406.04476929 C73.26977112 406.36281525 74.17656616 406.68086121 75.11083984 407.00854492 C75.99724152 407.31944565 76.88364319 407.63034637 77.79690552 407.95066833 C81.11222669 409.11168214 84.42956888 410.26684886 87.74719238 411.42126465 C89.75736539 412.12448351 91.76331014 412.8385435 93.76855469 413.55566406 C94.84266602 413.93174805 95.91677734 414.30783203 97.0234375 414.6953125 C98.36607666 415.17315186 98.36607666 415.17315186 99.73583984 415.66064453 C102.09213303 416.42947249 102.09213303 416.42947249 104.9375 415.1875 C105.91135704 413.21046578 105.91135704 413.21046578 106.54736328 410.73120117 C106.96261765 409.30918648 106.96261765 409.30918648 107.38626099 407.85844421 C107.67387299 406.82621231 107.96148499 405.79398041 108.2578125 404.73046875 C108.56194061 403.67596024 108.86606873 402.62145172 109.17941284 401.5349884 C110.15215574 398.15155454 111.10739234 394.76344951 112.0625 391.375 C112.7137182 389.10058889 113.36604801 386.82649573 114.01953125 384.55273438 C117.1176794 373.90773329 117.1176794 373.90773329 119.9375 363.1875 C116.82366519 363.1875 114.62376569 363.36742115 111.66009521 364.02270508 Z M-4.45581055 389.52587891 C-5.32564072 389.82153244 -6.19547089 390.11718597 -7.09165955 390.42179871 C-8.03465408 390.74924576 -8.97764862 391.07669281 -9.94921875 391.4140625 C-10.94325211 391.75379593 -11.93728546 392.09352936 -12.96144104 392.44355774 C-16.22627214 393.56085886 -19.4881036 394.6866631 -22.75 395.8125 C-25.00142634 396.58465285 -27.25305578 397.35621373 -29.50488281 398.12719727 C-34.1057074 399.70333389 -38.70540824 401.2826859 -43.30419922 402.86474609 C-52.41623032 405.99846522 -61.53639516 409.10827953 -70.65640259 412.21868896 C-73.26823372 413.1098955 -75.87967946 414.00222101 -78.4909668 414.89501953 C-79.70465187 415.3099189 -79.70465187 415.3099189 -80.94285583 415.73320007 C-82.43148954 416.24215682 -83.92007063 416.7512675 -85.40858459 417.26057434 C-89.28768874 418.58649676 -93.17164333 419.89647051 -97.0625 421.1875 C-97.0625 421.8475 -97.0625 422.5075 -97.0625 423.1875 C-96.08192627 423.71537109 -96.08192627 423.71537109 -95.08154297 424.25390625 C-79.34203207 432.73392408 -63.75957763 441.40014079 -48.36181641 450.48608398 C-42.98750509 453.65444907 -37.57924214 456.75837318 -32.15234375 459.8359375 C-28.77090346 461.76693406 -25.41806212 463.74436131 -22.06640625 465.7265625 C-20.99656494 466.35723633 -19.92672363 466.98791016 -18.82446289 467.63769531 C-16.68418001 468.90062401 -14.54654712 470.16805673 -12.41186523 471.44042969 C-11.42001221 472.02469727 -10.42815918 472.60896484 -9.40625 473.2109375 C-8.52130859 473.73606934 -7.63636719 474.26120117 -6.72460938 474.80224609 C-3.80030621 476.32393503 -1.29546985 477.49281874 1.9375 478.1875 C4.85159848 477.31334446 4.85159848 477.31334446 7.65625 475.55859375 C9.28566528 474.63361084 9.28566528 474.63361084 10.94799805 473.68994141 C12.11144521 473.00210072 13.27460599 472.31377545 14.4375 471.625 C15.6446174 470.92978778 16.85271984 470.23628331 18.06176758 469.54443359 C21.12232251 467.78577303 24.16778874 466.00282917 27.20758057 464.20855713 C28.83383082 463.24868907 30.46248985 462.2929054 32.09130859 461.33740234 C36.74651322 458.60588691 41.39119805 455.85747512 46.02734375 453.09375 C50.81603401 450.24647037 55.65507722 447.50143923 60.52197266 444.79077148 C70.47314441 439.23530988 80.3139392 433.48319534 90.18017578 427.77880859 C93.4269743 425.9050143 96.68013072 424.0428452 99.9375 422.1875 C96.40275919 419.83100613 92.75975667 418.64785197 88.765625 417.31640625 C87.94368652 417.03825073 87.12174805 416.76009521 86.27490234 416.47351074 C84.50374663 415.87441409 82.73195265 415.27720177 80.95959473 414.68167114 C76.28236862 413.10970589 71.60992097 411.52368041 66.9375 409.9375 C65.99932434 409.61926773 65.06114868 409.30103546 64.09454346 408.97315979 C55.7645642 406.14166456 47.47110399 403.21391304 39.1875 400.25 C30.393761 397.11120719 21.59494138 393.99203659 12.75 391 C11.90018555 390.70810791 11.05037109 390.41621582 10.17480469 390.11547852 C9.01513184 389.72767212 9.01513184 389.72767212 7.83203125 389.33203125 C7.17050049 389.10878174 6.50896973 388.88553223 5.82739258 388.65551758 C2.06110174 387.72282419 -0.90353697 388.30476045 -4.45581055 389.52587891 Z M-107.0625 425.1875 C-113.14476046 435.45467861 -119.13753477 445.76856311 -125.03808594 456.14135742 C-125.51922852 456.98674072 -126.00037109 457.83212402 -126.49609375 458.703125 C-126.9432373 459.49009766 -127.39038086 460.27707031 -127.85107422 461.08789062 C-128.83948927 462.80098403 -129.86906158 464.49027599 -130.91015625 466.171875 C-132.22794004 468.08991732 -132.22794004 468.08991732 -132.0625 470.1875 C-124.5886254 472.3215378 -117.01847811 473.22899703 -109.3125 474.125 C-108.58608307 474.21020905 -107.85966614 474.29541809 -107.11123657 474.38320923 C-74.55219341 478.15511438 -41.81939762 479.65103615 -9.0625 480.1875 C-12.29516975 477.4966852 -15.49027197 475.24865192 -19.17578125 473.2265625 C-20.16400879 472.67991943 -21.15223633 472.13327637 -22.17041016 471.57006836 C-23.75668213 470.70007202 -23.75668213 470.70007202 -25.375 469.8125 C-34.03856459 465.01391722 -42.64779031 460.14077637 -51.1875 455.125 C-60.07737568 449.90661668 -69.0206861 444.79471578 -78.01391602 439.7565918 C-82.25879809 437.37067405 -86.47773033 434.96267573 -90.625 432.41015625 C-91.30941162 431.98903564 -91.99382324 431.56791504 -92.69897461 431.1340332 C-94.47351354 430.03161017 -96.23915124 428.9148932 -98.00390625 427.796875 C-101.11470025 426.1600332 -103.58595262 425.54299657 -107.0625 425.1875 Z M101.578125 427.22265625 C100.72226807 427.69501709 99.86641113 428.16737793 98.98461914 428.65405273 C97.60004517 429.44404663 97.60004517 429.44404663 96.1875 430.25 C95.2173999 430.79148682 94.2472998 431.33297363 93.24780273 431.89086914 C84.08425952 437.03293267 75.02115062 442.35060005 65.9609375 447.671875 C60.05029336 451.13521779 54.09500726 454.51527302 48.125 457.875 C40.84231602 461.97941182 33.56269453 466.08838693 26.3125 470.25 C25.53672607 470.69110107 24.76095215 471.13220215 23.96166992 471.58666992 C20.01625871 473.8602445 16.41223658 476.21405941 12.9375 479.1875 C42.40363236 479.63821152 71.61433805 478.04255549 100.9375 475.1875 C101.7996814 475.10391235 102.66186279 475.02032471 103.5501709 474.9342041 C120.42478748 474.61411224 120.42478748 474.61411224 134.9375 469.1875 C129.1680225 458.55808617 123.19412886 448.04974103 117.0625 437.625 C116.42046631 436.51261963 115.77843262 435.40023926 115.11694336 434.25415039 C114.50343018 433.2202417 113.88991699 432.18633301 113.2578125 431.12109375 C112.71398926 430.19353271 112.17016602 429.26597168 111.60986328 428.31030273 C110.12131531 426.10215514 110.12131531 426.10215514 108.00244141 425.25195312 C105.30151015 425.16764882 103.9327405 425.90408171 101.578125 427.22265625 Z M-128.43286133 428.74804688 C-129.67753677 428.99676292 -129.67753677 428.99676292 -130.94735718 429.25050354 C-133.68068541 429.79786399 -136.41258905 430.35201685 -139.14453125 430.90625 C-141.04302179 431.28781382 -142.94159788 431.66895222 -144.84025574 432.04968262 C-149.83056461 433.05155747 -154.81969128 434.05920277 -159.80859375 435.0680542 C-164.90229339 436.09703425 -169.9970899 437.12055264 -175.09179688 438.14453125 C-185.08311234 440.15351033 -195.07318742 442.16858725 -205.0625 444.1875 C-188.78394407 460.75438209 -163.82882541 467.36834643 -141.21875 469.44921875 C-140.5071875 469.36285156 -139.795625 469.27648437 -139.0625 469.1875 C-137.08626308 466.55251744 -135.61852044 464.07609147 -134.0625 461.1875 C-133.40994656 460.02079293 -132.75479998 458.85553403 -132.09765625 457.69140625 C-130.97172253 455.69672923 -129.84774474 453.70115238 -128.73168945 451.70092773 C-125.31030898 445.57565603 -121.75806172 439.53183126 -118.16137695 433.50805664 C-116.03057501 430.53028933 -116.03057501 430.53028933 -115.0625 427.1875 C-119.65896098 426.96071926 -123.95577624 427.83190946 -128.43286133 428.74804688 Z M116.9375 427.1875 C117.39898438 427.98929688 117.86046875 428.79109375 118.3359375 429.6171875 C122.30037315 436.5275279 126.20935847 443.46445312 130.0625 450.4375 C133.56184826 456.76622214 137.13445852 463.03461175 140.9375 469.1875 C164.68560906 468.12016926 189.44914193 460.4362062 207.9375 445.1875 C207.4425 444.1975 207.4425 444.1975 206.9375 443.1875 C204.02371694 442.38295523 204.02371694 442.38295523 200.3984375 441.77734375 C199.35933479 441.58496628 199.35933479 441.58496628 198.29924011 441.38870239 C195.97171959 440.95945121 193.6421875 440.54231671 191.3125 440.125 C188.82886995 439.67088071 186.34579778 439.21379175 183.86274719 438.7565155 C182.08712289 438.42968137 180.31130937 438.10387388 178.5353241 437.77900696 C171.42446387 436.47469228 164.3262837 435.11019212 157.23046875 433.7265625 C155.09391621 433.31126155 152.95736024 432.89597826 150.82080078 432.48071289 C147.66986695 431.86799596 144.51926378 431.25378616 141.36956787 430.63473511 C138.41531419 430.05477246 135.45978169 429.48178702 132.50390625 428.91015625 C131.6241362 428.73549835 130.74436615 428.56084045 129.8379364 428.38088989 C125.46802495 427.54214731 121.41280145 426.9869097 116.9375 427.1875 Z " fill="#000000" transform="translate(511.0625,253.8125)"/>
</svg>
