<?xml version="1.0" encoding="UTF-8"?>
<svg version="1.1" xmlns="http://www.w3.org/2000/svg" width="1024" height="1024">
<path d="M0 0 C11.00658719 0.21440092 21.96527957 0.08166922 32.96693867 -0.29025689 C149.51952229 -4.11504737 149.51952229 -4.11504737 189.34975117 32.87331733 C225.02741482 67.25546875 225.05696923 120.64187967 226.06248307 166.92659697 C226.50624173 191.40672775 226.01966363 215.87635712 225.4106635 240.34895018 C225.02264549 256.11231868 224.95932765 271.84893898 225.14003438 287.61574897 C225.35204492 306.14384222 225.38705907 324.65765797 225.13452995 343.18573049 C225.10764827 345.17512726 225.08085905 347.16452528 225.05416363 349.15392455 C225.04081797 350.13151811 225.0274723 351.10911167 225.01372221 352.11632927 C224.93197923 358.86531681 224.96613672 365.60750721 225.04571408 372.35630569 C225.40414932 408.00939176 225.28392566 438.97760721 199.53592158 465.98428958 C189.10429359 476.60246252 177.71039494 486.10857694 165.91433722 495.16006133 C160.57316703 499.33252848 155.51178458 503.81703593 150.72865742 508.61941108 C150.06994649 509.27554389 149.41123555 509.93167671 148.73256367 510.60769233 C147.08581638 512.23641348 147.08581638 512.23641348 146.16615742 514.30691108 C114.25893889 515.94536029 82.36416935 517.1921271 50.42440554 517.93254947 C46.61030859 518.02129435 42.79629384 518.11319648 38.98231953 518.20705757 C38.22338373 518.22568161 37.46444793 518.24430565 36.68251408 518.26349405 C26.05833076 518.53073801 15.45318744 518.96723206 4.84138659 519.54224807 C-116.85929236 526.12344092 -116.85929236 526.12344092 -155.20795995 492.24309763 C-187.16577234 462.4947642 -189.92211692 421.84068085 -191.44735271 380.74238166 C-192.57980696 345.94041263 -191.46561271 311.13721505 -190.17402732 276.35663548 C-189.62314852 261.3396793 -189.26612369 246.32672074 -189.03574687 231.30153999 C-189.01935512 230.23575398 -189.00296336 229.16996797 -188.98607489 228.07188542 C-188.92083246 223.78601144 -188.8567992 219.50012175 -188.79435061 215.21420612 C-188.31781344 182.57199535 -187.68349734 149.93145172 -186.58510333 117.30374488 C-186.47076346 113.90670871 -186.36467977 110.50958473 -186.26620036 107.11205253 C-186.15213099 103.20699818 -186.01914908 99.30306878 -185.87033502 95.39918791 C-185.81926576 93.98624124 -185.77448689 92.57305059 -185.73656871 91.15968986 C-185.68375828 89.24206501 -185.60472946 87.32521554 -185.52435905 85.40854797 C-185.48739077 84.34318813 -185.45042249 83.27782828 -185.41233397 82.18018481 C-184.40438798 77.17387915 -181.06468675 74.33083735 -177.15531474 71.32592353 C-173.10229274 67.86048859 -170.35734041 63.92932091 -167.41862136 59.50615939 C-126.15109131 -2.29118529 -67.56351178 -1.3568496 0 0 Z M-104.83384258 16.30691108 C-99.1571065 28.36025479 -92.40898558 39.67396576 -85.83384258 51.30691108 C-18.51384258 51.30691108 48.80615742 51.30691108 118.16615742 51.30691108 C127.92122968 33.94145134 127.92122968 33.94145134 137.16615742 16.30691108 C124.97767347 15.36734194 112.86902662 15.16349237 100.64931172 15.17751655 C98.63839628 15.17615816 96.62748109 15.17437578 94.61656636 15.17220649 C89.20111527 15.16768333 83.78568343 15.16940072 78.37023205 15.17258558 C72.67100653 15.17513686 66.97178255 15.17276389 61.27255696 15.17119941 C51.70266365 15.16938531 42.13277808 15.17176361 32.56288594 15.17653999 C21.54413759 15.18197646 10.52540776 15.18022134 -0.49334013 15.17471358 C-9.99791663 15.17015519 -19.50248759 15.16954533 -29.00706482 15.17215225 C-34.66419951 15.17370068 -40.32132554 15.17394863 -45.97845966 15.17061576 C-51.30311243 15.16769739 -56.62774166 15.16978454 -61.95239192 15.17551002 C-63.89078099 15.17681677 -65.82917208 15.17647967 -67.7675603 15.17424735 C-80.15656092 15.16131063 -92.46845041 15.53273951 -104.83384258 16.30691108 Z M-116.82940227 22.17805061 C-117.39620204 22.74844566 -117.96300182 23.31884071 -118.54697734 23.90652046 C-119.14209117 24.50148826 -119.737205 25.09645606 -120.35035259 25.7094532 C-122.32769583 27.68749619 -124.3014681 29.66906374 -126.27524883 31.65066108 C-127.64123719 33.0185134 -129.00744569 34.38614591 -130.37386638 35.75356635 C-133.97804939 39.36157628 -137.57921999 42.97257864 -141.17978984 46.5841938 C-144.85108504 50.26569939 -148.52519582 53.94439262 -152.19907695 57.62331733 C-159.41343772 64.84841849 -166.62462201 72.07668127 -173.83384258 79.30691108 C-170.25365092 82.10772049 -166.52696283 83.92140713 -162.36509258 85.69753608 C-161.28910808 86.16084327 -161.28910808 86.16084327 -160.19138652 86.6335102 C-158.67973425 87.2817899 -157.16680477 87.92709854 -155.65269023 88.56960639 C-153.33652095 89.5557707 -151.02862667 90.55976472 -148.72056133 91.56472358 C-147.2483773 92.19343465 -145.77573582 92.82107586 -144.30259258 93.44753608 C-143.61395122 93.74951911 -142.92530986 94.05150215 -142.21580058 94.36263618 C-139.54063441 95.48101975 -137.42866262 96.3587592 -134.50352031 96.10378608 C-131.95944724 94.88959475 -130.33500899 93.08629499 -128.39634258 91.05691108 C-127.65513164 90.28862983 -126.9139207 89.52034858 -126.15024883 88.72878608 C-125.38583476 87.92956733 -124.6214207 87.13034858 -123.83384258 86.30691108 C-122.16979439 84.63763004 -120.50309924 82.97098372 -118.83384258 81.30691108 C-118.04364726 80.50511421 -117.25345195 79.70331733 -116.43931133 78.87722358 C-112.6543828 75.04949296 -108.88675164 71.28031633 -104.77134258 67.80691108 C-99.9980607 63.73644372 -95.94201787 59.0332146 -91.83384258 54.30691108 C-96.23078111 45.04747581 -100.99869518 36.10096751 -106.27134258 27.30691108 C-107.0694334 25.9712812 -107.0694334 25.9712812 -107.88364726 24.60866889 C-109.7986396 21.41900611 -109.7986396 21.41900611 -111.83384258 18.30691108 C-113.99987916 18.30691108 -115.3776764 20.73020248 -116.82940227 22.17805061 Z M144.16615742 18.30691108 C143.39535437 19.47847031 142.67662422 20.68430147 141.97865742 21.90066108 C141.53111104 22.67691841 141.08356465 23.45317573 140.62245625 24.252956 C140.14187764 25.09576118 139.66129903 25.93856635 139.16615742 26.80691108 C138.6771999 27.65809516 138.18824239 28.50927925 137.68446797 29.38625678 C133.1288424 37.33184065 128.63281874 45.31103588 124.16615742 53.30691108 C129.52012135 61.05929976 136.04356956 67.41088826 142.72865742 73.99441108 C143.86389195 75.11958923 144.99866102 76.24523719 146.1329543 77.37136421 C148.21871882 79.44093121 150.30714717 81.50772413 152.39882344 83.57131538 C155.53521108 86.6717321 158.66421599 89.77913773 161.75600117 92.92409858 C163.30540532 94.43065367 163.30540532 94.43065367 166.16615742 96.30691108 C171.05578846 95.99418172 175.25700155 94.18534375 179.68178242 92.21706733 C180.72734303 91.76018783 180.72734303 91.76018783 181.79402608 91.29407844 C183.2577279 90.65262902 184.71997059 90.00784073 186.18080586 89.3598896 C188.4195502 88.36790775 190.66347337 87.38845124 192.90834492 86.41042671 C194.33314657 85.78420679 195.75763706 85.15727832 197.18178242 84.52956733 C197.85259846 84.23679405 198.5234145 83.94402076 199.2145583 83.64237556 C201.95142029 82.42226262 204.02797279 81.44509572 206.16615742 79.30691108 C198.23294154 71.35057607 190.29706496 63.39690573 182.35773247 55.44667396 C178.67169851 51.75541022 174.98660507 48.06321743 171.3036086 44.3689228 C167.75262399 40.80711265 164.1992377 37.24771524 160.64413708 33.6900135 C159.28482205 32.32884361 157.92639079 30.9667906 156.56883878 29.60386238 C154.67462025 27.70243785 152.77734943 25.80411196 150.87929219 23.90652046 C150.02909253 23.05092788 150.02909253 23.05092788 149.16171712 22.17805061 C147.02109263 19.51855678 147.02109263 19.51855678 144.16615742 18.30691108 Z M-80.83384258 59.30691108 C-77.53270676 65.42002143 -74.18942249 71.50840994 -70.77134258 77.55691108 C-70.14099101 78.67581733 -69.51063945 79.79472358 -68.86118633 80.94753608 C-67.85765117 82.61042671 -67.85765117 82.61042671 -66.83384258 84.30691108 C-66.57863715 84.90868769 -66.32343173 85.5104643 -66.06049281 86.13047656 C-64.8893202 88.42162018 -63.88022708 89.72078025 -61.83384258 91.30691108 C-56.95890848 92.42977867 -52.0665137 92.33735317 -47.08872539 92.32375678 C-45.56562328 92.34471114 -44.04255831 92.36853198 -42.51954204 92.39500007 C-38.38693514 92.45679231 -34.25534277 92.47324266 -30.12231857 92.47771057 C-27.53794207 92.48269045 -24.95382258 92.4976421 -22.36950999 92.5161911 C-13.34638691 92.5809424 -4.32398716 92.60953931 4.69936055 92.60403022 C13.09903245 92.59982749 21.49555316 92.67362449 29.89442772 92.78423586 C37.11429222 92.8759167 44.33312982 92.91331146 51.55357164 92.90884236 C55.86245786 92.90706105 60.16854505 92.92678755 64.47684926 93.00108871 C68.53332622 93.0691368 72.58435495 93.0692614 76.64103001 93.01847228 C78.12411325 93.01118169 79.60754229 93.02752232 81.09003514 93.06999549 C88.92957928 93.41017006 88.92957928 93.41017006 95.6363923 89.93278441 C98.77866052 86.05614912 100.95443764 81.75891771 103.16615742 77.30691108 C104.18178434 75.62390115 105.21092518 73.94875563 106.26771992 72.29128608 C107.11158201 70.88145002 107.95285035 69.47005729 108.79115742 68.05691108 C109.23588399 67.32601264 109.68061055 66.59511421 110.13881367 65.84206733 C111.21192629 64.03348812 112.19849244 62.17403559 113.16615742 60.30691108 C112.83615742 59.64691108 112.50615742 58.98691108 112.16615742 58.30691108 C88.77393908 58.28351813 65.38172267 58.26590052 41.98949498 58.25509891 C31.12731728 58.24994953 20.26514686 58.24293276 9.40297383 58.23147163 C-0.06795608 58.22148325 -9.53888072 58.21504778 -19.00981575 58.21282259 C-24.02142377 58.21152253 -29.03301669 58.20848143 -34.04461986 58.20118102 C-38.76904853 58.1943552 -43.493456 58.19230739 -48.21788913 58.1938034 C-49.94473636 58.19353001 -51.67158436 58.19156404 -53.39842731 58.18770561 C-62.58835675 58.16819215 -71.68404432 58.32094876 -80.83384258 59.30691108 Z M-92.83384258 65.30691108 C-92.83384258 65.96691108 -92.83384258 66.62691108 -92.83384258 67.30691108 C-93.49384258 67.30691108 -94.15384258 67.30691108 -94.83384258 67.30691108 C-96.33462231 68.7859355 -96.33462231 68.7859355 -97.89634258 70.73659858 C-101.98281025 75.54010174 -106.36506854 79.98563087 -110.83384258 84.43191108 C-111.60212383 85.20405952 -112.37040508 85.97620796 -113.16196758 86.77175483 C-117.56281545 91.16511827 -122.05441112 95.32828862 -126.83384258 99.30691108 C-122.04226896 103.20275439 -116.40486268 105.50570692 -110.84385234 108.08742866 C-108.90126116 108.99212043 -106.96623925 109.9117817 -105.0311082 110.83230171 C-103.79000613 111.41200864 -102.54848309 111.99081535 -101.30649883 112.56862983 C-100.18509502 113.0941645 -99.06369121 113.61969917 -97.90830547 114.16115913 C-94.90763108 115.27941252 -92.99157292 115.70145463 -89.83384258 115.30691108 C-87.55590907 113.59798165 -87.55590907 113.59798165 -85.52134258 111.24441108 C-82.62253003 108.17166979 -79.72782415 105.24624228 -76.52134258 102.49441108 C-73.84404726 100.19653286 -71.27982302 97.85480738 -68.83384258 95.30691108 C-70.19440059 90.74337275 -72.04623207 86.9148398 -74.45884258 82.81472358 C-74.98018779 81.92851829 -74.98018779 81.92851829 -75.51206523 81.02440986 C-76.24209465 79.78744517 -76.97504864 78.55220223 -77.7107957 77.31862983 C-78.83978862 75.42192173 -79.95438962 73.51724272 -81.06821758 71.61159858 C-81.78090988 70.40797025 -82.49442223 69.20482703 -83.20884258 68.00222358 C-83.85595195 66.90925971 -84.50306133 65.81629585 -85.16978008 64.69021186 C-85.99349101 63.51047798 -85.99349101 63.51047798 -86.83384258 62.30691108 C-89.6329239 62.30691108 -90.76106631 63.51050498 -92.83384258 65.30691108 Z M119.16615742 62.30691108 C118.8340627 62.89069526 118.50196797 63.47447944 118.15980977 64.07595405 C116.62145111 66.77862024 115.08131235 69.48026815 113.54115742 72.18191108 C112.75805196 73.55862983 112.75805196 73.55862983 111.95912617 74.96316108 C111.43705586 75.87839546 110.91498555 76.79362983 110.37709492 77.73659858 C109.85470235 78.657956 109.33230977 79.57931342 108.79408711 80.52859077 C107.69206249 82.40937064 106.54498375 84.26434408 105.35854024 86.09304389 C104.79231953 86.97057319 104.22609883 87.84810249 103.64271992 88.75222358 C102.85888936 89.92422309 102.85888936 89.92422309 102.05922383 91.11989936 C100.90439234 93.27714432 100.90439234 93.27714432 101.85268086 95.43435249 C103.79684044 98.20604467 106.26179165 100.33846273 108.79115742 102.55691108 C109.87320262 103.52549499 110.95392583 104.49555769 112.03334492 105.46706733 C112.56411641 105.94418159 113.09488789 106.42129585 113.64174336 106.91286811 C116.93431602 109.92385304 120.05353505 113.11189576 123.16615742 116.30691108 C135.39390611 111.84765532 147.25912593 106.54856854 159.16615742 101.30691108 C154.86936857 96.17887352 150.3760531 91.356773 145.65053242 86.62331733 C144.95349202 85.92294853 144.25645161 85.22257972 143.53828877 84.50098762 C142.07733663 83.03500725 140.61505824 81.57034748 139.15150899 80.10695991 C136.90350319 77.85674441 134.66364173 75.59862117 132.42396992 73.34011421 C130.99997964 71.91319386 129.57551745 70.48674428 128.15053242 69.06081733 C127.47971638 68.38281577 126.80890034 67.70481422 126.11775655 67.00626716 C125.49660969 66.38819694 124.87546284 65.77012672 124.23549336 65.1333271 C123.68955525 64.58596397 123.14361714 64.03860084 122.58113545 63.47465095 C121.21483483 62.09474203 121.21483483 62.09474203 119.16615742 62.30691108 Z M-176.83384258 87.30691108 C-176.83384258 202.47691108 -176.83384258 317.64691108 -176.83384258 436.30691108 C-168.38211492 433.0562466 -160.05047406 429.75562764 -151.77134258 426.11941108 C-150.76651836 425.68177436 -149.76169414 425.24413764 -148.7264207 424.79323921 C-144.71270563 423.03941441 -140.75307755 421.26652857 -136.83384258 419.30691108 C-136.83384258 315.02691108 -136.83384258 210.74691108 -136.83384258 103.30691108 C-156.24403804 92.4570018 -156.24403804 92.4570018 -176.83384258 87.30691108 Z M195.91615742 91.86941108 C194.89779805 92.28771186 193.87943867 92.70601264 192.83021992 93.13698921 C184.70389769 96.5229568 177.08858733 100.34569613 169.16615742 104.30691108 C169.16615742 207.92691108 169.16615742 311.54691108 169.16615742 418.30691108 C176.19407931 421.82087202 183.27320799 425.0459085 190.47719258 428.16286811 C192.55901062 429.06464451 194.63800564 429.97272542 196.71693867 430.88112983 C198.04099171 431.45573058 199.36520466 432.02996302 200.68959492 432.60378608 C202.48276143 433.38254096 202.48276143 433.38254096 204.31215352 434.17702827 C206.96449931 435.42961013 206.96449931 435.42961013 209.16615742 435.30691108 C210.14941354 432.02035703 210.29144698 429.05000512 210.29199857 425.6264511 C210.29460631 424.46119978 210.29721406 423.29594845 210.29990083 422.09538648 C210.29767011 420.81428231 210.29543939 419.53317814 210.29314107 418.21325263 C210.29429303 416.8392436 210.29588106 415.46523487 210.29786831 414.09122679 C210.30205164 410.31143633 210.29997538 406.53167105 210.29688209 402.7518805 C210.29462406 398.67673676 210.29810972 394.60159741 210.30086201 390.52645454 C210.30531507 382.53992017 210.30434509 374.55339519 210.30144937 366.56686045 C210.29919258 360.0739052 210.29888403 353.58095258 210.29997319 347.08799705 C210.30020304 345.70268485 210.30020304 345.70268485 210.30043753 344.28938655 C210.30075726 342.413252 210.30108147 340.53711744 210.30141012 338.66098289 C210.3042638 321.05472427 210.30098015 303.44847085 210.29560976 285.84221308 C210.29114627 270.74206423 210.29191412 255.64192307 210.29652852 240.54177436 C210.30188393 223.00855552 210.30398443 205.47534126 210.30091625 187.94212171 C210.30059771 186.07098771 210.30028334 184.19985371 210.29997319 182.32871971 C210.29981891 181.40809395 210.29966464 180.48746819 210.29950569 179.53894468 C210.2986431 173.05842495 210.30009795 166.57790812 210.30245274 160.09738883 C210.30526186 152.1926428 210.30448921 144.2879067 210.299172 136.3831618 C210.29654931 132.35160912 210.29550555 128.32007297 210.29882115 124.28852043 C210.30181393 120.59346745 210.30014185 116.89844624 210.2948436 113.20339613 C210.29320788 111.24256275 210.29645049 109.28172714 210.29990083 107.32089612 C210.28502925 100.58641795 210.00850126 93.99103988 209.16615742 87.30691108 C204.63858076 87.30691108 200.03645714 90.14596853 195.91615742 91.86941108 Z M-69.83384258 105.30691108 C-70.82397186 106.2205093 -71.82706561 107.12035954 -72.84556133 108.00222358 C-73.72856914 108.80402046 -74.61157695 109.60581733 -75.52134258 110.43191108 C-76.85745586 111.64234077 -76.85745586 111.64234077 -78.22056133 112.87722358 C-80.8217594 115.2956768 -83.33789917 117.78036943 -85.83384258 120.30691108 C-86.16384258 120.63691108 -86.49384258 120.96691108 -86.83384258 121.30691108 C-86.94756296 122.77943409 -86.99245807 124.25732843 -87.00996333 125.73413238 C-87.02367166 126.69627352 -87.03737999 127.65841465 -87.05150372 128.64971158 C-87.06155115 129.71941304 -87.07159858 130.7891145 -87.08195049 131.89123115 C-87.09621066 133.01799093 -87.11047084 134.14475072 -87.12516314 135.30565473 C-87.17161346 139.11381179 -87.21041013 142.92200542 -87.24888164 146.73025092 C-87.27149618 148.75626937 -87.29479852 150.78227925 -87.3180947 152.80828996 C-87.61020641 178.38329334 -87.77076614 203.95957853 -87.90040523 229.53585967 C-87.91761165 232.87067803 -87.93515187 236.20549445 -87.9529832 239.54030952 C-87.9574016 240.36914164 -87.96181999 241.19797376 -87.96637228 242.05192201 C-88.03977763 255.44175928 -88.1832578 268.82993999 -88.35388121 282.2188523 C-88.52776834 295.97906774 -88.62865314 309.73842481 -88.66219431 323.49970552 C-88.68505609 331.97816966 -88.7630346 340.45230638 -88.91360894 348.9294797 C-89.01157757 354.75726158 -89.0377923 360.58274549 -89.00988194 366.41126986 C-88.99583376 369.7681006 -89.02170487 373.11119815 -89.11220485 376.46772537 C-89.44189066 389.35330218 -89.26917667 399.00608093 -80.12893015 408.78147432 C-76.2075531 412.54046881 -72.11591503 415.97054571 -67.83384258 419.30691108 C-66.94440519 420.12147647 -66.0549678 420.93604186 -65.13857776 421.77529106 C-62.06570118 423.8173822 -59.95385194 423.81520889 -56.28138286 423.8283039 C-55.63684842 423.835955 -54.99231399 423.84360609 -54.3282482 423.85148904 C-52.17629459 423.87206759 -50.02541644 423.86418201 -47.87339336 423.85622749 C-46.32737301 423.8649252 -44.78136129 423.87529267 -43.23536235 423.88720283 C-39.04101005 423.91397054 -34.84701831 423.91514162 -30.65259725 423.91007623 C-27.14866388 423.90793569 -23.6448033 423.91770647 -20.14088553 423.92728707 C-11.87262957 423.94947366 -3.60455531 423.95035473 4.66371602 423.93825874 C13.18733743 423.92618068 21.71029842 423.95079714 30.23380715 423.99339887 C37.55714176 424.02865312 44.88026639 424.0406301 52.20368272 424.03412339 C56.57527698 424.03050042 60.94640025 424.03574129 65.31791753 424.06355247 C69.43044019 424.08873706 73.54193529 424.08479769 77.65444249 424.05873069 C79.16086364 424.05400557 80.66735741 424.05944618 82.17369527 424.07597694 C91.42011493 424.39998242 91.42011493 424.39998242 99.46501607 420.44396552 C100.9393337 418.91819298 100.9393337 418.91819298 102.16615742 417.30691108 C105.63525337 413.12620571 109.05715281 409.51371497 113.20131367 406.01784858 C113.84971211 405.45323921 114.49811055 404.88862983 115.16615742 404.30691108 C116.19727509 403.60058524 116.19727509 403.60058524 117.24922341 402.87999019 C120.32735331 398.74825082 119.78270974 394.45000147 119.80194539 389.42670783 C119.8215911 388.30429059 119.84123681 387.18187335 119.86147785 386.02544346 C119.9221052 382.24972668 119.9538091 378.47433327 119.98524922 374.6982685 C120.0109078 372.68444533 120.03969841 370.67068476 120.06896647 368.65691107 C120.19701725 359.84421992 120.27817431 351.03136727 120.34721008 342.21804076 C120.36531989 339.91952304 120.38424193 337.62101329 120.40337843 335.32250389 C120.52161947 321.02512913 120.62365144 306.72770166 120.68636292 292.42996845 C120.7011395 289.1180336 120.71611027 285.80609973 120.73134297 282.49416694 C120.73511411 281.67107118 120.73888524 280.84797542 120.74277065 279.99993736 C120.80626155 266.70624474 120.96257606 253.41533206 121.15721377 240.12297993 C121.3557837 226.44846598 121.46598976 212.77537086 121.49287415 199.09942666 C121.51018657 191.43126652 121.56576698 183.76763755 121.72020978 176.10090789 C124.36705873 140.63256194 124.36705873 140.63256194 110.86814278 109.87528285 C104.28379165 103.61301744 97.33081823 98.20612093 88.05711812 98.13955268 C86.75332204 98.1280619 85.44952595 98.11657112 84.1062209 98.10473213 C82.65273046 98.09710668 81.19923921 98.08963508 79.74574727 98.08230171 C78.22150367 98.07112885 76.69726253 98.0596156 75.17302388 98.04778633 C70.15774912 98.01119193 65.14244903 97.98600142 60.12709492 97.96316108 C59.27381501 97.95921522 58.4205351 97.95526935 57.54139823 97.95120391 C49.49320986 97.91477834 41.44501275 97.88333399 33.39676923 97.86209449 C23.10388175 97.83453033 12.81168421 97.7837919 2.51908404 97.70162019 C-4.71838184 97.64579816 -11.95566073 97.61685391 -19.19333428 97.60762128 C-23.51542703 97.6013676 -27.83671128 97.5832817 -32.15856868 97.53623542 C-36.22837764 97.49248315 -40.29693845 97.482106 -44.3669427 97.49686393 C-45.85686552 97.49653595 -47.34684293 97.4843114 -48.83655101 97.45901451 C-57.99209818 97.31181007 -63.66196135 98.08809051 -69.83384258 105.30691108 Z M-128.83384258 107.30691108 C-128.83384258 208.94691108 -128.83384258 310.58691108 -128.83384258 415.30691108 C-117.33255163 410.7063947 -106.09467348 405.46812525 -94.83384258 400.30691108 C-94.83384258 308.56691108 -94.83384258 216.82691108 -94.83384258 122.30691108 C-111.54174927 114.08533219 -111.54174927 114.08533219 -128.83384258 107.30691108 Z M152.98646992 110.86159858 C152.37729726 111.12320777 151.76812459 111.38481696 151.14049214 111.65435371 C149.85030499 112.20921322 148.56086393 112.76581031 147.27211446 113.32400092 C145.30738442 114.17488352 143.34052553 115.02066953 141.37318867 115.86550483 C134.20804243 118.95115035 134.20804243 118.95115035 127.16615742 122.30691108 C127.16615742 213.71691108 127.16615742 305.12691108 127.16615742 399.30691108 C139.5025632 405.55161973 139.5025632 405.55161973 152.04115742 411.30691108 C152.71533711 411.60468452 153.3895168 411.90245796 154.08412617 412.20925483 C157.49857072 413.78176334 157.49857072 413.78176334 161.16615742 414.30691108 C161.16615742 313.32691108 161.16615742 212.34691108 161.16615742 108.30691108 C158.11120413 108.30691108 155.7824453 109.65675784 152.98646992 110.86159858 Z M-100.46665508 409.80691108 C-101.59440852 410.33961616 -101.59440852 410.33961616 -102.74494487 410.88308296 C-105.15129884 412.02076275 -107.5550794 413.16376897 -109.95884258 414.30691108 C-111.58758243 415.07809595 -113.21648664 415.84893377 -114.84556133 416.61941108 C-118.84357509 418.51121931 -122.8392886 420.40780908 -126.83384258 422.30691108 C-123.24360077 426.5819305 -119.57405233 430.68853273 -115.61118633 434.62722358 C-115.14322139 435.09377357 -114.67525645 435.56032356 -114.19311076 436.04101142 C-112.72155981 437.50705164 -111.2465528 438.96955408 -109.77134258 440.43191108 C-108.78087271 441.41735153 -107.79063676 442.40302715 -106.80063945 443.38894233 C-104.97712368 445.2043683 -103.15203046 447.01815059 -101.32578593 448.83083686 C-99.60669649 450.53897884 -97.89573834 452.25532987 -96.19150859 453.9782978 C-93.85977521 456.28129801 -91.42699595 458.30647848 -88.83384258 460.30691108 C-84.89013075 455.72803413 -81.91111758 450.67017437 -78.83384258 445.49441108 C-78.0526707 444.19793647 -78.0526707 444.19793647 -77.25571758 442.87527046 C-74.21173156 437.78274335 -71.41496576 432.64909152 -68.83384258 427.30691108 C-69.93792461 426.20282905 -69.93792461 426.20282905 -71.06431133 425.07644233 C-73.02264466 423.118109 -74.98097799 421.15977566 -76.93931133 419.20144233 C-77.4221458 418.71909126 -77.90498027 418.23674018 -78.40244609 417.73977241 C-79.77105529 416.36976262 -81.13460545 414.99470454 -82.49790508 413.61941108 C-89.37472662 406.81158775 -91.52019333 405.53755334 -100.46665508 409.80691108 Z M120.30678242 407.81081733 C119.68287617 408.49015327 119.05896992 409.16948921 118.41615742 409.86941108 C115.7035757 412.72848232 112.96995915 415.42720695 109.97865742 417.99441108 C106.89547379 420.64582738 103.9965011 423.38811916 101.16615742 426.30691108 C102.55932656 431.10967837 104.6709021 435.14718033 107.29115742 439.36941108 C107.88078267 440.33536201 107.88078267 440.33536201 108.48231953 441.3208271 C109.70443728 443.31983283 110.93485171 445.31355471 112.16615742 447.30691108 C112.95696321 448.59570296 113.74734028 449.88475802 114.53725117 451.17409858 C116.40686245 454.22251976 118.28422472 457.26607704 120.16615742 460.30691108 C125.31445486 456.00063852 130.12367815 451.48379177 134.84975117 446.72097358 C135.90030438 445.66829795 135.90030438 445.66829795 136.97208089 444.59435615 C139.18498769 442.37589973 141.39437159 440.15397293 143.60365742 437.93191108 C145.11319057 436.41735642 146.62295399 434.90303123 148.1329543 433.38894233 C151.81335445 429.69758009 155.49087699 426.0033704 159.16615742 422.30691108 C156.46374502 420.16084389 153.87016736 418.58000657 150.71693867 417.18581733 C149.86809102 416.80747749 149.01924336 416.42913764 148.14467305 416.03933296 C147.26488789 415.65325874 146.38510274 415.26718452 145.47865742 414.86941108 C144.61820821 414.48720405 143.75775899 414.10499702 142.87123555 413.71120796 C141.15056897 412.94747577 139.42808078 412.18783381 137.70375508 411.43239936 C136.01327533 410.68262914 134.33046617 409.91531796 132.65590352 409.13064155 C131.86909199 408.76470893 131.08228047 408.39877632 130.27162617 408.02175483 C129.57577412 407.69167426 128.87992207 407.3615937 128.1629836 407.02151069 C125.05273215 405.90845213 122.92818233 405.6905674 120.30678242 407.81081733 Z M166.16615742 425.30691108 C160.78558056 430.54852117 155.42121526 435.8062487 150.0771367 441.08505878 C147.5951621 443.53570861 145.10791388 445.98046333 142.60780782 448.41262397 C139.73433641 451.20848436 136.885417 454.02824311 134.03725117 456.84987983 C133.13526494 457.72089836 132.2332787 458.59191688 131.30395955 459.4893299 C130.48303319 460.30980308 129.66210683 461.13027625 128.81630391 461.97561225 C127.7204321 463.05149856 127.7204321 463.05149856 126.60242146 464.14911994 C124.89450595 466.23617858 124.89450595 466.23617858 125.35818928 468.89524421 C126.37006758 471.9155531 127.66070809 474.65264968 129.10365742 477.49441108 C129.40215596 478.08302925 129.70065449 478.67164741 130.00819844 479.27810249 C134.17613861 487.40427515 138.68344897 495.351682 143.16615742 503.30691108 C146.5165914 501.85502515 148.67101938 500.02494518 151.21303242 497.42019233 C151.97615742 496.6461103 152.73928242 495.87202827 153.52553242 495.07448921 C154.31443867 494.26431342 155.10334492 493.45413764 155.91615742 492.61941108 C157.47090614 491.02968052 159.02817638 489.44241185 160.58803242 487.85769233 C161.61815449 486.8006208 161.61815449 486.8006208 162.66908711 485.72219428 C164.71692262 483.741432 166.79706546 481.87616437 168.95229024 480.01638374 C173.2081069 476.3207336 177.19698682 472.40384033 181.16615742 468.40456733 C181.88730733 467.68200248 182.60845723 466.95943763 183.35146016 466.21497688 C185.62541157 463.93548504 187.89583696 461.65251869 190.16615742 459.36941108 C191.71930977 457.81123602 193.27269309 456.25329115 194.82631367 454.69558296 C198.60893328 450.90201349 202.38867432 447.10559493 206.16615742 443.30691108 C203.2914347 440.22958459 200.44076607 438.91601542 196.55678242 437.24050483 C195.91174763 436.96094444 195.26671284 436.68138404 194.60213155 436.39335212 C193.23855445 435.80422977 191.87346144 435.21860541 190.50697774 434.63625678 C188.43379175 433.75193305 186.36613822 432.85558836 184.29896992 431.95730171 C178.31611622 429.38057225 172.46285832 426.99083053 166.16615742 425.30691108 Z M-145.58384258 430.24441108 C-147.45700384 431.08675131 -149.3307108 431.927879 -151.20493633 432.76784858 C-152.14321269 433.194206 -153.08148906 433.62056342 -154.04819804 434.05984077 C-158.20989348 435.92293808 -162.42286578 437.65208828 -166.64634258 439.36941108 C-168.04870011 439.94359617 -169.4510453 440.5178114 -170.85337383 441.09206733 C-171.83692851 441.49296577 -172.8204832 441.89386421 -173.83384258 442.30691108 C-168.09295371 449.32996137 -161.63690801 455.63034718 -155.21665508 462.02175483 C-153.99189769 463.24464424 -152.76736305 464.46775678 -151.54304057 465.69108161 C-148.33955623 468.89077064 -145.13307892 472.08744356 -141.92594463 475.28347358 C-138.64601641 478.55312308 -135.36896132 481.82564948 -132.09165508 485.09792671 C-125.67517493 491.50372228 -119.25552558 497.90633157 -112.83384258 504.30691108 C-109.95860494 500.78165257 -107.61302624 497.35004652 -105.45103008 493.34206733 C-104.84130351 492.21220405 -104.23157695 491.08234077 -103.60337383 489.91823921 C-103.29222636 489.33501899 -102.9810789 488.75179878 -102.66050273 488.15090522 C-101.71128649 486.37398606 -100.75169307 484.60296834 -99.79087383 482.83230171 C-95.69468954 475.33128219 -95.69468954 475.33128219 -92.83384258 467.30691108 C-93.91718342 465.04070352 -93.91718342 465.04070352 -95.89634258 463.24441108 C-96.50606914 462.61405952 -97.1157957 461.98370796 -97.74399883 461.33425483 C-98.77847148 460.33071967 -98.77847148 460.33071967 -99.83384258 459.30691108 C-105.16717591 453.97357775 -110.50050924 448.64024441 -115.83384258 443.30691108 C-117.08681133 442.05974311 -117.08681133 442.05974311 -118.36509258 440.78737983 C-120.03701477 439.10752129 -121.69291824 437.41159316 -123.33384258 435.70144233 C-124.15884258 434.84937202 -124.98384258 433.99730171 -125.83384258 433.11941108 C-126.65884258 432.25960639 -127.48384258 431.39980171 -128.33384258 430.51394233 C-134.79705661 424.80813619 -138.35932667 426.85818426 -145.58384258 430.24441108 Z M-70.67686015 440.82815132 C-71.83946711 443.40736565 -72.85115457 445.98221585 -73.78555804 448.65223083 C-75.29930285 452.48564467 -77.4493709 455.83155539 -79.66748649 459.29249248 C-81.00086686 461.20742653 -81.00086686 461.20742653 -80.83384258 463.30691108 C-16.81384258 463.30691108 47.20615742 463.30691108 113.16615742 463.30691108 C111.92455552 460.20290632 110.846713 457.5552571 109.24818867 454.70534858 C108.88016133 454.04921577 108.51213399 453.39308296 108.1329543 452.71706733 C107.75203633 452.04546577 107.37111836 451.37386421 106.97865742 450.68191108 C106.61707539 450.03351264 106.25549336 449.38511421 105.8829543 448.71706733 C105.12767243 447.37809948 104.35192439 446.05046816 103.55607003 444.73521098 C102.16615742 442.30691108 102.16615742 442.30691108 100.91390198 439.52618656 C98.64524935 435.04065644 96.95094149 431.90910959 92.04061764 430.2523323 C88.01214976 429.80577826 84.10514011 429.71462791 80.05800313 429.74074897 C78.51971916 429.71107854 76.98151681 429.67688522 75.44342488 429.63853034 C71.27729497 429.5501321 67.11374664 429.53234806 62.94678205 429.53294644 C59.46039558 429.52842376 55.97457416 429.49286203 52.48837507 429.45853093 C44.25603234 429.37942095 36.02503489 429.36135494 27.79237813 429.37844428 C19.32087167 429.39471357 10.85604148 429.29637998 2.38605499 429.1430985 C-4.90373877 429.01595713 -12.19137827 428.96680831 -19.48226607 428.9777675 C-23.82974928 428.98315888 -28.17168688 428.95852741 -32.51808292 428.85609207 C-54.89077957 427.46460337 -54.89077957 427.46460337 -70.67686015 440.82815132 Z M-88.83384258 475.30691108 C-90.2684294 477.63568529 -91.57133823 479.90229247 -92.82212383 482.32253608 C-93.17018581 482.97897102 -93.51824779 483.63540595 -93.8768571 484.31173286 C-94.97530925 486.38904555 -96.06069149 488.47288532 -97.14634258 490.55691108 C-97.89359496 491.97139359 -98.64163446 493.38546056 -99.3904832 494.79909858 C-100.0975624 496.13987602 -100.80396733 497.48100932 -101.50962383 498.82253608 C-101.84391902 499.4579029 -102.17821422 500.09326972 -102.52263957 500.74789008 C-104.14086309 503.3929843 -104.14086309 503.3929843 -104.83384258 506.30691108 C-25.30384258 506.30691108 54.22615742 506.30691108 136.16615742 506.30691108 C134.82093741 502.27125103 133.67549054 499.10116361 131.74037617 495.44362983 C131.27309102 494.5561103 130.80580586 493.66859077 130.32436055 492.75417671 C129.83902852 491.84345405 129.35369649 490.93273139 128.85365742 489.99441108 C128.37992696 489.09528999 127.90619649 488.19616889 127.41811055 487.26980171 C125.17788 483.03144487 122.89957188 478.81818583 120.56955403 474.62852058 C119.89438095 473.41418452 119.89438095 473.41418452 119.20556802 472.17531642 C118.86256252 471.55874266 118.51955703 470.9421689 118.16615742 470.30691108 C91.91503766 470.19017503 65.66395671 470.1019705 39.41262978 470.04785022 C27.2240202 470.02205473 15.03557178 469.98687829 2.84706563 469.92971382 C-7.77487171 469.87992029 -18.39669235 469.84762986 -29.01874316 469.83646861 C-34.64451432 469.82994304 -40.2699516 469.8145778 -45.89561588 469.7782608 C-51.18893936 469.74436556 -56.48179089 469.73384514 -61.77521259 469.74137267 C-63.71949512 469.73999524 -65.66379317 469.73002438 -67.60798198 469.71088371 C-70.2605266 469.68604653 -72.91128382 469.69197128 -75.56386882 469.7056385 C-76.33527617 469.69107429 -77.10668352 469.67651008 -77.90146685 469.66150454 C-83.299346 469.73680878 -85.51998503 471.11587335 -88.83384258 475.30691108 Z " fill="#000000" transform="translate(495.8338425755501,236.69308891892433)"/>
<path d="M0 0 C1.27853851 0.01749802 2.55707703 0.03499603 3.87435913 0.05302429 C5.18595001 0.07601089 6.49754089 0.0989975 7.84887695 0.12268066 C10.5974751 0.11819722 13.34576162 0.08974198 16.09423828 0.06469727 C21.82467123 0.02859185 27.54990378 0.0754633 33.27954102 0.17150879 C39.84803664 0.28036458 46.40411843 0.24508286 52.97231388 0.13498068 C58.67255486 0.04335811 64.36911985 0.03180767 70.06986141 0.08375406 C73.44936822 0.11450552 76.81854991 0.11225858 80.19839478 0.05302429 C82.11620255 0.02677727 82.11620255 0.02677727 84.07275391 0 C85.73973076 -0.03657589 85.73973076 -0.03657589 87.44038391 -0.07389069 C101.14789346 0.52009149 108.8296936 4.33918875 118.37533361 14.02546 C127.82021212 24.57331732 127.78820809 34.76296287 127.41796875 48.33068848 C127.423801 50.8329758 127.43836254 53.33525542 127.46089172 55.83744812 C127.49259988 61.87757344 127.43297673 67.91026884 127.32931366 73.94904777 C127.21267879 80.99444913 127.20522838 88.03878771 127.20179269 95.08500096 C127.19220836 107.65656138 127.08876011 120.22553666 126.9296875 132.79602051 C126.77570535 144.97302012 126.68391589 157.14832348 126.66308594 169.32629395 C126.66114097 170.45415321 126.66114097 170.45415321 126.6591567 171.60479751 C126.65658238 173.11972284 126.65400856 174.63464816 126.65143524 176.14957349 C126.65014984 176.89700215 126.64886444 177.64443081 126.64754009 178.41450882 C126.64627465 179.1601472 126.6450092 179.90578557 126.64370541 180.67401905 C126.62161792 192.31849367 126.54640491 203.96270053 126.46439486 215.60688557 C126.43526492 219.8153519 126.41326067 224.02378479 126.39632287 228.23231694 C126.36651781 235.52477152 126.30014117 242.81572881 126.19399834 250.10756874 C126.16399201 252.52616734 126.14568821 254.94494386 126.13998032 257.36372185 C126.12995842 260.66740038 126.07692201 263.96768317 126.01274109 267.27069092 C126.01948858 268.22593761 126.02623608 269.1811843 126.03318805 270.16537786 C125.84720003 276.47931061 124.22369123 279.65676627 119.77515346 284.14353919 C119.20135721 284.68321838 118.62756096 285.22289756 118.03637695 285.77893066 C117.21911133 286.64002441 116.4018457 287.50111816 115.55981445 288.38830566 C114.49633789 289.44791504 114.49633789 289.44791504 113.41137695 290.52893066 C112.69723633 291.24564941 111.9830957 291.96236816 111.24731445 292.70080566 C110.15290039 293.72947754 110.15290039 293.72947754 109.03637695 294.77893066 C108.40898117 295.46948044 107.78158539 296.16003021 107.13517761 296.87150574 C102.35827059 299.81186639 97.75185752 299.37703684 92.24462891 299.37585449 C90.45346397 299.3984156 90.45346397 299.3984156 88.62611389 299.4214325 C85.35710469 299.45711167 82.08869614 299.4745243 78.81951547 299.48089051 C76.7732349 299.48596544 74.72705559 299.49648412 72.68080711 299.50888634 C65.53047518 299.55186366 58.38043752 299.57310087 51.22998047 299.57507324 C44.58393855 299.57750381 37.93946249 299.62842748 31.29386169 299.70196515 C25.57384349 299.76300604 19.85433825 299.78898752 14.13399667 299.78840846 C10.7237684 299.78869056 7.31503986 299.80285632 3.90514565 299.85276222 C0.09378837 299.89940132 -3.71342671 299.8886592 -7.52490234 299.86413574 C-8.64058594 299.89020905 -9.75626953 299.91628235 -10.90576172 299.94314575 C-16.96120949 299.83844554 -20.46035836 298.94874346 -25.05354309 294.89860535 C-25.84437664 294.06737278 -26.63521019 293.23614021 -27.45000839 292.37971878 C-29.90638896 289.68733179 -29.90638896 289.68733179 -32.97325516 287.59521103 C-38.20317142 283.51902812 -40.99492317 280.30772061 -41.99632072 273.76669502 C-42.60443747 267.30101542 -42.55562587 260.83562568 -42.52978516 254.34753418 C-42.55945286 251.85617025 -42.59364529 249.36485673 -42.63200378 246.87361145 C-42.71124847 240.82461787 -42.73846894 234.77752624 -42.7376899 228.72818268 C-42.73745019 223.80377741 -42.75543581 218.87976545 -42.78604317 213.95545769 C-42.8806093 198.43248012 -42.90919282 182.9107168 -42.88913739 167.38748508 C-42.87597586 155.18506931 -42.96530369 142.98588415 -43.10216957 130.78431154 C-43.24200933 118.21787544 -43.30628265 105.65299452 -43.29276663 93.08576339 C-43.28665026 86.04504439 -43.31006724 79.00749907 -43.41444206 71.96747017 C-43.51203581 65.33617564 -43.50357373 58.71057234 -43.42700386 52.07862663 C-43.41504564 49.6600403 -43.43649182 47.24099413 -43.49577332 44.82310486 C-43.77956177 32.40778791 -42.82854794 23.54848504 -34.29828602 14.02250475 C-23.96332272 3.5347426 -14.79836425 -0.32469757 0 0 Z M-32.96362305 25.77893066 C-35.52551921 33.64438783 -35.01954267 42.02246309 -34.90454102 50.19299316 C-34.9249006 52.63395027 -34.95162751 55.07486124 -34.98419189 57.51568604 C-35.04519148 63.42514223 -35.03668645 69.33196727 -34.99300228 75.24134684 C-34.95895165 80.0489733 -34.9546056 84.85580039 -34.97085953 89.66351318 C-34.97315802 90.3509903 -34.97545652 91.03846742 -34.97782467 91.74677718 C-34.98262115 93.14391843 -34.98748436 94.54105945 -34.99241354 95.93820024 C-35.0350609 109.00143572 -34.98621016 122.06308547 -34.90540804 135.12606072 C-34.83839885 146.30476358 -34.85004292 157.48112931 -34.91918945 168.65979004 C-34.99969113 181.6800569 -35.03094231 194.69893843 -34.9850055 207.71941948 C-34.98022789 209.11106216 -34.97551232 210.50270505 -34.97085953 211.89434814 C-34.96854539 212.57884021 -34.96623126 213.26333228 -34.963847 213.96856654 C-34.95096258 218.76354557 -34.9726077 223.55763663 -35.00805283 228.35247803 C-35.05482997 234.8216836 -35.02094304 241.28753693 -34.93463898 247.75635529 C-34.91492046 250.12045283 -34.920306 252.4849237 -34.95357895 254.84886932 C-35.08757944 265.34206561 -35.19606433 274.40208675 -28.09597695 282.6970433 C-22.43307201 288.39675227 -16.92390001 292.464834 -8.64859009 292.81185913 C-7.60399628 292.78149567 -6.55940247 292.7511322 -5.4831543 292.71984863 C-4.33462982 292.74613342 -3.18610535 292.77241821 -2.0027771 292.79949951 C1.74304174 292.86480351 5.47797728 292.82212649 9.22387695 292.77111816 C11.85695403 292.78124361 14.49001735 292.79581888 17.12304688 292.81460571 C22.62104192 292.84173904 28.11599478 292.80636908 33.61352539 292.73449707 C39.92975337 292.65286434 46.23871818 292.6793202 52.55477047 292.76189315 C58.68262642 292.83873425 64.80731568 292.82989181 70.93545532 292.78616714 C73.51877896 292.77623303 76.10229103 292.78818604 78.68539429 292.82336044 C82.31373299 292.86193735 85.92856581 292.80286291 89.5559082 292.71984863 C90.60050201 292.7502121 91.64509583 292.78057556 92.72134399 292.81185913 C100.99665392 292.464834 106.50582592 288.39675227 112.16873085 282.6970433 C120.02398399 273.51983463 119.138978 262.85197575 118.97729492 251.36486816 C118.99765451 248.92391105 119.02438142 246.48300009 119.0569458 244.04217529 C119.11794538 238.1327191 119.10944036 232.22589406 119.06575619 226.31651449 C119.03170556 221.50888803 119.0273595 216.70206093 119.04361343 211.89434814 C119.04591193 211.20687103 119.04821042 210.51939391 119.05057857 209.81108415 C119.05537506 208.4139429 119.06023827 207.01680188 119.06516744 205.61966109 C119.10781481 192.55642561 119.05896406 179.49477585 118.97816195 166.4318006 C118.91115275 155.25309774 118.92279683 144.07673201 118.99194336 132.89807129 C119.07244504 119.87780443 119.10369622 106.8589229 119.0577594 93.83844185 C119.0529818 92.44679917 119.04826622 91.05515628 119.04361343 89.66351318 C119.0412993 88.97902111 119.03898517 88.29452904 119.03660091 87.58929479 C119.02371648 82.79431576 119.04536161 78.0002247 119.08080673 73.2053833 C119.12758388 66.73617773 119.09369695 60.27032439 119.00739288 53.80150604 C118.98767437 51.4374085 118.9930599 49.07293763 119.02633286 46.708992 C119.16033335 36.21579572 119.26881824 27.15577458 112.16873085 18.86081803 C106.50582592 13.16110905 100.99665392 9.09302733 92.72134399 8.7460022 C91.67675018 8.77636566 90.63215637 8.80672913 89.5559082 8.8380127 C87.83312149 8.79858551 87.83312149 8.79858551 86.07553101 8.75836182 C82.32971217 8.69305781 78.59477663 8.73573484 74.84887695 8.78674316 C72.21579988 8.77661772 69.58273655 8.76204245 66.94970703 8.74325562 C61.45171198 8.71612229 55.95675913 8.75149225 50.45922852 8.82336426 C44.14300053 8.90499698 37.83403573 8.87854113 31.51798344 8.79596817 C25.39012749 8.71912708 19.26543823 8.72796952 13.13729858 8.77169418 C10.55397495 8.7816283 7.97046288 8.76967529 5.38735962 8.73450089 C1.75902092 8.69592398 -1.85581191 8.75499841 -5.4831543 8.8380127 C-7.05004501 8.7924675 -7.05004501 8.7924675 -8.64859009 8.7460022 C-19.3247186 9.19370565 -27.92477602 16.68282475 -32.96362305 25.77893066 Z " fill="#000000" transform="translate(469.963623046875,349.2210693359375)"/>
</svg>
