<?xml version="1.0" encoding="UTF-8"?>
<svg version="1.1" xmlns="http://www.w3.org/2000/svg" width="1024" height="1024">
<path d="M0 0 C1.30324219 0.88171875 1.30324219 0.88171875 2.6328125 1.78125 C9.84256543 6.79315802 16.20899147 12.53708613 22.53222656 18.59960938 C23.79621335 19.80556882 25.07991013 20.99080863 26.3671875 22.171875 C33.39324532 28.81188569 38.98972173 36.60800542 44.72241211 44.35522461 C46.04373204 46.12684353 46.04373204 46.12684353 48 48 C48.76183594 46.96101563 49.52367187 45.92203125 50.30859375 44.8515625 C58.76142377 33.40098245 67.72950668 22.88047458 78 13 C78.59941406 12.41734375 79.19882812 11.8346875 79.81640625 11.234375 C111.91236724 -18.43532544 154.54602047 -28.57310095 197 -27 C202.10408879 -26.75928042 206.99947883 -26.07079767 212 -25 C212.81500977 -24.82758789 213.63001953 -24.65517578 214.46972656 -24.47753906 C238.9336889 -19.13946917 261.93216048 -9.47036293 281 7 C281.95648437 7.82242188 282.91296875 8.64484375 283.8984375 9.4921875 C308.56129997 31.14893967 325.29158077 61.15501212 329 94 C329.34373086 99.731819 329.43983589 105.44634395 329.4375 111.1875 C329.43860275 112.37061768 329.43860275 112.37061768 329.43972778 113.57763672 C329.40500136 127.83670067 327.89859897 141.23175067 324 155 C323.64639404 156.26408691 323.64639404 156.26408691 323.28564453 157.55371094 C317.08966433 178.82952074 306.64593308 199.82736254 294 218 C293.56478027 218.6276123 293.12956055 219.25522461 292.68115234 219.90185547 C287.05693661 227.93442555 281.01806548 235.54296531 274.60546875 242.95703125 C272.21741884 245.72145385 269.95176786 248.57054347 267.6875 251.4375 C263.45833152 256.64966439 258.79108854 261.31957336 254.01245117 266.01928711 C251.05799802 268.92809618 248.1760911 271.82808491 245.5 275 C238.47607401 283.27500696 230.51652465 291.03890222 222.234375 298.046875 C219.01328893 300.86250968 215.92487125 303.81525595 212.8125 306.75 C206.59458187 312.59191515 200.20463113 318.16041542 193.64892578 323.6171875 C190.69938846 326.09071124 187.79084111 328.61194537 184.875 331.125 C178.9926977 336.17923846 173.02582652 341.11741329 167 346 C165.75099132 347.01915052 164.50231548 348.03870902 163.25390625 349.05859375 C156.90099109 354.24288148 150.52878135 359.39510687 144.0625 364.4375 C136.55610363 370.29478021 129.22731268 376.36303296 121.89355469 382.43408203 C119.41429659 384.48436071 116.92730534 386.52504668 114.4375 388.5625 C113.591875 389.25472656 112.74625 389.94695312 111.875 390.66015625 C109.63015267 392.48714477 107.37969755 394.30632389 105.125 396.12109375 C98.37216289 401.56511229 91.72229854 407.04307066 85.33203125 412.9140625 C82.91220935 415.07852631 80.41364222 417.10160813 77.875 419.125 C72.23860646 423.6774717 66.99095975 428.60128522 61.74560547 433.59619141 C57.60251072 437.53581671 53.37100631 441.31408664 49 445 C45.18437605 443.70176525 42.92909121 442.25033142 40.1875 439.3125 C36.96544819 435.96397513 33.64333166 432.86773248 30.12109375 429.83984375 C27.77508942 427.80491181 25.4826355 425.71709033 23.1875 423.625 C18.81364029 419.67312063 14.29027878 415.94724635 9.70703125 412.2421875 C7.12696409 410.10516218 4.65285515 407.89264255 2.1875 405.625 C-2.26624624 401.56651491 -6.92444461 397.85303124 -11.68017578 394.16113281 C-16.59318924 390.34212099 -21.37665189 386.39400733 -26.14453125 382.39453125 C-32.8785482 376.74753756 -39.69778389 371.21984529 -46.625 365.8125 C-57.78805678 357.08811794 -68.67409125 348.01860259 -79.46240234 338.83642578 C-82.83481143 335.9699312 -86.24789743 333.16035649 -89.6875 330.375 C-94.07726647 326.80474131 -98.27827693 323.07117495 -102.45703125 319.2578125 C-105.13777224 316.87767687 -107.89504134 314.62268159 -110.6875 312.375 C-114.424287 309.35198131 -117.89036491 306.24697911 -121.21681213 302.78199768 C-122.99487888 301.0051177 -124.83980071 299.37158213 -126.74975586 297.73803711 C-130.76547681 294.24693816 -134.56113143 290.58404457 -138.31640625 286.81640625 C-138.97656235 286.15720688 -139.63671844 285.49800751 -140.31687927 284.8188324 C-141.70035506 283.43603165 -143.08259083 282.05198924 -144.46362305 280.66674805 C-146.55731669 278.56769657 -148.65629874 276.4740406 -150.75585938 274.38085938 C-152.10969571 273.02636214 -153.46322175 271.67155469 -154.81640625 270.31640625 C-155.43326797 269.70156876 -156.0501297 269.08673126 -156.6856842 268.45326233 C-160.44908901 264.66989623 -164.02267885 260.76648829 -167.50691223 256.72433472 C-169.32806631 254.62112333 -171.22631481 252.59570742 -173.125 250.5625 C-212.60332443 206.72007508 -236.00991866 153.3627839 -233 94 C-232.37849981 87.13722314 -230.98174718 80.59074214 -229 74 C-228.78569336 73.27264648 -228.57138672 72.54529297 -228.35058594 71.79589844 C-217.99542977 37.6856824 -195.28725812 8.92358425 -163.984375 -8.2578125 C-112.6751983 -35.27058494 -47.91847554 -34.20443372 0 0 Z M179.0625 -18.125 C178.02214141 -16.76471337 176.99674819 -15.39255834 176 -14 C175.34 -13.67 174.68 -13.34 174 -13 C174 -12.34 174 -11.68 174 -11 C173.44403137 -10.76934845 172.88806274 -10.5386969 172.31524658 -10.30105591 C169.36855331 -8.64515769 167.34138561 -6.58048352 164.95605469 -4.18310547 C164.46779205 -3.69513489 163.97952942 -3.20716431 163.47647095 -2.70440674 C161.87015038 -1.09669725 160.27102287 0.51797101 158.671875 2.1328125 C157.55701683 3.25140235 156.44171513 4.36955029 155.32598877 5.48727417 C152.39529391 8.42559325 149.47065578 11.36986955 146.54724121 14.31542969 C143.56117275 17.32198262 140.56941141 20.32285882 137.578125 23.32421875 C131.71316544 29.21060686 125.85459268 35.103301 120 41 C123.77210213 42.25736738 125.17844685 41.56610799 128.953125 40.39453125 C129.57618027 40.2035083 130.19923553 40.01248535 130.84117126 39.81567383 C132.98029809 39.1568107 135.11504505 38.48474963 137.25 37.8125 C138.79842164 37.33175219 140.34701195 36.85154737 141.89575195 36.37182617 C147.60256244 34.59828185 153.30149011 32.80000735 159 31 C160.19792175 30.62182129 161.39584351 30.24364258 162.63006592 29.85400391 C182.43035982 23.60175094 202.21830282 17.31082121 222 11 C223.77120209 10.43536041 223.77120209 10.43536041 225.57818604 9.85931396 C228.94433831 8.78601301 232.31012519 7.71157461 235.67578125 6.63671875 C236.64903854 6.32644241 237.62229584 6.01616608 238.62504578 5.69648743 C245.43525336 3.51913734 252.22156382 1.27424869 259 -1 C243.41220291 -13.04473065 220.30222558 -19.17993903 201 -21 C199.57539694 -21.20225427 198.15092701 -21.40544754 196.7265625 -21.609375 C187.0944351 -22.95069459 187.0944351 -22.95069459 179.0625 -18.125 Z M-107.703125 -20.41015625 C-127.24997567 -17.87488142 -146.01370855 -12.11949278 -163 -2 C-160.13876004 -0.09250669 -157.95056751 0.79072426 -154.70825195 1.83740234 C-153.61141586 2.1938382 -152.51457977 2.55027405 -151.38450623 2.91751099 C-150.18125198 3.30309174 -148.97799774 3.68867249 -147.73828125 4.0859375 C-146.4592457 4.49924274 -145.1803228 4.91289676 -143.90150452 5.32687378 C-140.43079543 6.44877983 -136.9580547 7.56426512 -133.48473358 8.67805481 C-131.31514376 9.37415177 -129.14605172 10.07177829 -126.97711182 10.76989746 C-105.1702551 17.78768208 -83.33832551 24.72671791 -61.48171616 31.58795929 C-59.37910216 32.24871089 -57.27708205 32.91132145 -55.17520142 33.57440186 C-51.25172602 34.81162203 -47.32531999 36.03926132 -43.3984375 37.265625 C-42.24086441 37.63130585 -41.08329132 37.99698669 -39.89064026 38.37374878 C-34.58796624 40.02047767 -29.5331343 41.45868279 -24 42 C-29.16285174 35.70890269 -34.84756391 29.96627528 -40.59667969 24.21801758 C-42.26526993 22.54720977 -43.92566148 20.86851828 -45.5859375 19.18945312 C-46.64534488 18.12711683 -47.70522342 17.06525015 -48.765625 16.00390625 C-49.26145081 15.50089493 -49.75727661 14.99788361 -50.26812744 14.47962952 C-52.67693439 11.78241399 -52.67693439 11.78241399 -56 11 C-56.21398437 10.44828125 -56.42796875 9.8965625 -56.6484375 9.328125 C-58.45538475 6.21558003 -60.95189468 4.09905641 -63.625 1.75 C-67.61421945 -1.76775092 -71.35847196 -5.32903893 -74.85546875 -9.34375 C-81.63352147 -17.59428983 -81.63352147 -17.59428983 -90.90625 -22.12109375 C-96.64016152 -22.21857025 -102.03357938 -21.09628698 -107.703125 -20.41015625 Z M-80 -21 C-76.95852302 -17.2741907 -73.97107768 -13.86988543 -70.29541016 -10.76416016 C-65.91705055 -6.98014914 -61.83984856 -2.95018117 -57.7734375 1.1640625 C-57.02212555 1.91916107 -56.2708136 2.67425964 -55.49673462 3.45223999 C-53.12035647 5.84072408 -50.74727081 8.23243685 -48.375 10.625 C-45.23991218 13.78678565 -42.10145769 16.94517364 -38.9609375 20.1015625 C-38.25141937 20.81937897 -37.54190125 21.53719543 -36.81088257 22.27676392 C-33.02403855 26.08215454 -29.17081026 29.62085356 -25 33 C-22.70495107 35.17735411 -20.51932802 37.3580768 -18.52832031 39.8190918 C-14.29350709 45.00402337 -10.00162531 48.25603197 -4.1875 51.5 C-2.42202387 52.52144686 -0.65776521 53.54500002 1.10546875 54.5703125 C2.04825684 55.11461914 2.99104492 55.65892578 3.96240234 56.21972656 C9.57480788 59.50904188 15.09434439 62.95073576 20.625 66.375 C24.74670818 68.92205723 28.87170464 71.46363472 33 74 C33.96518555 74.5971582 34.93037109 75.19431641 35.92480469 75.80957031 C36.82360352 76.35967773 37.72240234 76.90978516 38.6484375 77.4765625 C39.83832275 78.20866943 39.83832275 78.20866943 41.05224609 78.95556641 C42.92541254 80.15752361 42.92541254 80.15752361 45 80 C46.9132112 61.18600876 46.9132112 61.18600876 39.46020508 44.71435547 C38.50156173 43.66120722 37.52474437 42.62434073 36.53125 41.60400391 C34.91406377 39.9099807 33.44286251 38.14370826 31.96875 36.32421875 C21.64737275 23.70633102 10.1858819 12.1731877 -4 4 C-5.46953125 3.05447266 -5.46953125 3.05447266 -6.96875 2.08984375 C-29.26448547 -12.23130317 -53.49554611 -20.00178031 -80 -21 Z M148 -18 C147.33258789 -17.85498047 146.66517578 -17.70996094 145.97753906 -17.56054688 C121.82559216 -12.02846979 98.89290371 1.0622335 81 18 C79.65028694 19.15107604 78.2963043 20.29717011 76.9375 21.4375 C72.73112173 25.14112389 68.94615228 29.08036797 65.37011719 33.39746094 C64.38630932 34.54815852 63.36959737 35.67102612 62.33300781 36.77441406 C53.23008947 46.52152369 49.89089933 54.1186023 50.1875 67.625 C50.3559837 71.76257614 50.6121471 75.87728434 51 80 C56.71207198 77.23366005 62.20384971 74.39239275 67.5 70.875 C73.55915069 66.89894644 79.70546874 63.08769494 85.90429688 59.33349609 C87.37184726 58.4428756 88.83413882 57.54356002 90.29248047 56.63793945 C92.32259969 55.4097997 94.38485005 54.23451334 96.46142578 53.08666992 C108.89318046 46.02973106 118.25205692 36.40528467 128.125 26.1875 C130.59137974 23.66339751 133.06212957 21.14366787 135.53488159 18.62580872 C137.05774285 17.07219808 138.57619495 15.51424846 140.08938599 13.95121765 C143.11942338 10.83564018 146.11345649 7.83056325 149.50732422 5.1105957 C150.32990723 4.41409912 151.15249023 3.71760254 152 3 C152 2.34 152 1.68 152 1 C152.57218262 0.75378906 153.14436523 0.50757813 153.73388672 0.25390625 C156.3741589 -1.20703298 158.14012351 -2.91402377 160.2578125 -5.0625 C161.44310547 -6.25746094 161.44310547 -6.25746094 162.65234375 -7.4765625 C163.87630859 -8.72566406 163.87630859 -8.72566406 165.125 -10 C165.94871094 -10.83273437 166.77242187 -11.66546875 167.62109375 -12.5234375 C169.14436494 -14.06416024 170.66557702 -15.60692335 172.18408203 -17.15234375 C173.45024257 -18.44063401 174.72272668 -19.72272668 176 -21 C166.41635453 -21.55887349 157.31644064 -20.0388816 148 -18 Z M-183 12 C-183.845625 12.70769531 -184.69125 13.41539062 -185.5625 14.14453125 C-198.3010584 25.14786935 -208.58226525 38.38612094 -215 54 C-206.34720012 57.70379618 -197.5991567 61.04722829 -188.75 64.25 C-186.10359289 65.21196923 -183.45794644 66.1760174 -180.8125 67.140625 C-180.15449402 67.38035034 -179.49648804 67.62007568 -178.81854248 67.86706543 C-171.48438805 70.54412813 -164.18128457 73.30403892 -156.88964844 76.09472656 C-150.993937 78.32971599 -145.06388626 80.27213602 -139 82 C-141.35019069 74.69597598 -144.05440201 67.57180477 -146.875 60.4375 C-147.34752197 59.23818848 -147.82004395 58.03887695 -148.30688477 56.80322266 C-153.16561779 44.49662835 -158.15404858 32.24260366 -163.15234375 19.9921875 C-165.45916674 14.3376859 -167.74356676 8.67479228 -170 3 C-174.72489245 3 -179.54668603 9.06378383 -183 12 Z M266 3 C260.07710065 16.90386689 254.3975555 30.89490801 248.8125 44.9375 C247.25770223 48.84292379 245.70140721 52.74774804 244.14453125 56.65234375 C243.7790921 57.57091156 243.41365295 58.48947937 243.03713989 59.43588257 C240.7056638 65.28236141 238.30473841 71.08987048 235.78393555 76.85766602 C234.82817931 79.08934038 234.82817931 79.08934038 235 82 C242.09267474 79.9766136 248.98683299 77.60180767 255.87890625 74.98046875 C256.88984848 74.59941483 257.90079071 74.2183609 258.94236755 73.82575989 C262.15028376 72.61617061 265.35650847 71.40218042 268.5625 70.1875 C272.7712676 68.59534954 276.98103273 67.00586712 281.19140625 65.41796875 C282.20385406 65.03502655 283.21630188 64.65208435 284.25942993 64.25753784 C291.16640744 61.65584764 298.10322836 59.15729087 305.11170959 56.84135437 C308.75944713 55.81368785 308.75944713 55.81368785 311 53 C302.06845502 33.06782626 285.01287379 15.01893475 267 3 C266.67 3 266.34 3 266 3 Z M-164 4 C-161.47281374 11.86235727 -158.55059818 19.55286524 -155.5625 27.25 C-155.3035495 27.91875153 -155.044599 28.58750305 -154.77780151 29.27651978 C-149.50891133 42.86896532 -143.9760469 56.3448139 -138.34423828 69.79052734 C-136.22210952 74.85727355 -134.11167158 79.92888871 -132 85 C-124.08286449 83.69698304 -116.73765352 81.36454962 -109.1875 78.6875 C-107.94846924 78.25381104 -106.70943848 77.82012207 -105.43286133 77.37329102 C-102.73127614 76.42766989 -100.03119412 75.47790312 -97.33203125 74.52539062 C-92.79845908 72.92673715 -88.25869014 71.34608328 -83.71875 69.765625 C-69.79337898 64.91183024 -55.87891204 60.03241824 -42.0625 54.875 C-41.11076904 54.52107178 -40.15903809 54.16714355 -39.1784668 53.80249023 C-34.64203374 52.09006741 -30.28458266 50.27287581 -26 48 C-29.27661551 45.81558966 -32.44600225 44.81410287 -36.171875 43.70703125 C-36.90522064 43.48438599 -37.63856628 43.26174072 -38.39413452 43.03234863 C-39.99769148 42.54567846 -41.60187792 42.06107876 -43.206604 41.57827759 C-47.6127402 40.25165745 -52.01348336 38.9074201 -56.4140625 37.5625 C-57.34721283 37.27748123 -58.28036316 36.99246246 -59.24179077 36.69880676 C-70.23304521 33.33153341 -81.17879872 29.82290101 -92.125 26.3125 C-106.3144104 21.76432411 -120.51360028 17.25917815 -134.75561523 12.87841797 C-142.17773809 10.58843036 -149.56133591 8.20302201 -156.90551758 5.67358398 C-160.3730955 4.42474831 -160.3730955 4.42474831 -164 4 Z M251.54614258 5.57617188 C250.4182431 5.94880157 249.29034363 6.32143127 248.12826538 6.70535278 C246.89613312 7.12227386 245.66400085 7.53919495 244.39453125 7.96875 C243.09490653 8.40109604 241.79498308 8.83254496 240.49478149 9.26315308 C237.71520456 10.18525284 234.93739515 11.11242721 232.16085815 12.04364014 C225.59807066 14.24394432 219.02598192 16.41617823 212.45403481 18.58893967 C210.97529705 19.07790137 209.49665858 19.56716342 208.0181179 20.05672073 C194.19980585 24.63136153 180.33813453 29.05647869 166.4375 33.375 C165.50080475 33.66656982 164.5641095 33.95813965 163.59902954 34.25854492 C149.75116523 38.56612149 135.87746587 42.78892505 122 47 C122 47.66 122 48.32 122 49 C150.40593934 59.89045598 179.11018837 70.06768209 207.92068481 79.83477783 C209.33745003 80.31615058 210.75306561 80.80092159 212.16744995 81.28924561 C214.0989401 81.95461299 216.03567632 82.60469387 217.97265625 83.25390625 C219.04781494 83.61814697 220.12297363 83.9823877 221.23071289 84.35766602 C224.05896045 85.01367583 225.40999966 85.30074775 228 84 C229.30132463 82.0783007 229.30132463 82.0783007 230.19140625 79.6015625 C230.57288818 78.66151367 230.95437012 77.72146484 231.34741211 76.75292969 C231.74839111 75.72071289 232.14937012 74.68849609 232.5625 73.625 C233.20940796 72.0147998 233.20940796 72.0147998 233.86938477 70.37207031 C234.78891206 68.08210163 235.70238804 65.78969542 236.61035156 63.49511719 C237.95445847 60.1145419 239.32628799 56.74696094 240.7109375 53.3828125 C247.31815898 37.32435039 253.69161103 21.17757861 260 5 C256.32345125 3.77448375 255.17374181 4.36131898 251.54614258 5.57617188 Z M-26.07421875 52.99609375 C-26.97540939 53.33601349 -27.87660004 53.67593323 -28.80509949 54.02615356 C-31.77181114 55.14834456 -34.72928072 56.29313201 -37.6875 57.4375 C-40.78135871 58.61292914 -43.87753112 59.78211381 -46.97387695 60.95097351 C-49.10105769 61.75434786 -51.22751521 62.55963954 -53.35327148 63.36677551 C-64.47367111 67.58288135 -75.66708902 71.58616281 -86.875 75.5625 C-88.71579026 76.21722224 -90.55653061 76.87208483 -92.3972168 77.52709961 C-96.59713958 79.02091151 -100.79817767 80.51154005 -105 82 C-103.17906996 84.24282118 -103.17906996 84.24282118 -100.55185509 84.24609566 C-99.51391619 84.24425207 -98.47597729 84.24240849 -97.40658569 84.24050903 C-96.21744064 84.24325836 -95.02829559 84.24600769 -93.80311584 84.24884033 C-92.49185226 84.24164978 -91.18058868 84.23445923 -89.82958984 84.22705078 C-88.44015003 84.22648687 -87.05070961 84.22680284 -85.66127014 84.22793579 C-81.88253158 84.22851109 -78.10391925 84.21672832 -74.32521009 84.20278788 C-70.37872929 84.19030986 -66.43224578 84.18911234 -62.48574829 84.18673706 C-55.0094762 84.18051365 -47.5332624 84.16409124 -40.05701602 84.14403808 C-31.54686163 84.1217058 -23.0367045 84.11069238 -14.52652812 84.10064721 C2.98234834 84.07972573 20.49116801 84.04453309 38 84 C35.34571006 81.28506224 32.94006714 79.18186739 29.640625 77.29296875 C28.78331787 76.79579346 27.92601074 76.29861816 27.04272461 75.78637695 C26.12112549 75.25874756 25.19952637 74.73111816 24.25 74.1875 C14.64958812 68.61669109 5.21884972 62.8152916 -4.14160156 56.8503418 C-5.09647461 56.24617432 -6.05134766 55.64200684 -7.03515625 55.01953125 C-8.29404663 54.21672729 -8.29404663 54.21672729 -9.57836914 53.39770508 C-10.37750732 52.9364624 -11.17664551 52.47521973 -12 52 C-12.74024414 51.54592773 -13.48048828 51.09185547 -14.24316406 50.62402344 C-18.63633734 49.62960696 -21.97772977 51.37812633 -26.07421875 52.99609375 Z M105.05078125 53.0625 C104.29740479 53.52205078 103.54402832 53.98160156 102.76782227 54.45507812 C101.95756592 54.96490234 101.14730957 55.47472656 100.3125 56 C99.45906006 56.52529297 98.60562012 57.05058594 97.72631836 57.59179688 C95.84538304 58.75073841 93.96735075 59.91440082 92.09179688 61.08203125 C88.76489818 63.14584333 85.42300062 65.18429002 82.078125 67.21875 C80.31752607 68.2921921 78.55735671 69.36633347 76.79745483 70.44091797 C75.08924811 71.48367194 73.38020183 72.52505016 71.67114258 73.56640625 C70.08789185 74.53900391 70.08789185 74.53900391 68.47265625 75.53125 C67.53687744 76.10423828 66.60109863 76.67722656 65.63696289 77.26757812 C62.95012849 79.0327644 60.47696572 80.95318954 58 83 C60.6569842 84.3284921 62.6549151 84.12287926 65.63137817 84.12025452 C66.82893738 84.12162918 68.02649658 84.12300385 69.26034546 84.12442017 C70.59429956 84.12088081 71.92825342 84.117246 73.26220703 84.11352539 C74.661499 84.11324344 76.06079112 84.11340142 77.46008301 84.1139679 C81.26564122 84.11425554 85.07116809 84.10836406 88.876719 84.10139394 C92.85123188 84.095155 96.82574543 84.09455617 100.80026245 84.09336853 C108.32963744 84.09025681 115.85899797 84.08204556 123.38836658 84.07201904 C131.95898551 84.06085297 140.52960511 84.0553462 149.1002295 84.05032361 C166.73349455 84.03986283 184.36674611 84.02226646 202 84 C201.18431262 81.83434145 201.18431262 81.83434145 199.06542969 81.15649414 C198.19305664 80.86895264 197.32068359 80.58141113 196.421875 80.28515625 C195.38804687 79.93775391 194.35421875 79.59035156 193.2890625 79.23242188 C192.12117187 78.84634766 190.95328125 78.46027344 189.75 78.0625 C187.13941459 77.18177092 184.52991949 76.29833837 181.921875 75.41015625 C181.18706909 75.16020905 180.45226318 74.91026184 179.69519043 74.65274048 C167.74970485 70.56973535 155.88105228 66.26585763 144 62 C141.60644685 61.14200419 139.21289219 60.28401257 136.81933594 59.42602539 C134.56698999 58.61753774 132.31470856 57.80887031 130.0625 57 C128.50006561 56.43961281 128.50006561 56.43961281 126.90606689 55.86790466 C125.93804138 55.51962112 124.97001587 55.17133759 123.97265625 54.8125 C123.12968994 54.50957031 122.28672363 54.20664062 121.41821289 53.89453125 C119.71562981 53.26472162 118.02681375 52.59705263 116.3495636 51.90258789 C112.00058589 50.23192249 108.9548813 50.6405075 105.05078125 53.0625 Z M-217 59 C-227.92278374 81.48466652 -230.76457263 107.53902444 -226 132 C-220.54187852 130.39911274 -215.70570235 127.94469045 -210.67578125 125.34375 C-209.7749028 124.88198364 -208.87402435 124.42021729 -207.94584656 123.94445801 C-205.06601023 122.46693262 -202.18928673 120.98345263 -199.3125 119.5 C-197.42922504 118.53348663 -195.54576306 117.56733756 -193.66210938 116.6015625 C-183.86517386 111.5720713 -174.09958374 106.48650838 -164.36132812 101.34439087 C-158.87854912 98.4525125 -153.37022806 95.62056889 -147.8125 92.875 C-147.03970703 92.49085938 -146.26691406 92.10671875 -145.47070312 91.7109375 C-143.64812054 90.8053064 -141.82423031 89.90230746 -140 89 C-140 88.34 -140 87.68 -140 87 C-140.66789551 86.75580322 -141.33579102 86.51160645 -142.02392578 86.26000977 C-145.39123854 85.02829257 -148.75818343 83.79557265 -152.125 82.5625 C-152.76150482 82.3294516 -153.39800964 82.0964032 -154.05380249 81.85629272 C-163.44254809 78.41766627 -172.82332261 74.9578852 -182.19921875 71.484375 C-183.24062012 71.09873886 -184.28202148 70.71310272 -185.35498047 70.31578064 C-190.5949666 68.3753179 -195.83432047 66.43317585 -201.07275391 64.48852539 C-203.01331986 63.76962249 -204.95391113 63.05078792 -206.89453125 62.33203125 C-207.80047531 61.99504211 -208.70641937 61.65805298 -209.63981628 61.31085205 C-210.46484146 61.00564636 -211.28986664 60.70044067 -212.13989258 60.38598633 C-212.86437088 60.11716141 -213.58884918 59.84833649 -214.33528137 59.57136536 C-215.86429981 58.94589471 -215.86429981 58.94589471 -217 59 Z M312 59 C295.13315947 64.89701903 278.35615285 71.03637884 261.61206055 77.27252197 C259.40789994 78.09249744 257.20281536 78.90999338 254.99682617 79.72503662 C251.86630884 80.88258172 248.73940445 82.04939849 245.61328125 83.21875 C244.65722488 83.57047272 243.70116852 83.92219543 242.71614075 84.28457642 C241.40899361 84.77696304 241.40899361 84.77696304 240.07543945 85.27929688 C239.30939896 85.56446167 238.54335846 85.84962646 237.75410461 86.14343262 C235.81061597 86.87253271 235.81061597 86.87253271 235 89 C236.4540625 89.72703125 236.4540625 89.72703125 237.9375 90.46875 C238.89499146 90.94755615 238.89499146 90.94755615 239.87182617 91.43603516 C241.31977609 92.15992706 242.76786068 92.88354967 244.21606445 93.60693359 C247.68225914 95.33872744 251.14737419 97.07239233 254.60546875 98.8203125 C262.19739534 102.64928417 269.83692953 106.36985261 277.50341797 110.04736328 C289.54968323 115.82642733 301.5069907 121.71929474 313.26196289 128.07714844 C313.83551514 128.38168945 314.40906738 128.68623047 315 129 C315.65025146 129.36899414 316.30050293 129.73798828 316.97045898 130.11816406 C319.2426361 131.26567217 319.2426361 131.26567217 323 131 C325.73009446 110.52429157 323.77460015 90.75577489 318 71 C317.7510498 70.14470703 317.50209961 69.28941406 317.24560547 68.40820312 C316.99955566 67.61349609 316.75350586 66.81878906 316.5 66 C316.2834375 65.29875 316.066875 64.5975 315.84375 63.875 C314.88981145 61.75513656 313.72622027 60.53441802 312 59 Z M-128 90 C-127.40732434 93.80562398 -126.3000701 96.66851334 -124.4453125 100.03515625 C-123.65386841 101.48341797 -123.65386841 101.48341797 -122.84643555 102.9609375 C-122.27836182 103.98445312 -121.71028809 105.00796875 -121.125 106.0625 C-120.5472583 107.11566406 -119.9695166 108.16882813 -119.37426758 109.25390625 C-117.58875212 112.50589445 -115.79450444 115.75296551 -114 119 C-112.89637875 121.00869904 -111.79348084 123.01779572 -110.69140625 125.02734375 C-108.1340607 129.68846944 -105.56995352 134.34581496 -103 139 C-92.03443465 136.35086121 -81.44836983 132.4682486 -70.8125 128.75 C-69.30175903 128.22327698 -69.30175903 128.22327698 -67.76049805 127.68591309 C-38.88722203 117.60836395 -10.27881766 106.87880583 18.0625 95.390625 C22.68304646 93.51860712 27.32093588 91.72024416 32 90 C32 89.67 32 89.34 32 89 C11.58155672 88.9766589 -8.83688387 88.95901485 -29.25533772 88.94818783 C-38.73557798 88.94302745 -48.21580997 88.93598965 -57.69604492 88.92456055 C-65.95721685 88.91460584 -74.21838279 88.90814469 -82.47956055 88.90591151 C-86.8553979 88.90460574 -91.23121809 88.90152832 -95.60704994 88.89426994 C-99.72325648 88.88749734 -103.83943875 88.88538558 -107.95565033 88.88689232 C-109.46858286 88.88661655 -110.98151617 88.88461876 -112.49444389 88.88079453 C-114.55596246 88.87583794 -116.61738872 88.87700901 -118.6789093 88.87974548 C-120.41141922 88.87836279 -120.41141922 88.87836279 -122.17892933 88.87695217 C-125.08007111 88.87414172 -125.08007111 88.87414172 -128 90 Z M62 89 C64.48327862 90.65551908 66.44692059 91.66860209 69.18237305 92.73657227 C70.02658813 93.06809296 70.87080322 93.39961365 71.74060059 93.74118042 C72.65506958 94.09600494 73.56953857 94.45082947 74.51171875 94.81640625 C75.93865051 95.37474655 75.93865051 95.37474655 77.39440918 95.94436646 C80.49056589 97.1544025 83.58885605 98.35884876 86.6875 99.5625 C88.82529052 100.39490265 90.96306718 101.22734087 93.10083008 102.05981445 C98.21122345 104.04792825 103.32387849 106.03013428 108.43798828 108.00866699 C110.56849932 108.83303712 112.69844866 109.65882871 114.828125 110.48535156 C135.67434302 118.54989808 156.8594616 125.75004423 178 133 C178.86548462 133.29747131 179.73096924 133.59494263 180.62268066 133.90142822 C183.12423358 134.75877596 185.62803434 135.60915868 188.1328125 136.45703125 C188.88480927 136.71506027 189.63680603 136.97308929 190.41159058 137.23893738 C193.39661091 138.24167055 195.82814827 139 199 139 C199.44315552 138.13556274 199.44315552 138.13556274 199.89526367 137.25366211 C206.31538597 124.761949 212.90428744 112.40924327 219.98510742 100.27709961 C220.51080322 99.36581299 221.03649902 98.45452637 221.578125 97.515625 C222.04637695 96.71415039 222.51462891 95.91267578 222.99707031 95.08691406 C224.21657804 92.93524058 224.21657804 92.93524058 224 90 C220.6454705 88.8818235 218.13879532 88.87695918 214.60298157 88.87974548 C213.62520942 88.87846385 213.62520942 88.87846385 212.6276843 88.87715632 C210.43966863 88.87550692 208.25172933 88.88101405 206.0637207 88.88647461 C204.49679567 88.88675662 202.92987051 88.88659847 201.36294556 88.8860321 C197.10498301 88.88574469 192.84704851 88.89163248 188.58909249 88.89860606 C184.1407919 88.9048488 179.6924907 88.90544413 175.2441864 88.90663147 C166.81882147 88.90974206 158.39346949 88.9179518 149.96811026 88.92798096 C140.37693111 88.93915052 130.78575135 88.94465468 121.19456732 88.94967639 C101.46303765 88.96013463 81.73151964 88.97772883 62 89 Z M-144.27734375 96.0234375 C-145.11729385 96.44364166 -145.95724396 96.86384583 -146.82264709 97.29678345 C-148.61505268 98.19450157 -150.40648188 99.09417133 -152.19702148 99.99560547 C-154.86547704 101.33874791 -157.53690485 102.67580337 -160.20898438 104.01171875 C-170.4185399 109.12717497 -180.55665045 114.36419091 -190.6496582 119.70556641 C-194.51498661 121.74951732 -198.39713545 123.75715402 -202.2890625 125.75 C-203.35125 126.29527344 -204.4134375 126.84054687 -205.5078125 127.40234375 C-207.65431014 128.50249103 -209.8028735 129.59861412 -211.953125 130.69140625 C-212.99210937 131.22636719 -214.03109375 131.76132812 -215.1015625 132.3125 C-216.02275879 132.78300781 -216.94395508 133.25351562 -217.89306641 133.73828125 C-220.13668528 134.82537517 -220.13668528 134.82537517 -221 137 C-220.24831543 137.29543701 -219.49663086 137.59087402 -218.72216797 137.89526367 C-199.30494565 145.54620698 -180.10025919 153.59090125 -161 162 C-159.82872559 162.51546387 -158.65745117 163.03092773 -157.45068359 163.56201172 C-148.0704244 167.6918599 -148.0704244 167.6918599 -144.41674805 169.31079102 C-139.43151094 171.51513001 -134.43305706 173.68603518 -129.4140625 175.8125 C-128.42615723 176.23144531 -127.43825195 176.65039062 -126.42041016 177.08203125 C-124.11976896 178.11820481 -124.11976896 178.11820481 -122 178 C-120.48688516 174.30187208 -118.97531247 170.6031178 -117.46508789 166.90380859 C-116.70212593 165.03580942 -115.93798846 163.16829051 -115.17382812 161.30078125 C-114.20490623 158.92660178 -113.24104231 156.55035062 -112.28271484 154.171875 C-111.51762614 152.27997693 -110.74084604 150.39264147 -109.93994141 148.515625 C-108.26909167 144.46830771 -107.83550713 142.19374268 -109 138 C-109.78005852 136.23279984 -110.62604821 134.49390167 -111.51953125 132.78125 C-112.04200439 131.77570068 -112.56447754 130.77015137 -113.1027832 129.73413086 C-113.66698975 128.66686768 -114.23119629 127.59960449 -114.8125 126.5 C-115.38766357 125.40244385 -115.96282715 124.3048877 -116.55541992 123.17407227 C-122.11593601 112.63679939 -127.98629415 102.28414218 -134 92 C-137.69927269 92 -141.01883712 94.37964174 -144.27734375 96.0234375 Z M230 92 C226.64239608 97.23048829 223.55553943 102.53422465 220.6796875 108.04296875 C220.29434845 108.77445633 219.9090094 109.50594391 219.51199341 110.25959778 C218.29676352 112.56738815 217.08560897 114.87728277 215.875 117.1875 C214.65667039 119.50811634 213.43743793 121.82824828 212.21658325 124.14753723 C211.46146423 125.58247758 210.70785883 127.01821585 209.95602417 128.45487976 C208.4632844 131.29494838 206.96675062 134.05255711 205.24975586 136.76660156 C203.26171461 140.31936603 203.98143506 143.24651972 205 147 C206.51273386 151.3795724 208.19869129 155.66341496 209.98266602 159.9387207 C210.81772427 161.95008343 211.62514632 163.97118204 212.43164062 165.99414062 C212.95930512 167.27671446 213.48854581 168.55864122 214.01953125 169.83984375 C214.73266479 171.57802368 214.73266479 171.57802368 215.46020508 173.35131836 C216.72915398 176.06047354 216.72915398 176.06047354 218.85864258 177.0144043 C221.74332149 176.99499989 223.62243677 176.14152311 226.2421875 174.9296875 C227.29196777 174.45233154 228.34174805 173.97497559 229.42333984 173.4831543 C230.5623877 172.95246338 231.70143555 172.42177246 232.875 171.875 C234.70992048 171.04059795 236.54486042 170.20623648 238.38076782 169.37400818 C240.30718227 168.49995272 242.23169555 167.62179439 244.15625 166.74365234 C250.20083904 163.99370691 256.28434109 161.33356295 262.375 158.6875 C263.58365723 158.16164307 264.79231445 157.63578613 266.03759766 157.09399414 C273.3372847 153.93511354 280.67881459 150.89067371 288.0546875 147.9140625 C288.90320282 147.57162003 289.75171814 147.22917755 290.62594604 146.87635803 C294.81098049 145.19032629 298.99956753 143.51374541 303.19287109 141.84838867 C304.71712313 141.23877135 306.24137446 140.6291523 307.765625 140.01953125 C308.46936249 139.74303741 309.17309998 139.46654358 309.89816284 139.18167114 C312.73812679 138.04246604 314.812428 137.187572 317 135 C316.15824219 134.58492187 315.31648437 134.16984375 314.44921875 133.7421875 C305.42856731 129.27115794 296.48790552 124.65818804 287.5625 120 C279.45987749 115.77260518 271.33744685 111.65198265 263.02783203 107.84692383 C256.75125662 104.94926162 250.66321523 101.71477302 244.59179688 98.41113281 C239.82751091 95.8471784 235.10756481 93.79141603 230 92 Z M44 93 C42.50386773 94.8532338 41.05702925 96.72293394 39.625 98.625 C38.70639197 99.83253575 37.78709872 101.03955048 36.8671875 102.24609375 C36.15320801 103.18364502 36.15320801 103.18364502 35.42480469 104.14013672 C33.22619817 107.01007922 30.98917877 109.84917402 28.75 112.6875 C18.95210351 125.13659201 9.22839545 137.63010566 -0.25073242 150.32446289 C-4.81532883 156.43432553 -9.42894172 162.50482037 -14.0625 168.5625 C-20.89313064 177.50317214 -27.59495287 186.53171289 -34.24267578 195.60888672 C-36.08957645 198.12188271 -37.94776117 200.62621168 -39.80859375 203.12890625 C-40.750979 204.39903564 -40.750979 204.39903564 -41.71240234 205.69482422 C-42.90450834 207.3009739 -44.09868682 208.90558846 -45.29541016 210.50830078 C-48.77337352 215.20370608 -51.98506431 219.99434122 -55 225 C-48.40867362 231.15420526 -41.74347506 237.09671519 -34.71484375 242.75390625 C-30.93290521 245.88284821 -27.3524413 249.21517445 -23.7421875 252.5390625 C-21.09984117 254.91039895 -18.39305833 257.15252997 -15.625 259.375 C-10.19108991 263.75944247 -5.10173982 268.45500063 0 273.21484375 C2.9621924 275.97666341 5.9902134 278.65302434 9.0546875 281.30078125 C11.3366529 283.29406428 13.57228574 285.33493027 15.8125 287.375 C20.17205408 291.31395392 24.67817406 295.03011771 29.25 298.71875 C32.92396385 301.76647001 36.42019622 304.99031335 39.90625 308.25 C41.97293358 310.19418031 41.97293358 310.19418031 45 311 C45 239.06 45 167.12 45 93 C44.67 93 44.34 93 44 93 Z M26.546875 96.75390625 C25.41540543 97.1916613 25.41540543 97.1916613 24.26107788 97.63825989 C22.62048207 98.27370427 20.98077725 98.91145263 19.34185791 99.5512085 C16.70888726 100.57854138 14.07332051 101.5989422 11.43701172 102.61767578 C3.54467258 105.6698381 -4.34076952 108.73931334 -12.21850586 111.82896423 C-16.10157954 113.35055819 -19.98737732 114.86506878 -23.875 116.375 C-24.64936401 116.67580475 -25.42372803 116.9766095 -26.22155762 117.28652954 C-42.97819059 123.77244636 -59.94401598 129.64441814 -76.94482422 135.45458984 C-77.96119965 135.80256622 -78.97757507 136.1505426 -80.02474976 136.50906372 C-81.92617789 137.15916691 -83.82848406 137.80671023 -85.73184204 138.45114136 C-90.59022531 140.10992169 -95.31137219 141.90748867 -100 144 C-95.36811961 153.48549973 -90.52709461 162.76122245 -85.21923828 171.89111328 C-76.22318598 187.45136553 -67.55308575 203.19300188 -59 219 C-54.96170739 217.65390246 -53.54163542 214.97364274 -51.1875 211.625 C-50.19709633 210.24574769 -49.20618717 208.86685827 -48.21484375 207.48828125 C-47.69132324 206.75561035 -47.16780273 206.02293945 -46.62841797 205.26806641 C-43.86912025 201.42490662 -41.05900846 197.61939895 -38.25 193.8125 C-37.6629126 193.01585937 -37.0758252 192.21921875 -36.47094727 191.3984375 C-26.3680444 177.70402843 -16.11713788 164.12292775 -5.78759766 150.59887695 C-1.66085079 145.192727 2.43245214 139.76328804 6.5 134.3125 C10.15761783 129.41689155 13.87993539 124.59246892 17.72265625 119.83984375 C20.95117798 115.8138827 24.13448078 111.75338796 27.3125 107.6875 C28.22974854 106.52081787 28.22974854 106.52081787 29.16552734 105.33056641 C32.02250295 101.66840711 34.74585049 98.07699966 37 94 C33.13634032 94 30.08851522 95.36213526 26.546875 96.75390625 Z M51 94 C51 165.61 51 237.22 51 311 C56.29009556 307.03242833 61.08820642 303.21537427 65.8125 298.6875 C70.78400482 293.99252226 75.88142177 289.58314998 81.22265625 285.30859375 C84.42442799 282.64720542 87.46234918 279.84537754 90.5 277 C95.23864143 272.56165094 100.12119579 268.40857547 105.1875 264.34375 C108.39849934 261.66791722 111.45027636 258.85640293 114.5 256 C119.25476671 251.54699019 124.1517369 247.3724546 129.234375 243.29296875 C133.35855396 239.87362829 137.25976909 236.23235736 141.17578125 232.578125 C144.05005834 229.95430359 146.99317397 227.46941695 150 225 C148.54222791 220.61048627 146.14696756 217.40203359 143.25 213.875 C138.79339566 208.32895395 134.50888419 202.6827693 130.3125 196.9375 C123.8549091 188.11275438 117.2466846 179.40968679 110.60546875 170.72265625 C107.88400925 167.16264399 105.18127105 163.59034961 102.5 160 C98.32383897 154.41297376 94.10129582 148.86167641 89.875 143.3125 C89.20533203 142.43271484 88.53566406 141.55292969 87.84570312 140.64648438 C84.67548892 136.4873386 81.49263667 132.33926473 78.27734375 128.21484375 C75.7093369 124.92063824 73.18132955 121.60093213 70.6875 118.25 C67.38762217 113.84452207 64.08376622 109.44241146 60.75 105.0625 C59.96109375 104.02222656 59.1721875 102.98195313 58.359375 101.91015625 C55.69933113 98.52607186 55.69933113 98.52607186 51 94 Z M59 94 C60.41068673 98.1943413 62.4131517 100.92832436 65.3125 104.25 C71.22554572 111.15651558 76.7015527 118.36755171 82.18896484 125.61376953 C84.08418624 128.11092428 85.9883113 130.60107621 87.89453125 133.08984375 C95.06447509 142.45795517 102.15309299 151.87723449 109.12817383 161.39135742 C112.41092015 165.86311512 115.72876236 170.30132148 119.125 174.6875 C122.7021135 179.30745278 126.24322831 183.95140473 129.75 188.625 C130.24193848 189.28040771 130.73387695 189.93581543 131.24072266 190.61108398 C134.09503173 194.42459811 136.92392239 198.25560397 139.734375 202.1015625 C140.36118164 202.9579834 140.98798828 203.8144043 141.63378906 204.69677734 C142.85244899 206.36406483 144.06808361 208.03356898 145.28027344 209.70556641 C147.98126813 213.40088332 150.60118788 216.90108307 154 220 C154.2902002 219.45923828 154.58040039 218.91847656 154.87939453 218.36132812 C160.77637629 207.39896079 166.80203157 196.53552588 173.125 185.8125 C178.24231188 177.12511712 183.101457 168.34915145 187.71875 159.38671875 C190.38749668 154.20813713 193.19475998 149.10556057 196 144 C195.03739258 143.67427002 194.07478516 143.34854004 193.08300781 143.01293945 C152.08912168 129.12636756 111.50019047 114.40875583 71.38525391 98.13232422 C70.68431107 97.84864487 69.98336823 97.56496552 69.26118469 97.27268982 C67.41085305 96.5221661 65.5624019 95.76701082 63.71411133 95.01147461 C61.17039526 93.88359646 61.17039526 93.88359646 59 94 Z M-225 141 C-220.88415375 159.3040119 -214.92623069 176.48429803 -206 193 C-205.61440918 193.72960937 -205.22881836 194.45921875 -204.83154297 195.2109375 C-197.45112761 209.16793112 -188.85476661 221.6652259 -179 234 C-173.22776125 229.17865772 -167.95249406 224.02334033 -162.69335938 218.65429688 C-159.64637996 215.56926985 -156.57509612 212.59028539 -153.27734375 209.7734375 C-147.55877426 204.84330057 -142.31333996 199.41963577 -137 194.0625 C-135.92862113 192.98609346 -134.85700818 191.90991986 -133.78515625 190.83398438 C-131.18740362 188.22533255 -128.59282038 185.61355529 -126 183 C-129.55255389 180.63163074 -133.30051733 178.97961801 -137.1875 177.25 C-138.06132324 176.86005859 -138.93514648 176.47011719 -139.83544922 176.06835938 C-141.80765969 175.19032278 -143.78069443 174.3141361 -145.75439453 173.43945312 C-147.97021917 172.4567164 -150.18468102 171.47090263 -152.39794922 170.48242188 C-169.43059253 162.88126962 -186.58953562 155.63310886 -203.875 148.625 C-204.81611633 148.24239014 -205.75723267 147.85978027 -206.72686768 147.46557617 C-209.3969195 146.38158202 -212.06906509 145.30295912 -214.7421875 144.2265625 C-215.54899963 143.8991507 -216.35581177 143.57173889 -217.18707275 143.23440552 C-220.97368802 141.59126972 -220.97368802 141.59126972 -225 141 Z M314.02734375 142.36328125 C313.22377441 142.66733887 312.42020508 142.97139648 311.59228516 143.28466797 C310.71620605 143.62385254 309.84012695 143.96303711 308.9375 144.3125 C308.01501465 144.66715332 307.0925293 145.02180664 306.14208984 145.38720703 C294.31324623 149.98217456 282.65256503 154.97829511 271 160 C270.01209473 160.42571289 269.02418945 160.85142578 268.00634766 161.29003906 C252.97006993 167.78165061 237.98526275 174.39169817 223 181 C223 184.82607935 224.46322704 185.8141718 227.06384277 188.42938232 C227.65121216 189.00440491 228.23858154 189.57942749 228.84375 190.171875 C229.44626587 190.7725177 230.04878174 191.3731604 230.66955566 191.99200439 C231.95069714 193.26641259 233.23543649 194.5372124 234.5234375 195.8046875 C236.47117644 197.72163215 238.40838494 199.64869664 240.34375 201.578125 C245.83431076 207.03356613 251.32865921 212.42244736 257.22460938 217.44287109 C260.64327793 220.44125779 263.80675084 223.70298619 267 226.9375 C267.67933594 227.62134766 268.35867188 228.30519531 269.05859375 229.00976562 C270.70808359 230.67087159 272.3551668 232.33428513 274 234 C286.50705034 222.43156507 295.31212182 206.03668116 303 191 C303.39026367 190.24396484 303.78052734 189.48792969 304.18261719 188.70898438 C311.92317627 173.55969562 317.98817949 157.78460152 321 141 C318.1061592 141 316.67358783 141.35892313 314.02734375 142.36328125 Z M-105 147 C-106.69157357 151.35959628 -108.3822241 155.71954894 -110.07202148 160.07983398 C-110.64696321 161.56300523 -111.22215673 163.04607889 -111.79760742 164.52905273 C-112.62484953 166.66103908 -113.45118455 168.79337508 -114.27734375 170.92578125 C-114.53466782 171.58838455 -114.79199188 172.25098785 -115.05711365 172.93367004 C-116.09267908 175.60874505 -117.09270383 178.27811148 -118 181 C-106.6874423 189.07333503 -106.6874423 189.07333503 -95.1875 196.875 C-86.32330941 202.71815509 -77.68107181 208.88976192 -69 215 C-68.34 214.67 -67.68 214.34 -67 214 C-72.4478712 203.51249601 -78.11900595 193.17305225 -83.96923828 182.90454102 C-88.44593757 175.03075542 -92.78882251 167.08966012 -97.04223633 159.09301758 C-97.5039624 158.23474365 -97.96568848 157.37646973 -98.44140625 156.4921875 C-98.84045166 155.74308105 -99.23949707 154.99397461 -99.65063477 154.22216797 C-101.22795059 151.62460535 -103.06216005 149.33713217 -105 147 Z M199 148 C198.51140503 148.90987671 198.51140503 148.90987671 198.01293945 149.83813477 C191.89531982 161.21650179 185.73439439 172.56710059 179.375 183.8125 C178.84479248 184.75061523 178.31458496 185.68873047 177.76831055 186.65527344 C175.11861652 191.324959 172.43629258 195.97238936 169.703125 200.59375 C169.18443848 201.47442139 168.66575195 202.35509277 168.13134766 203.26245117 C167.14877243 204.92582204 166.15917336 206.58506967 165.16162109 208.23950195 C164.04750842 210.12535461 163.01450356 212.0587453 162 214 C162.33 214.66 162.66 215.32 163 216 C163.56203125 215.58492188 164.1240625 215.16984375 164.703125 214.7421875 C180.54225253 203.1300664 196.76635356 192.05021313 213 181 C212.40405108 176.4992514 211.23171075 172.69723284 209.49609375 168.5078125 C209.00302734 167.30898438 208.50996094 166.11015625 208.00195312 164.875 C207.48060478 163.62494326 206.95911869 162.37494396 206.4375 161.125 C205.91153536 159.85179948 205.3861391 158.578364 204.86132812 157.3046875 C203.57978638 154.20076989 202.29251196 151.09936178 201 148 C200.34 148 199.68 148 199 148 Z M208.23046875 189.5703125 C207.43415039 190.13000732 206.63783203 190.68970215 205.81738281 191.26635742 C204.51559082 192.1863855 204.51559082 192.1863855 203.1875 193.125 C201.35289156 194.41540293 199.51825537 195.70576642 197.68359375 196.99609375 C196.73983887 197.66108887 195.79608398 198.32608398 194.82373047 199.01123047 C191.30442715 201.48989594 187.78177258 203.96367809 184.25341797 206.42944336 C182.57566302 207.6076678 180.90413323 208.79480372 179.23876953 209.99047852 C175.4681767 212.68073295 171.77296401 215.19562763 167.64453125 217.3046875 C154.61746828 224.27211559 150.46712178 236.17436803 145.29125977 249.28999329 C142.7154303 255.81029404 139.78364198 262.15114909 136.8125 268.5 C135.9210366 270.42609409 135.0315436 272.35310205 134.14453125 274.28125 C133.77690674 275.07595703 133.40928223 275.87066406 133.03051758 276.68945312 C130.71987694 281.65349912 130.71987694 281.65349912 130 287 C130.91773193 287.22550537 131.83546387 287.45101074 132.78100586 287.68334961 C137.16777511 288.76294719 141.55284759 289.8493405 145.9375 290.9375 C146.73734314 291.13575378 147.53718628 291.33400757 148.36126709 291.53826904 C157.49126232 293.80590761 166.60052723 296.12949494 175.66796875 298.63671875 C176.42937668 298.84705246 177.19078461 299.05738617 177.9752655 299.27409363 C181.62491819 300.28530431 185.27100248 301.307947 188.91381836 302.34350586 C190.22637151 302.71087562 191.53895138 303.07814994 192.8515625 303.4453125 C193.99447754 303.77031738 195.13739258 304.09532227 196.31494141 304.43017578 C198.95537989 305.28195641 198.95537989 305.28195641 201 304 C201.59494268 301.35038129 201.59494268 301.35038129 201.92089844 298.07446289 C202.07302795 296.79308945 202.22515747 295.511716 202.38189697 294.19151306 C202.54137827 292.76443007 202.70052707 291.33730988 202.859375 289.91015625 C203.03111723 288.42530983 203.20347283 286.94053425 203.37640381 285.45582581 C203.93308449 280.63891083 204.46827799 275.81972532 205 271 C205.08887482 270.19748558 205.17774963 269.39497116 205.26931763 268.56813812 C206.45244604 257.87529347 207.59691759 247.17858222 208.71972656 236.47924805 C209.16780348 232.21057831 209.6222013 227.94260519 210.07803726 223.67475796 C210.43437832 220.33010403 210.78688725 216.98505442 211.13829803 213.63987923 C211.30443082 212.06380412 211.47186228 210.48786527 211.64069366 208.91207695 C211.87415968 206.7288115 212.10227822 204.54504822 212.32910156 202.36108398 C212.52418304 200.51183571 212.52418304 200.51183571 212.72320557 198.62522888 C213.02110758 194.72355011 213.04632989 190.91128497 213 187 C211.14677044 187 209.69273445 188.53912707 208.23046875 189.5703125 Z M219 187 C217.79227494 189.41545012 217.67562142 191.31200248 217.41503906 194.00488281 C217.31095734 195.05909424 217.20687561 196.11330566 217.09963989 197.19946289 C216.98941498 198.35567139 216.87919006 199.51187988 216.765625 200.703125 C216.64726288 201.90864014 216.52890076 203.11415527 216.4069519 204.35620117 C216.15136649 206.96132232 215.89710314 209.56653268 215.64508057 212.17199707 C214.98329839 219.01137927 214.3086845 225.84949789 213.6328125 232.6875 C213.56486858 233.37608345 213.49692467 234.0646669 213.42692184 234.77411652 C212.49885002 244.16750525 211.52645185 253.55512108 210.4921875 262.9375 C210.37520508 263.99878113 210.25822266 265.06006226 210.13769531 266.15350342 C209.59044535 271.09701404 209.03550507 276.03957682 208.47363281 280.98144531 C208.27665824 282.74283469 208.07971616 284.5042277 207.8828125 286.265625 C207.79248749 287.04010986 207.70216248 287.81459473 207.60910034 288.61254883 C207.07300357 293.43908693 206.92241834 298.14325105 207 303 C213.33041242 298.69531955 218.51535693 293.60990054 223.85717773 288.171875 C226.87381109 285.10705003 229.88316898 282.13428673 233.1875 279.375 C237.08253568 276.07920058 240.44737194 272.33412098 243.85522461 268.55126953 C246.73636615 265.35755839 249.68367547 262.26931103 252.75 259.25 C256.71487648 255.3345081 260.38008762 251.23289525 264 247 C265.31085828 245.49856508 266.62332276 243.99853076 267.9375 242.5 C268.52402344 241.8296875 269.11054687 241.159375 269.71484375 240.46875 C270.13894531 239.9840625 270.56304688 239.499375 271 239 C268.17367494 232.95268286 263.05327875 229.11006087 258.0625 224.84375 C255.6130592 222.65409837 253.31442127 220.32984885 251 218 C249.86754152 216.86219495 248.73505249 215.72442029 247.60253906 214.58666992 C246.9855011 213.96640427 246.36846313 213.34613861 245.73272705 212.70707703 C242.96798905 209.92897814 240.20061305 207.15351339 237.43310547 204.37817383 C235.96965734 202.90965223 234.50710137 201.44024105 233.04541016 199.9699707 C230.93363405 197.84614485 228.81871493 195.72549471 226.703125 193.60546875 C226.0458844 192.94306686 225.3886438 192.28066498 224.71148682 191.59819031 C223.15985602 190.04636561 221.5826075 188.52022088 220 187 C219.67 187 219.34 187 219 187 Z M-127.11328125 190.796875 C-128.10533569 191.72608765 -128.10533569 191.72608765 -129.11743164 192.67407227 C-129.8418042 193.35912842 -130.56617676 194.04418457 -131.3125 194.75 C-132.06072021 195.45503662 -132.80894043 196.16007324 -133.57983398 196.88647461 C-140.53761356 203.48351754 -147.31677295 210.25375272 -154.04614258 217.08300781 C-158.30730092 221.38977023 -162.62430897 225.53834912 -167.23999023 229.46484375 C-169.96689374 231.84336633 -172.47389562 234.41074301 -175 237 C-173.49739411 242.08206195 -170.40833744 245.10386538 -166.8125 248.8125 C-165.53235199 250.15605938 -164.25241071 251.49981576 -162.97265625 252.84375 C-162.31281738 253.53210938 -161.65297852 254.22046875 -160.97314453 254.9296875 C-159.08881034 256.90681617 -157.22587427 258.90140961 -155.37109375 260.90625 C-148.56568763 268.2569729 -141.63396766 275.46695491 -134.5625 282.5625 C-133.8293457 283.30024658 -133.09619141 284.03799316 -132.34082031 284.7980957 C-126.2079245 290.91357643 -119.82760894 296.66593051 -113 302 C-112.11327868 299.03327428 -111.95404347 296.6859085 -112.25265503 293.6111145 C-112.33397675 292.73921478 -112.41529846 291.86731506 -112.49908447 290.96899414 C-112.59461609 290.02032471 -112.69014771 289.07165527 -112.78857422 288.09423828 C-112.8843576 287.08892059 -112.98014099 286.08360291 -113.0788269 285.04782104 C-113.39749063 281.72130887 -113.72596875 278.39584491 -114.0546875 275.0703125 C-114.27846215 272.75874958 -114.50169077 270.44713375 -114.72439575 268.13546753 C-115.19279983 263.28797586 -115.66567481 258.44094909 -116.14208984 253.59423828 C-116.75236783 247.38517294 -117.35492016 241.17539073 -117.95454216 234.96528816 C-118.52685843 229.04169684 -119.10316813 223.11849596 -119.6796875 217.1953125 C-119.84405619 215.50101797 -119.84405619 215.50101797 -120.01174545 213.77249527 C-120.32317129 210.56962662 -120.6374475 207.367051 -120.95263672 204.16455078 C-121.08986145 202.74761932 -121.08986145 202.74761932 -121.2298584 201.30206299 C-121.67269469 196.83333961 -122.1876745 192.42058194 -123 188 C-124.79252037 188 -125.8601708 189.6230092 -127.11328125 190.796875 Z M-118 188 C-116.61120031 202.96062345 -115.21219094 217.92026575 -113.80095863 232.8787899 C-113.14596584 239.82402107 -112.49434147 246.76953779 -111.85058594 253.71582031 C-111.2297739 260.41443469 -110.59965715 267.11211305 -109.96375656 273.80931473 C-109.72221337 276.36958299 -109.48383469 278.93015177 -109.24861526 281.49100876 C-108.91962328 285.06694671 -108.57958003 288.64166827 -108.23681641 292.21630859 C-108.14114883 293.28445297 -108.04548126 294.35259735 -107.94691467 295.45310974 C-107.85160965 296.42348679 -107.75630463 297.39386383 -107.65811157 298.39364624 C-107.57883738 299.2398522 -107.49956318 300.08605816 -107.41788673 300.95790672 C-107.1511423 303.21618346 -107.1511423 303.21618346 -105 305 C-102.29923376 304.55293658 -99.78189449 303.99007649 -97.14453125 303.2890625 C-96.3424675 303.08569275 -95.54040375 302.882323 -94.71403503 302.67279053 C-92.07720828 302.00129174 -89.44499205 301.31327783 -86.8125 300.625 C-85.00482063 300.16124445 -83.19687576 299.6985226 -81.38867188 299.23681641 C-76.80413687 298.06338008 -72.22320506 296.87648986 -67.64312744 295.68579102 C-63.58048922 294.63169096 -59.51485623 293.58933496 -55.44921875 292.546875 C-48.29610674 290.71081437 -41.14670662 288.86085846 -34 287 C-34.64773479 282.66673624 -36.22177599 278.96704047 -38.0625 275.03125 C-38.36968964 274.36209564 -38.67687927 273.69294128 -38.99337769 273.00350952 C-39.99047897 270.83327784 -40.99472313 268.66645549 -42 266.5 C-43.3812222 263.51467786 -44.75894319 260.52777573 -46.1328125 257.5390625 C-46.47136261 256.80285675 -46.80991272 256.066651 -47.15872192 255.30813599 C-49.10653141 251.04371969 -50.94958995 246.75718918 -52.6796875 242.3984375 C-53.05996094 241.44904297 -53.44023437 240.49964844 -53.83203125 239.52148438 C-54.50031896 237.8257356 -55.14816735 236.12170226 -55.76953125 234.40820312 C-58.33616172 227.94756463 -62.32105633 224.83132633 -68 221 C-68.72123047 220.49307617 -69.44246094 219.98615234 -70.18554688 219.46386719 C-72.37946792 217.93171578 -74.59269417 216.43186511 -76.8125 214.9375 C-84.61384202 209.64545723 -92.35578302 204.2753948 -100.06176758 198.84545898 C-104.01088719 196.06857415 -107.97180446 193.30898334 -111.9609375 190.58984375 C-112.68845215 190.09218506 -113.4159668 189.59452637 -114.16552734 189.08178711 C-115.93218023 187.83068111 -115.93218023 187.83068111 -118 188 Z M-50 236 C-47.07342254 245.26155172 -43.27931192 254.06330577 -39.31518555 262.92138672 C-38.48002189 264.80721914 -37.66095435 266.70026231 -36.8581543 268.60009766 C-32.11653476 281.20479467 -32.11653476 281.20479467 -22.25390625 289.4296875 C-20.18038983 289.99556847 -18.09454419 290.51773836 -16 291 C-13.69482304 291.8539296 -11.40069753 292.73815265 -9.1171875 293.6484375 C-6.7038962 294.55933747 -4.28981229 295.46813989 -1.875 296.375 C12.48489086 301.77655987 12.48489086 301.77655987 18.81640625 304.3046875 C19.65349121 304.63807129 20.49057617 304.97145508 21.35302734 305.31494141 C22.87030437 305.92267734 24.38512188 306.53660311 25.89697266 307.15771484 C27.57623208 307.82900653 29.28585117 308.42359864 31 309 C31.66 308.67 32.32 308.34 33 308 C26.09357306 301.51081348 19.14082592 295.21244809 11.74609375 289.27734375 C8.20321701 286.33922549 4.84558228 283.21768822 1.47802734 280.08349609 C-1.73316873 277.11269934 -5.02636841 274.30031679 -8.4375 271.5625 C-12.62237553 268.19653536 -16.58312431 264.66822171 -20.5 261 C-25.27037055 256.53282205 -30.17907056 252.33534051 -35.28125 248.24609375 C-39.2877622 244.93611599 -43.07919752 241.41071845 -46.8828125 237.87109375 C-48.65396813 235.88963069 -48.65396813 235.88963069 -50 236 Z M138.375 241.0625 C137.28188845 242.08271575 136.18813839 243.10224779 135.09375 244.12109375 C134.29517578 244.86721924 134.29517578 244.86721924 133.48046875 245.62841797 C131.03016718 247.89850277 128.50519007 250.07926839 125.98046875 252.265625 C123.68866845 254.27264538 121.44003248 256.32402851 119.1875 258.375 C115.76770672 261.46636801 112.28041476 264.42459032 108.6875 267.3125 C103.23128595 271.725387 98.11384549 276.44471028 92.984375 281.2265625 C89.39599595 284.57139652 85.72257171 287.80549888 82 291 C81.47229004 291.45407227 80.94458008 291.90814453 80.40087891 292.37597656 C74.30061237 297.62477186 68.19321636 302.86094812 62 308 C63.90369164 309.22471824 63.90369164 309.22471824 65.72059631 308.55993652 C66.4110051 308.29459106 67.10141388 308.02924561 67.81274414 307.75585938 C68.5985939 307.45804565 69.38444366 307.16023193 70.19410706 306.85339355 C71.04915329 306.52021118 71.90419952 306.18702881 72.78515625 305.84375 C73.67424179 305.50380005 74.56332733 305.1638501 75.47935486 304.81359863 C77.37473382 304.0873096 79.26870294 303.35733255 81.16137695 302.62402344 C83.99605611 301.5257433 86.83441925 300.43754759 89.67382812 299.3515625 C94.25483651 297.59627896 98.82183648 295.80708618 103.38702393 294.01113892 C105.91012327 293.03477945 108.44537436 292.10119369 110.98779297 291.17651367 C112.51157754 290.60123667 114.0351881 290.02549844 115.55859375 289.44921875 C116.24292984 289.21259521 116.92726593 288.97597168 117.63233948 288.73217773 C124.05046026 286.24374729 126.30837869 281.74511035 129.19628906 275.88500977 C129.46666992 275.20237061 129.73705078 274.51973145 130.015625 273.81640625 C131.38616849 270.46932947 132.82363704 267.17729873 134.359375 263.90234375 C138.62861131 254.74804094 142.55148467 245.49641407 146 236 C142.64541722 236 140.69970466 238.8577801 138.375 241.0625 Z M127 291 C121.77290118 300.73130099 116.6924503 310.49826023 112 320.5 C108.57233872 327.79473228 104.97204735 334.95568418 101.171875 342.0625 C96.9673242 349.96860319 92.98721971 357.98293196 89 366 C84.2086531 375.63065453 79.37059317 385.22485161 74.31787109 394.72192383 C70.73028985 401.47153238 67.28726963 408.29031988 63.92285156 415.15380859 C63.25027679 416.499314 62.55656437 417.83431453 61.85058594 419.16259766 C61.47450195 419.87851074 61.09841797 420.59442383 60.7109375 421.33203125 C60.1857251 422.31200073 60.1857251 422.31200073 59.64990234 423.31176758 C59.43543457 423.86888428 59.2209668 424.42600098 59 425 C59.33 425.66 59.66 426.32 60 427 C61.21623047 425.85724609 61.21623047 425.85724609 62.45703125 424.69140625 C68.50172918 419.04300659 74.61124006 413.5833407 81.06640625 408.40234375 C84.54902819 405.55039636 87.9278908 402.59187887 91.3125 399.625 C96.72754357 394.89139239 102.25659825 390.35934573 107.94067383 385.95361328 C111.69236718 383.04240529 115.3649756 380.05727217 119 377 C123.16810178 373.49813378 127.39336477 370.0941911 131.6875 366.75 C137.77251484 362.00966478 143.72917788 357.1263497 149.66699219 352.20336914 C154.2001832 348.45437281 158.78884072 344.79195555 163.4375 341.1875 C168.34009393 337.3796467 172.99437521 333.39166648 177.56640625 329.1875 C181.06279488 326.04467876 184.71757846 323.10945641 188.37109375 320.15234375 C191.99150687 317.18823137 195.5070741 314.11260732 199 311 C196.06864831 309.04576554 194.05644272 308.32162538 190.69921875 307.40625 C189.59425049 307.10267578 188.48928223 306.79910156 187.35083008 306.48632812 C186.14193115 306.16083984 184.93303223 305.83535156 183.6875 305.5 C182.43541748 305.15904297 181.18333496 304.81808594 179.89331055 304.46679688 C175.59853312 303.29997382 171.29966393 302.14866771 167 301 C166.1790686 300.78053711 165.35813721 300.56107422 164.5123291 300.33496094 C158.44792406 298.71494413 152.38090125 297.10497591 146.3125 295.5 C145.46327972 295.27481689 144.61405945 295.04963379 143.73910522 294.81762695 C141.32287381 294.17777031 138.90574846 293.54141953 136.48828125 292.90625 C135.75936676 292.71289062 135.03045227 292.51953125 134.27944946 292.3203125 C130.68775046 291.3392882 130.68775046 291.3392882 127 291 Z M-38.50756836 292.62060547 C-39.18725174 292.79295715 -39.86693512 292.96530884 -40.56721497 293.1428833 C-42.82516255 293.71607344 -45.08257248 294.29133997 -47.33984375 294.8671875 C-48.49314273 295.16132223 -48.49314273 295.16132223 -49.66974068 295.46139908 C-53.73786057 296.49943538 -57.80548315 297.53939903 -61.87280273 298.58056641 C-65.24651682 299.44376294 -68.62120684 300.30297643 -71.99682617 301.15869141 C-76.06495344 302.18996794 -80.13129938 303.22799805 -84.19644356 304.27096939 C-85.74881454 304.66804846 -87.30179935 305.06273553 -88.85539055 305.45501328 C-91.02632946 306.00371691 -93.19486831 306.56107184 -95.36303711 307.12060547 C-96.59912216 307.43593231 -97.83520721 307.75125916 -99.10874939 308.07614136 C-102.09132786 308.78577401 -102.09132786 308.78577401 -104 311 C-96.68721497 317.30927877 -89.3479419 323.56595583 -81.84765625 329.65234375 C-78.50330484 332.40948394 -75.21948136 335.23170304 -71.9375 338.0625 C-65.37381148 343.71485919 -58.65700101 349.13780771 -51.8359375 354.4765625 C-50.68217901 355.38006449 -49.52853656 356.28371468 -48.375 357.1875 C-47.79008789 357.64560059 -47.20517578 358.10370117 -46.60253906 358.57568359 C-40.57080149 363.31304991 -34.62705487 368.15660789 -28.68359375 373.00390625 C-25.74396592 375.39996053 -22.78469991 377.7693991 -19.8125 380.125 C-15.42816888 383.61922362 -11.15306978 387.23310445 -6.88378906 390.8659668 C-3.47493282 393.7634946 -0.03625139 396.61763123 3.4375 399.4375 C13.16335599 407.36541754 22.65030181 415.54233769 31.79296875 424.13671875 C33.9460234 426.18776233 33.9460234 426.18776233 37 427 C35.34719938 421.16203759 32.53000328 416.07232672 29.6875 410.75 C25.13688043 402.13726897 20.70604512 393.47517622 16.375 384.75 C12.56264623 377.07893822 8.70173767 369.44251773 4.6875 361.875 C-1.46020128 350.27947458 -7.27587471 338.55738605 -12.875 326.6875 C-17.30961195 317.29073541 -22.0762397 308.09892502 -26.97607422 298.93798828 C-28.36237357 296.31413414 -29.68812832 293.66170749 -31 291 C-33.46392443 291 -36.15887846 292.02409122 -38.50756836 292.62060547 Z M-24 293 C-22.62172487 297.4815159 -20.82468401 301.58712082 -18.6875 305.74609375 C-17.96572679 307.17019785 -17.24440554 308.59453107 -16.5234375 310.01904297 C-16.12350586 310.80672058 -15.72357422 311.59439819 -15.31152344 312.40594482 C-12.78872661 317.39577115 -10.30462954 322.40496543 -7.8125 327.41015625 C-6.69034029 329.65962301 -5.56794073 331.90897015 -4.4453125 334.15820312 C-2.71993104 337.61509659 -0.99513197 341.07227253 0.72753906 344.53051758 C9.34034396 361.83294244 9.34034396 361.83294244 18.35302734 378.92871094 C20.86236092 383.60813822 23.22283163 388.36052063 25.58203125 393.1171875 C25.94893066 393.85678711 26.31583008 394.59638672 26.69384766 395.35839844 C27.991275 397.98235431 29.28410259 400.6085528 30.57653809 403.23497009 C31.83467077 405.78820676 33.09787474 408.33891734 34.36175537 410.88931274 C34.99265578 412.16551204 35.62130048 413.44282909 36.24761963 414.72128296 C37.13477747 416.53176879 38.03014035 418.33822692 38.92578125 420.14453125 C39.44567627 421.20003174 39.96557129 422.25553223 40.5012207 423.34301758 C41.98789951 426.25636635 41.98789951 426.25636635 45 429 C45 393.03 45 357.06 45 320 C37.95345753 316.79702615 31.00117092 313.73209283 23.79296875 310.96875 C22.86511063 310.61035034 21.9372525 310.25195068 20.98127747 309.88269043 C19.03491256 309.13166095 17.08793988 308.38220479 15.14038086 307.63427734 C12.20342085 306.50611561 9.26856507 305.3726157 6.33398438 304.23828125 C-3.73113239 300.3559079 -13.81173462 296.54829309 -24 293 Z M114.63720703 294.08886719 C113.17432063 294.65022047 111.71476043 295.22028428 110.2578125 295.796875 C109.4614035 296.10514221 108.66499451 296.41340942 107.8444519 296.73101807 C105.26844806 297.73017827 102.69674919 298.73994599 100.125 299.75 C98.49245623 300.38480612 96.85964589 301.01892714 95.2265625 301.65234375 C80.46819066 307.39298373 65.73875736 313.2097739 51 319 C51 355.3 51 391.6 51 429 C53.57479042 425.56694611 55.34183713 422.53416229 57.22265625 418.71484375 C57.52763535 418.09968399 57.83261444 417.48452423 58.14683533 416.85072327 C59.1225761 414.88152579 60.09296854 412.90976107 61.0625 410.9375 C65.14990674 402.64049994 69.30066379 394.38938323 73.63793945 386.21972656 C78.88615463 376.28718178 83.93409663 366.26070642 88.9453125 356.20703125 C89.85007299 354.39563798 90.75501442 352.58433507 91.66012573 350.77311707 C94.00610362 346.0773998 96.34967418 341.38048537 98.69268799 336.68328857 C101.09831588 331.86167918 103.50629787 327.04124575 105.9140625 322.22070312 C110.61163674 312.81493015 115.30666023 303.40788655 120 294 C117.82763454 292.62173583 117.82763454 292.62173583 114.63720703 294.08886719 Z " fill="#000000" transform="translate(464,284)"/>
</svg>
