<?xml version="1.0" encoding="UTF-8"?>
<svg version="1.1" xmlns="http://www.w3.org/2000/svg" width="1024" height="1024">
<path d="M0 0 C3.91209308 1.59415503 6.37218086 4.13893332 9.3125 7.125 C9.80032959 7.62 10.28815918 8.115 10.79077148 8.625 C14.05292303 11.9600518 17.18187016 15.37997353 20.20703125 18.9296875 C22.33146824 21.3827411 24.54188637 23.74703147 26.75 26.125 C30.95870505 30.73997522 34.86243512 35.51680208 38.68041992 40.45776367 C41.15150284 43.65398533 43.6535657 46.81324264 46.234375 49.921875 C52.95989885 58.0247608 59.05029387 66.27475048 64.76416016 75.11572266 C66.8848397 78.34910961 69.10528765 81.5128779 71.3125 84.6875 C80.3992146 97.84218932 89.27178118 111.1520758 96.98583984 125.16601562 C98.11992322 127.21686645 99.27214198 129.25696351 100.42578125 131.296875 C105.16431113 139.70484862 109.69898222 148.17874303 113.94921875 156.84375 C115.2414078 159.4732067 116.55009422 162.09276051 117.88232422 164.70214844 C122.63359858 174.02842341 126.94899253 183.47563746 131 193.125 C131.3009256 193.83822418 131.6018512 194.55144836 131.91189575 195.2862854 C137.01148807 207.3882829 141.77459136 219.56244268 146 232 C146.27827637 232.79583496 146.55655273 233.59166992 146.84326172 234.41162109 C162.58349993 279.60192732 170.41964943 327.41158017 174 375 C174.08677002 376.1132666 174.08677002 376.1132666 174.17529297 377.24902344 C180.55528794 461.79815563 161.6952816 550.51793136 114.39990234 655.17382812 C113.22103887 657.553759 112.05407928 659.9387533 110.89453125 662.328125 C108.98185327 666.24625638 107.00725137 670.12952649 105 674 C104.27224365 675.40403076 104.27224365 675.40403076 103.52978516 676.83642578 C95.4139537 692.40166478 86.67309371 707.35492408 77 722 C76.10646573 723.36698812 75.21321319 724.73416045 74.3203125 726.1015625 C63.79445057 742.13495007 52.43623395 757.49591546 40.75488281 772.70166016 C38.5332637 775.61127651 36.35959691 778.55326637 34.1875 781.5 C30.23259875 786.7958011 25.99856329 791.81638062 21.69921875 796.83203125 C19.18744975 799.76525598 16.74379672 802.74958736 14.3125 805.75 C10.34525848 810.62669942 6.22094569 815.34200816 2 820 C-6.51440688 816.41899666 -12.23658139 806.5344064 -17.76953125 799.38574219 C-20.92434289 795.32173135 -24.19865434 791.39182214 -27.5625 787.5 C-31.700396 782.68532488 -35.46283062 777.70387562 -39.09667969 772.50073242 C-42.36882384 767.82943374 -45.81444661 763.31630871 -49.3125 758.8125 C-59.65234317 745.42819842 -69.0261555 731.32976024 -78 717 C-78.41427246 716.34273926 -78.82854492 715.68547852 -79.25537109 715.00830078 C-86.50765375 703.47070042 -93.16411314 691.65854921 -99.58740234 679.64160156 C-100.88059248 677.22329577 -102.18346509 674.81048187 -103.48828125 672.3984375 C-128.00903077 626.77913651 -147.97564177 577.70900457 -159 527 C-159.52210412 524.70702412 -160.04424026 522.41405554 -160.56640625 520.12109375 C-172.82258879 464.96827234 -176.39352944 408.13330848 -170 352 C-169.91514343 351.25212219 -169.83028687 350.50424438 -169.74285889 349.73370361 C-161.00619566 273.56630929 -137.6567338 202.41064725 -101 135 C-100.24855713 133.61554688 -100.24855713 133.61554688 -99.48193359 132.203125 C-91.64332723 117.92793944 -82.76294744 104.3632409 -73.75 90.8125 C-73.19446442 89.97547546 -72.63892883 89.13845093 -72.06655884 88.27606201 C-65.38142778 78.2253507 -58.49046187 68.46737822 -51 59 C-50.04755761 57.76028248 -49.09763423 56.51861697 -48.15234375 55.2734375 C-40.11682071 44.75781476 -31.80305466 34.66142818 -22.7734375 24.98828125 C-20.63645686 22.6964159 -18.54776652 20.37241243 -16.5 18 C-11.19586562 11.86462068 -5.73559722 5.73559722 0 0 Z M4 20 C3.74393074 28.80596359 3.5490921 37.6106264 3.43006611 46.41951466 C3.37290554 50.51108562 3.29553643 54.60009121 3.17016602 58.69018555 C3.04969623 62.6456392 2.98468678 66.59864399 2.95635033 70.55579185 C2.9361887 72.0570702 2.89681318 73.55823009 2.83696938 75.0584507 C2.44132857 84.3211513 2.44132857 84.3211513 6.48690796 92.37826538 C9.1255544 95.1572603 12.0447542 97.56361038 15 100 C15.33 100.66 15.66 101.32 16 102 C16.66 102 17.32 102 18 102 C18.25523437 102.58120605 18.51046875 103.16241211 18.7734375 103.76123047 C20.12465211 106.22751988 21.62287769 107.85059506 23.625 109.8203125 C24.33140625 110.52027344 25.0378125 111.22023438 25.765625 111.94140625 C26.50296875 112.66199219 27.2403125 113.38257813 28 114.125 C29.10601563 115.21748047 29.10601563 115.21748047 30.234375 116.33203125 C31.5993103 117.67953125 32.96628733 119.02496843 34.3359375 120.36767578 C35.56366518 121.57198729 36.78392404 122.78392404 38 124 C37.31739158 117.02109305 35.21998654 110.50222182 33.1875 103.8125 C32.99258972 103.16739471 32.79767944 102.52228943 32.59686279 101.8576355 C24.2547991 74.28991188 14.75991574 47.0927816 5 20 C4.67 20 4.34 20 4 20 Z M12 21 C13 23 13 23 13 23 Z M-11 22 C-18.48472307 29.82980569 -25.58582114 37.77579191 -32.18359375 46.3671875 C-34.6858162 49.62229891 -37.27640912 52.79699206 -39.88720703 55.96533203 C-45.82866678 63.18132235 -51.44945149 70.53712983 -56.76855469 78.22265625 C-58.02755008 80.039763 -59.29836459 81.84819181 -60.5703125 83.65625 C-77.07430347 107.24162219 -91.35412153 131.97830096 -104.625 157.5 C-105.20507812 158.61528076 -105.78515625 159.73056152 -106.3828125 160.87963867 C-111.19074787 169.72175294 -111.19074787 169.72175294 -115 179 C-114.67 179.66 -114.34 180.32 -114 181 C-112.97003906 180.27296875 -111.94007813 179.5459375 -110.87890625 178.796875 C-110.19965088 178.31742432 -109.52039551 177.83797363 -108.82055664 177.34399414 C-107.29230921 176.26518265 -105.7641543 175.18624009 -104.23608398 174.10717773 C-100.39906744 171.39788929 -96.56097414 168.69018049 -92.71875 165.98828125 C-85.33680031 160.79338351 -77.99120223 155.55445482 -70.6875 150.25 C-64.67341151 145.88367763 -58.60812715 141.64746757 -52.3828125 137.5859375 C-51.59648437 137.06257813 -50.81015625 136.53921875 -50 136 C-49.32501968 135.5593924 -48.65003937 135.11878479 -47.9546051 134.66482544 C-45.70698432 132.75042531 -45.1847527 131.57529847 -44.34350586 128.77685547 C-44.07858337 127.92137115 -43.81366089 127.06588684 -43.54071045 126.18447876 C-43.13190643 124.78991959 -43.13190643 124.78991959 -42.71484375 123.3671875 C-42.41741272 122.39534515 -42.11998169 121.42350281 -41.8135376 120.42221069 C-41.17521106 118.33184365 -40.54311076 116.23956725 -39.91659546 114.14562988 C-38.59995916 109.74745811 -37.25222384 105.3590437 -35.90522766 100.97009277 C-35.22826019 98.76422929 -34.552715 96.55792883 -33.87858582 94.35119629 C-31.10234589 85.27606177 -28.20434854 76.24777682 -25.1875 67.25 C-24.97072601 66.60092682 -24.75395203 65.95185364 -24.53060913 65.28311157 C-22.128124 58.10133554 -19.64236993 50.95327208 -17.06640625 43.83203125 C-16.82806564 43.17192047 -16.58972504 42.51180969 -16.34416199 41.83169556 C-15.21115229 38.6988832 -14.06739235 35.57107595 -12.90698242 32.44824219 C-12.50970947 31.36317383 -12.11243652 30.27810547 -11.703125 29.16015625 C-11.34895508 28.20761963 -10.99478516 27.25508301 -10.62988281 26.27368164 C-9.7246505 23.99255543 -9.7246505 23.99255543 -11 22 Z M-3 22 C-2 24 -2 24 -2 24 Z M13 23 C13.79290272 28.04327521 15.54042907 32.73541776 17.2109375 37.5390625 C17.88045119 39.48431943 18.5497964 41.42963436 19.21899414 43.375 C19.57091827 44.39464844 19.92284241 45.41429687 20.28543091 46.46484375 C25.72872065 62.25241172 31.07753965 78.06134912 36.0625 94 C36.2857193 94.70824921 36.5089386 95.41649841 36.73892212 96.14620972 C38.91702833 103.05785537 41.02356081 109.97216767 42.875 116.98046875 C45.91270945 129.97861326 45.91270945 129.97861326 54.84765625 139.2265625 C56.40806641 140.10441406 56.40806641 140.10441406 58 141 C60.12553113 142.42202158 62.21931825 143.8856509 64.31616211 145.34960938 C66.74924683 147.04297422 69.20010684 148.70747111 71.65625 150.3671875 C77.36742367 154.2377631 83.02894928 158.17804396 88.6875 162.125 C97.76695538 168.45301334 106.86984816 174.74538219 116 181 C116.33 180.34 116.66 179.68 117 179 C116.39144128 177.09490238 116.39144128 177.09490238 115.33203125 174.984375 C114.93959229 174.15671631 114.54715332 173.32905762 114.14282227 172.47631836 C113.70381592 171.5766333 113.26480957 170.67694824 112.8125 169.75 C112.13562134 168.34729858 112.13562134 168.34729858 111.44506836 166.91625977 C106.77371723 157.34776889 101.68297556 148.0221127 96.50683594 138.71972656 C95.00314372 136.00567418 93.51827911 133.28214669 92.0390625 130.5546875 C84.99528066 117.58395204 77.29815736 105.31495703 68.89453125 93.1875 C66.98144303 90.4263683 65.08336917 87.65595579 63.19921875 84.875 C55.36964 73.33914446 47.0302786 62.36888988 38.1484375 51.6171875 C36.06674406 49.0813064 34.0308399 46.51417829 32 43.9375 C28.51337712 39.56008325 24.8238543 35.40491991 21.05078125 31.2734375 C19.31110293 29.34487982 17.63980754 27.38813549 16 25.375 C15.34 24.59125 14.68 23.8075 14 23 C13.67 23 13.34 23 13 23 Z M-4 24 C-12.46042977 48.00375579 -20.83021112 72.03503191 -28.62423706 96.26486206 C-29.29111924 98.33737643 -29.96097885 100.40893511 -30.63381958 102.47952271 C-31.57010417 105.36620857 -32.49414383 108.25650089 -33.4140625 111.1484375 C-33.69339127 112.00556839 -33.97272003 112.86269928 -34.26051331 113.74580383 C-34.62970131 114.92229744 -34.62970131 114.92229744 -35.00634766 116.12255859 C-35.22376617 116.80305267 -35.44118469 117.48354675 -35.66519165 118.18466187 C-36.19288289 120.2264337 -36.19288289 120.2264337 -35 123 C-29.40777264 117.49878538 -23.90763368 112.00968097 -18.81640625 106.03515625 C-15.84120237 102.70164824 -12.62867211 99.60940893 -9.4296875 96.4921875 C-8.62789062 95.66976562 -7.82609375 94.84734375 -7 94 C-5.70461304 92.87343994 -5.70461304 92.87343994 -4.38305664 91.72412109 C-0.29105829 86.73034018 -1.35100013 80.0266069 -1.44140625 73.921875 C-1.44566053 72.54519092 -1.44798539 71.16849965 -1.44847107 69.79180908 C-1.45461758 66.91686142 -1.47723195 64.04269873 -1.51293945 61.16796875 C-1.55838186 57.480088 -1.57297534 53.79291318 -1.57667637 50.10477829 C-1.58109879 47.26691715 -1.59638876 44.42920455 -1.6155529 41.59140778 C-1.62443791 40.23102285 -1.63116656 38.8706221 -1.63571358 37.51021576 C-1.64473382 35.61448115 -1.66879883 33.71883597 -1.69360352 31.82324219 C-1.70424332 30.7443573 -1.71488312 29.66547241 -1.72584534 28.55389404 C-1.74760662 25.83399685 -1.74760662 25.83399685 -4 24 Z M4 98 C4 155.09 4 212.18 4 271 C5.80286013 267.39427974 6.85773956 264.28697487 7.91918945 260.421875 C8.19367574 259.4291861 8.19367574 259.4291861 8.4737072 258.41644287 C9.08674524 256.19537913 9.69377318 253.97271865 10.30078125 251.75 C10.74007501 250.15289915 11.17972582 248.55589648 11.6197052 246.95898438 C12.57481186 243.48956283 13.52730126 240.01943585 14.47808838 236.54882812 C16.03751317 230.85875151 17.60708122 225.1714955 19.17724609 219.484375 C21.67997499 210.41549538 24.17020196 201.34325133 26.65086174 192.26831055 C28.07635551 187.05431825 29.50579513 181.84147061 30.94360352 176.63085938 C32.36415243 171.48236631 33.7753032 166.33138499 35.1797123 161.1784668 C35.71024404 159.23824564 36.24412728 157.29893756 36.7814846 155.3605957 C37.52246389 152.68548065 38.25133095 150.00734735 38.97729492 147.328125 C39.30977486 146.14413116 39.30977486 146.14413116 39.64897156 144.93621826 C40.63595882 141.24467334 41.32801656 138.61904531 40 135 C38.00678515 132.81612982 36.01250504 130.78142538 33.875 128.75 C32.67521298 127.58264842 31.47727971 126.4133884 30.28125 125.2421875 C29.70761719 124.68112305 29.13398437 124.12005859 28.54296875 123.54199219 C26.72667554 121.72684853 25.03378445 119.83464242 23.375 117.875 C18.90417832 112.61060747 13.9122605 107.8470535 9 103 C7.35 101.35 5.7 99.7 4 98 Z M-7.65625 102.51953125 C-8.1409375 103.00808594 -8.625625 103.49664062 -9.125 104 C-10.05570313 104.928125 -10.98640625 105.85625 -11.9453125 106.8125 C-14.16469146 109.07965424 -16.24498953 111.43106282 -18.3046875 113.84375 C-20.8741059 116.81492687 -23.5632617 119.54147883 -26.4375 122.21875 C-27.18644531 122.92386719 -27.93539062 123.62898438 -28.70703125 124.35546875 C-30.25242489 125.80081987 -31.81278674 127.23031083 -33.38671875 128.64453125 C-34.12535156 129.34964844 -34.86398437 130.05476563 -35.625 130.78125 C-36.29789063 131.40064453 -36.97078125 132.02003906 -37.6640625 132.65820312 C-40.67015717 137.92765856 -37.49681134 145.35740241 -36.00752258 150.88983154 C-35.73820419 151.86849182 -35.4688858 152.8471521 -35.19140625 153.85546875 C-34.90923752 154.89785706 -34.62706879 155.94024536 -34.33634949 157.01422119 C-33.4167806 160.40670791 -32.48967214 163.7970842 -31.5625 167.1875 C-30.92102728 169.5487677 -30.28008114 171.91017852 -29.63964844 174.27172852 C-28.35833137 178.99374055 -27.07425513 183.71498725 -25.78759766 188.43554688 C-23.62664964 196.36584671 -21.48453425 204.30117678 -19.34420776 212.23706055 C-18.75310423 214.42600456 -18.16020464 216.61445373 -17.56665039 218.80273438 C-15.67296886 225.78645481 -13.79116089 232.77295052 -11.93804932 239.76756287 C-11.0179997 243.23805881 -10.09299847 246.7072264 -9.16760254 250.17630005 C-8.72623566 251.83651015 -8.28730919 253.49737115 -7.85095215 255.15890503 C-7.25047001 257.44484328 -6.64177836 259.72844666 -6.03125 262.01171875 C-5.8546283 262.69308899 -5.67800659 263.37445923 -5.49603271 264.07647705 C-4.69322972 267.04879962 -4.21656099 268.78343901 -2 271 C-1.97664707 249.3122601 -1.95900904 227.62452227 -1.94818783 205.93677235 C-1.94302997 195.86694226 -1.93599695 185.79711999 -1.92456055 175.72729492 C-1.91459816 166.95117856 -1.90814286 158.17506785 -1.90591151 149.39894599 C-1.90460705 144.75141334 -1.90153788 140.10389687 -1.89426994 135.4563694 C-1.88748524 131.08243339 -1.88538805 126.70852024 -1.88689232 122.33457947 C-1.8866171 120.72895877 -1.8846265 119.12333732 -1.88079453 117.51772118 C-1.87581904 115.32553216 -1.87701597 113.13342942 -1.87974548 110.9412384 C-1.87882369 109.71433194 -1.8779019 108.48742548 -1.87695217 107.22334003 C-1.98653476 104.35273313 -2.33553964 101.78768354 -3 99 C-5.06601898 99 -6.27789509 101.14502649 -7.65625 102.51953125 Z M53 145 C55.0341382 152.44729094 57.73837118 159.42610841 60.8125 166.5 C61.79321184 168.78709846 62.77229194 171.0748971 63.75 173.36328125 C64.00775711 173.96574173 64.26551422 174.56820221 64.53108215 175.18891907 C67.86264001 182.99225761 71.08570276 190.84041479 74.3125 198.6875 C74.60250885 199.39148926 74.8925177 200.09547852 75.1913147 200.82080078 C76.04124884 202.88405261 76.88993475 204.94781369 77.73828125 207.01171875 C78.01005692 207.6714267 78.28183258 208.33113464 78.56184387 209.01083374 C79.967475 212.43482925 81.34400265 215.86748367 82.68115234 219.31884766 C82.95219284 220.01363724 83.22323334 220.70842682 83.50248718 221.42427063 C84.01811265 222.75022582 84.52800767 224.07842794 85.03132629 225.40910339 C86.21488305 228.87035376 86.21488305 228.87035376 89 231 C90.11743883 229.57780513 91.23487417 228.15560752 92.35229492 226.73339844 C93.33807744 225.4787961 94.3239187 224.22423992 95.30981445 222.96972656 C97.84070499 219.74910323 100.37077565 216.52784563 102.8984375 213.3046875 C103.36233887 212.71357178 103.82624023 212.12245605 104.30419922 211.51342773 C105.22333116 210.34172107 106.14163151 209.16936158 107.05908203 207.99633789 C110.50783617 203.59570761 114.04382694 199.27239072 117.63671875 194.98828125 C119.28274843 192.9894193 119.28274843 192.9894193 119 190 C117.47970968 188.5427916 117.47970968 188.5427916 115.40625 187.25 C114.63104004 186.72954102 113.85583008 186.20908203 113.05712891 185.67285156 C112.21327637 185.12081055 111.36942383 184.56876953 110.5 184 C108.74720659 182.82840807 106.99460542 181.6565285 105.2421875 180.484375 C104.35885742 179.89849609 103.47552734 179.31261719 102.56542969 178.70898438 C98.89155203 176.26159728 95.25712278 173.75874884 91.625 171.25 C90.31517717 170.34885221 89.00528281 169.44780839 87.6953125 168.546875 C84.29299729 166.20348855 80.89577846 163.85284896 77.5 161.5 C72.44042618 157.99575314 67.37911496 154.49406094 62.3125 151 C61.61640625 150.51853516 60.9203125 150.03707031 60.203125 149.54101562 C56.70515176 147.09976149 56.70515176 147.09976149 53 145 Z M-61.375 151.125 C-62.92411939 152.23227434 -64.47361394 153.33902397 -66.0234375 154.4453125 C-66.83780273 155.02829102 -67.65216797 155.61126953 -68.49121094 156.21191406 C-72.64100637 159.16959232 -76.8214873 162.08310868 -81 165 C-82.68376918 166.17813474 -84.36736357 167.35651931 -86.05078125 168.53515625 C-88.49879265 170.24909964 -90.94691296 171.96288127 -93.39599609 173.67529297 C-105.40074917 182.06347567 -105.40074917 182.06347567 -117 191 C-112.59733024 200.66329567 -104.4112985 209.05667891 -97.6940918 217.21582031 C-93.99754674 221.71675641 -90.45878855 226.31394934 -87 231 C-84.17822604 229.58911302 -84.04073087 228.0071141 -82.92578125 225.078125 C-82.51295898 224.00796143 -82.10013672 222.93779785 -81.67480469 221.83520508 C-81.22524414 220.6520874 -80.77568359 219.46896973 -80.3125 218.25 C-79.32617037 215.69583538 -78.33817945 213.14237883 -77.34765625 210.58984375 C-77.08435516 209.90979782 -76.82105408 209.22975189 -76.54977417 208.52909851 C-73.20793514 199.92013492 -69.7271879 191.36746357 -66.25 182.8125 C-65.63059434 181.28614129 -65.01120916 179.75977427 -64.3918457 178.23339844 C-63.78740007 176.74539073 -63.18282809 175.25743434 -62.578125 173.76953125 C-62.28568405 173.04957977 -61.9932431 172.3296283 -61.69194031 171.58786011 C-60.14111326 167.77733594 -58.5753525 163.97364409 -56.99023438 160.17724609 C-56.66464539 159.39508224 -56.3390564 158.6129184 -56.00360107 157.80705261 C-55.37876844 156.30798246 -54.75100637 154.81012904 -54.11993408 153.31367493 C-52.5439933 149.77769132 -52.5439933 149.77769132 -52 146 C-55.63654151 146 -58.50376738 149.04903685 -61.375 151.125 Z M-45 146 C-45.27038086 146.69633545 -45.54076172 147.3926709 -45.81933594 148.11010742 C-52.02749262 164.07152283 -58.412376 179.94154868 -64.9921875 195.75390625 C-68.07100464 203.1553344 -71.10375168 210.57494075 -74.125 218 C-74.58648437 219.13381104 -75.04796875 220.26762207 -75.5234375 221.43579102 C-76.68401968 224.28983564 -77.84432038 227.14396675 -79 230 C-79.39558105 230.81210937 -79.79116211 231.62421875 -80.19873047 232.4609375 C-81.23202555 235.73524245 -80.90476171 237.70408234 -80 241 C-78.68345945 243.39623041 -78.68345945 243.39623041 -76.9296875 245.61328125 C-72.74481281 251.32080157 -68.92789586 257.22035074 -65.125 263.1875 C-64.42101074 264.29101807 -63.71702148 265.39453613 -62.99169922 266.53149414 C-39.57105189 303.35350611 -19.26583979 342.08941105 -4 383 C-3.67 383 -3.34 383 -3 383 C-1.39057205 371.28694101 -1.85668508 359.4622891 -1.973526 347.66729736 C-2.01554491 342.43197681 -1.95237621 337.20767054 -1.82917786 331.9737854 C-1.21446531 303.62089629 -5.81832246 279.22774608 -14.12548828 252.20068359 C-17.04415126 242.64637287 -19.62858441 232.99872744 -22.24539185 223.35836792 C-23.11782261 220.15138351 -23.9978976 216.94659858 -24.88061523 213.74243164 C-29.25677666 197.84588559 -33.4835457 181.91268156 -37.62548828 165.95361328 C-37.84002655 165.12731415 -38.05456482 164.30101501 -38.27560425 163.44967651 C-38.66927962 161.93164413 -39.06204587 160.41337552 -39.4536438 158.89480591 C-40.57164083 154.57598653 -41.75813922 150.28434985 -43 146 C-43.66 146 -44.32 146 -45 146 Z M45 146 C44.71503662 147.07515869 44.43007324 148.15031738 44.13647461 149.25805664 C32.67139836 192.48893588 20.90682484 235.63720007 8.94750977 278.73388672 C8.68763779 279.67080856 8.42776581 280.60773041 8.16001892 281.57304382 C7.67797389 283.31049436 7.19547203 285.04781824 6.7124176 286.7849884 C6.39385048 287.93302193 6.39385048 287.93302193 6.06884766 289.10424805 C5.88536774 289.76442429 5.70188782 290.42460052 5.5128479 291.1047821 C5.34360809 291.73020401 5.17436829 292.35562592 5 293 C4.82690276 293.62026345 4.65380552 294.24052691 4.47546291 294.87958622 C3.68853141 298.38905114 3.87055738 301.95285733 3.88647461 305.53222656 C3.88632858 306.39112488 3.88618256 307.25002319 3.8860321 308.13494873 C3.88672804 310.97019996 3.89450555 313.80538526 3.90234375 316.640625 C3.90420906 318.60788945 3.90563243 320.57515436 3.90663147 322.54241943 C3.91044773 327.71766444 3.92027044 332.89288133 3.93133545 338.06811523 C3.9415687 343.35009379 3.9461332 348.63207689 3.95117188 353.9140625 C3.96189349 364.27605401 3.97895925 374.63802467 4 385 C5.59610678 381.85353515 6.97453522 378.68347414 8.28515625 375.40625 C20.56719884 344.86410048 34.58166841 315.90514639 51.453125 287.59716797 C52.82119546 285.30020876 54.17866296 282.99750128 55.53125 280.69140625 C61.1252164 271.19693824 67.19239983 262.0503641 73.39941406 252.94775391 C74.33888462 251.56954092 75.27618001 250.18984243 76.21118164 248.80859375 C77.09063196 247.50951772 77.97499257 246.21374789 78.86499023 244.921875 C81.75786479 240.77028117 81.75786479 240.77028117 83 236 C82.21598259 233.50477125 81.36355655 231.21279344 80.34375 228.81640625 C80.05004517 228.10102692 79.75634033 227.38564758 79.45373535 226.64859009 C78.47950483 224.28213535 77.48976081 221.92249642 76.5 219.5625 C75.81655203 217.91038998 75.13427704 216.25779427 74.453125 214.60473633 C73.02910622 211.151005 71.59997047 207.69945175 70.16796875 204.24902344 C68.05166456 199.13857056 65.97297649 194.0134855 63.90625 188.8828125 C63.57645142 188.06471603 63.24665283 187.24661957 62.90686035 186.4037323 C61.63170467 183.23967834 60.35709103 180.07540814 59.08422852 176.91043091 C54.9031028 166.52421231 50.54182028 156.23376337 46 146 C45.67 146 45.34 146 45 146 Z M-119 201 C-117.68822561 215.31417595 -115.91101562 229.52210013 -113.875 243.75 C-113.59468192 245.73041639 -113.31473239 247.71088498 -113.03515625 249.69140625 C-112.36099394 254.4615466 -111.6819323 259.23096451 -111 264 C-106.1383127 259.15740967 -101.51468241 254.16731507 -97 249 C-95.92492187 247.77603516 -95.92492187 247.77603516 -94.828125 246.52734375 C-94.18359375 245.75519531 -93.5390625 244.98304688 -92.875 244.1875 C-92.29492188 243.50042969 -91.71484375 242.81335938 -91.1171875 242.10546875 C-89.82863785 240.05894104 -89.82863785 240.05894104 -89.953125 237.703125 C-91.5059835 233.69350528 -94.10307147 230.81101951 -96.875 227.5625 C-98.05972401 226.14286956 -99.24329637 224.72227732 -100.42578125 223.30078125 C-101.02342285 222.58615723 -101.62106445 221.8715332 -102.23681641 221.13525391 C-105.37754132 217.33176732 -108.38728386 213.42606345 -111.39599609 209.51782227 C-113.76592216 206.46730909 -116.2455994 203.70325211 -119 201 Z M120 201 C119.07657089 202.08515855 118.19564408 203.20650211 117.33203125 204.33984375 C116.77459229 205.06534424 116.21715332 205.79084473 115.64282227 206.53833008 C115.03881592 207.33005615 114.43480957 208.12178223 113.8125 208.9375 C109.94991311 213.9847684 106.0622263 218.98091922 101.921875 223.8046875 C101.27500732 224.56273682 100.62813965 225.32078613 99.96166992 226.10180664 C98.71376757 227.55440413 97.45378263 228.99672455 96.1809082 230.42749023 C92.90278609 234.07757342 92.90278609 234.07757342 91.90234375 238.69140625 C93.16734755 241.35196585 94.59928924 243.36979159 96.5 245.625 C97.21542969 246.48351562 97.93085937 247.34203125 98.66796875 248.2265625 C99.43753906 249.14179688 100.20710938 250.05703125 101 251 C102.60446144 252.99976353 104.20863285 254.9997598 105.8125 257 C108.15741115 259.92180079 109.87007615 261.9133841 113 264 C114.04798249 256.67244157 115.09144276 249.34425401 116.12921143 242.01524162 C116.61128271 238.61173083 117.09488066 235.20845187 117.58203125 231.80566406 C118.14263394 227.8893215 118.69648217 223.97203794 119.25 220.0546875 C119.42499023 218.83884979 119.59998047 217.62301208 119.78027344 216.37033081 C119.94043945 215.22960114 120.10060547 214.08887146 120.265625 212.91357422 C120.40774414 211.91429901 120.54986328 210.9150238 120.69628906 209.88546753 C121.01029365 206.90220304 121.05230346 203.99746837 121 201 C120.67 201 120.34 201 120 201 Z M-126 205 C-139.27467198 237.85295915 -148.95227192 271.11768746 -156 305.8125 C-156.14792999 306.5299942 -156.29585999 307.2474884 -156.44827271 307.98672485 C-158.35859208 317.32604906 -159.56718641 326.47343707 -160 336 C-156.75192055 332.84730334 -154.40252609 329.72450204 -152 325.875 C-151.20585777 324.61628372 -150.41020841 323.35851741 -149.61328125 322.1015625 C-149.19127441 321.43543945 -148.76926758 320.76931641 -148.33447266 320.08300781 C-146.0005048 316.4398659 -143.59354253 312.845788 -141.1875 309.25 C-140.68589355 308.49968506 -140.18428711 307.74937012 -139.66748047 306.97631836 C-138.63688296 305.43532815 -137.60595535 303.89455866 -136.57470703 302.35400391 C-133.91977516 298.38518948 -131.27280002 294.41107436 -128.625 290.4375 C-127.67972447 289.01950661 -126.73441317 287.60153705 -125.7890625 286.18359375 C-125.33950195 285.49765137 -124.88994141 284.81170898 -124.42675781 284.10498047 C-123.43178741 282.63704158 -122.3903323 281.20000995 -121.31542969 279.78955078 C-120.76532227 279.04560059 -120.21521484 278.30165039 -119.6484375 277.53515625 C-119.14231934 276.88039307 -118.63620117 276.22562988 -118.11474609 275.55102539 C-114.84737381 268.07385215 -117.65545437 257.99656803 -118.75 250.21484375 C-118.92756836 248.91801163 -119.10513672 247.6211795 -119.28808594 246.28504944 C-119.75622927 242.86656788 -120.23156587 239.44912554 -120.70849609 236.03186035 C-121.19549732 232.53291558 -121.67556657 229.03302039 -122.15625 225.53320312 C-123.0974504 218.68786546 -124.04626662 211.84360245 -125 205 C-125.33 205 -125.66 205 -126 205 Z M127 205 C125.94878261 212.38841468 124.90512234 219.77786451 123.87078857 227.16866112 C123.39014397 230.60141009 122.90701778 234.03376949 122.41796875 237.46533203 C121.85432165 241.42114862 121.30192404 245.37846812 120.75 249.3359375 C120.57500977 250.55300385 120.40001953 251.77007019 120.21972656 253.02401733 C117.87473527 266.28540204 117.87473527 266.28540204 122.04614258 278.44799805 C122.48466553 279.02203369 122.92318848 279.59606934 123.375 280.1875 C124.30393202 281.48919343 125.23230241 282.79128781 126.16015625 284.09375 C126.63598145 284.74472656 127.11180664 285.39570313 127.60205078 286.06640625 C129.75890607 289.04969195 131.78355041 292.11645531 133.8125 295.1875 C134.21573486 295.79223145 134.61896973 296.39696289 135.03442383 297.02001953 C138.58209915 302.34256161 142.07648047 307.69943187 145.5625 313.0625 C146.11172119 313.9073999 146.66094238 314.7522998 147.22680664 315.62280273 C149.76498212 319.53400884 152.29275899 323.45111991 154.79296875 327.38671875 C155.2118335 328.04470459 155.63069824 328.70269043 156.06225586 329.38061523 C156.83582707 330.59813523 157.60633387 331.81760942 158.37329102 333.03930664 C159.2227967 334.37645754 160.10730306 335.69128895 161 337 C161.33 337 161.66 337 162 337 C161.49943388 327.26044018 160.33143595 317.89511591 158.5 308.3125 C158.37095276 307.63425171 158.24190552 306.95600342 158.10894775 306.25720215 C153.58129841 282.64742998 147.41986315 259.54999758 139.8125 236.75 C139.56651062 236.01213257 139.32052124 235.27426514 139.06707764 234.51403809 C135.71853668 224.53199688 132.00708563 214.73565551 128 205 C127.67 205 127.34 205 127 205 Z M-85 245 C-86.71933199 252.15682527 -87.80043745 259.28738759 -88.7265625 266.5859375 C-88.87910492 267.76467438 -89.03164734 268.94341125 -89.18881226 270.15786743 C-89.50835113 272.63347808 -89.82591514 275.10934436 -90.14160156 277.58544922 C-90.62619956 281.38440381 -91.11728789 285.1824777 -91.609375 288.98046875 C-91.91964985 291.39057624 -92.22955865 293.80073088 -92.5390625 296.2109375 C-92.68590485 297.34840424 -92.83274719 298.48587097 -92.98403931 299.6578064 C-93.11772919 300.70965118 -93.25141907 301.76149597 -93.38916016 302.84521484 C-93.50748199 303.77071136 -93.62580383 304.69620789 -93.74771118 305.64974976 C-94.05336617 308.10318515 -94.05336617 308.10318515 -94 311 C-92.02402623 312.96495357 -92.02402623 312.96495357 -89.375 314.9375 C-87.87259766 316.12666016 -87.87259766 316.12666016 -86.33984375 317.33984375 C-85.79827637 317.76765137 -85.25670898 318.19545898 -84.69873047 318.63623047 C-81.72271728 321.02542416 -78.83091302 323.51191764 -75.9375 326 C-75.34356445 326.50998535 -74.74962891 327.0199707 -74.13769531 327.54541016 C-69.77542983 331.30387279 -65.47867274 335.13007417 -61.21484375 339 C-59.22587498 340.79603529 -57.21436806 342.55953303 -55.1875 344.3125 C-43.88613442 354.17550996 -32.70079583 364.36727939 -22.9375 375.7734375 C-20.36437924 378.73045128 -17.71524828 381.61446556 -15.0625 384.5 C-14.56500244 385.04124512 -14.06750488 385.58249023 -13.55493164 386.14013672 C-12.37067309 387.42741933 -11.18544151 388.71380668 -10 390 C-8.65707944 385.97123831 -9.97276842 383.38282133 -11.375 379.5625 C-11.64683105 378.81097656 -11.91866211 378.05945313 -12.19873047 377.28515625 C-15.6470522 367.97219851 -19.78825143 358.98698459 -24 350 C-24.43554199 349.06188477 -24.87108398 348.12376953 -25.31982422 347.15722656 C-36.5068175 323.11700685 -48.6076936 299.29780803 -63 277 C-63.60263672 276.06510742 -64.20527344 275.13021484 -64.82617188 274.16699219 C-68.61876967 268.29767459 -72.43188451 262.44211197 -76.27978516 256.60888672 C-77.44073112 254.84819007 -78.59654379 253.08409943 -79.74755859 251.31689453 C-80.28848145 250.4917334 -80.8294043 249.66657227 -81.38671875 248.81640625 C-81.86713623 248.0797876 -82.34755371 247.34316895 -82.8425293 246.58422852 C-83.41547729 245.8000354 -83.41547729 245.8000354 -84 245 C-84.33 245 -84.66 245 -85 245 Z M86 245 C68.71488634 267.64319078 54.67847164 293.08783407 41 318 C40.47470703 318.95438965 39.94941406 319.9087793 39.40820312 320.89208984 C28.83647387 340.22937453 19.61315982 360.44857307 12.125 381.1875 C11.88023926 381.85765137 11.63547852 382.52780273 11.38330078 383.21826172 C10.28384289 386.42565762 9.896012 387.688036 11 391 C11.42555176 390.50878662 11.85110352 390.01757324 12.28955078 389.51147461 C21.77309088 378.61203443 31.74132062 368.17087526 41.9375 357.9375 C42.62247559 357.24793213 43.30745117 356.55836426 44.01318359 355.84790039 C47.93942989 351.93355181 51.97407015 348.2048075 56.17163086 344.58325195 C58.59919414 342.4811358 60.95385567 340.30390316 63.3125 338.125 C67.73713706 334.08880845 72.28974483 330.27274983 76.9453125 326.5078125 C80.71740131 323.4110337 84.42789132 320.24816655 88.125 317.0625 C88.78918945 316.49426514 89.45337891 315.92603027 90.13769531 315.34057617 C90.75483398 314.8066626 91.37197266 314.27274902 92.0078125 313.72265625 C92.83756592 313.00734741 92.83756592 313.00734741 93.68408203 312.27758789 C95.13068392 311.01380926 95.13068392 311.01380926 96 309 C95.86573514 307.17510151 95.64912373 305.35604703 95.39501953 303.54394531 C95.23800568 302.40225891 95.08099182 301.26057251 94.91921997 300.08428955 C94.74220551 298.84475525 94.56519104 297.60522095 94.3828125 296.328125 C94.11789505 294.422659 94.11789505 294.422659 93.84762573 292.47869873 C93.37681729 289.09360062 92.89835791 285.70962499 92.41845703 282.32580566 C92.02976605 279.57635056 91.6462945 276.82618019 91.26315498 274.07594681 C90.46882802 268.37440826 89.6702244 262.67346906 88.86376953 256.97363281 C88.7208548 255.96262512 88.57794006 254.95161743 88.43069458 253.90997314 C87.99011863 250.93323687 87.50374679 247.96664291 87 245 C86.67 245 86.34 245 86 245 Z M95 254 C95.63968235 262.7305755 96.5734939 271.41242001 97.67456055 280.0949707 C97.941819 282.22187152 98.19638253 284.35008948 98.45117188 286.47851562 C98.6216188 287.83343131 98.79281358 289.18825318 98.96484375 290.54296875 C99.1155835 291.76008545 99.26632324 292.97720215 99.42163086 294.23120117 C99.61249268 295.14490479 99.80335449 296.0586084 100 297 C100.66 297.33 101.32 297.66 102 298 C103.56660471 294.09285041 105.09884797 290.17310844 106.625 286.25 C107.07101562 285.13882812 107.51703125 284.02765625 107.9765625 282.8828125 C108.3890625 281.81289063 108.8015625 280.74296875 109.2265625 279.640625 C109.61408691 278.65610352 110.00161133 277.67158203 110.40087891 276.65722656 C111.23476518 274.05161347 111.23476518 274.05161347 110.23510742 271.8112793 C108.50988349 269.28124642 106.63679058 266.92458153 104.6875 264.5625 C103.92824219 263.63566406 103.16898438 262.70882813 102.38671875 261.75390625 C100.03419562 259.03945648 97.57080365 256.50710232 95 254 Z M-95 255 C-97.01170115 257.26945961 -98.98404064 259.55625962 -100.9375 261.875 C-102.02924214 263.1646603 -103.12166199 264.45374727 -104.21484375 265.7421875 C-104.70073975 266.3182373 -105.18663574 266.89428711 -105.68725586 267.48779297 C-106.74225705 268.70309469 -107.86202246 269.86202246 -109 271 C-108.73647483 277.40111141 -106.27265331 283.03710398 -103.9375 288.9375 C-103.56044922 289.90751953 -103.18339844 290.87753906 -102.79492188 291.87695312 C-101.86987534 294.25397143 -100.93810818 296.62811317 -100 299 C-99.67 299 -99.34 299 -99 299 C-98.28186804 293.8596267 -97.56999886 288.71843815 -96.86376953 283.57641602 C-96.62295177 281.8294367 -96.38046255 280.0826869 -96.13623047 278.33618164 C-95.78427181 275.81716321 -95.43845055 273.29736437 -95.09375 270.77734375 C-94.9843811 270.00414291 -94.87501221 269.23094208 -94.7623291 268.43431091 C-94.15035477 263.90893314 -93.89422748 259.56672845 -94 255 C-94.33 255 -94.66 255 -95 255 Z M-114 280 C-115.52367391 281.9977058 -116.99059368 284.00989305 -118.4375 286.0625 C-118.88633545 286.69591309 -119.3351709 287.32932617 -119.79760742 287.98193359 C-127.54874195 298.97839029 -134.85042263 310.27359121 -142.16088867 321.56542969 C-145.98992115 327.4730473 -149.87068984 333.34300823 -153.84179688 339.15625 C-156.20477505 342.65394575 -158.1441099 346.21366752 -160 350 C-140.22263276 356.25276905 -140.22263276 356.25276905 -120.3125 362.0625 C-119.58434082 362.26576904 -118.85618164 362.46903809 -118.10595703 362.6784668 C-114.6037219 363.66711731 -114.6037219 363.66711731 -111 364 C-108.59430922 355.07660324 -106.8055801 346.10273753 -105.21020508 337.0078125 C-104.81039443 334.73804648 -104.39867085 332.47064376 -103.98632812 330.203125 C-103.72584068 328.73450285 -103.46605033 327.26575684 -103.20703125 325.796875 C-103.02428398 324.79971466 -103.02428398 324.79971466 -102.83784485 323.78240967 C-101.51618903 316.10712836 -101.60549095 310.04006932 -104.40625 302.65625 C-104.77248474 301.67440735 -104.77248474 301.67440735 -105.14611816 300.67272949 C-105.91858051 298.61032044 -106.70886546 296.55530866 -107.5 294.5 C-108.03114839 293.09159798 -108.5611075 291.68274685 -109.08984375 290.2734375 C-110.37953743 286.84366417 -111.68529207 283.42027499 -113 280 C-113.33 280 -113.66 280 -114 280 Z M115 280 C100.34119725 307.43573218 103.59039764 329.56073608 111 359 C111.33333545 360.3333328 111.66666942 361.66666598 112 363 C121.09129856 362.49204831 129.53096152 359.68167655 138.1875 357.0625 C139.73352069 356.60153127 141.2797434 356.14123949 142.82617188 355.68164062 C148.91148719 353.86666749 154.98451832 352.03820732 161 350 C159.45190465 345.64781714 157.20379533 341.87869728 154.73828125 338 C154.30365067 337.31067383 153.86902008 336.62134766 153.42121887 335.91113281 C147.47231858 326.5237797 141.32094571 317.26724402 135.1875 308 C133.37946602 305.2658054 131.5720261 302.53122252 129.76570129 299.79589844 C128.65372437 298.11224831 127.54074927 296.42925682 126.42655945 294.74707031 C125.91865372 293.9784668 125.41074799 293.20986328 124.88745117 292.41796875 C124.40271332 291.68497559 123.91797546 290.95198242 123.41854858 290.19677734 C121.5605505 287.31946448 119.80754794 284.38228849 118.07661438 281.42700195 C117.72133163 280.95609131 117.36604889 280.48518066 117 280 C116.34 280 115.68 280 115 280 Z M-96 318 C-97.16929854 324.3333508 -98.32560883 330.66897357 -99.47290039 337.00634766 C-99.86476433 339.16216725 -100.25960345 341.31744824 -100.6574707 343.47216797 C-101.22869539 346.56861937 -101.78920822 349.66684721 -102.34765625 352.765625 C-102.61788353 354.21113739 -102.61788353 354.21113739 -102.89356995 355.68585205 C-103.13393227 357.03679962 -103.13393227 357.03679962 -103.37915039 358.41503906 C-103.52349014 359.20557678 -103.6678299 359.9961145 -103.81654358 360.81060791 C-104.01879476 363.22429901 -103.95827359 364.76837347 -103 367 C-101.30103085 368.09960645 -101.30103085 368.09960645 -99.11157227 368.71655273 C-97.86305984 369.13434494 -97.86305984 369.13434494 -96.58932495 369.56057739 C-95.21673019 369.99272049 -95.21673019 369.99272049 -93.81640625 370.43359375 C-92.86589386 370.74811493 -91.91538147 371.06263611 -90.93606567 371.38668823 C-88.8850332 372.06417596 -86.83163747 372.73454143 -84.7762146 373.39859009 C-79.38886142 375.14018053 -74.01890315 376.93369606 -68.6484375 378.7265625 C-67.03345619 379.26404869 -67.03345619 379.26404869 -65.385849 379.81239319 C-54.3211542 383.5176334 -43.44194769 387.652982 -32.58618164 391.92553711 C-25.79830515 394.59128636 -19.04054644 397.07760682 -12 399 C-14.79888352 393.59972109 -17.91176857 389.72811686 -22.3125 385.5625 C-25.7788215 382.23598269 -29.13632881 378.89922942 -32.265625 375.25 C-36.73913791 370.06494708 -41.58701532 365.26730031 -46.4375 360.4375 C-47.34048828 359.53064453 -48.24347656 358.62378906 -49.17382812 357.68945312 C-54.28729805 352.58338866 -59.4928178 347.67740312 -65 343 C-66.15281057 342.00314376 -67.30516824 341.00576349 -68.45703125 340.0078125 C-75.55552457 333.90050806 -82.71043138 327.87906673 -90 322 C-90.90621094 321.2575 -91.81242187 320.515 -92.74609375 319.75 C-94.65605749 317.89778717 -94.65605749 317.89778717 -96 318 Z M91.5625 321.9375 C88.03712435 325.17539867 84.47160238 328.30213719 80.75 331.3125 C70.79196101 339.40515986 61.12278323 347.5990035 52.17431641 356.81152344 C49.8717623 359.1765471 47.75925147 361.16049902 45 363 C45 363.66 45 364.32 45 365 C44.40832031 365.26554687 43.81664062 365.53109375 43.20703125 365.8046875 C37.3694829 368.96626236 33.086805 374.99436412 28.8203125 379.96875 C26.94406242 382.06241962 24.96701251 383.99287204 22.9375 385.9375 C18.915733 389.88086999 15.96155508 394.23564952 13 399 C20.73910877 396.88686716 28.14867266 394.06505365 35.60449219 391.13024902 C53.16033609 384.23816052 70.96084676 378.12892843 88.8347168 372.1184082 C89.82735031 371.78450577 90.81998383 371.45060333 91.84269714 371.10658264 C93.71985856 370.47611495 95.59761063 369.84740234 97.47602844 369.22068787 C98.30829453 368.94193314 99.14056061 368.66317841 99.99804688 368.37597656 C100.72600464 368.13316956 101.4539624 367.89036255 102.20397949 367.64019775 C104.06680754 367.01698724 104.06680754 367.01698724 106 366 C104.44155505 355.53565765 102.67508994 345.11239662 100.875 334.6875 C100.59494715 333.06056493 100.31499858 331.43361192 100.03515625 329.80664062 C99.35796954 325.8708863 98.67938357 321.93537567 98 318 C94.91732427 318 93.77805353 319.8637419 91.5625 321.9375 Z M-161 336 C-160 338 -160 338 -160 338 Z M164 358 C162.63397298 359.57641957 161.30860746 361.18810011 160 362.8125 C159.18015625 363.82570313 158.3603125 364.83890625 157.515625 365.8828125 C157.09345703 366.40649414 156.67128906 366.93017578 156.23632812 367.46972656 C154.41936452 369.71868547 152.58415309 371.9525505 150.75 374.1875 C149.16628986 376.12469201 147.58300205 378.06222932 146 380 C145.48324707 380.63164062 144.96649414 381.26328125 144.43408203 381.9140625 C142.72520945 384.00384333 141.01867672 386.09551782 139.3125 388.1875 C138.77786133 388.84065186 138.24322266 389.49380371 137.69238281 390.16674805 C134.00743907 394.69088816 130.46837835 399.30794484 127 404 C130.8239798 406.54931987 133.92303171 406.27071274 138.3515625 406.23046875 C139.57351822 406.22978142 139.57351822 406.22978142 140.82015991 406.2290802 C142.53995218 406.22606143 144.2597418 406.21818632 145.97949219 406.20581055 C148.62184245 406.18752185 151.26384297 406.18530112 153.90625 406.18554688 C155.57552388 406.18063283 157.24479538 406.17480501 158.9140625 406.16796875 C159.70881989 406.16685593 160.50357727 406.1657431 161.32241821 406.16459656 C164.96071254 406.47449771 164.96071254 406.47449771 168 405 C168.49077011 395.85516413 167.75314539 386.67803946 167.0625 377.5625 C166.93198242 375.72268555 166.93198242 375.72268555 166.79882812 373.84570312 C166.40668249 368.50380815 165.94359284 363.27691087 165 358 C164.67 358 164.34 358 164 358 Z M-163 359 C-165.78989614 361.78989614 -164.81063457 369.79198124 -165.0625 373.5625 C-165.15337891 374.80708984 -165.24425781 376.05167969 -165.33789062 377.33398438 C-165.97355736 386.62045404 -166 395.64391194 -166 405 C-152.8 405 -139.6 405 -126 405 C-127.90389639 401.19220722 -130.11754636 398.11031449 -132.75 394.8125 C-133.46712158 393.90697388 -133.46712158 393.90697388 -134.19873047 392.9831543 C-139.27792363 386.59804522 -144.47153051 380.30669759 -149.67578125 374.0234375 C-151.74980314 371.51893583 -153.81198262 369.00603947 -155.85546875 366.4765625 C-156.66628906 365.47367187 -157.47710937 364.47078125 -158.3125 363.4375 C-159.35857422 362.13619141 -159.35857422 362.13619141 -160.42578125 360.80859375 C-160.94527344 360.21175781 -161.46476562 359.61492187 -162 359 C-162.33 359 -162.66 359 -163 359 Z M-153 359 C-150.50461957 363.50889429 -147.40392955 367.30469638 -144.125 371.25 C-138.67090798 377.86767302 -133.41952767 384.61181504 -128.31494141 391.50292969 C-125.80819692 394.8415408 -123.59436737 397.75028805 -120 400 C-117.97024741 394.31669274 -116.30406372 388.59351438 -114.8125 382.75 C-114.54421387 381.72229492 -114.54421387 381.72229492 -114.27050781 380.67382812 C-113.35511512 377.01582612 -112.92041531 373.75704381 -113 370 C-113.87736816 369.73783691 -114.75473633 369.47567383 -115.65869141 369.20556641 C-118.93528408 368.2260112 -122.21162135 367.24561055 -125.48779297 366.26464844 C-126.90175506 365.84146125 -128.31581609 365.41860447 -129.72998047 364.99609375 C-131.77077351 364.38630076 -133.81119961 363.77529304 -135.8515625 363.1640625 C-137.07697754 362.79748535 -138.30239258 362.4309082 -139.56494141 362.05322266 C-141.79054379 361.37083114 -144.00312866 360.64376445 -146.19677734 359.86474609 C-149.14811566 358.80348277 -149.14811566 358.80348277 -153 359 Z M143.39453125 361.40625 C142.55532639 361.65040649 141.71612152 361.89456299 140.85148621 362.14611816 C138.17071285 362.92699347 135.49160592 363.71342506 132.8125 364.5 C130.99554969 365.03031459 129.17849363 365.560267 127.36132812 366.08984375 C122.90631398 367.38902936 118.45278642 368.69320055 114 370 C114.78525465 374.04293965 115.57933552 378.08409724 116.375 382.125 C116.59671875 383.26710938 116.8184375 384.40921875 117.046875 385.5859375 C117.26601563 386.69453125 117.48515625 387.803125 117.7109375 388.9453125 C117.90993652 389.96125488 118.10893555 390.97719727 118.31396484 392.02392578 C119.02257016 395.09791111 119.95650259 398.02467466 121 401 C125.0542821 397.10280263 128.60655633 392.94518789 132.125 388.5625 C132.68832031 387.86455322 133.25164062 387.16660645 133.83203125 386.44750977 C137.57800432 381.79608449 141.30071109 377.12613362 145 372.4375 C145.43199707 371.89101807 145.86399414 371.34453613 146.30908203 370.78149414 C149.3260739 366.93532901 152.18019567 362.99304434 155 359 C150.91097131 359 147.28327349 360.25919383 143.39453125 361.40625 Z M-106 373 C-109.47690795 383.43072385 -111.52768134 394.28661915 -114 405 C-65.49 405.495 -65.49 405.495 -16 406 C-19.86623 403.1003275 -23.45346834 401.46517582 -27.90234375 399.77734375 C-28.68412491 399.47553696 -29.46590607 399.17373016 -30.27137756 398.86277771 C-32.8240355 397.88042486 -35.38045799 396.90837875 -37.9375 395.9375 C-38.80914795 395.60429749 -39.6807959 395.27109497 -40.57885742 394.92779541 C-55.31202452 389.29693059 -70.125683 383.97687825 -85.08496094 378.9765625 C-87.73030434 378.0903503 -90.37004315 377.18970685 -93.0078125 376.28125 C-99.3605814 373.90138152 -99.3605814 373.90138152 -106 373 Z M102.5925293 373.43017578 C101.64651855 373.74583496 100.70050781 374.06149414 99.72583008 374.38671875 C98.68579834 374.73605469 97.6457666 375.08539063 96.57421875 375.4453125 C95.49527344 375.80737793 94.41632813 376.16944336 93.3046875 376.54248047 C89.7644703 377.73326011 86.22573082 378.92833151 82.6875 380.125 C81.49315338 380.52861755 80.29880676 380.93223511 79.06826782 381.3480835 C58.47368557 388.32474867 38.14770777 395.82591264 18 404 C18 404.33 18 404.66 18 405 C29.0228963 405.9800269 39.95794038 406.16324788 51.015625 406.16796875 C52.80686468 406.17118948 54.59810411 406.17455414 56.38934326 406.17805481 C60.11064262 406.18399252 63.83191891 406.18589972 67.55322266 406.18530273 C72.32815579 406.18520012 77.10294354 406.1989776 81.87784195 406.21607494 C85.56144907 406.22715618 89.24502019 406.22922333 92.92864227 406.22869301 C94.69096132 406.22987415 96.45328127 406.23430345 98.2155838 406.24202538 C100.66368694 406.25176906 103.11146246 406.2489724 105.55957031 406.24291992 C106.28779495 406.24853943 107.01601959 406.25415894 107.76631165 406.25994873 C111.83337295 406.35411762 111.83337295 406.35411762 115 404 C114.67449053 401.52100251 114.23838681 399.22807492 113.6640625 396.8046875 C113.50586029 396.09724396 113.34765808 395.38980042 113.18466187 394.66091919 C112.67561224 392.39633426 112.150525 390.1358124 111.625 387.875 C111.27758537 386.34268797 110.93121755 384.81013819 110.5859375 383.27734375 C109.736092 379.51536032 108.87184325 375.75694366 108 372 C106.12916061 372 104.34879451 372.84342337 102.5925293 373.43017578 Z M-166 412 C-166.02515072 422.90392961 -166.02515072 422.90392961 -165.34375 433.70703125 C-165.27716187 434.44330246 -165.21057373 435.17957367 -165.14196777 435.93815613 C-164.93344536 438.23014662 -164.71691638 440.52129043 -164.5 442.8125 C-164.35493045 444.39122667 -164.21039592 445.9700026 -164.06640625 447.54882812 C-163.71708434 451.36647967 -163.36059367 455.18339732 -163 459 C-156.4766791 452.49595724 -150.70108591 445.70025437 -145.12988281 438.359375 C-141.011065 432.95439512 -136.7153754 427.69975693 -132.37841797 422.46875 C-131.8526416 421.829375 -131.32686523 421.19 -130.78515625 420.53125 C-130.08724976 419.68916992 -130.08724976 419.68916992 -129.37524414 418.83007812 C-127.75096052 416.66859579 -126.39107162 414.3184527 -125 412 C-138.53 412 -152.06 412 -166 412 Z M-114 412 C-110.72542666 428.77484872 -110.72542666 428.77484872 -106 445 C-97.52051109 442.84474705 -89.29695915 440.13189522 -81.0625 437.1875 C-80.41068756 436.95578094 -79.75887512 436.72406189 -79.08731079 436.48532104 C-58.53624603 429.1680816 -38.2355058 421.14419701 -18 413 C-18 412.67 -18 412.34 -18 412 C-49.68 412 -81.36 412 -114 412 Z M18 412 C20.55164074 414.55164074 23.37028899 415.44797641 26.68359375 416.6875 C27.36205856 416.94610306 28.04052338 417.20470612 28.73954773 417.47114563 C30.97015294 418.31960474 33.20368073 419.16004293 35.4375 420 C36.98888454 420.58717994 38.5401531 421.17466641 40.09130859 421.76245117 C43.99685209 423.24037856 47.90516937 424.7108112 51.81451416 426.1786499 C53.83203856 426.93687667 55.84861835 427.6975414 57.86474609 428.45947266 C70.01500983 433.04608451 82.20544106 437.50127034 94.5 441.6875 C95.51594238 442.03917236 96.53188477 442.39084473 97.57861328 442.75317383 C98.5117334 443.06536865 99.44485352 443.37756348 100.40625 443.69921875 C101.22416016 443.97596436 102.04207031 444.25270996 102.88476562 444.5378418 C105.17256162 445.22661313 105.17256162 445.22661313 108 444 C109.08274645 441.1451305 109.08274645 441.1451305 109.82421875 437.62890625 C110.05090996 436.67261574 110.05090996 436.67261574 110.28218079 435.69700623 C110.76286565 433.65480987 111.22503997 431.60889161 111.6875 429.5625 C112.00992306 428.18658023 112.333477 426.81092493 112.65820312 425.43554688 C114.30624095 419.27863495 114.30624095 419.27863495 115 413 C103.51424619 412.04850108 92.11713498 411.86698463 80.59765625 411.90234375 C78.78063496 411.90421412 76.96361316 411.90563509 75.14659119 411.90663147 C70.41702831 411.91040796 65.68749727 411.92019529 60.95794678 411.93133545 C56.11064077 411.94165561 51.26332951 411.94615156 46.41601562 411.95117188 C36.94399661 411.96182308 27.47200097 411.97883925 18 412 Z M128 413 C129.94293491 416.88586982 132.24225477 420.01574265 134.9375 423.375 C135.93638156 424.63136443 136.93507424 425.88787905 137.93359375 427.14453125 C138.44390137 427.78471191 138.95420898 428.42489258 139.47998047 429.08447266 C140.92569342 430.90635892 142.35824503 432.73758525 143.78515625 434.57421875 C148.45496402 440.58184524 153.19079622 446.52943877 158.0625 452.375 C158.52785156 452.940979 158.99320313 453.50695801 159.47265625 454.09008789 C160.60340858 455.43264595 161.79651892 456.72222997 163 458 C163.66 458 164.32 458 165 458 C167.01783122 443.01319533 167.54196054 428.11530225 168 413 C154.8 413 141.6 413 128 413 Z M-121 417 C-127.31858504 424.64470782 -133.50443668 432.38247198 -139.60058594 440.20507812 C-140.54251842 441.41322321 -141.48590606 442.62023504 -142.43066406 443.82617188 C-143.81161809 445.58961695 -145.18771936 447.35673983 -146.5625 449.125 C-147.77099609 450.67574219 -147.77099609 450.67574219 -149.00390625 452.2578125 C-150.63104909 454.49314376 -151.8165687 456.52750337 -153 459 C-144.35249269 456.93994536 -135.86151277 454.51675369 -127.375 451.875 C-126.20582031 451.51535156 -125.03664063 451.15570312 -123.83203125 450.78515625 C-118.30237593 449.18493069 -118.30237593 449.18493069 -113 447 C-113.58498486 440.47314643 -114.73656545 434.3852159 -116.4375 428.0625 C-116.76331055 426.78922852 -116.76331055 426.78922852 -117.09570312 425.49023438 C-117.41764648 424.2749707 -117.41764648 424.2749707 -117.74609375 423.03515625 C-117.93872803 422.3069165 -118.1313623 421.57867676 -118.32983398 420.82836914 C-118.93273894 418.78688489 -118.93273894 418.78688489 -121 417 Z M121 417 C120.00008909 420.95025596 119.00325304 424.90127363 118.00927734 428.85302734 C117.67060713 430.19764226 117.33109302 431.54204491 116.99072266 432.88623047 C116.50201891 434.816824 116.01658688 436.74824481 115.53125 438.6796875 C115.23798828 439.84226074 114.94472656 441.00483398 114.64257812 442.20263672 C113.92537405 444.84650283 113.92537405 444.84650283 114 447 C118.22937809 448.3949339 122.46120122 449.78211688 126.6953125 451.16259766 C128.13120588 451.63190062 129.5664466 452.10320596 131.00097656 452.57666016 C138.91640892 455.18753847 146.74297984 457.6889275 155 459 C147.56932623 449.02725362 140.00380815 439.17341762 132.1875 429.5 C131.64859131 428.8296875 131.10968262 428.159375 130.55444336 427.46875 C130.03503174 426.829375 129.51562012 426.19 128.98046875 425.53125 C128.29827271 424.68916992 128.29827271 424.68916992 127.60229492 423.83007812 C125.5101961 421.44056529 123.26179068 419.22813947 121 417 Z M13 418 C17.27780236 424.11114623 22.12481704 429.49180664 27.2409668 434.89892578 C29.8608792 437.67230749 32.39268839 440.44996057 34.77734375 443.4296875 C35.51082031 444.27789063 36.24429688 445.12609375 37 446 C37.66 446 38.32 446 39 446 C39.20544434 446.53069092 39.41088867 447.06138184 39.62255859 447.6081543 C41.57365548 450.99611889 44.27856699 453.54341005 47.0390625 456.26953125 C47.63874847 456.868759 48.23843445 457.46798676 48.85629272 458.08537292 C50.12660291 459.35266537 51.3993393 460.61752983 52.67431641 461.88012695 C54.6023859 463.79009818 56.52249032 465.70779036 58.44140625 467.62695312 C63.98020104 473.14924999 69.51364013 478.61843636 75.47412109 483.69018555 C77.42178564 485.3620608 79.21775613 487.15410456 81 489 C83.69033626 491.71681595 86.41553808 494.37073726 89.25 496.9375 C89.87390625 497.50339844 90.4978125 498.06929687 91.140625 498.65234375 C93.12833458 500.09301561 94.63131971 500.47720807 97 501 C98.14748571 495.00583678 99.28654565 489.01015534 100.41796875 483.01293945 C100.80370004 480.9747444 101.19169403 478.93697618 101.58203125 476.8996582 C102.1440414 473.96415875 102.69778458 471.02719948 103.25 468.08984375 C103.42499023 467.18540024 103.59998047 466.28095673 103.78027344 465.34910583 C104.68784665 460.47389576 105.18902068 455.95883942 105 451 C103.86800171 450.61799438 103.86800171 450.61799438 102.71313477 450.22827148 C85.59009958 444.43370656 68.54412724 438.44710891 51.5625 432.25 C50.71116486 431.94061493 49.85982971 431.63122986 48.98269653 431.31246948 C39.30397995 427.79148176 29.70271385 424.15373757 20.22425842 420.11993408 C16.73490321 418.54207105 16.73490321 418.54207105 13 418 Z M-17.76953125 419.36328125 C-18.95518677 419.81912598 -18.95518677 419.81912598 -20.16479492 420.28417969 C-21.0385376 420.62352539 -21.91228027 420.96287109 -22.8125 421.3125 C-24.74211863 422.05356476 -26.67181006 422.79444 -28.6015625 423.53515625 C-30.73444442 424.3565906 -32.86725464 425.17821115 -35 426 C-57.82848467 434.79402376 -80.77108559 443.3130996 -104 451 C-103.33320206 459.92413127 -101.71297899 468.6180032 -100.04370117 477.39770508 C-99.55929421 479.95442024 -99.08698406 482.51318846 -98.61523438 485.07226562 C-98.30801936 486.70326224 -98.00010211 488.33412677 -97.69140625 489.96484375 C-97.55174942 490.72731918 -97.41209259 491.48979462 -97.26820374 492.27537537 C-96.59738789 495.74928814 -95.98875643 498.01686536 -94 501 C-62.95924334 473.75149893 -62.95924334 473.75149893 -34.6015625 443.8203125 C-32.65962578 441.61313564 -30.59261876 439.56462386 -28.5 437.5 C-22.35785785 431.42053277 -16.89643098 425.12208142 -12 418 C-14.2779833 418 -15.64642771 418.54116879 -17.76953125 419.36328125 Z M-10 425 C-10.54527344 425.68964844 -11.09054687 426.37929688 -11.65234375 427.08984375 C-16.13433312 432.67509204 -20.75032007 437.88755178 -25.87890625 442.8828125 C-27.87407538 444.87430728 -29.72753901 446.92379263 -31.5625 449.0625 C-35.16642444 453.26011037 -39.05553763 457.12514579 -43 461 C-46.27594696 464.26975359 -49.54088408 467.5501915 -52.80078125 470.8359375 C-54.63794865 472.68236349 -56.47519045 474.52871546 -58.3125 476.375 C-59.22451172 477.29539062 -60.13652344 478.21578125 -61.07617188 479.1640625 C-65.62190114 483.7260847 -70.20454599 488.16034592 -75.0949707 492.35107422 C-78.46188334 495.26535436 -81.6916597 498.32735416 -84.9375 501.375 C-85.94393555 502.31666016 -85.94393555 502.31666016 -86.97070312 503.27734375 C-90.01693983 506.10584286 -90.01693983 506.10584286 -93 509 C-92.92851925 523.19217848 -90.63754193 537.43913449 -88.9375 551.5 C-88.65258614 553.88406578 -88.36807788 556.26818007 -88.08398438 558.65234375 C-87.39399394 564.43546292 -86.69901479 570.21796505 -86 576 C-70.27899721 556.59562417 -57.7556753 533.9682214 -46 512 C-45.53384277 511.12939941 -45.06768555 510.25879883 -44.58740234 509.36181641 C-34.53745554 490.5103017 -25.09997444 471.46434144 -17 451.6875 C-16.54294678 450.5727832 -16.08589355 449.45806641 -15.61499023 448.30957031 C-10.18308257 436.94456283 -10.18308257 436.94456283 -10 425 Z M10 426 C12.02574559 435.46563612 15.2481088 444.26981143 18.9375 453.1875 C19.22245331 453.88220398 19.50740662 454.57690796 19.80099487 455.29266357 C28.17386198 475.67551191 37.86019606 495.27055413 48.61230469 514.50097656 C49.90050242 516.82082034 51.16251139 519.15242154 52.4140625 521.4921875 C59.56446317 534.77620246 67.75525398 547.3750984 76 560 C76.54881836 560.8451416 77.09763672 561.6902832 77.66308594 562.56103516 C79.06077292 564.71156513 80.46546651 566.85722165 81.875 569 C82.27332031 569.61061279 82.67164063 570.22122559 83.08203125 570.8503418 C85.05777697 573.93610522 85.05777697 573.93610522 88 576 C88.93838013 567.85584634 89.86904121 559.71086342 90.78987217 551.56470871 C91.21769708 547.78211419 91.64817037 543.99986043 92.0847168 540.21826172 C92.50594222 536.56852422 92.92018365 532.91805543 93.3296032 529.2669754 C93.48699622 527.87445029 93.64689992 526.48220658 93.8093586 525.09026337 C94.03654088 523.14004062 94.25395808 521.18868785 94.47094727 519.23730469 C94.59752213 518.1269989 94.72409698 517.01669312 94.85450745 515.8727417 C95.06456553 511.7251575 94.71290488 509.82963785 91.99609375 506.66796875 C91.15175781 505.84941406 90.30742188 505.03085937 89.4375 504.1875 C88.61121094 503.37667969 87.78492188 502.56585937 86.93359375 501.73046875 C84.73480927 499.64989849 82.47232978 497.65345744 80.1875 495.66796875 C75.88052151 491.92265966 71.71137555 488.04395949 67.5625 484.125 C66.81967773 483.42463623 66.07685547 482.72427246 65.31152344 482.00268555 C60.11508903 477.0890619 55.00579896 472.10819031 50 467 C49.0925 466.0925 48.185 465.185 47.25 464.25 C45.75195298 462.75195298 44.25455517 461.25325648 42.7578125 459.75390625 C40.81484743 457.81369325 38.86737615 455.87893288 36.9140625 453.94921875 C31.67754039 448.76398867 26.47873123 443.60098614 21.6953125 437.98828125 C19.53998589 435.46049036 17.33667777 432.9786044 15.125 430.5 C14.36445312 429.6440625 13.60390625 428.788125 12.8203125 427.90625 C12.21960938 427.2771875 11.61890625 426.648125 11 426 C10.67 426 10.34 426 10 426 Z M4 432 C1.02220705 499.33202733 1.02220705 499.33202733 15.36816406 564.47753906 C17.65815011 570.65941703 19.2397652 576.99489474 20.81811523 583.38775635 C21.64464394 586.71009563 22.51958368 590.01930123 23.3984375 593.328125 C23.5858551 594.03466217 23.77327271 594.74119934 23.96636963 595.46914673 C28.01044354 610.60987335 32.33362327 625.6778989 36.59301758 640.75927734 C36.93444794 641.96932434 37.2758783 643.17937134 37.62765503 644.42608643 C38.27184672 646.70811567 38.91714444 648.98983309 39.56375122 651.2711792 C41.13308207 656.82833356 42.63661427 662.38864024 44 668 C46.71628662 666.64185669 46.92951489 665.26821479 48.109375 662.48828125 C48.52695068 661.51826172 48.94452637 660.54824219 49.37475586 659.54882812 C49.82858643 658.48083984 50.28241699 657.41285156 50.75 656.3125 C51.74326805 654.01570302 52.7394914 651.72018239 53.73828125 649.42578125 C54.0003688 648.82371857 54.26245636 648.22165588 54.53248596 647.60134888 C57.55639775 640.68266424 60.73636496 633.83809086 63.9375 627 C64.22938202 626.37560028 64.52126404 625.75120056 64.82199097 625.10787964 C68.01646402 618.27942218 71.24500661 611.46824744 74.5234375 604.6796875 C75.07781494 603.53113281 75.63219238 602.38257813 76.20336914 601.19921875 C77.25059955 599.03580057 78.30167124 596.87423621 79.35717773 594.71484375 C79.82325439 593.75449219 80.28933105 592.79414062 80.76953125 591.8046875 C81.17792236 590.96921387 81.58631348 590.13374023 82.00708008 589.27294922 C82.94169608 587.1334668 83.68835037 585.31392428 84 583 C82.70443328 580.46954885 81.37813701 578.22977088 79.8125 575.875 C79.35762207 575.16835205 78.90274414 574.4617041 78.43408203 573.73364258 C76.075794 570.08970721 73.65904123 566.48658203 71.22265625 562.89453125 C56.78058441 541.59234996 44.29917006 519.384694 32.734375 496.42480469 C31.1066348 493.2105677 29.44964226 490.01359051 27.78125 486.8203125 C18.64925001 469.19191016 11.11122301 450.89469934 5 432 C4.67 432 4.34 432 4 432 Z M-4 433 C-4.29543701 433.82274414 -4.59087402 434.64548828 -4.89526367 435.49316406 C-14.44699702 461.92945961 -25.47696161 487.31596568 -39 512 C-39.56477051 513.04043457 -40.12954102 514.08086914 -40.71142578 515.15283203 C-47.85383176 528.2964383 -55.12270004 541.27273323 -63.46044922 553.70361328 C-66.686169 558.51508177 -69.87521711 563.35052554 -73.0625 568.1875 C-73.71863281 569.16879883 -74.37476563 570.15009766 -75.05078125 571.16113281 C-75.664375 572.09151367 -76.27796875 573.02189453 -76.91015625 573.98046875 C-77.45808838 574.80442139 -78.00602051 575.62837402 -78.57055664 576.47729492 C-80.1930634 579.34072145 -81.29424886 581.77592981 -82 585 C-81.2824747 587.84937875 -81.2824747 587.84937875 -79.73046875 590.62890625 C-79.1794751 591.72823486 -78.62848145 592.82756348 -78.06079102 593.96020508 C-77.60435715 594.83752792 -77.60435715 594.83752792 -77.13870239 595.73257446 C-75.48136661 598.92096119 -73.89155851 602.14318247 -72.2890625 605.359375 C-71.94498856 606.04506058 -71.60091461 606.73074615 -71.24641418 607.43721008 C-66.98072154 615.96719067 -63.02757262 624.63989008 -59.0625 633.3125 C-58.35913665 634.84390881 -57.65560822 636.3752418 -56.9519043 637.90649414 C-52.52561743 647.55753454 -48.22331706 657.2585238 -44 667 C-41.85291313 666.20563947 -41.85291313 666.20563947 -41.30874634 664.23294067 C-41.10067352 663.45884857 -40.89260071 662.68475647 -40.67822266 661.88720703 C-40.31543213 660.56148682 -40.31543213 660.56148682 -39.9453125 659.20898438 C-39.6875 658.23509766 -39.4296875 657.26121094 -39.1640625 656.2578125 C-38.75099854 654.73679932 -38.75099854 654.73679932 -38.32958984 653.18505859 C-37.42090776 649.83359538 -36.52313699 646.47930295 -35.625 643.125 C-34.67763882 639.62251683 -33.72741721 636.12081698 -32.77719116 632.61911011 C-32.13075614 630.23584234 -31.48527822 627.85231478 -30.84072876 625.46853638 C-28.07135183 615.2307244 -25.23719506 605.01186632 -22.37472534 594.79974365 C-21.14468175 590.41140153 -19.91823762 586.02205351 -18.69140625 581.6328125 C-18.34511925 580.39436081 -18.34511925 580.39436081 -17.99183655 579.13088989 C-13.61691252 563.48050238 -9.25822282 547.82452499 -5.0625 532.125 C-4.86277588 531.38765625 -4.66305176 530.6503125 -4.45727539 529.890625 C-2.52363282 522.57367318 -1.84652404 515.63518224 -1.90625 508.11328125 C-1.91162781 506.77515129 -1.91162781 506.77515129 -1.91711426 505.4099884 C-1.99249316 492.05696443 -2.23758639 478.70480909 -2.46356201 465.3536377 C-2.52515408 461.69215949 -2.5847455 458.03064869 -2.64453125 454.36914062 C-2.76112004 447.24606164 -2.8798365 440.12301966 -3 433 C-3.33 433 -3.66 433 -4 433 Z M112 453 C110.8782611 459.01386219 109.75727015 465.02786314 108.63696289 471.04199219 C108.25598215 473.08662659 107.8747994 475.13122337 107.4934082 477.17578125 C106.94428864 480.11969214 106.39590293 483.06373894 105.84765625 486.0078125 C105.6778273 486.9174173 105.50799835 487.82702209 105.33302307 488.76419067 C102.74385282 502.68021732 102.61862359 510.34999377 108.5 523.5 C109.02464844 524.70398438 109.54929687 525.90796875 110.08984375 527.1484375 C111.38036372 530.10490142 112.68396364 533.05482772 114 536 C117.50364667 534.83211778 117.88540695 534.09152049 119.84399414 531.08544922 C120.39209244 530.25302704 120.94019073 529.42060486 121.50489807 528.56295776 C122.09238327 527.65272858 122.67986847 526.74249939 123.28515625 525.8046875 C123.90087997 524.86505157 124.5166037 523.92541565 125.15098572 522.95730591 C127.1291977 519.93482549 129.0960563 516.90514706 131.0625 513.875 C132.36056481 511.88622033 133.65938472 509.89793329 134.95898438 507.91015625 C136.86658547 504.99216437 138.77296055 502.07343153 140.67422485 499.15130615 C143.4301381 494.91712475 146.19452689 490.69106608 149.02294922 486.50488281 C149.70495644 485.49447433 149.70495644 485.49447433 150.40074158 484.46365356 C151.21391875 483.26349834 152.03097322 482.0659536 152.85328674 480.87203979 C155.65195661 476.74277281 157.8386421 472.48374261 160 468 C152.83754699 465.17418846 145.51181735 462.89640274 138.1640625 460.61108398 C136.00412923 459.93878526 133.84576114 459.26162932 131.6875 458.58398438 C130.29175785 458.14814538 128.8959274 457.71258904 127.5 457.27734375 C126.2521875 456.88796631 125.004375 456.49858887 123.71875 456.09741211 C119.83162446 454.95031197 115.93776611 453.95640019 112 453 Z M-116.22851562 454.23754883 C-117.57496155 454.64346001 -117.57496155 454.64346001 -118.9486084 455.05757141 C-123.04972768 456.30477867 -127.14900705 457.55784695 -131.24658203 458.81665039 C-133.41402969 459.48009171 -135.5829841 460.13863051 -137.75341797 460.79223633 C-140.87055247 461.73135781 -143.98248456 462.68617118 -147.09375 463.64453125 C-148.55778259 464.08065483 -148.55778259 464.08065483 -150.0513916 464.52558899 C-150.94902222 464.80565292 -151.84665283 465.08571686 -152.77148438 465.37426758 C-153.9627594 465.73733757 -153.9627594 465.73733757 -155.17810059 466.10774231 C-155.77932739 466.40218735 -156.3805542 466.69663239 -157 467 C-157.33 467.99 -157.66 468.98 -158 470 C-156.67158021 472.50450397 -155.29754859 474.79871014 -153.74609375 477.16015625 C-153.29205673 477.86777603 -152.83801971 478.57539581 -152.370224 479.30445862 C-150.92625668 481.54492272 -149.46593862 483.77385922 -148 486 C-147.54683411 486.69003113 -147.09366821 487.38006226 -146.62677002 488.09100342 C-143.46655383 492.89194897 -140.26800721 497.66672439 -137.0625 502.4375 C-135.12981121 505.31917688 -133.19894517 508.20206698 -131.26953125 511.0859375 C-130.80662689 511.77770584 -130.34372253 512.46947418 -129.86679077 513.1822052 C-125.80258712 519.26909328 -121.82056546 525.40854068 -117.96899414 531.63256836 C-117.02989638 533.12149952 -116.02338759 534.56769472 -115 536 C-114.34 536 -113.68 536 -113 536 C-111.16571768 532.1976152 -109.36169025 528.38159901 -107.5625 524.5625 C-107.04623047 523.49322266 -106.52996094 522.42394531 -105.99804688 521.32226562 C-105.50498047 520.26845703 -105.01191406 519.21464844 -104.50390625 518.12890625 C-104.04830322 517.17056885 -103.5927002 516.21223145 -103.12329102 515.22485352 C-100.45217251 507.55634571 -101.01741156 500.80900207 -102.58203125 492.9609375 C-102.75627121 492.03584381 -102.93051117 491.11075012 -103.11003113 490.15762329 C-103.66540744 487.22761711 -104.23902924 484.30151184 -104.8125 481.375 C-105.18666694 479.40385812 -105.55972384 477.43250518 -105.93164062 475.4609375 C-106.29326089 473.56491127 -106.65585804 471.66907103 -107.01953125 469.7734375 C-107.18733597 468.89722748 -107.35514069 468.02101746 -107.5280304 467.11825562 C-108.46863597 462.32821468 -109.58310289 457.67193102 -111 453 C-112.80665492 453 -114.51102817 453.71926443 -116.22851562 454.23754883 Z M161 479 C160.32122803 480.03592285 159.64245605 481.0718457 158.94311523 482.13916016 C123.00084271 536.9736889 123.00084271 536.9736889 119.29296875 540.72875977 C117.3192391 544.19583056 118.08753466 547.4120871 118.6171875 551.20703125 C118.7186911 552.03394974 118.8201947 552.86086823 118.92477417 553.71284485 C119.14885459 555.51902305 119.38095354 557.32421992 119.61999512 559.128479 C120.0092626 562.06999317 120.37664013 565.01358474 120.73925781 567.95849609 C121.51285923 574.2043377 122.31738134 580.44598096 123.125 586.6875 C123.40514649 588.86520884 123.68509551 591.04294309 123.96484375 593.22070312 C124.64096157 598.48076278 125.31948351 603.7405077 126 609 C128.2995796 606.7004204 128.96416101 604.91534113 130.13671875 601.890625 C130.545271 600.83875 130.95382324 599.786875 131.37475586 598.703125 C143.88547343 565.79414428 153.85088983 531.81182366 159.75 497.0625 C159.87891632 496.31062408 160.00783264 495.55874817 160.14065552 494.78408813 C161.87205632 486.83393821 161.87205632 486.83393821 161 479 Z M-160 480 C-154.1417104 524.91355357 -142.48176162 568.21432589 -125 610 C-124.67 610 -124.34 610 -124 610 C-123.08320885 602.28107753 -122.17019412 594.56171846 -121.26194 586.84178734 C-120.84004191 583.25677147 -120.41686585 579.67191628 -119.99072266 576.08740234 C-119.57918684 572.62535121 -119.17106883 569.16291244 -118.76527405 565.70018387 C-118.53495382 563.74242067 -118.30113574 561.78507 -118.06726074 559.82772827 C-117.92711548 558.62693634 -117.78697021 557.42614441 -117.64257812 556.18896484 C-117.51822388 555.13639496 -117.39386963 554.08382507 -117.26574707 552.99935913 C-116.60862039 546.14013696 -116.60862039 546.14013696 -119.08984375 539.93359375 C-119.53972656 539.207771 -119.98960937 538.48194824 -120.453125 537.73413086 C-121.18789063 536.59729858 -121.18789063 536.59729858 -121.9375 535.4375 C-122.43894531 534.64029541 -122.94039063 533.84309082 -123.45703125 533.02172852 C-127.04945511 527.35442914 -130.81451772 521.82551783 -134.68359375 516.34375 C-137.41544454 512.44347844 -139.98669905 508.4418482 -142.5625 504.4375 C-143.02664307 503.71723633 -143.49078613 502.99697266 -143.96899414 502.25488281 C-144.88080314 500.83991239 -145.79250796 499.42487483 -146.70410156 498.00976562 C-148.60485163 495.0619558 -150.5133886 492.12016049 -152.4375 489.1875 C-153.03433594 488.27355469 -153.63117188 487.35960937 -154.24609375 486.41796875 C-155.98421208 484.02176552 -157.84935781 482.02774835 -160 480 Z M100 520 C99.42400808 525.10388589 98.8545939 530.20844914 98.29101562 535.3137207 C98.09877059 537.04699034 97.90479269 538.78006875 97.70898438 540.51293945 C97.42632149 543.01724604 97.15009247 545.5221956 96.875 548.02734375 C96.78750488 548.79022202 96.70000977 549.55310028 96.60986328 550.33909607 C96.0419777 555.58721723 95.92671114 560.72091213 96 566 C99.84824237 562.51224872 102.52862685 558.52553543 105.3125 554.1875 C105.77978516 553.50107422 106.24707031 552.81464844 106.72851562 552.10742188 C108.89685018 548.72200145 109.99038724 546.69532323 110.046875 542.609375 C108.68716434 537.92141736 106.90266576 533.52570031 104.9375 529.0625 C104.37192383 527.75055664 104.37192383 527.75055664 103.79492188 526.41210938 C102.87077032 524.27135324 101.9390249 522.13426353 101 520 C100.67 520 100.34 520 100 520 Z M-100 522 C-101.32192799 524.7040805 -102.63264821 527.41269268 -103.9375 530.125 C-104.31068359 530.88554688 -104.68386719 531.64609375 -105.06835938 532.4296875 C-108.00039962 538.45277711 -108.00039962 538.45277711 -109 545 C-107.60955256 548.03089334 -107.60955256 548.03089334 -105.4375 550.875 C-104.70402344 551.90882813 -103.97054687 552.94265625 -103.21484375 554.0078125 C-102.48394531 554.99523437 -101.75304687 555.98265625 -101 557 C-100.38253906 557.84304688 -99.76507813 558.68609375 -99.12890625 559.5546875 C-97.77086098 561.38495474 -96.3976963 563.19993659 -95 565 C-93.67808093 561.03424279 -94.27182451 557.54295036 -94.70703125 553.46484375 C-94.79248703 552.63038223 -94.87794281 551.79592072 -94.96598816 550.93617249 C-95.14859742 549.17316905 -95.33458059 547.4105123 -95.52368164 545.64819336 C-95.8116431 542.94554239 -96.08319209 540.24157456 -96.35351562 537.53710938 C-96.53286081 535.82541646 -96.71316682 534.11382389 -96.89453125 532.40234375 C-96.97484085 531.59087387 -97.05515045 530.77940399 -97.13789368 529.94334412 C-97.49933314 525.51044505 -97.49933314 525.51044505 -100 522 Z M4 547 C4 603.76 4 660.52 4 719 C8.42022476 715.4680589 8.42022476 715.4680589 12.125 711.5 C15.08264102 708.04409548 18.10901024 704.6607459 21.1875 701.3125 C21.64713135 700.81105469 22.1067627 700.30960938 22.58032227 699.79296875 C25.13878876 697.00652876 27.71332503 694.23635013 30.3046875 691.48046875 C30.84843018 690.89934326 31.39217285 690.31821777 31.95239258 689.71948242 C33.00301611 688.59748977 34.05738162 687.47898602 35.1159668 686.36450195 C37.58476701 683.7228317 39.71409374 681.39588981 41 678 C40.85412989 675.84291305 40.85412989 675.84291305 40.14819336 673.61010742 C39.90921326 672.73925003 39.67023315 671.86839264 39.42401123 670.97114563 C39.14873596 670.02547226 38.87346069 669.07979889 38.58984375 668.10546875 C38.31158752 667.10682297 38.0333313 666.10817719 37.74664307 665.07926941 C36.82355401 661.77811792 35.88046767 658.48302283 34.9375 655.1875 C34.28998449 652.88468121 33.6439247 650.58145264 32.99926758 648.27783203 C31.66710532 643.52393584 30.32766224 638.7721842 28.98242188 634.02197266 C26.27870713 624.46362884 23.63828708 614.88794576 20.9979248 605.31195068 C20.19198877 602.39126712 19.38397872 599.47116579 18.57519531 596.55126953 C14.00389138 580.04673412 9.4866786 563.52772942 5 547 C4.67 547 4.34 547 4 547 Z M-4 550 C-4.14822708 550.55621536 -4.29645416 551.11243073 -4.44917297 551.6855011 C-8.49050932 566.82501597 -12.62278834 581.93852398 -16.79296875 597.04296875 C-17.05030918 597.97508305 -17.30764961 598.90719734 -17.57278824 599.86755753 C-19.44321182 606.64118877 -21.31527138 613.4143675 -23.1875 620.1875 C-25.07262199 627.00793615 -26.95715695 633.82853391 -28.84069252 640.64940834 C-29.81649753 644.18191237 -30.79360246 647.71405647 -31.7708025 651.24617481 C-32.43535206 653.65627587 -33.09336929 656.06809413 -33.75106812 658.48007202 C-34.56487841 661.45554804 -35.41401888 664.41716712 -36.2940979 667.37368774 C-36.59081249 668.39981281 -36.59081249 668.39981281 -36.89352131 669.44666767 C-37.42230463 671.27367805 -37.96555226 673.09648504 -38.50996399 674.91889954 C-39.06806403 678.42795243 -38.70666091 679.92447187 -37 683 C-35.14653704 685.03909051 -33.30775416 686.92643734 -31.3125 688.8125 C-30.21302628 689.88094543 -29.11535993 690.95125393 -28.01953125 692.0234375 C-27.2298999 692.79445801 -27.2298999 692.79445801 -26.42431641 693.58105469 C-24.12431896 695.87237884 -22.02889081 698.31827883 -19.921875 700.78515625 C-17.25048526 703.86377003 -14.50481444 706.8710538 -11.75 709.875 C-10.96979492 710.73339478 -10.96979492 710.73339478 -10.17382812 711.60913086 C-7.88933266 714.09303694 -5.82175664 716.11882891 -3 718 C-1.67515544 703.74748652 -1.85456121 689.47619243 -1.8671875 675.17578125 C-1.86696356 672.46176619 -1.86554089 669.74775193 -1.86428833 667.03373718 C-1.86247779 661.35606391 -1.86484007 655.6784037 -1.86962891 650.00073242 C-1.87503511 643.51795682 -1.87333102 637.03521287 -1.8678025 630.55243808 C-1.8631979 624.91947013 -1.86265697 619.28651146 -1.86524117 613.65354222 C-1.86676874 610.31950408 -1.86668259 606.98549195 -1.86370468 603.65145302 C-1.85122775 585.74150036 -2.23629179 567.8932385 -3 550 C-3.33 550 -3.66 550 -4 550 Z M-111 554 C-111.85878653 556.57635958 -112.26192458 558.61573451 -112.55664062 561.28442383 C-112.65344116 562.14574417 -112.7502417 563.00706451 -112.84997559 563.89448547 C-112.95104614 564.82262558 -113.0521167 565.75076569 -113.15625 566.70703125 C-113.2634436 567.66518234 -113.37063721 568.62333344 -113.4810791 569.61051941 C-113.82380204 572.67751232 -114.16217935 575.74496355 -114.5 578.8125 C-114.83838288 581.86925742 -115.17772025 584.92590137 -115.5189209 587.98234558 C-115.7310628 589.88425832 -115.94150617 591.7863615 -116.15002441 593.68867493 C-116.6464956 598.1547204 -117.23971377 602.56963202 -118 607 C-118.0620775 608.62394748 -118.08712041 610.25005297 -118.0625 611.875 C-118.05347656 612.65617188 -118.04445313 613.43734375 -118.03515625 614.2421875 C-118.02355469 614.82226562 -118.01195312 615.40234375 -118 616 C-112.79787856 610.91907493 -108.15877452 605.4300671 -103.52880859 599.83203125 C-101.96169997 597.95410357 -100.3664713 596.10258526 -98.76953125 594.25 C-97.74096605 593.02185526 -96.71358734 591.79271569 -95.6875 590.5625 C-95.18911621 589.9960376 -94.69073242 589.4295752 -94.17724609 588.84594727 C-92.01146769 586.19753871 -90.93095086 584.69146389 -91.27734375 581.22265625 C-93.79428881 576.51408557 -96.77327791 572.21488407 -99.875 567.875 C-100.50019531 566.98167969 -101.12539063 566.08835937 -101.76953125 565.16796875 C-104.62891898 561.12371844 -107.41550952 557.43770545 -111 554 Z M112 554 C110.88279205 555.50655827 109.81271445 557.04808914 108.76171875 558.6015625 C108.10623047 559.56707031 107.45074219 560.53257812 106.77539062 561.52734375 C106.08638672 562.54957031 105.39738281 563.57179688 104.6875 564.625 C103.67139648 566.12353516 103.67139648 566.12353516 102.63476562 567.65234375 C99.40351174 572.42183873 96.1861699 577.20026847 93 582 C96.72874561 590.01055876 103.29662329 596.57392506 108.99926758 603.24267578 C111.65249166 606.35895603 114.19786646 609.51393779 116.625 612.8125 C117.40875 613.864375 118.1925 614.91625 119 616 C119.33 616 119.66 616 120 616 C119.43775566 602.5555638 117.73544356 589.32654416 115.9375 576 C115.65249121 573.85683774 115.36798258 571.71360891 115.08398438 569.5703125 C114.39507609 564.37942817 113.70004053 559.18939415 113 554 C112.67 554 112.34 554 112 554 Z M-88 589 C-89.11700006 590.3052585 -90.1909667 591.64728519 -91.25 593 C-94.97862987 597.72293117 -98.75881676 602.39981512 -102.5625 607.0625 C-107.11539787 612.65237777 -111.62319884 618.27036938 -116 624 C-114.67908291 627.05766342 -113.46795581 628.69020511 -110.71875 630.55859375 C-110.05101562 631.02007813 -109.38328125 631.4815625 -108.6953125 631.95703125 C-107.97085938 632.44558594 -107.24640625 632.93414063 -106.5 633.4375 C-104.94717907 634.50804549 -103.39512005 635.5796968 -101.84375 636.65234375 C-101.04195312 637.20390137 -100.24015625 637.75545898 -99.4140625 638.32373047 C-95.5690354 640.99362894 -91.78579403 643.74707159 -88 646.5 C-81.34874735 651.32192364 -74.65934014 656.08579573 -67.93530273 660.80566406 C-62.89627561 664.34773171 -57.92898924 667.97242335 -53.00390625 671.671875 C-51.12282942 673.18414946 -51.12282942 673.18414946 -49 673 C-51.44196371 664.92694086 -54.82418217 657.30895528 -58.25048828 649.61865234 C-59.23770548 647.40259809 -60.21900391 645.18400285 -61.19921875 642.96484375 C-67.45520228 628.83255049 -73.98366082 614.86638971 -80.9375 601.0625 C-81.52595703 599.89009766 -82.11441406 598.71769531 -82.72070312 597.50976562 C-84.14526236 594.67222894 -85.57170087 591.83565546 -87 589 C-87.33 589 -87.66 589 -88 589 Z M88 590 C78.87061614 608.64403666 70.06750777 627.41223298 61.55284119 646.34466553 C59.73037274 650.39377672 57.88439213 654.43110856 56.01953125 658.4609375 C55.58680908 659.40187256 55.15408691 660.34280762 54.70825195 661.31225586 C53.92755787 663.00851843 53.14131514 664.7022432 52.34838867 666.39282227 C51.50570951 668.23565818 50.74288215 670.11472058 50 672 C50.33 672.66 50.66 673.32 51 674 C51.66644531 673.5153125 52.33289063 673.030625 53.01953125 672.53125 C54.97356426 671.11013508 56.92802694 669.68961084 58.8828125 668.26953125 C60.79749339 666.8755092 62.70956644 665.47788619 64.6171875 664.07421875 C69.89014222 660.20364561 75.22807989 656.44448765 80.625 652.75 C93.27397802 644.08986108 105.8113175 635.3000352 118 626 C115.27780363 620.90955715 112.27736625 616.72933555 108.4375 612.4375 C103.57800993 606.91168618 98.97584155 601.24709647 94.56616211 595.35522461 C91.92106061 591.8521691 91.92106061 591.8521691 88 590 Z M-112 637 C-109.46307008 645.87925474 -105.23565174 653.84275952 -101 662 C-100.33242676 663.28801514 -100.33242676 663.28801514 -99.65136719 664.60205078 C-96.85038393 669.99729193 -94.02813657 675.38093365 -91.18652344 680.75488281 C-90.23750002 682.55060695 -89.29366238 684.34907138 -88.3515625 686.1484375 C-76.84688509 707.76127078 -63.13105968 728.68272508 -48.36669922 748.19335938 C-46.89473415 750.13915099 -45.43299581 752.09234505 -43.97265625 754.046875 C-41.92962014 756.77994745 -39.88123947 759.50886638 -37.828125 762.234375 C-36.11743532 764.50692004 -34.42060115 766.78718326 -32.734375 769.078125 C-26.15723355 777.99380563 -19.09306151 786.49257081 -12 795 C-10.78094394 791.34283182 -11.34693552 790.26668498 -12.58984375 786.6796875 C-13.14961914 785.03613281 -13.14961914 785.03613281 -13.72070312 783.359375 C-14.12224609 782.20953125 -14.52378906 781.0596875 -14.9375 779.875 C-20.68907055 763.17623981 -26.35499477 746.45217075 -30.87635803 729.37191772 C-32.15708286 724.53902239 -33.48904572 719.72078055 -34.82299805 714.90234375 C-35.48677317 712.45228804 -36.12651135 709.99560254 -36.74291992 707.53320312 C-41.35445557 689.12477725 -41.35445557 689.12477725 -54.4921875 676.21484375 C-56.83866774 674.85187744 -59.20571389 673.56551572 -61.61581421 672.31880188 C-65.77189249 670.01988547 -69.51251148 667.14883562 -73.3125 664.3125 C-74.80350082 663.22623389 -76.29553373 662.14138151 -77.7890625 661.05859375 C-78.4996582 660.54151855 -79.21025391 660.02444336 -79.94238281 659.49169922 C-83.01070485 657.26727496 -86.09861337 655.07073049 -89.1875 652.875 C-92.86828867 650.25825665 -96.52934965 647.61799628 -100.1640625 644.9375 C-100.85604736 644.42719238 -101.54803223 643.91688477 -102.26098633 643.39111328 C-103.60623834 642.39694275 -104.94988597 641.40059678 -106.29174805 640.40185547 C-108.89861684 638.05998654 -108.89861684 638.05998654 -112 637 Z M108.4296875 640.45703125 C107.70587891 640.98731934 106.98207031 641.51760742 106.23632812 642.06396484 C105.0674707 642.92948975 105.0674707 642.92948975 103.875 643.8125 C97.80694993 648.253874 91.71016608 652.63425812 85.5 656.875 C84.83339355 657.33044189 84.16678711 657.78588379 83.47998047 658.25512695 C82.21468022 659.11921511 80.94922683 659.9830791 79.68359375 660.84667969 C76.67286672 662.90913248 73.69166531 665.01335984 70.70703125 667.11328125 C68.48254872 668.66367817 66.25018636 670.20042319 64.01171875 671.73046875 C63.29951172 672.21773437 62.58730469 672.705 61.85351562 673.20703125 C60.4432164 674.17096887 59.03181263 675.13329311 57.61914062 676.09375 C56.96494141 676.54105469 56.31074219 676.98835937 55.63671875 677.44921875 C55.05623779 677.84455811 54.47575684 678.23989746 53.87768555 678.6472168 C53.25804932 679.09363525 52.63841309 679.54005371 52 680 C51.18479385 680.56306854 50.36958771 681.12613708 49.52967834 681.70626831 C46.56045573 684.39854736 45.830331 686.25060867 44.64746094 690.05249023 C44.25645203 691.27995468 43.86544312 692.50741913 43.46258545 693.77207947 C43.05283936 695.11747994 42.64344613 696.46298791 42.234375 697.80859375 C41.79372564 699.2136014 41.35157676 700.61813954 40.90802002 702.02223206 C39.73908183 705.73670746 38.59068173 709.45722713 37.44647217 713.17938232 C36.31374848 716.85192444 35.1619892 720.51847098 34.01171875 724.18554688 C31.53861866 732.0826118 29.09087976 739.98739062 26.65001678 747.89447021 C25.16866508 752.69285422 23.68556283 757.49069576 22.20025635 762.28785706 C21.44130098 764.7398387 20.68367339 767.1922319 19.92767334 769.64512634 C17.66209284 776.96905796 15.2763816 784.23227335 12.6796875 791.4453125 C11.72516293 794.09134465 11.72516293 794.09134465 13 797 C13.43828125 796.45214844 13.8765625 795.90429688 14.328125 795.33984375 C14.96234375 794.54707031 15.5965625 793.75429688 16.25 792.9375 C16.98476563 792.01710938 17.71953125 791.09671875 18.4765625 790.1484375 C20.21144989 787.97879641 21.95790546 785.81906367 23.7109375 783.6640625 C52.24100484 748.48054611 77.57002273 710.51564913 98.875 670.5625 C99.40768997 669.56573242 99.40768997 669.56573242 99.95114136 668.54882812 C103.80110962 661.3268804 107.52051836 654.05710279 111.0078125 646.65234375 C111.31040985 646.01373917 111.6130072 645.37513458 111.92477417 644.71717834 C113.49666991 641.49465537 113.49666991 641.49465537 114 638 C111.3717973 638 110.53395713 638.90088609 108.4296875 640.45703125 Z M-36 693 C-35 695 -35 695 -35 695 Z M36 694 C34.97561545 694.99636187 33.95577287 695.99739287 32.9375 697 C32.36902344 697.556875 31.80054688 698.11375 31.21484375 698.6875 C29.32565814 700.65998304 27.52841359 702.66915794 25.73828125 704.73046875 C22.0084074 709.02059421 18.14846813 713.17574875 14.25 717.3125 C13.59128906 718.01439453 12.93257812 718.71628906 12.25390625 719.43945312 C7.09902378 724.92370436 7.09902378 724.92370436 5.42088318 726.2166748 C3.32575292 728.84623552 3.639804 730.88674569 3.65942383 734.21557617 C3.65965042 735.4966777 3.65987701 736.77777924 3.66011047 738.09770203 C3.67543043 739.49612781 3.69107842 740.89455004 3.70703125 742.29296875 C3.71262732 743.72357234 3.71689737 745.15418169 3.71989441 746.58479309 C3.73134244 750.34801132 3.76080885 754.11088156 3.79400635 757.8739624 C3.82470837 761.71475517 3.8384 765.55560423 3.85351562 769.39648438 C3.88567894 776.93114814 3.93687434 784.46552529 4 792 C4.66 792.33 5.32 792.66 6 793 C11.45263474 776.90767935 16.6937275 760.76222666 21.74438477 744.53979492 C24.16416577 736.77857457 26.62982809 729.03596822 29.1796875 721.31640625 C29.56784134 720.13678566 29.56784134 720.13678566 29.96383667 718.93333435 C31.21094069 715.14335229 32.46601524 711.35640499 33.73583984 707.57397461 C34.18368701 706.21612112 34.63113748 704.85813671 35.078125 703.5 C35.47418945 702.3140625 35.87025391 701.128125 36.27832031 699.90625 C37.28484321 696.96196258 37.28484321 696.96196258 36 694 Z M-35 695 C-33.45826515 702.88588513 -31.05300146 710.45237151 -28.60617065 718.0920105 C-27.35285642 722.00532843 -26.11072326 725.9221721 -24.87109375 729.83984375 C-24.62289383 730.62410233 -24.37469391 731.4083609 -24.11897278 732.21638489 C-21.95207859 739.09320046 -19.93415205 746.00950197 -17.9375 752.9375 C-13.90590198 766.84915857 -9.01617229 780.41762979 -4 794 C-3.67 794 -3.34 794 -3 794 C-2.83744564 785.51573661 -2.71325046 777.03212908 -2.6373148 768.54669094 C-2.60085933 764.60600526 -2.55145607 760.66638873 -2.47192383 756.72631836 C-2.39557987 752.9201573 -2.35395194 749.11502105 -2.3358593 745.30815315 C-2.32297514 743.85961848 -2.29781338 742.41113678 -2.2598896 740.96304131 C-1.85404396 732.9703015 -1.85404396 732.9703015 -4.48355103 725.64642334 C-6.22906176 723.89758936 -8.00385082 722.44970532 -10 721 C-11.16959406 719.71191765 -12.32540957 718.41083912 -13.453125 717.0859375 C-17.12085658 712.83833551 -20.91484736 708.72146565 -24.75 704.625 C-25.40871094 703.91472656 -26.06742188 703.20445312 -26.74609375 702.47265625 C-27.69935547 701.45365234 -27.69935547 701.45365234 -28.671875 700.4140625 C-29.2400293 699.8051416 -29.80818359 699.1962207 -30.39355469 698.56884766 C-32.11853456 696.78773241 -32.11853456 696.78773241 -35 695 Z M-11 795 C-10 797 -10 797 -10 797 Z " fill="#000000" transform="translate(511,91)"/>
</svg>
