<?xml version="1.0" encoding="UTF-8"?>
<svg version="1.1" xmlns="http://www.w3.org/2000/svg" width="668" height="820">
<path d="M0 0 C0.77388616 0.00496818 1.54777232 0.00993636 2.34510958 0.01505509 C3.16736769 0.01244781 3.98962579 0.00984052 4.83680081 0.00715423 C7.62195927 0.00080371 10.40689657 0.00884842 13.19204867 0.0167059 C15.19700323 0.01511927 17.20195725 0.01265713 19.20690978 0.00938949 C24.73972051 0.00294666 30.2724586 0.0090667 35.80526459 0.01715377 C41.76306268 0.02370852 47.72085235 0.01878716 53.67865145 0.01527157 C64.00914456 0.01080333 74.33961611 0.01371665 84.67010653 0.02191868 C95.50903678 0.0305227 106.34795737 0.03543909 117.1868912 0.03525105 C117.860228 0.03524341 118.53356481 0.03523576 119.22730576 0.03522788 C121.96035705 0.03518698 124.69340833 0.03512137 127.42645961 0.03502207 C153.08303445 0.03411529 178.73959456 0.04407145 204.39616428 0.05945174 C227.20809209 0.07307634 250.02000941 0.07931305 272.83194125 0.07864133 C274.29661155 0.07860091 275.76128185 0.07856055 277.22595215 0.07852025 C278.31209148 0.07848972 278.31209148 0.07848972 279.42017302 0.07845858 C283.06489065 0.07835779 286.70960827 0.0782672 290.35432589 0.07818833 C291.43281295 0.07816326 291.43281295 0.07816326 292.53308763 0.07813768 C311.57462786 0.07777278 330.61616677 0.08230831 349.6577059 0.08851489 C350.33476911 0.08873517 351.01183232 0.08895544 351.7094126 0.08918238 C354.4322526 0.09007065 357.15509261 0.09095904 359.8779326 0.09187334 C369.36422341 0.0950371 378.85051318 0.09654309 388.33680448 0.09698483 C400.55957372 0.09758109 412.78233491 0.10167217 425.00510061 0.11141629 C430.90294124 0.11604687 436.80077118 0.11907516 442.69861376 0.11782208 C448.08954686 0.1167322 453.48045624 0.12021363 458.87138438 0.12747061 C460.82962365 0.12929348 462.78786534 0.12940504 464.74610472 0.12770332 C467.39210094 0.12565724 470.038018 0.12966841 472.68400729 0.13530961 C473.84483653 0.13222663 473.84483653 0.13222663 475.02911687 0.12908137 C480.28624859 0.14978914 480.28624859 0.14978914 482.51455843 1.26394406 C482.54878007 48.33214753 482.58062325 95.40035197 482.59924471 142.46856442 C482.59965888 143.51276577 482.59965888 143.51276577 482.60008142 144.57806209 C482.60606662 159.70532622 482.61160707 174.83259047 482.61668909 189.95985492 C482.61918386 197.37778701 482.62177696 204.79571906 482.62442172 212.21365109 C482.62468323 212.95184186 482.62494475 213.69003264 482.62521419 214.45059283 C482.63374361 238.39651217 482.64877123 262.3424221 482.66715288 286.28833573 C482.68600124 310.88680575 482.69832541 335.48527055 482.70238841 360.08374767 C482.70296476 363.55459119 482.70361604 367.0254347 482.70431292 370.4962782 C482.70451519 371.52099043 482.70451519 371.52099043 482.70472154 372.56640393 C482.70708904 383.58267942 482.71637608 394.59893885 482.7282225 405.61520778 C482.73997275 416.67841301 482.74433806 427.74160597 482.74156119 438.80481817 C482.7402743 444.80392387 482.74231087 450.80298221 482.75296938 456.80207959 C482.76264135 462.28562943 482.76323312 467.76909969 482.75635622 473.25265305 C482.75550523 475.24460168 482.75809339 477.23655511 482.7643248 479.22849418 C482.77226048 481.92005154 482.7680806 484.61131524 482.76065409 487.30286732 C482.76853513 488.48380625 482.76853513 488.48380625 482.77657539 489.68860254 C482.74285003 495.03565246 482.74285003 495.03565246 480.51455843 497.26394406 C477.86993947 497.46203356 475.32992116 497.53345122 472.68400729 497.51841965 C471.45062013 497.52322937 471.45062013 497.52322937 470.19231606 497.52813625 C467.40716442 497.5365091 464.62222377 497.53048673 461.8370682 497.52464047 C459.83211304 497.52765784 457.82715904 497.53154522 455.82220709 497.53623304 C450.28940252 497.54657522 444.75666228 497.5443155 439.22385228 497.54005244 C433.26604942 497.53759645 427.30826252 497.54658525 421.35046542 497.55408993 C409.66992406 497.56687018 397.98940083 497.5686324 386.30885446 497.56628967 C376.81997566 497.56445946 367.33110362 497.56621089 357.84222567 497.57051411 C356.4806326 497.5711165 355.11903954 497.5717177 353.75744647 497.57231772 C351.70585006 497.57322493 349.65425366 497.5741336 347.60265726 497.57505007 C328.51987982 497.5834837 309.43710493 497.58781242 290.35432589 497.58364335 C289.27449446 497.58340878 289.27449446 497.58340878 288.17284826 497.58316948 C284.52388288 497.58236366 280.87491751 497.58151788 277.22595215 497.58065618 C276.50121055 497.58048509 275.77646894 497.580314 275.02976547 497.58013773 C273.56416118 497.57979108 272.09855688 497.57944255 270.63295259 497.57909214 C247.82101165 497.57373326 225.00910935 497.58166843 202.19717562 497.6001257 C176.58858237 497.62082132 150.98001306 497.63157314 125.37141097 497.62755021 C122.64323771 497.62715484 119.91506446 497.6267933 117.1868912 497.62645283 C116.51510791 497.6263621 115.84332462 497.62627137 115.15118427 497.62617789 C104.99081498 497.6250098 94.83046979 497.63167616 84.67010653 497.64226475 C73.12139271 497.65428768 61.57273116 497.65562975 50.02401626 497.64347459 C44.12614154 497.63755711 38.22837108 497.63656507 32.33050311 497.64847699 C26.93951227 497.65923911 21.54871395 497.65634917 16.15773249 497.6422153 C14.1994925 497.63954146 12.24123789 497.64201786 10.28301215 497.64995117 C7.63680655 497.65993395 4.99128636 497.65174233 2.34510958 497.63867417 C1.57122342 497.64598352 0.79733726 497.65329286 0 497.6608237 C-2.12309968 497.63884088 -2.12309968 497.63884088 -5.48544157 497.26394406 C-7.99194881 493.50418319 -7.76322361 490.56936933 -7.73712385 486.21664086 C-7.74003073 485.38309867 -7.74293761 484.54955647 -7.74593258 483.69075543 C-7.75328213 480.87323709 -7.74626626 478.05593317 -7.73940885 475.23841611 C-7.74171132 473.20784941 -7.7448864 471.17728354 -7.74886334 469.14671943 C-7.75724926 463.54776192 -7.75306892 457.94887217 -7.7468909 452.34991434 C-7.74238291 446.31919286 -7.74934191 440.28848338 -7.75485075 434.25776425 C-7.76324825 423.1202954 -7.76249497 411.98284838 -7.75702781 400.84537998 C-7.7520026 390.55813166 -7.75068053 380.27089131 -7.7530731 369.98364201 C-7.75322587 369.30205586 -7.75337864 368.62046972 -7.75353604 367.91822944 C-7.75415868 365.15166779 -7.75479548 362.38510614 -7.75545556 359.6185445 C-7.76157743 333.65139116 -7.75602039 307.68425167 -7.74526177 281.71710047 C-7.73576906 258.62976162 -7.73662026 235.54244483 -7.74618375 212.45510617 C-7.75688476 186.534842 -7.76114439 160.61459006 -7.75495923 134.69432399 C-7.75431776 131.93302611 -7.75369208 129.17172823 -7.7530731 126.41043034 C-7.75291494 125.73049465 -7.75275679 125.05055896 -7.75259384 124.35001916 C-7.75031558 114.06671024 -7.75298557 103.78341014 -7.7580322 93.50010243 C-7.76373937 81.8123507 -7.76215192 70.12462004 -7.75147071 58.43686994 C-7.74619666 52.46812589 -7.74418661 46.49942673 -7.75076902 40.53068295 C-7.75669485 35.07500291 -7.75350953 29.61940971 -7.74281392 24.16373763 C-7.74056551 22.18197528 -7.74174805 20.20020571 -7.74656549 18.21844795 C-7.75257944 15.54066054 -7.74647857 12.86317718 -7.73712385 10.18540612 C-7.74180618 9.40217973 -7.74648851 8.61895334 -7.75131273 7.81199282 C-7.70522882 1.28678061 -6.53940931 0.04434269 0 0 Z M35.51455843 6.26394406 C35.51455843 6.59394406 35.51455843 6.92394406 35.51455843 7.26394406 C36.06194674 7.3640025 36.60933505 7.46406094 37.17331088 7.56715146 C69.21375643 13.42488946 101.2491651 19.31011967 133.27999842 25.22019044 C138.30742226 26.14778038 143.33497024 27.07468506 148.36282504 27.99993649 C186.2912181 34.9803927 186.2912181 34.9803927 203.43252718 38.38894406 C204.558911 38.61157925 205.68529482 38.83421445 206.84581149 39.06359616 C211.71122053 40.02659701 216.5725396 41.00387915 221.42788851 42.01638547 C223.05041665 42.34165086 224.67304841 42.66640001 226.29580843 42.99050656 C226.96956011 43.13850705 227.64331179 43.28650754 228.33748019 43.43899289 C240.2358605 45.75811612 252.69013897 42.28814028 264.40127718 40.08035031 C266.18277614 39.74909445 267.96437502 39.41837559 269.74606478 39.08814755 C274.56267753 38.19392779 279.37791735 37.29250816 284.19294512 36.38979855 C289.25645692 35.44182756 294.32122624 34.50062532 299.38589633 33.55886593 C306.85860596 32.1687097 314.33089526 30.77632896 321.80268919 29.38125935 C336.53257227 26.63104506 351.26526111 23.89612182 365.99893343 21.16628781 C368.24798393 20.74951295 370.49703281 20.33272936 372.74608004 19.91593686 C376.06338054 19.30118381 379.38068185 18.68643516 382.69798911 18.0717186 C393.19957 16.12563636 403.70090932 14.17825544 414.20183718 12.22865239 C416.07544491 11.88084993 417.9490762 11.53317438 419.82273257 11.18563405 C422.38274827 10.71076522 424.94268275 10.23546103 427.50259554 9.76003781 C428.24730955 9.6219901 428.99202355 9.4839424 429.75930464 9.34171143 C433.34974287 8.67438253 436.93582697 7.99158277 440.51455843 7.26394406 C440.51455843 6.93394406 440.51455843 6.60394406 440.51455843 6.26394406 C306.86455843 6.26394406 173.21455843 6.26394406 35.51455843 6.26394406 Z M7.51455843 7.26394406 C10.67974945 10.73393124 14.21271744 13.10895732 18.20205843 15.51394406 C19.62746828 16.38873147 21.05187642 17.26515235 22.47549593 18.14285031 C23.26665804 18.63027707 24.05782015 19.11770383 24.87295687 19.61990109 C30.05668306 22.84607597 35.18847547 26.15403103 40.32705843 29.45144406 C42.39602494 30.77833545 44.46503427 32.10516007 46.53408968 33.43191281 C47.86597323 34.2869238 47.86597323 34.2869238 49.22476351 35.15920773 C50.31039584 35.85377072 51.39602816 36.54833371 52.51455843 37.26394406 C53.24785876 37.82786547 53.98115908 38.39178689 54.73668063 38.97279683 C62.45482878 44.56515806 68.52200156 45.24031855 77.89029086 45.05862179 C79.30076144 45.05664269 80.71123922 45.05776454 82.12170565 45.06171933 C85.9170346 45.06371207 89.71078669 45.02281923 93.50575197 44.97370163 C97.48413415 44.92967559 101.46256019 44.92580968 105.4411484 44.91752377 C112.95993723 44.89584453 120.47800596 44.83850823 127.99647897 44.76807734 C136.56236979 44.68959181 145.12829662 44.65128687 153.69445801 44.6162093 C171.30157332 44.54321736 188.90798952 44.42024621 206.51455843 44.26394406 C206.51455843 43.93394406 206.51455843 43.60394406 206.51455843 43.26394406 C190.74897602 40.32248268 174.98298524 37.38321957 159.21656668 34.44624367 C151.88790359 33.08100951 144.55935458 31.71516956 137.23111117 30.34768429 C106.60419987 24.6329694 75.97219222 18.94762748 45.31499994 13.39730993 C43.32751235 13.03709742 41.34022576 12.67579524 39.35299265 12.31418172 C35.68109897 11.64685987 32.00848401 10.98367064 28.33560336 10.32180539 C27.26480469 10.12666915 26.19400603 9.9315329 25.09075892 9.73048344 C19.24061911 8.68211329 13.42962482 7.84800446 7.51455843 7.26394406 Z M459.96200716 7.92937985 C458.55752935 8.18938731 458.55752935 8.18938731 457.12467825 8.45464745 C456.09672739 8.65291162 455.06877652 8.85117579 454.00967562 9.05544797 C452.92233472 9.25898168 451.83499382 9.4625154 450.7147032 9.6722168 C447.07891047 10.3545797 443.44523141 11.04760601 439.81143343 11.74050656 C437.24862245 12.2234489 434.68567726 12.70567948 432.12260592 13.18723813 C426.66730426 14.21314356 421.21299305 15.24417437 415.75933993 16.27880612 C407.29204698 17.88504334 398.82285129 19.48108444 390.35318148 21.07473508 C388.94538192 21.33966103 387.53758283 21.60458953 386.12978423 21.86952057 C384.02317598 22.26595604 381.91656564 22.66238038 379.80994588 23.05875465 C375.60754697 23.84952786 371.40530284 24.64111757 367.20318419 25.43337867 C345.00229823 29.61902296 322.79074657 33.74344461 300.56474459 37.79366055 C298.32339537 38.2021116 296.08211538 38.61094058 293.84085238 39.01986447 C286.06607738 40.43817362 278.29077299 41.85354629 270.51455843 43.26394406 C270.51455843 43.59394406 270.51455843 43.92394406 270.51455843 44.26394406 C288.57014799 44.54557525 306.62515954 44.7565079 324.68247855 44.88569012 C333.06890712 44.94729486 341.45396294 45.03111613 349.83950961 45.1692175 C357.15742681 45.28967756 364.4743491 45.36644003 371.79323035 45.393006 C375.66109599 45.40851184 379.52611823 45.44433796 383.39306223 45.53270474 C400.87816085 45.916905 414.71408598 45.36715996 428.76360857 33.68404713 C431.25909384 31.66009067 433.90736566 30.04298606 436.65518343 28.38113156 C447.03013124 21.80375455 457.3374065 15.14382559 467.51455843 8.26394406 C464.30822233 7.19516536 463.19346934 7.31796819 459.96200716 7.92937985 Z M5.51455843 13.26394406 C6.99627227 17.28234825 8.91021782 20.84245931 11.07705843 24.53347531 C11.59854716 25.42412938 11.59854716 25.42412938 12.13057101 26.33277646 C13.25471885 28.24962411 14.3842782 30.16320696 15.51455843 32.07644406 C16.29036457 33.39447284 17.06616207 34.71250672 17.84195101 36.03054562 C22.62441447 44.1402924 27.44232153 52.22515481 32.52627718 60.15066281 C33.75133965 62.0688844 34.94817335 64.00590736 36.09658968 65.97097531 C41.68168375 75.24869356 51.65877563 80.07821632 60.70205843 85.57644406 C68.86273713 90.58280508 76.8884089 95.74144092 84.81241 101.11306515 C87.68222733 103.05344365 90.56786994 104.97002312 93.45205843 106.88894406 C95.98330843 108.57644406 95.98330843 108.57644406 98.51455843 110.26394406 C99.17455843 109.93394406 99.83455843 109.60394406 100.51455843 109.26394406 C99.87131625 108.28038937 99.22807406 107.29683468 98.56533968 106.28347531 C93.3454579 98.27377502 88.21886026 90.21496461 83.20205843 82.07644406 C82.66387484 81.2091467 82.12569125 80.34184933 81.57119906 79.44827023 C78.65449492 74.74727491 75.77171109 70.02939081 72.92862093 65.28347531 C71.7286767 63.31827937 70.52817074 61.3534263 69.32705843 59.38894406 C68.79362826 58.4799133 68.26019808 57.57088254 67.71060336 56.63430539 C63.64647682 50.05584252 59.09159461 46.25178361 52.51455843 42.26394406 C51.81645052 41.82582394 51.11834261 41.38770383 50.39907992 40.93630734 C48.38838832 39.68859809 46.3608017 38.47366241 44.32705843 37.26394406 C35.84387671 32.15863106 27.55839333 26.77364954 19.30679476 21.30300656 C14.81098195 18.33837354 10.4181875 15.50184189 5.51455843 13.26394406 Z M468.51455843 13.26394406 C465.95373226 14.75236649 463.52795735 16.29641607 461.07705843 17.95144406 C459.52437619 18.9785495 457.97096437 20.00455272 456.41690218 21.02956906 C455.60849886 21.56517453 454.80009554 22.10078 453.96719515 22.65261593 C450.83174812 24.71253534 447.66686346 26.72251317 444.49136508 28.71999875 C442.90944154 29.71648084 441.33185215 30.7198734 439.75845492 31.72976437 C435.75488562 34.28885596 431.73843226 36.71362287 427.54580843 38.95144406 C414.91520091 45.89121466 408.91343962 53.89060015 402.09903109 66.43337765 C399.408108 71.24055213 396.38528888 75.83050447 393.38955843 80.45144406 C387.29362072 89.97300884 381.36624475 99.59074832 375.51455843 109.26394406 C378.78158508 109.26394406 379.4552519 108.88715972 382.07364047 107.14358273 C383.1321773 106.44606145 383.1321773 106.44606145 384.21209872 105.73444882 C385.35568347 104.9659435 385.35568347 104.9659435 386.52237093 104.18191281 C387.32125735 103.6531001 388.12014376 103.12428738 388.94323885 102.57945004 C391.51300797 100.87653364 394.07641007 99.16430566 396.63955843 97.45144406 C399.14426222 95.78641009 401.6502489 94.12332419 404.15658724 92.46075192 C405.81755854 91.3578945 407.47726868 90.25313535 409.13571322 89.1464819 C413.19915481 86.43923934 417.27815985 83.76578367 421.40811312 81.16091672 C422.57091296 80.42413441 422.57091296 80.42413441 423.7572037 79.67246762 C425.20991235 78.755304 426.66709693 77.84517452 428.12957919 76.94367734 C434.0446313 73.20223201 437.34193531 68.77215398 440.90518343 62.76394406 C441.83971346 61.19567868 441.83971346 61.19567868 442.79312289 59.59573117 C443.44369662 58.49624142 444.09427035 57.39675168 444.76455843 56.26394406 C446.11693431 53.99412156 447.46979352 51.72458696 448.82315218 49.45535031 C449.46623324 48.37527707 450.10931429 47.29520383 450.77188265 46.18240109 C457.18564213 35.44128582 463.87339708 24.86530615 470.51455843 14.26394406 C469.52455843 13.76894406 469.52455843 13.76894406 468.51455843 13.26394406 Z M-0.48544157 15.26394406 C0.92319995 29.32616711 3.32586951 43.15676507 5.84658968 57.05691281 C6.28001323 59.46773987 6.7130276 61.87864053 7.14566195 64.28960934 C8.29624057 70.69337732 9.45339949 77.09593899 10.61215746 83.49823132 C11.32838329 87.45693324 12.04206355 91.4160914 12.7551285 95.37536374 C20.19790302 136.69819797 27.74336513 178.00151004 35.51455843 219.26394406 C35.84455843 219.26394406 36.17455843 219.26394406 36.51455843 219.26394406 C36.7961386 200.68685544 37.00709862 182.11020573 37.1363045 163.53141823 C37.19791948 154.90287455 37.28176172 146.27566432 37.41983187 137.64797726 C37.54025897 130.11910953 37.61704699 122.59120822 37.64362037 115.06140396 C37.65913138 111.08179165 37.69499443 107.10494141 37.78331912 103.12622395 C38.16070421 85.44564085 37.82324578 71.24523329 25.95501864 57.05334321 C23.78220494 54.35418431 22.11364498 51.46356431 20.37783968 48.46706906 C19.78503207 47.47569943 19.19222445 46.4843298 18.58145297 45.46291867 C18.00250277 44.48975705 17.42355258 43.51659543 16.82705843 42.51394406 C16.19912386 41.46408322 15.57118929 40.41422238 14.9242264 39.33254758 C12.13840075 34.6736179 9.36200934 30.00923092 6.59658968 25.33816281 C6.17401888 24.62692258 5.75144808 23.91568234 5.31607211 23.18288937 C4.5537788 21.89906026 3.79462234 20.61336131 3.03921664 19.3254675 C2.22509654 17.9549547 1.37447337 16.60619707 0.51455843 15.26394406 C0.18455843 15.26394406 -0.14544157 15.26394406 -0.48544157 15.26394406 Z M474.51455843 16.26394406 C473.38870639 17.97449595 472.31500605 19.71935641 471.26065218 21.47488156 C470.92784747 22.02627804 470.59504275 22.57767453 470.25215304 23.14578 C469.1488839 24.97490542 468.05053095 26.80693476 466.95205843 28.63894406 C465.40820176 31.2024804 463.86181766 33.76448841 462.31533968 36.32644406 C461.9196982 36.98260708 461.52405673 37.63877011 461.11642611 38.31481686 C458.41339044 42.79260542 455.68361047 47.25302884 452.93252718 51.70144406 C452.5684627 52.29043484 452.20439822 52.87942563 451.82930148 53.48626462 C450.09147108 56.2961766 448.35042291 59.10404645 446.60611117 61.90994015 C445.98035189 62.92137082 445.35459261 63.93280148 444.70987093 64.97488156 C443.89026888 66.29431759 443.89026888 66.29431759 443.05410922 67.6404089 C442.29203158 68.93905881 442.29203158 68.93905881 441.51455843 70.26394406 C440.73594706 71.427114 440.73594706 71.427114 439.94160616 72.61378232 C437.7867732 78.12550324 438.10596408 83.42326324 438.14224398 89.29006711 C438.13859332 90.60285641 438.13494265 91.91564572 438.13118136 93.26821652 C438.12180239 96.85688971 438.13117089 100.44528875 438.14451349 104.03394046 C438.15585272 107.79215258 438.15171875 111.5503517 438.14976656 115.30857602 C438.1488847 121.61576562 438.15994423 127.92284751 438.17837679 134.23000851 C438.19957033 141.52371636 438.20304783 148.81726678 438.19681484 156.1109992 C438.19112356 163.1301448 438.19676226 170.14923494 438.20798838 177.16837254 C438.2126347 180.15515741 438.21350812 183.14190837 438.21140254 186.12869588 C438.20917193 190.29454964 438.22361671 194.46018212 438.23990023 198.62600461 C438.23742281 199.86814221 438.2349454 201.11027981 438.23239291 202.39005795 C438.23947772 203.52142178 438.24656252 204.65278561 438.25386202 205.8184332 C438.25591489 206.80341133 438.25796776 207.78838946 438.26008284 208.80321541 C438.3476656 211.51861995 438.3476656 211.51861995 440.51455843 214.26394406 C448.68922723 170.14784418 456.85828306 126.03075424 464.88411868 81.8872923 C465.32206347 79.47891274 465.76034767 77.07059515 466.1987015 74.66229001 C467.75544184 66.10716199 469.3054333 57.55086489 470.84372103 48.99239865 C471.28279939 46.55204022 471.72345225 44.11196443 472.16586459 41.67220822 C472.74950792 38.44978193 473.3264986 35.22624277 473.90127718 32.00222531 C474.06843737 31.08611981 474.23559756 30.17001431 474.4078232 29.22614804 C475.18073385 24.8444485 475.70309491 20.73540835 475.51455843 16.26394406 C475.18455843 16.26394406 474.85455843 16.26394406 474.51455843 16.26394406 Z M476.51455843 44.26394406 C469.85017015 79.60429202 463.24351061 114.95442941 456.8068701 150.33703843 C456.13452934 154.03283823 455.46145916 157.72850489 454.78799593 161.42410031 C454.65496632 162.15426295 454.52193671 162.88442559 454.38487589 163.63671437 C452.44208477 174.29080043 450.45094152 184.93504205 448.42949831 195.57446995 C447.57200841 200.09406583 446.72094596 204.61487788 445.86962664 209.13563958 C445.06456422 213.40554312 444.2482153 217.67308472 443.42322886 221.93918076 C443.04016185 223.93095641 442.66305944 225.92375169 442.28857577 227.91715756 C441.83543375 230.32884819 441.37296449 232.73881446 440.89898837 235.14649716 C439.71200222 241.55838004 439.32150427 246.86687436 440.51455843 253.26394406 C440.72370883 254.46057675 440.93285922 255.65720944 441.1483475 256.89010373 C441.81415363 260.64763991 442.51361673 264.39833319 443.22062457 268.14831105 C443.71373088 270.76456816 444.20261182 273.38158617 444.69049227 275.9988226 C445.40218918 279.81534896 446.11529997 283.63160683 446.82953036 287.44765988 C453.96636395 325.59779448 460.85635853 363.78839603 467.57705843 402.01394406 C467.87819111 403.72626029 467.87819111 403.72626029 468.18540728 405.47316876 C470.63472792 419.40233011 473.07810885 433.33252568 475.51455843 447.26394406 C475.84455843 447.26394406 476.17455843 447.26394406 476.51455843 447.26394406 C476.84455843 314.27394406 477.17455843 181.28394406 477.51455843 44.26394406 C477.18455843 44.26394406 476.85455843 44.26394406 476.51455843 44.26394406 Z M-1.48544157 45.26394406 C-1.48544157 178.91394406 -1.48544157 312.56394406 -1.48544157 450.26394406 C-1.15544157 450.26394406 -0.82544157 450.26394406 -0.48544157 450.26394406 C-0.34922391 449.44362195 -0.21300626 448.62329983 -0.0726608 447.77811947 C5.92502178 411.68889905 11.95160178 375.60769257 18.63955843 339.63894406 C18.76074038 338.98664696 18.88192233 338.33434987 19.00677645 337.66228619 C21.48197231 324.34282247 23.99028164 311.02961228 26.50781214 297.71809712 C27.55637312 292.17301468 28.60125155 286.62724464 29.64413798 281.08109227 C30.49335557 276.56816913 31.35272197 272.05724861 32.21426547 267.5466589 C32.65322074 265.22070939 33.09187714 262.89470345 33.53018343 260.56863156 C33.73265688 259.52082516 33.93513033 258.47301877 34.14373934 257.39346066 C35.91113161 247.93828859 35.29821138 240.16003015 33.44424593 230.77566281 C32.96529187 228.28422944 32.48645822 225.79277291 32.0077225 223.30129758 C31.74334571 221.93692378 31.47873249 220.57259578 31.21389925 219.20831051 C29.7441595 211.62920452 28.30344788 204.04456637 26.86612093 196.45925656 C26.70499316 195.60947043 26.54386538 194.7596843 26.37785494 193.88414708 C21.24869419 166.79411309 16.40050709 139.65171546 11.5184418 112.51629773 C10.76362436 108.32089091 10.00822396 104.12558917 9.25277865 99.93029538 C7.82325327 91.9909389 6.39506063 84.05134332 4.96768343 76.11160031 C4.63651585 74.26976729 4.63651585 74.26976729 4.29865801 72.39072552 C3.6790783 68.94368195 3.06007702 65.49653511 2.44131625 62.04934445 C2.16873146 60.53291364 2.16873146 60.53291364 1.8906399 58.98584786 C1.0710832 54.41611883 0.26234593 49.84611144 -0.48544157 45.26394406 C-0.81544157 45.26394406 -1.14544157 45.26394406 -1.48544157 45.26394406 Z M84.51455843 50.26394406 C87.45397932 52.22355798 89.84104598 53.16951121 93.17129672 54.28835812 C94.92678835 54.88182034 94.92678835 54.88182034 96.71774447 55.4872717 C98.00676496 55.9181023 99.29580778 56.34886613 100.58487093 56.77956906 C101.92580808 57.23124942 103.26660533 57.68334527 104.60727084 58.13583127 C108.20370723 59.34853932 111.80187788 60.55602216 115.40038455 61.76257077 C119.14278383 63.01836375 122.88359342 64.27887116 126.62442172 65.53933468 C128.12219344 66.04397481 129.61996566 66.54861349 131.11773837 67.0532507 C131.85649832 67.30217068 132.59525828 67.55109067 133.3564049 67.80755368 C135.59308705 68.56095501 137.82996978 69.31375821 140.06689608 70.06643429 C149.91172818 73.3799568 159.74428499 76.72756248 169.56680453 80.1067175 C175.09928826 82.00999507 180.63822745 83.89407629 186.17938387 85.77193967 C190.53855965 87.24976577 194.89415328 88.73732535 199.24600375 90.23660031 C204.20117219 91.94216474 209.16400592 93.62361994 214.13229525 95.29055539 C216.02834847 95.9308844 217.92180786 96.5789549 219.81234896 97.23537961 C222.4251926 98.14117951 225.04615293 99.01806769 227.67080843 99.88894406 C228.43454775 100.16097653 229.19828707 100.433009 229.98517001 100.71328488 C235.76755763 102.58245878 239.77555945 102.06327186 245.51455843 100.26394406 C246.40974185 99.99396603 247.30492526 99.723988 248.22723544 99.44582883 C251.30974593 98.49089664 254.37527483 97.49218256 257.44033968 96.48269406 C259.13886584 95.92825116 259.13886584 95.92825116 260.87170565 95.36260739 C264.52511644 94.16795203 268.17620974 92.96640435 271.82705843 91.76394406 C273.07363223 91.35488827 274.32020602 90.94583249 275.60455477 90.52438107 C290.07421234 85.77518233 304.50952067 80.97339556 318.81631625 75.75246945 C332.49351341 70.77318862 346.33467947 66.27351738 360.15371859 61.70681515 C366.86173821 59.48908914 373.56282153 57.25056578 380.26455843 55.01394406 C382.46765253 54.27947634 384.67077405 53.54509091 386.87393343 52.81081906 C387.77595492 52.51014523 388.6779764 52.2094714 389.60733187 51.89968625 C390.23671664 51.68989133 390.8661014 51.4800964 391.51455843 51.26394406 C391.51455843 50.93394406 391.51455843 50.60394406 391.51455843 50.26394406 C290.20455843 50.26394406 188.89455843 50.26394406 84.51455843 50.26394406 Z M70.51455843 52.26394406 C73.94126008 58.84858643 77.65636364 65.16276421 81.71255648 71.37917843 C85.1519871 76.66218878 88.46351997 82.01860525 91.76455843 87.38894406 C98.17250979 97.79662353 104.81696833 108.04117181 111.51455843 118.26394406 C134.31750731 115.88864096 157.03956423 112.92672344 179.7712723 109.95876828 C184.71996638 109.31320579 189.66903806 108.67055099 194.61807406 108.02761593 C204.25059698 106.77582597 213.88271291 105.52093482 223.51455843 104.26394406 C221.02212178 101.77150741 218.98658689 101.26523918 215.63589633 100.16360226 C214.39184023 99.75114255 213.14778414 99.33868283 211.86602938 98.91372433 C210.48977184 98.46401508 209.11349984 98.01435005 207.73721468 97.56472531 C206.31012437 97.09344816 204.88323806 96.62155284 203.45654452 96.1490759 C200.41577145 95.14304628 197.37392733 94.14035464 194.33117831 93.14031735 C186.38999339 90.52972008 178.45621899 87.89673681 170.52237093 85.26394406 C169.73615548 85.00323432 168.94994002 84.74252457 168.13989985 84.47391453 C155.03505169 80.12680806 141.9740818 75.66630028 128.95205843 71.07644406 C116.4720654 66.68461352 103.97945481 62.34005963 91.43426669 58.13732663 C89.84103585 57.60340974 88.24830878 57.06798687 86.65612948 56.53094235 C84.49591521 55.80305825 82.33376729 55.08128107 80.17080843 54.36160031 C78.34259554 53.75070553 78.34259554 53.75070553 76.47744906 53.12746945 C73.54889045 52.12404127 73.54889045 52.12404127 70.51455843 52.26394406 Z M396.91128695 54.0454382 C395.72727801 54.43803326 394.54326907 54.83062832 393.32338107 55.23512021 C392.01336921 55.67299475 390.7033983 56.11099177 389.39346468 56.54910031 C388.03403617 57.00156663 386.67454289 57.45383842 385.31498873 57.90592709 C381.65957207 59.12259328 378.00561055 60.34357427 374.35202944 61.56574002 C372.0785193 62.32595557 369.80462181 63.0850015 367.53061068 63.84371701 C347.65967189 70.47509614 327.83187486 77.21410524 308.07290804 84.17312375 C294.94994723 88.79153802 281.7726002 93.23175661 268.55996859 97.58669797 C267.84905062 97.82145337 267.13813265 98.05620877 266.40567172 98.29807797 C264.50584219 98.92487787 262.60520248 99.54922063 260.70449984 100.17336789 C257.93217827 101.12116832 255.22135804 102.14466998 252.51455843 103.26394406 C252.51455843 103.59394406 252.51455843 103.92394406 252.51455843 104.26394406 C264.4769051 105.79501875 276.43937137 107.32515527 288.40198576 108.85413685 C293.95836648 109.56434541 299.5147075 110.27486136 305.07095492 110.98611203 C310.44605288 111.67416186 315.82125885 112.36136219 321.19653666 113.04800549 C323.23397299 113.3084151 325.27137205 113.56911645 327.30873072 113.83013287 C339.36995899 115.37513339 351.43459003 116.87253672 363.51455843 118.26394406 C368.43029888 111.36432689 373.05846363 104.34339433 377.51455843 97.13894406 C378.82310449 95.03474773 380.13169977 92.93058201 381.44033968 90.82644406 C382.10759066 89.75136593 382.77484164 88.67628781 383.46231234 87.56863156 C386.86673786 82.08655877 390.28409301 76.61258119 393.70205843 71.13894406 C394.32532015 70.13847043 394.94858187 69.13799679 395.59073031 68.10720578 C400.42794919 60.35623952 400.42794919 60.35623952 402.94033968 56.70925656 C404.69499196 54.46837027 404.69499196 54.46837027 404.51455843 52.26394406 C401.74327224 52.26394406 399.54416839 53.16915595 396.91128695 54.0454382 Z M44.51455843 81.26394406 C46.12705047 89.51847552 48.74262995 97.3899621 51.39737093 105.35378781 C51.88962534 106.84174614 52.38143094 108.32985302 52.87281954 109.8180975 C53.91624381 112.97606093 54.96209054 116.13320647 56.00995028 119.2897009 C58.75250852 127.55236638 61.47892017 135.82036704 64.20596468 144.08816281 C64.47779763 144.91185486 64.74963057 145.73554692 65.02970088 146.58419934 C70.6011707 163.47002691 76.04822374 180.39362102 81.42715609 197.34182492 C85.34782077 209.68637054 89.38409278 221.98794967 93.51455843 234.26394406 C93.84455843 234.26394406 94.17455843 234.26394406 94.51455843 234.26394406 C95.91484092 222.95346178 97.31456379 211.6429104 98.7135998 200.33227387 C99.36345627 195.07858843 100.01349534 189.82492573 100.6639725 184.57131711 C101.29336372 179.48795204 101.92224818 174.40452449 102.55080187 169.3210558 C102.78900403 167.39527919 103.02737951 165.46952402 103.26594317 163.54379216 C103.91931372 158.26915811 104.56887753 152.99408399 105.21322024 147.71833935 C105.51207563 145.28416648 105.81630152 142.85070378 106.12082064 140.41723385 C106.3064996 138.90514707 106.49195651 137.39303299 106.67715609 135.88088742 C106.83930605 134.57494122 107.00145602 133.26899502 107.16851962 131.9234747 C108.19183725 125.41902922 108.19183725 125.41902922 106.19204867 119.61819211 C105.26694491 119.0773901 105.26694491 119.0773901 104.32315218 118.52566281 C103.63390658 118.10373654 102.94466097 117.68181027 102.23452914 117.24709836 C101.48131381 116.81953244 100.72809847 116.39196652 99.95205843 115.95144406 C98.37055212 114.99439377 96.78983586 114.03603685 95.20987093 113.07644406 C94.41355258 112.60335812 93.61723422 112.13027218 92.796785 111.64285031 C89.56310511 109.68908223 86.44845073 107.57813577 83.32705843 105.45144406 C76.98871351 101.19516416 70.57385216 97.06091669 64.13955843 92.95144406 C63.22408236 92.36451779 62.30860629 91.77759152 61.36538851 91.17287961 C55.85097023 87.66379544 50.2614375 84.37649676 44.51455843 81.26394406 Z M424.69424593 84.20144406 C423.6954642 84.84146359 422.69668246 85.48148312 421.66763461 86.14089718 C420.0449869 87.19180539 420.0449869 87.19180539 418.38955843 88.26394406 C417.26636772 88.9874071 416.14307534 89.71071232 415.01968539 90.43386593 C404.38427632 97.29494554 393.83966886 104.29445727 383.34805453 111.37331906 C381.30607489 112.73581176 379.24984846 114.07703814 377.18496859 115.40456906 C376.09361605 116.11097531 375.00226351 116.81738156 373.87783968 117.54519406 C372.87664095 118.18521359 371.87544222 118.82523312 370.84390414 119.48464718 C368.2502106 121.12041667 368.2502106 121.12041667 367.51455843 124.26394406 C367.54667429 126.20210511 367.54667429 126.20210511 367.83641207 128.3158392 C367.93311694 129.13851285 368.0298218 129.96118649 368.12945712 130.80878964 C368.24211916 131.70801648 368.35478121 132.60724331 368.47085726 133.53371945 C368.5845415 134.48369809 368.69822573 135.43367673 368.81535494 136.41244259 C369.19416642 139.56299929 369.58269333 142.71227378 369.97158968 145.86160031 C370.23774573 148.05290313 370.50341999 150.24426452 370.76863253 152.43568173 C371.32696642 157.03708025 371.88987317 161.63788891 372.45620883 166.23830929 C373.17960376 172.11603241 373.89374328 177.99483213 374.60466635 183.87407532 C375.15326703 188.40508284 375.70583778 192.93559914 376.25968134 197.46596852 C376.52417661 199.6318387 376.78769034 201.79782899 377.05018198 203.96394292 C377.41962209 207.00591873 377.79416154 210.04722528 378.17007601 213.08840695 C378.27666537 213.97346417 378.38325472 214.85852139 378.49307406 215.77039853 C379.22900684 221.66554252 380.27550194 227.45412389 381.51455843 233.26394406 C383.33709284 230.53014245 384.15646425 228.62254494 385.1117264 225.5376257 C385.41365908 224.57154889 385.71559176 223.60547207 386.02667391 222.61012021 C386.35009768 221.55873364 386.67352145 220.50734707 387.00674593 219.42410031 C387.34861941 218.32755627 387.69049288 217.23101224 388.04272616 216.10123959 C388.77843748 213.74112722 389.51218137 211.38040083 390.24417269 209.01913205 C392.16872118 202.81444762 394.11021054 196.61508632 396.05362093 190.41628781 C396.43925204 189.1859985 396.82488314 187.9557092 397.22220004 186.6881384 C400.30205602 176.88704429 403.48421155 167.12457728 406.76455843 157.38894406 C407.7099882 154.58038976 408.6553823 151.77182351 409.60049593 148.96316281 C409.83339327 148.2713995 410.06629061 147.5796362 410.30624545 146.86691037 C413.3971892 137.66583268 416.39170614 128.43317639 419.38955843 119.20144406 C419.78793917 117.97642178 419.78793917 117.97642178 420.194368 116.72665158 C424.03115383 104.92555593 427.79347844 93.10201275 431.51455843 81.26394406 C428.61418399 81.26394406 427.12737373 82.63700541 424.69424593 84.20144406 Z M41.51455843 92.26394406 C41.51455843 194.89394406 41.51455843 297.52394406 41.51455843 403.26394406 C43.91735141 400.86115108 44.38012453 399.09352371 45.41543734 395.86355343 C45.78467822 394.72186703 46.15391909 393.58018063 46.53434908 392.40389767 C46.93258379 391.15115048 47.33081851 389.89840329 47.74112093 388.60769406 C48.1647835 387.28987732 48.58898427 385.9722335 49.01368868 384.65475217 C50.15797095 381.09982495 51.29467081 377.54251423 52.4300133 373.98472348 C53.61644284 370.27136098 54.80990137 366.56025904 56.00259554 362.848905 C58.62854963 354.67312921 61.24454725 346.49418752 63.8588959 338.31469479 C64.86414147 335.17053453 65.87071676 332.02680045 66.8773514 328.88308468 C67.24070086 327.74832196 67.60405032 326.61355923 67.97841036 325.44440976 C68.68056842 323.25169839 69.38276691 321.05899997 70.08500826 318.86631528 C71.7304562 313.72697269 73.37298669 308.58673638 75.0089432 303.44436398 C78.01296096 294.01036141 81.05629001 284.59312468 84.20205843 275.20535031 C85.05709671 272.63689079 85.91133506 270.06816626 86.76550448 267.49941769 C87.54987558 265.15760114 88.35018574 262.82167776 89.15152133 260.48562375 C89.61836344 259.0851666 90.08447453 257.68446546 90.54971468 256.28347531 C90.95584994 255.08827267 91.36198519 253.89307004 91.78042758 252.66164914 C93.24641179 245.87677972 90.90048066 239.88138449 88.70596468 233.51785031 C88.42388659 232.68274426 88.1418085 231.84763821 87.85118258 230.98722592 C87.24606581 229.19664932 86.63840026 227.40693239 86.02841341 225.618009 C84.40961272 220.86795527 82.81131414 216.11102773 81.21377718 211.35378781 C80.89366671 210.40133175 80.57355624 209.4488757 80.24374545 208.46755734 C77.51057491 200.30894412 74.92035966 192.11220956 72.38955843 183.88894406 C68.74073117 172.05189659 64.89951919 160.28920457 60.9577347 148.54659787 C56.65401741 135.72565738 52.43666655 122.87831609 48.26455843 110.01394406 C47.97398562 109.11812619 47.6834128 108.22230832 47.38403475 107.29934445 C45.7589859 102.2881551 44.13589003 97.27633727 42.51455843 92.26394406 C42.18455843 92.26394406 41.85455843 92.26394406 41.51455843 92.26394406 Z M432.51455843 94.26394406 C412.9184 152.57245327 412.9184 152.57245327 394.09875643 211.13476315 C392.55162647 216.0646156 390.94302448 220.96704292 389.27285922 225.8567175 C388.89786791 226.97400235 388.52287661 228.0912872 388.13652194 229.24242917 C387.41155883 231.39918278 386.67281354 233.55137168 385.91786349 235.69781247 C382.25054957 246.71061007 384.60471518 254.4270661 388.10049593 265.22878781 C388.46926348 266.39054532 388.83803103 267.55230282 389.21797335 268.7492651 C390.22374621 271.91062354 391.23716143 275.06932113 392.25450671 278.22696057 C393.10911086 280.88406978 393.95735802 283.54319074 394.8056742 286.20231286 C402.85997126 311.44434889 411.119468 336.6197174 419.40263522 361.78739682 C422.53493613 371.31081514 425.63193204 380.84531421 428.70205843 390.38894406 C428.9092853 391.03304227 429.11651217 391.67714047 429.33001864 392.3407568 C430.39355493 395.64783864 431.45523841 398.95550933 432.51455843 402.26394406 C432.84455843 402.26394406 433.17455843 402.26394406 433.51455843 402.26394406 C433.51455843 300.62394406 433.51455843 198.98394406 433.51455843 94.26394406 C433.18455843 94.26394406 432.85455843 94.26394406 432.51455843 94.26394406 Z M231.62504733 107.81994382 C230.61700549 107.94326581 229.60896365 108.0665878 228.57037508 108.19364682 C227.46535647 108.33076581 226.36033785 108.46788479 225.22183383 108.6091589 C224.05739245 108.75224988 222.89295107 108.89534085 221.6932236 109.04276791 C217.83261341 109.51794069 213.97237837 109.99609956 210.11221468 110.47488156 C208.78275958 110.63954539 207.45330133 110.80418382 206.12383997 110.96879712 C199.87975652 111.74216658 193.63589655 112.51731097 187.39230412 113.29463461 C180.18524622 114.19184946 172.97746566 115.08294349 165.76901025 115.96885851 C160.19630992 116.65414155 154.62432887 117.3450813 149.05285603 118.04027274 C145.72543542 118.45531848 142.39775379 118.86791284 139.06929362 119.2745451 C135.3575224 119.72942831 131.64701599 120.1935345 127.93667758 120.65994015 C126.83368319 120.79301068 125.73068881 120.92608121 124.59427035 121.06318417 C123.58340868 121.19214581 122.57254702 121.32110745 121.53105319 121.45397702 C120.65371555 121.56274859 119.77637791 121.67152016 118.87245429 121.78358784 C116.36649373 122.29410816 114.61656928 122.79629237 112.51455843 124.26394406 C111.66854754 126.26808241 111.66854754 126.26808241 111.41024935 128.68519345 C111.26695004 129.617495 111.12365073 130.54979655 110.97600901 131.51034966 C110.83758774 132.53883806 110.69916647 133.56732646 110.55655062 134.62698117 C110.3970562 135.71092695 110.23756178 136.79487273 110.0732342 137.91166535 C109.54795818 141.53552862 109.05263552 145.16265744 108.56143343 148.79128781 C108.38784178 150.04197552 108.21425013 151.29266324 108.03539813 152.58125058 C106.81239042 161.40650838 105.653728 170.23875892 104.53381598 179.07761279 C104.26506949 181.19741297 103.99452001 183.31697814 103.72390139 185.43654004 C98.47119129 226.73366868 95.99984409 264.70779254 104.16055453 305.86843625 C105.71809047 313.97133972 106.70936294 322.10798748 107.62783968 330.30300656 C107.70681742 331.00527686 107.78579516 331.70754716 107.86716616 332.43109837 C108.25443336 335.89104354 108.63500373 339.35167765 109.01156771 342.8128027 C109.69245473 349.05221469 110.4267849 355.28522767 111.16690218 361.51785031 C111.28954943 362.58488186 111.41219668 363.65191342 111.53856051 364.75127926 C111.71025004 366.20303052 111.71025004 366.20303052 111.88540804 367.68411008 C112.03241404 368.94651265 112.03241404 368.94651265 112.18238986 370.2344183 C112.42146842 372.32515943 112.42146842 372.32515943 113.51455843 374.26394406 C115.72932569 374.90726461 115.72932569 374.90726461 118.40672457 375.29443112 C119.40735745 375.45973199 120.40799033 375.62503285 121.43894541 375.79534283 C126.0346337 376.49554314 130.63205166 377.16083967 135.23990023 377.77615109 C136.24968432 377.91299313 137.25946841 378.04983517 138.29985201 378.19082394 C141.60408912 378.63753593 144.90885897 379.08011335 148.21377718 379.52175656 C149.35317059 379.67437829 150.492564 379.82700001 151.66648448 379.98424664 C157.69509738 380.79140301 163.72415297 381.59515774 169.75357211 382.39626828 C175.93973522 383.21893899 182.12418804 384.05380417 188.30833876 384.89144841 C193.10247979 385.53844974 197.89783605 386.17607289 202.69355357 386.81127301 C204.97228695 387.11474412 207.25056183 387.42168122 209.52832758 387.73233166 C230.63676216 390.60545983 249.32888411 390.20857567 270.40518343 387.27175656 C272.68515472 386.96178747 274.96524765 386.65271192 277.24545443 386.34447995 C283.20636021 385.53605521 289.16540605 384.71464036 295.12417758 383.89065304 C299.97466625 383.22216976 304.82639993 382.56300749 309.67822802 381.90432683 C315.50430127 381.11321998 321.32982744 380.31812611 327.15518343 379.52175656 C328.25054667 379.37206544 329.34590991 379.22237431 330.47446597 379.06814709 C346.5281046 376.88512343 346.5281046 376.88512343 362.51455843 374.26394406 C365.10555727 353.67184329 367.67926266 333.07762402 370.23883975 312.48159543 C370.5100801 310.29996409 370.78164832 308.11837381 371.05331576 305.93679562 C372.06053071 297.84617333 373.06088821 289.75476446 374.05139315 281.66207638 C374.35846375 279.16055469 374.66762412 276.65928857 374.97894442 274.1582922 C375.41324302 270.66554243 375.83985155 267.17193384 376.26455843 263.67800656 C376.39229144 262.66399777 376.52002444 261.64998898 376.65162814 260.60525265 C376.76623888 259.64909054 376.88084963 258.69292843 376.99893343 257.70779172 C377.14927035 256.4851109 377.14927035 256.4851109 377.30264437 255.23772946 C377.89295107 246.95396853 377.28581112 238.96664055 376.24527133 230.74319211 C376.11032763 229.63785626 375.97538393 228.53252041 375.83635104 227.39368954 C375.39247428 223.77026869 374.93998717 220.14798191 374.48721468 216.52566281 C374.1752523 213.99608363 373.86377186 211.46644498 373.55275118 208.93674985 C372.90152755 203.65008744 372.24653126 198.36391412 371.58804476 193.07815304 C370.74391724 186.30204892 369.90718985 179.52505255 369.07280982 172.74774209 C368.2761858 166.27754344 367.47538658 159.80786155 366.67471468 153.33816281 C366.5223592 152.10433047 366.37000372 150.87049813 366.21303141 149.59927693 C365.78176793 146.11184036 365.34792167 142.62473533 364.91324008 139.13772336 C364.78592501 138.10542599 364.65860995 137.07312863 364.52743685 136.00954953 C364.34867762 134.5820966 364.34867762 134.5820966 364.16630709 133.12580624 C364.06398807 132.30272819 363.96166905 131.47965014 363.85624945 130.63163033 C363.49856776 128.15313956 363.0270709 125.71469495 362.51455843 123.26394406 C355.04453384 121.83028566 347.58028013 120.68277856 340.03213656 119.75173703 C338.94294924 119.61489499 337.85376193 119.47805295 336.73156893 119.33706418 C333.1700183 118.89040676 329.60793654 118.44815796 326.04580843 118.00613156 C323.55762229 117.69532235 321.06946352 117.38429395 318.5813309 117.07305661 C312.72422598 116.34115077 306.86675445 115.61223565 301.00912392 114.88454965 C295.66910813 114.22090826 290.32954568 113.55367892 284.99009907 112.88547543 C279.19870194 112.16076313 273.40704195 111.43817427 267.61525118 110.71661511 C265.15593171 110.41008007 262.6966724 110.10306194 260.23747408 109.79555646 C256.81248269 109.36765641 253.38720124 108.94216129 249.96182406 108.51736203 C248.94260867 108.38959378 247.92339327 108.26182553 246.87329257 108.13018551 C245.94268008 108.01527768 245.01206759 107.90036984 244.05325472 107.78197995 C243.24438059 107.68133677 242.43550646 107.58069359 241.602121 107.47700062 C238.18909225 107.12866703 235.01360803 107.40256597 231.62504733 107.81994382 Z M93.51455843 261.26394406 C93.31636508 261.88358029 93.11817172 262.50321652 92.9139725 263.14162961 C88.31641791 277.49438221 83.6645008 291.8287391 78.95987093 306.14675656 C78.55260272 307.38625561 78.1453345 308.62575467 77.72572482 309.9028143 C77.09318356 311.82775082 76.46061711 313.75267906 75.82802641 315.67759934 C75.18184578 317.64387282 74.53569271 319.61015535 73.88955843 321.57644406 C73.67516242 322.22887459 73.4607664 322.88130513 73.23987353 323.55350628 C66.2142673 344.93606715 59.28265143 366.34684412 52.45157015 387.79250851 C52.13848406 388.77522229 51.82539797 389.75793606 51.50282443 390.77042904 C50.92891504 392.57288408 50.3556581 394.37554707 49.78325045 396.17847958 C49.52692339 396.98430981 49.27059634 397.79014004 49.00650179 398.62038937 C48.76229495 399.38887204 48.5180881 400.1573547 48.26648104 400.94912472 C47.24427954 404.09600683 46.15881225 407.22058131 45.06218112 410.34225217 C44.37752922 412.41176779 44.37752922 412.41176779 44.51455843 415.26394406 C49.45883325 413.57995343 53.59031453 410.82104716 57.95205843 408.01394406 C58.77826693 407.4867175 59.60447543 406.95949093 60.45572054 406.41628781 C62.22728996 405.28566079 63.99784861 404.15344873 65.76748812 403.01980343 C68.51375797 401.2644557 71.26687633 399.52039444 74.02237093 397.77956906 C75.87397581 396.60776102 77.72553922 395.43588745 79.57705843 394.26394406 C80.40068881 393.74412961 81.22431918 393.22431515 82.07290804 392.68874875 C90.98526799 387.0299443 99.74374036 381.13860838 108.51455843 375.26394406 C107.30801662 365.26372728 106.09957468 355.26374097 104.88955843 345.26394406 C104.79967654 344.52113438 104.70979464 343.77832471 104.61718905 343.01300564 C101.31818636 315.75464007 97.95189694 288.50524775 94.51455843 261.26394406 C94.18455843 261.26394406 93.85455843 261.26394406 93.51455843 261.26394406 Z M381.51455843 262.26394406 C380.41789572 264.4572695 380.19902446 266.06566674 379.90077364 268.49497738 C379.79001498 269.38240124 379.67925631 270.2698251 379.56514132 271.18414059 C379.447177 272.1602731 379.32921267 273.13640561 379.20767367 274.14211789 C379.08073123 275.16825696 378.95378878 276.19439602 378.8229996 277.25163022 C378.40267341 280.65763354 377.98778034 284.06427399 377.57315218 287.47097531 C377.28335603 289.8327141 376.99331894 292.19442333 376.70305026 294.55610409 C376.09462981 299.51319872 375.4888362 304.47060539 374.88491976 309.4282507 C374.11048057 315.78436079 373.330055 322.13971822 372.54771483 328.49486008 C371.94753957 333.37501114 371.35030592 338.25551865 370.753986 343.13614216 C370.46736828 345.47941947 370.17988995 347.82259168 369.89154017 350.16565648 C369.48875826 353.44261444 369.0898769 356.72002411 368.69204867 359.99758664 C368.51206583 361.45267636 368.51206583 361.45267636 368.32844698 362.93716183 C368.22050814 363.83304516 368.1125693 364.7289285 368.00135958 365.65195981 C367.8595081 366.81367058 367.8595081 366.81367058 367.71479094 367.99885026 C367.49756905 370.45613339 367.36116965 372.79953887 367.51455843 375.26394406 C369.33989079 377.17383908 369.33989079 377.17383908 371.87393343 378.66628781 C372.7911014 379.26296261 373.70826937 379.85963742 374.65323031 380.47439328 C375.59746859 381.06494504 376.54170687 381.65549679 377.51455843 382.26394406 C378.35051547 382.8068005 379.1864725 383.34965695 380.04776156 383.90896359 C382.60779566 385.5681517 385.18374871 387.19978197 387.76455843 388.82644406 C389.68908809 390.04511433 391.61356566 391.26386686 393.53799593 392.48269406 C394.51865023 393.10273312 395.49930453 393.72277218 396.50967562 394.36160031 C401.47638569 397.50594585 406.4322822 400.66725501 411.38955843 403.82644406 C413.97625233 405.47486846 416.56342567 407.12243862 419.15420687 408.76443234 C420.72398927 409.76170205 422.28978944 410.76526875 423.8514725 411.77517453 C424.56786898 412.23424191 425.28426547 412.69330929 426.02237093 413.16628781 C426.6503055 413.57226193 427.27824008 413.97823605 427.92520297 414.39651242 C429.50537416 415.42363386 429.50537416 415.42363386 431.51455843 415.26394406 C429.45515754 407.29456692 427.02191249 399.48155193 424.42871058 391.67087498 C423.73831413 389.59118615 423.05159129 387.51031254 422.36564791 385.42915097 C420.89759294 380.97720772 419.42509683 376.52674045 417.95205843 372.07644406 C416.03089027 366.27150798 414.11192513 360.46585412 412.19815218 354.65847531 C411.9611661 353.93944405 411.72418002 353.22041279 411.48001254 352.47959271 C406.6779408 337.8929884 402.09750931 323.24062926 397.54596102 308.57433835 C395.45780921 301.87219708 393.30576524 295.1912207 391.13955843 288.51394406 C390.74123812 287.28031125 390.34291781 286.04667843 389.93252718 284.77566281 C387.50099658 277.2578485 385.02709789 269.75506581 382.51455843 262.26394406 C382.18455843 262.26394406 381.85455843 262.26394406 381.51455843 262.26394406 Z M35.51455843 274.26394406 C25.30621445 324.85437175 16.58329735 375.75589972 7.76962435 426.60390607 C7.26720561 429.49869182 6.76295288 432.39315268 6.25821078 435.28753415 C5.46035378 439.86488519 4.66804039 444.44316333 3.87992251 449.02220097 C3.5892215 450.70671429 3.29681717 452.39093475 3.00252688 454.07482472 C1.42401095 463.11639623 0.04596057 472.08698426 -0.48544157 481.26394406 C2.79353092 477.39149239 5.37672136 473.27795653 7.88955843 468.88894406 C12.56825355 460.82469194 17.38873229 452.85307929 22.2523514 444.89919797 C23.36486324 443.07857641 24.45838817 441.24621237 25.53231966 439.40257016 C27.51455843 436.26394406 27.51455843 436.26394406 29.80298007 433.58866635 C39.56713816 420.90862661 37.67479733 405.25891857 37.42710388 390.0594584 C37.37031393 385.9797221 37.36551434 381.8999076 37.35487521 377.819837 C37.32705476 370.1168037 37.25341203 362.41493889 37.1627298 354.71241698 C37.06165132 345.93368392 37.01252905 337.15489097 36.96747088 328.37571958 C36.87374467 310.337802 36.71574598 292.30096742 36.51455843 274.26394406 C36.18455843 274.26394406 35.85455843 274.26394406 35.51455843 274.26394406 Z M439.51455843 276.26394406 C439.35893853 291.00065284 439.2109911 305.73742484 439.07159483 320.474296 C439.0066668 327.32055989 438.93944896 334.16678541 438.86636508 341.0129675 C438.79556321 347.64603746 438.73177057 354.27915325 438.6718632 360.91233197 C438.64817812 363.41628352 438.62232049 365.9202157 438.5940243 368.42411938 C438.50139736 376.70477583 438.47129128 384.98286316 438.51455843 393.26394406 C438.51686669 393.91537349 438.51917495 394.56680293 438.52155316 395.23797265 C438.5408295 399.98016745 438.61204559 404.719334 438.70230258 409.4607214 C438.70951295 410.70287223 438.71672333 411.94502305 438.72415221 413.2248148 C438.97166249 422.88370975 441.56001611 429.51604894 447.63565218 436.99441281 C452.40212338 443.2337198 456.23641885 450.00646712 460.1842972 456.77865353 C462.20632704 460.24416988 464.24895029 463.69745231 466.29190218 467.15066281 C466.66609286 467.78427731 467.04028353 468.41789181 467.42581332 469.07070675 C470.05443312 473.51326588 472.74622474 477.90731387 475.51455843 482.26394406 C476.47967893 479.16748431 476.49847051 476.9618637 475.93850863 473.77905026 C475.78489461 472.88252492 475.6312806 471.98599957 475.47301161 471.06230679 C475.29658535 470.08325627 475.12015908 469.10420575 474.93838656 468.09548703 C474.75752159 467.05467229 474.57665661 466.01385754 474.39031088 464.94150296 C473.78343537 461.46160027 473.16468718 457.98391804 472.54580843 454.50613156 C472.11336882 452.04251088 471.68159413 449.57877341 471.25044405 447.11492673 C470.2090139 441.17566413 469.15969556 435.23784539 468.10647219 429.30066684 C467.25880523 424.52102962 466.41491602 419.74073905 465.57354891 414.95998898 C457.42969216 368.68987947 449.0925032 322.45565232 440.51455843 276.26394406 C440.18455843 276.26394406 439.85455843 276.26394406 439.51455843 276.26394406 Z M111.51455843 379.26394406 C111.1738132 379.80493741 110.83306798 380.34593075 110.48199713 380.90331784 C110.03363973 381.61513211 109.58528233 382.32694638 109.12333834 383.06033078 C108.457533 384.11738721 108.457533 384.11738721 107.77827704 385.19579831 C102.40891227 393.71750844 97.00384931 402.21620167 91.57705843 410.70144406 C90.90674593 411.7500964 90.23643343 412.79874875 89.54580843 413.87917843 C86.25764845 419.0141566 82.95164687 424.1360036 79.60440218 429.23269406 C78.99781771 430.15767697 78.39123324 431.08265988 77.76626742 432.03567258 C76.62277093 433.77585908 75.47531961 435.51345506 74.32339633 437.24807492 C73.56724032 438.39868405 73.56724032 438.39868405 72.79580843 439.57253781 C72.35301547 440.24083615 71.9102225 440.90913449 71.45401156 441.59768429 C70.35084926 443.23549835 70.35084926 443.23549835 70.51455843 445.26394406 C79.5535474 442.95435123 88.37124288 440.0551848 97.20596468 437.07644406 C98.77189907 436.55113012 100.33794779 436.02615687 101.90410006 435.50149289 C105.29855442 434.36403672 108.69250574 433.2250959 112.08615267 432.08523312 C120.6848461 429.19853779 129.28972794 426.330354 137.89387286 423.45995846 C141.94237605 422.10933518 145.99074771 420.75831788 150.03911936 419.40730038 C152.08305862 418.7252182 154.12701286 418.04318092 156.170982 417.36118832 C161.3734195 415.62530337 166.57565174 413.88880739 171.77749789 412.15115109 C176.92789325 410.4307141 182.07878529 408.71177177 187.23001444 406.99383298 C189.1592545 406.35014445 191.08832069 405.70593455 193.0171963 405.06115475 C203.14839418 401.67485939 213.2808509 398.33008718 223.51455843 395.26394406 C219.69216708 392.89033531 215.56199613 392.53204664 211.19204867 391.96706906 C209.93485018 391.79588559 209.93485018 391.79588559 208.65225375 391.62124386 C205.87677535 391.2451742 203.10004238 390.87943116 200.32315218 390.51394406 C198.37891043 390.25309932 196.43474338 389.99169716 194.49064791 389.72976437 C190.40487078 389.18077788 186.31850037 388.63653126 182.23159945 388.09597531 C177.04691711 387.41013772 171.86340759 386.71590347 166.68028319 386.01839963 C162.65572643 385.47724271 158.63076846 384.93912152 154.60567057 384.40200558 C152.69824265 384.14742443 150.7908851 383.89231544 148.8836056 383.63662472 C136.44543721 381.97281708 124.00148549 380.51142481 111.51455843 379.26394406 Z M357.31475985 379.78197995 C355.99407755 379.9543417 355.99407755 379.9543417 354.64671481 380.13018551 C353.67836199 380.25795376 352.71000918 380.38572201 351.71231234 380.51736203 C350.69432055 380.65069943 349.67632876 380.78403683 348.62748873 380.92141476 C345.24847534 381.36463437 341.86976188 381.81008208 338.49112093 382.25613156 C337.33952864 382.40809113 336.18793635 382.5600507 335.00144732 382.71661511 C328.90824897 383.52112881 322.81532305 384.32767572 316.72256625 385.13552609 C311.67132329 385.80486688 306.61956199 386.47007047 301.56729281 387.13161984 C295.47577482 387.92925718 289.38522118 388.73389746 283.29530108 389.54364148 C280.97116739 389.85148433 278.64670542 390.15685899 276.32192004 390.45974103 C273.07221004 390.8836721 269.82381896 391.31659719 266.57559359 391.75173703 C265.61128924 391.87545682 264.64698489 391.9991766 263.65345919 392.12664548 C262.76736468 392.24719296 261.88127017 392.36774045 260.9683243 392.49194089 C260.20030301 392.59333811 259.43228171 392.69473534 258.64098704 392.79920521 C256.35307982 393.29923581 254.55755866 394.134541 252.51455843 395.26394406 C274.28026349 402.552566 296.05244138 409.81674711 317.88955843 416.88894406 C336.86212394 423.03404943 355.78493607 429.32571968 374.70205843 435.63894406 C375.42159449 435.87907475 376.14113055 436.11920544 376.88247073 436.36661282 C385.76069474 439.32981311 394.63804121 442.29563453 403.51455843 445.26394406 C403.84455843 444.60394406 404.17455843 443.94394406 404.51455843 443.26394406 C403.68103195 441.3958449 403.68103195 441.3958449 402.33096468 439.35378781 C401.56997469 438.1352612 401.56997469 438.1352612 400.79361117 436.89211789 C399.94391757 435.56023434 399.94391757 435.56023434 399.07705843 434.20144406 C398.20319491 432.8125195 398.20319491 432.8125195 397.31167758 431.39553586 C395.38834706 428.3458462 393.45223636 425.30453499 391.51455843 422.26394406 C390.85552523 421.22463742 390.19649203 420.18533078 389.51748812 419.11453 C384.88452781 411.80844834 380.21447242 404.52712158 375.51455843 397.26394406 C374.90531527 396.32067258 374.29607211 395.37740109 373.66836703 394.40554562 C372.00083071 391.83166944 370.32279193 389.2650743 368.63955843 386.70144406 C368.14576693 385.93936642 367.65197543 385.17728879 367.14322054 384.39211789 C365.98683683 382.6463183 364.75821349 380.94868784 363.51455843 379.26394406 C361.39546744 379.26394406 359.41661334 379.50627782 357.31475985 379.78197995 Z M94.61221468 389.68581906 C93.81420443 390.21054806 93.01619418 390.73527707 92.19400179 391.27590695 C91.33041049 391.8494592 90.46681918 392.42301144 89.57705843 393.01394406 C87.74700483 394.21679542 85.91625933 395.41859469 84.08487093 396.61941281 C82.68736605 397.53666134 82.68736605 397.53666134 81.26162875 398.47244015 C77.95267462 400.630377 74.62289731 402.75285448 71.28042758 404.85842648 C69.71839581 405.84327465 68.16031514 406.83441548 66.60611117 407.83157101 C62.65687419 410.35336307 58.69186903 412.73659518 54.55752718 414.94363156 C42.02555955 421.82686524 36.00630542 429.66103659 29.26309359 442.11404172 C26.24714244 447.54713327 22.95962981 452.8150872 19.70700228 458.10867062 C17.25108632 462.11391098 14.82305213 466.13603692 12.39785922 470.15994015 C11.16124352 472.1980957 9.91001007 474.22746765 8.6429764 476.24685422 C8.08368441 477.14581418 7.52439242 478.04477414 6.94815218 478.97097531 C6.45242709 479.75577267 5.95670199 480.54057004 5.44595492 481.34914914 C5.13859408 481.98103146 4.83123324 482.61291379 4.51455843 483.26394406 C4.84455843 483.92394406 5.17455843 484.58394406 5.51455843 485.26394406 C6.01568148 484.93821408 6.51680453 484.6124841 7.03311312 484.27688351 C7.74370883 483.81499631 8.45430453 483.3531091 9.18643343 482.87722531 C9.98589388 482.35757199 10.78535433 481.83791867 11.60904086 481.30251828 C13.40345963 480.13615433 15.19789361 478.96981378 16.99234164 477.80349484 C21.56129345 474.83381523 26.13004427 471.86382791 30.69815218 468.89285031 C31.52822787 468.35378049 32.35830355 467.81471066 33.21353304 467.25930539 C34.8772014 466.17603581 36.53816657 465.08860373 38.1964432 463.99709836 C42.15458799 461.39960245 46.12454267 458.88283373 50.23330843 456.52956906 C60.06722381 450.79902929 65.17845701 445.4932452 70.34219515 435.42263547 C72.58345056 431.29577576 75.23531932 427.42630254 77.82705843 423.51394406 C78.93778806 421.81821601 80.04715533 420.12159483 81.15518343 418.42410031 C81.98566195 417.15203732 81.98566195 417.15203732 82.83291781 415.85427609 C85.61224683 411.57310871 88.34918441 407.26552788 91.07705843 402.95144406 C91.56537142 402.18155148 92.05368441 401.4116589 92.55679476 400.61843625 C95.32704412 396.22741458 97.97282656 391.79121706 100.51455843 387.26394406 C97.86604359 387.26394406 96.81663819 388.22475059 94.61221468 389.68581906 Z M375.51455843 387.26394406 C376.89092272 391.01789528 378.61531723 394.20068513 380.78799593 397.55300656 C381.76929476 399.07534909 381.76929476 399.07534909 382.77041781 400.62844601 C383.46973422 401.70441037 384.16905062 402.78037472 384.88955843 403.88894406 C385.98049699 405.57749324 387.06992745 407.26700892 388.15927279 408.95658627 C388.8915713 410.09218655 389.62436039 411.22747062 390.35763705 412.36243954 C393.10879377 416.62308219 395.82442033 420.90489204 398.52139437 425.19997922 C399.97830765 427.51874864 401.44463538 429.83131777 402.91299593 432.14285031 C404.53324834 434.69542344 406.12195876 437.26202554 407.67862093 439.85378781 C412.086628 446.95752828 416.39569884 450.97665081 423.51455843 455.26394406 C424.91516209 456.14985156 426.31340273 457.03950077 427.70987093 457.93191281 C432.62840886 461.06884356 437.57049586 464.16745393 442.51455843 467.26394406 C445.93307952 469.40684026 449.34934145 471.55328702 452.76455843 473.70144406 C453.92459383 474.42690426 453.92459383 474.42690426 455.10806429 475.16702023 C459.6955859 478.05245253 464.13458807 481.07166407 468.51455843 484.26394406 C469.17455843 483.93394406 469.83455843 483.60394406 470.51455843 483.26394406 C465.14046517 473.44615611 459.4838403 463.84755213 453.54092562 454.36282101 C450.70428202 449.8287398 447.91667911 445.27676876 445.22549593 440.65456906 C444.69609408 439.74996945 444.16669222 438.84536984 443.62124789 437.91335812 C442.62077322 436.1968125 441.62913037 434.47507639 440.64810336 432.7473425 C435.94011156 424.69935086 429.49051487 420.44815309 421.70205843 415.63894406 C419.99973745 414.57593918 418.29792445 413.51212041 416.59658968 412.44753781 C415.31775912 411.64872189 415.31775912 411.64872189 414.01309359 410.83376828 C410.28313237 408.49024174 406.58427687 406.10002095 402.88955843 403.70144406 C402.2078055 403.26002072 401.52605258 402.81859738 400.82364047 402.36379758 C397.1225904 399.9652274 393.43062756 397.55337469 389.74502718 395.13113156 C388.96401644 394.62009884 388.1830057 394.10906613 387.37832797 393.58254758 C385.87288329 392.59728467 384.36984541 391.60833192 382.8695389 390.61526242 C379.47547712 388.1375183 379.47547712 388.1375183 375.51455843 387.26394406 Z M227.81460726 398.24490109 C226.84758285 398.56272235 226.84758285 398.56272235 225.86102259 398.88696423 C223.72833601 399.59018726 221.60007901 400.30593994 219.47158968 401.02175656 C217.96077364 401.52253205 216.4496846 402.0224846 214.93834078 402.52166501 C210.89990985 403.85779899 206.86507723 405.20450069 202.83081973 406.55317441 C198.64860112 407.94922259 194.46311556 409.33539676 190.27774203 410.72195187 C185.28625971 412.37604403 180.29496679 414.03068563 175.30508578 415.68960324 C163.6116978 419.57653517 151.90122365 423.40755533 140.17501986 427.19442502 C127.02420037 431.44507024 113.89704731 435.76411359 100.81161654 440.21230832 C99.25905574 440.73977498 97.70588813 441.26545947 96.15207064 441.78921261 C94.05070736 442.49864946 91.95218665 443.21587986 89.85440218 443.93581906 C88.67225131 444.33897336 87.49010043 444.74212765 86.27212679 445.15749875 C83.42722428 446.08931997 83.42722428 446.08931997 81.51455843 448.26394406 C184.80455843 448.26394406 288.09455843 448.26394406 394.51455843 448.26394406 C392.30897645 446.05836208 390.99189488 445.59026186 388.06779635 444.61686459 C386.66285922 444.14435773 386.66285922 444.14435773 385.22953951 443.66230527 C383.68175059 443.15199513 383.68175059 443.15199513 382.1026932 442.6313757 C381.01745364 442.26836362 379.93221407 441.90535153 378.81408846 441.53133908 C375.1966467 440.32304141 371.57637731 439.12346435 367.95596468 437.92410031 C365.41935403 437.07935919 362.8828848 436.23420378 360.34657443 435.38856259 C354.99856883 433.60652011 349.64903313 431.82913564 344.29849398 430.05471554 C338.87522634 428.25614539 333.45328445 426.45366039 328.03286898 424.64651242 C292.48411612 412.77430518 292.48411612 412.77430518 256.83125269 401.22036305 C255.37163692 400.75477188 253.91286689 400.28651905 252.45505106 399.81532231 C250.51537578 399.18972544 248.57159508 398.57689915 246.62759554 397.96487179 C245.57817278 397.63172467 244.52875002 397.29857754 243.44752657 396.95533505 C237.6823484 395.59630486 233.38008291 396.39203375 227.81460726 398.24490109 Z M476.51455843 447.26394406 C477.51455843 451.26394406 477.51455843 451.26394406 477.51455843 451.26394406 Z M43.74626696 465.51441327 C40.2375439 468.26504982 36.4778742 470.58958719 32.70205843 472.95144406 C31.35150347 473.82528341 30.00232873 474.70126358 28.65518343 475.58035031 C25.67334806 477.51710281 22.68224913 479.43873351 19.68643343 481.35378781 C18.89470736 481.86143674 18.10298129 482.36908566 17.28726351 482.89211789 C15.75762343 483.87259079 14.22626947 484.85039618 12.69302523 485.82522336 C10.94963347 486.94507379 9.22932535 488.10073546 7.51455843 489.26394406 C7.51455843 489.59394406 7.51455843 489.92394406 7.51455843 490.26394406 C15.67863246 489.69163782 23.59780954 488.45475462 31.63174593 486.92019406 C33.60954441 486.54948948 35.58734372 486.17878931 37.56516993 485.80823269 C39.6940391 485.40844071 41.8224353 485.00621359 43.95071566 484.60329953 C50.88541116 483.29081028 57.82310858 481.99432421 64.76060641 480.69674435 C66.42546672 480.38528521 68.09029172 480.07363722 69.75508273 479.76180783 C84.13423242 477.06872179 98.52154736 474.42171547 112.91299593 471.79519406 C113.94433028 471.60694562 114.97566462 471.41869717 116.03825152 471.22474423 C125.29035193 469.53632436 134.54288555 467.85028551 143.7957474 466.16604367 C149.5615949 465.11645126 155.32725937 464.06586004 161.09268343 463.01394406 C161.99901145 462.84858655 162.90533946 462.68322903 163.83913195 462.51286069 C178.41496197 459.85128392 192.9747176 457.11643546 207.51455843 454.26394406 C207.51455843 453.93394406 207.51455843 453.60394406 207.51455843 453.26394406 C189.11975948 452.93508887 170.72573595 452.68915154 152.32862055 452.53857365 C143.78396141 452.46675927 135.24114131 452.36908721 126.6976639 452.20779172 C119.24017894 452.0670677 111.78402689 451.97765694 104.32525086 451.94670513 C100.38476281 451.92864394 96.44808329 451.88705777 92.50883257 451.78372326 C73.25965875 451.29844251 59.34237828 452.94376868 43.74626696 465.51441327 Z M268.51455843 453.26394406 C268.51455843 453.59394406 268.51455843 453.92394406 268.51455843 454.26394406 C279.86949783 456.34316194 291.22456849 458.42166209 302.57972109 460.49971524 C305.38611141 461.01331322 308.1924921 461.52696375 310.9988724 462.04061642 C330.31978757 465.57672489 349.64112767 469.1103395 368.96768343 472.61550656 C370.39806328 472.8750094 371.82844252 473.13451559 373.25882113 473.39402524 C378.73436409 474.38729302 384.2099255 475.3804544 389.68594515 476.37109128 C403.5094216 478.87207769 417.32618455 481.4014923 431.12393343 484.04128781 C432.26542849 484.25891781 433.40692355 484.47654782 434.58300936 484.70077267 C439.87767413 485.71069349 445.1705071 486.72861917 450.46035922 487.76345578 C452.28825998 488.11419947 454.11621848 488.46464247 455.94424593 488.81472531 C456.76366671 488.97859234 457.58308749 489.14245938 458.4273392 489.31129208 C462.14368998 490.01467188 464.89573558 490.35807895 468.51455843 489.26394406 C457.97670583 482.37619569 447.42134194 475.52136558 436.75161898 468.83913937 C436.05077181 468.39924679 435.34992465 467.95935422 434.62783968 467.50613156 C433.87950366 467.05990948 433.13116763 466.61368741 432.36015475 466.15394345 C430.17103692 464.69996653 428.40224825 463.30950958 426.46225131 461.57883969 C413.22251506 450.54999971 397.98484263 451.81634819 381.71307218 452.14861074 C377.72284349 452.21816542 373.73248795 452.2238977 369.74174654 452.23689023 C362.21201958 452.27085252 354.68408473 452.36079981 347.15514106 452.47173461 C338.57233552 452.59540654 329.98943673 452.65534525 321.40595961 452.7103844 C303.77446217 452.82484594 286.14470076 453.01786989 268.51455843 453.26394406 Z M229.62393343 454.67019406 C228.35063929 454.90401539 228.35063929 454.90401539 227.05162203 455.14256039 C224.12225626 455.68116716 221.19340992 456.2225481 218.26455843 456.76394406 C216.12451666 457.15814207 213.9844608 457.55226358 211.84439242 457.94631711 C197.37311421 460.614103 182.90640018 463.30631617 168.44033968 466.00222531 C166.65532597 466.33485736 164.87031213 466.66748878 163.08529818 467.0001196 C161.27184186 467.33806054 159.45838565 467.67600203 157.64492953 468.01394406 C154.88246616 468.52872751 152.12000265 469.04351025 149.35753787 469.5582861 C147.50404221 469.90369543 145.65055201 470.24913406 143.79706728 470.59460202 C108.05515117 477.25627054 72.29348328 483.80412012 36.51455843 490.26394406 C36.51455843 490.59394406 36.51455843 490.92394406 36.51455843 491.26394406 C169.83455843 491.26394406 303.15455843 491.26394406 440.51455843 491.26394406 C440.51455843 490.93394406 440.51455843 490.60394406 440.51455843 490.26394406 C419.18011226 486.32512894 397.84557052 482.38683186 376.51092017 478.44912282 C366.60103753 476.6200565 356.69118423 474.79083153 346.78140414 472.96120968 C338.12666946 471.36330468 329.47187552 469.76572113 320.81701523 468.16849664 C316.25015718 467.32568793 311.68332557 466.48273666 307.11656535 465.63939801 C295.58340321 463.50966948 284.04953319 461.3838339 272.51455843 459.26394406 C271.70898674 459.11581674 270.90341505 458.96768942 270.07343209 458.8150734 C265.33105579 457.94321239 260.58831809 457.07336635 255.84501314 456.20657125 C254.38902227 455.94026304 252.93313866 455.67336766 251.47736907 455.40585247 C249.49299932 455.04136139 247.50817782 454.67933232 245.52333224 454.31744137 C244.40570215 454.11296446 243.28807206 453.90848755 242.13657439 453.69781438 C237.77641222 452.97632947 233.9213204 453.87407253 229.62393343 454.67019406 Z " fill="#000000" transform="translate(97.48544156551361,157.73605594038963)"/>
</svg>
