<svg width="200" height="200" viewBox="0 0 100 100" fill="none" xmlns="http://www.w3.org/2000/svg">
  <!-- Outer Circle -->
  <circle cx="50" cy="50" r="44" stroke="black" stroke-width="2" fill="none"></circle>

  <!-- Inner Facet Ring -->
  <polygon points="50,18 68,24 80,38 82,50 80,62 68,76 50,82 32,76 20,62 18,50 20,38 32,24" stroke="black" stroke-width="1.5" fill="none"></polygon>

  <!-- Center Facet -->
  <polygon points="50,34 62,42 58,56 42,56 38,42" stroke="black" stroke-width="1.5" fill="none"></polygon>

  <!-- Facet Lines -->
  <line x1="50" y1="18" x2="50" y2="34" stroke="black" stroke-width="1"></line>
  <line x1="68" y1="24" x2="62" y2="42" stroke="black" stroke-width="1"></line>
  <line x1="80" y1="38" x2="62" y2="42" stroke="black" stroke-width="1"></line>
  <line x1="82" y1="50" x2="58" y2="56" stroke="black" stroke-width="1"></line>
  <line x1="80" y1="62" x2="58" y2="56" stroke="black" stroke-width="1"></line>
  <line x1="68" y1="76" x2="58" y2="56" stroke="black" stroke-width="1"></line>

  <line x1="50" y1="82" x2="42" y2="56" stroke="black" stroke-width="1"></line>
  <line x1="32" y1="76" x2="42" y2="56" stroke="black" stroke-width="1"></line>
  <line x1="20" y1="62" x2="42" y2="56" stroke="black" stroke-width="1"></line>
  <line x1="18" y1="50" x2="38" y2="42" stroke="black" stroke-width="1"></line>
  <line x1="20" y1="38" x2="38" y2="42" stroke="black" stroke-width="1"></line>
  <line x1="32" y1="24" x2="38" y2="42" stroke="black" stroke-width="1"></line>
</svg>